<?xml version="1.0" encoding="UTF-8"?>
<svg width="18px" height="19px" viewBox="0 0 18 19" version="1.1" xmlns="http://www.w3.org/2000/svg" xmlns:xlink="http://www.w3.org/1999/xlink">
    <title>Shape</title>
    <g id="FullHd" stroke="none" stroke-width="1" fill="none" fill-rule="evenodd">
        <g id="BBC_mainFloor-1" transform="translate(-1389.000000, -354.000000)" fill="#7B612F">
            <g id="popup_" transform="translate(1372.000000, 343.000000)">
                <g id="Group" transform="translate(17.000000, 10.000000)">
                    <path d="M6.04682229,13.6047535 C5.95208232,13.4533554 5.87669284,13.3584606 5.74371632,13.1883311 C5.63024509,13.0748599 5.47884691,13.0174277 5.30856267,13.0547354 C5.06304374,13.1121676 4.91149076,13.3584606 4.96814897,13.6047535 L5.0054567,13.7750378 C5.02496199,13.831696 5.06304374,13.9451672 5.0816202,14.040062 C5.10097069,14.134802 5.11970195,14.2289227 5.13843322,14.3228886 C5.15700968,14.5132974 5.15700968,14.7013841 5.11970195,14.8716683 C5.0816202,15.0611483 5.02496199,15.2134753 4.93006722,15.4216865 L4.6083848,16.1210903 C4.49491356,16.3673833 4.4001736,16.6324075 4.32478412,16.9347394 C4.24939464,17.2370714 4.21131289,17.5595278 4.24939464,17.9007155 C4.28670237,18.5620376 4.6083848,19.1487443 4.96814897,19.5838979 C5.10097069,19.7354509 5.30856267,19.7922639 5.4981974,19.7354509 C5.74371632,19.641485 5.87669284,19.3756867 5.78179807,19.130787 L5.78179807,19.1106625 C5.63024509,18.6575516 5.51677386,18.2604797 5.53627915,17.880591 C5.55485561,17.5020956 5.68705811,17.1243741 5.87669284,16.6697152 C5.9714328,16.4429275 6.08490404,16.2159851 6.179644,15.9509609 C6.29311523,15.6665862 6.38723598,15.3261725 6.38723598,15.0051093 C6.40658646,14.6646956 6.34992825,14.3430131 6.25503348,14.0199375 C6.19837527,13.888509 6.12221177,13.736956 6.04682229,13.6047535 L6.04682229,13.6047535 Z M17.7609854,9.25151411 C17.7229036,9.17612463 17.6662454,9.09996113 17.6094324,9.0626534 L12.5947161,5.69381174 C12.5380578,5.6558848 12.4812448,5.59907178 12.4245866,5.54241356 C12.2162206,5.33404756 12.1027494,5.05044689 12.1027494,4.74734093 L12.1027494,2.26846668 C12.1027494,2.15422142 12.0648224,2.06010068 11.9892782,1.96613473 C11.8945382,1.8526635 11.7617165,1.7765 11.6109375,1.7765 L6.9171296,1.7765 C6.72826889,1.7765 6.57687071,1.88997123 6.50132643,2.02279295 C6.50132643,2.04075019 6.48197594,2.04075019 6.48197594,2.06010068 C6.46339948,2.09818243 6.46339948,2.15422142 6.46339948,2.19292239 C6.44389419,2.24973541 6.42531773,2.26846668 6.42531773,2.26846668 L6.42531773,4.72938368 C6.42531773,4.86081216 6.38723598,4.97428339 6.34992825,5.1071051 C6.3118465,5.22057633 6.25503348,5.33404756 6.179644,5.42894233 C6.1034805,5.5236823 6.02809102,5.61842226 5.91461979,5.69381174 L0.937365999,9.0626534 C0.823894768,9.13726886 0.76708175,9.25151411 0.747731267,9.38433582 C0.747731267,9.42241757 0.729,9.44114884 0.729,9.45972531 L0.729,10.7473838 C0.729,10.8788123 0.785813018,10.9922835 0.861202499,11.0877975 C0.955942462,11.1825375 1.06941369,11.219226 1.20223541,11.219226 L17.3258317,11.219226 C17.4578794,11.219226 17.5713506,11.162413 17.6662454,11.0877975 C17.6855959,11.068447 17.7041724,11.0309845 17.7229036,11.012408 C17.7609854,10.9542018 17.7803359,10.8788123 17.7990671,10.8026488 C17.7990671,10.7839175 17.8176436,10.7661151 17.8176436,10.7473838 L17.8176436,9.45972531 C17.8176436,9.40229307 17.7990671,9.32767761 17.7609854,9.25151411 L17.7609854,9.25151411 Z M13.9384136,13.6047535 C13.8435188,13.4533554 13.7681293,13.3584606 13.6353076,13.1883311 C13.5218364,13.0748599 13.3702834,13.0174277 13.200154,13.0547354 C12.953861,13.1121676 12.8029273,13.3584606 12.8597403,13.6047535 L12.897822,13.7750378 C12.9163985,13.831696 12.953861,13.9451672 12.9732115,14.040062 C12.991788,14.134802 13.0112933,14.2289227 13.0298697,14.3228886 C13.048601,14.5132974 13.048601,14.7013841 13.0112933,14.8716683 C12.9732115,15.0611483 12.9163985,15.2134753 12.8216585,15.4216865 L12.4999761,16.1210903 C12.3865049,16.3673833 12.2916101,16.6324075 12.2162206,16.9347394 C12.1402119,17.2370714 12.1027494,17.5595278 12.1402119,17.9007155 C12.1781389,18.5620376 12.4999761,19.1487443 12.8597403,19.5838979 C12.991788,19.7354509 13.200154,19.7922639 13.3896339,19.7354509 C13.6353076,19.641485 13.7681293,19.3756867 13.6733894,19.130787 L13.6733894,19.1106625 C13.5218364,18.6575516 13.4083652,18.2604797 13.4270964,17.880591 C13.4464469,17.5020956 13.5784946,17.1243741 13.7681293,16.6697152 C13.8630241,16.4429275 13.9763405,16.2159851 14.0704613,15.9509609 C14.1847065,15.6665862 14.2786725,15.3261725 14.2786725,15.0051093 C14.2981778,14.6646956 14.2413647,14.3430131 14.1278935,14.0199375 C14.0898118,13.888509 14.0331536,13.736956 13.9384136,13.6047535 L13.9384136,13.6047535 Z M10.0022158,13.6047535 C9.90747581,13.4533554 9.83208633,13.3584606 9.69926462,13.1883311 C9.58579339,13.0748599 9.43424041,13.0174277 9.26411096,13.0547354 C9.01766321,13.1121676 8.86688425,13.3584606 8.92292325,13.6047535 L8.961005,13.7750378 C8.98035548,13.831696 9.01766321,13.9451672 9.0371685,14.040062 C9.05574496,14.134802 9.07447623,14.2289227 9.09382671,14.3228886 C9.11255798,14.5132974 9.11255798,14.7013841 9.07447623,14.8716683 C9.0371685,15.0611483 8.98035548,15.2134753 8.88561552,15.4216865 L8.56393309,16.1210903 C8.45046186,16.3673833 8.35556709,16.6511387 8.28017761,16.9542447 C8.20401411,17.2571959 8.16670638,17.5788783 8.20401411,17.919292 C8.24209586,18.5807689 8.56393309,19.1680947 8.92292325,19.6034032 C9.05574496,19.7549562 9.26411096,19.8116144 9.45297167,19.7549562 C9.69926462,19.6608354 9.83208633,19.3958112 9.73734637,19.1487443 L9.73734637,19.130787 C9.58579339,18.6755088 9.47232216,18.2790562 9.49089862,17.9007155 C9.50962989,17.5222201 9.6424516,17.1431054 9.83208633,16.6892205 C9.92620708,16.461504 10.0396783,16.2345615 10.1344183,15.9695373 C10.2478895,15.6859367 10.3426295,15.3449037 10.3426295,15.0230665 C10.3613607,14.6834268 10.3045477,14.3617444 10.2105818,14.040062 C10.1531495,13.888509 10.0776053,13.736956 10.0022158,13.6047535 L10.0022158,13.6047535 Z" id="Shape"></path>
                </g>
            </g>
        </g>
    </g>
</svg>