<?xml version="1.0" encoding="UTF-8"?>
<!DOCTYPE svg PUBLIC "-//W3C//DTD SVG 1.1//EN" "http://www.w3.org/Graphics/SVG/1.1/DTD/svg11.dtd">
<!-- Creator: CorelDRAW 2018 (64-Bit) -->
<svg xmlns="http://www.w3.org/2000/svg" xml:space="preserve" width="1104px" height="1080px" version="1.1" style="shape-rendering:geometricPrecision; text-rendering:geometricPrecision; image-rendering:optimizeQuality; fill-rule:evenodd; clip-rule:evenodd"
viewBox="0 0 1104 1079.712"
 xmlns:xlink="http://www.w3.org/1999/xlink">
 <defs>
  <style type="text/css">
   <![CDATA[
    .fil0 {fill:#FEFEFE}
   ]]>
  </style>
 </defs>
 <g id="Слой_x0020_1">
  <metadata id="CorelCorpID_0Corel-Layer"/>
  <path class="fil0" d="M64.431 160.818l-32.126 0 -16.152 0 0 -152.741 663.471 0 0 152.741 0 8.076 0 21.651 0 50.776c-0.002,-0.053 -0.082,-0.096 -0.179,-0.096l-162.414 0c-0.099,0 -0.179,0.044 -0.179,0.098l0 6.955 -0.001 0.008 0 -12.537 -60.537 0 0 -74.931 -2.39 0 -27.337 0 -83.462 0 0 5.575c0,-0.055 -0.069,-0.099 -0.153,-0.099l-139.36 0 -0.008 0 0 0 -0.007 0 -139.166 0 0 -5.476zm279.563 -80.283c-2.673,0.825 -4.224,2.904 -4.224,5.775 0,4.225 3.267,7.063 8.085,7.063 4.885,0 8.152,-2.904 8.152,-7.26 0,-3.07 -1.551,-4.654 -4.224,-5.578 2.112,-0.891 3.267,-2.607 3.267,-4.917 0,-3.531 -2.904,-6.039 -7.063,-6.039 -4.29,0 -7.293,2.508 -7.293,6.138 0,2.31 1.221,4.092 3.3,4.818zm3.96 -7.92c2.178,0 3.598,1.287 3.598,3.333 0,2.079 -1.42,3.366 -3.631,3.366 -2.211,0 -3.696,-1.353 -3.696,-3.366 0,-2.046 1.452,-3.333 3.729,-3.333zm-0.099 9.405c2.64,0 4.357,1.617 4.357,4.191 0,2.641 -1.584,4.192 -4.225,4.192 -2.706,0 -4.422,-1.65 -4.422,-4.29 0,-2.443 1.749,-4.093 4.29,-4.093zm0.034 -29.26c7.929,0 15.108,3.215 20.304,8.411 5.196,5.196 8.411,12.376 8.411,20.305 0,7.929 -3.215,15.108 -8.411,20.304 -5.196,5.197 -12.375,8.411 -20.304,8.411 -7.929,0 -15.109,-3.215 -20.305,-8.411 -5.196,-5.196 -8.411,-12.375 -8.411,-20.304 0,-7.929 3.215,-15.109 8.411,-20.305 5.196,-5.196 12.375,-8.411 20.305,-8.411zm16.997 11.718c-4.35,-4.35 -10.36,-7.04 -16.997,-7.04 -6.639,0 -12.648,2.69 -16.998,7.04 -4.35,4.35 -7.04,10.359 -7.04,16.998 0,6.638 2.69,12.648 7.04,16.997 4.35,4.35 10.359,7.041 16.998,7.041 6.638,0 12.647,-2.691 16.997,-7.041 4.35,-4.349 7.04,-10.359 7.04,-16.997 0,-6.638 -2.69,-12.648 -7.04,-16.998zm-127.239 565.577l-2.937 0 0 -14.653 -3.564 0 -9.901 14.092 0 3.73 9.802 0 0.033 5.478 3.63 0 0 -5.478 2.937 0 0 -3.169zm-6.534 0l-6.766 0 6.766 -9.999 0 9.999zm-1.667 -31.718c7.929,0 15.108,3.214 20.305,8.41 5.196,5.197 8.411,12.376 8.411,20.305 0,7.929 -3.215,15.108 -8.411,20.304 -5.197,5.197 -12.376,8.411 -20.305,8.411 -7.929,0 -15.108,-3.214 -20.304,-8.411 -5.197,-5.196 -8.411,-12.375 -8.411,-20.304 0,-7.929 3.214,-15.108 8.411,-20.305 5.196,-5.196 12.375,-8.41 20.304,-8.41zm16.998 11.717c-4.35,-4.349 -10.36,-7.04 -16.998,-7.04 -6.638,0 -12.648,2.691 -16.998,7.04 -4.349,4.35 -7.04,10.36 -7.04,16.998 0,6.638 2.691,12.648 7.04,16.998 4.35,4.349 10.36,7.04 16.998,7.04 6.638,0 12.648,-2.691 16.998,-7.04 4.35,-4.35 7.04,-10.36 7.04,-16.998 0,-6.638 -2.69,-12.648 -7.04,-16.998zm323.273 -159.058l3.597 0c0.099,-2.971 1.452,-4.554 3.861,-4.554 2.145,0 3.531,1.352 3.531,3.366 0,2.97 -2.442,3.333 -4.752,3.333l-0.33 0 0 2.838c0.561,-0.033 0.759,-0.033 1.188,-0.033 2.475,0 4.62,1.023 4.62,3.861 0,2.541 -1.617,4.125 -4.158,4.125 -2.904,0 -4.389,-1.617 -4.488,-4.851l-3.63 0 0 0.495c0,4.554 3.201,7.591 8.019,7.591 4.818,0 8.184,-3.037 8.184,-7.459 0,-2.772 -1.584,-4.785 -4.191,-5.445 1.98,-0.66 3.234,-2.475 3.234,-4.719 0,-3.696 -2.904,-6.205 -7.161,-6.205 -4.554,0 -7.392,2.904 -7.524,7.657zm7.54 -24.459c7.93,0 15.109,3.215 20.305,8.411 5.196,5.196 8.411,12.376 8.411,20.305 0,7.929 -3.215,15.108 -8.411,20.304 -5.197,5.197 -12.375,8.411 -20.305,8.411 -7.929,0 -15.108,-3.214 -20.304,-8.411 -5.196,-5.196 -8.411,-12.375 -8.411,-20.304 0,-7.929 3.214,-15.108 8.411,-20.305 5.196,-5.196 12.375,-8.411 20.304,-8.411zm16.998 11.718c-4.35,-4.349 -10.36,-7.04 -16.998,-7.04 -6.638,0 -12.648,2.691 -16.997,7.04 -4.35,4.35 -7.041,10.36 -7.041,16.998 0,6.638 2.691,12.648 7.041,16.997 4.349,4.35 10.359,7.041 16.997,7.041 6.638,0 12.648,-2.691 16.998,-7.041 4.35,-4.349 7.04,-10.359 7.04,-16.997 0,-6.638 -2.69,-12.648 -7.04,-16.998zm319.001 -69.632l-11.914 0 -2.211 12.442 3.3 0.099c0.99,-1.485 2.145,-2.079 3.861,-2.079 2.739,0 4.357,1.782 4.357,4.851 0,3.168 -1.552,4.983 -4.291,4.983 -2.343,0 -3.993,-1.518 -4.191,-3.894l-3.729 0c0.198,4.257 3.267,6.997 7.821,6.997 4.851,0 8.251,-3.4 8.251,-8.284 0,-4.521 -2.872,-7.557 -7.162,-7.557 -1.716,0 -3.168,0.396 -4.356,1.65l1.056 -5.941 9.208 0 0 -3.267zm-6.782 -17.016c7.929,0 15.108,3.214 20.304,8.411 5.196,5.196 8.411,12.375 8.411,20.304 0,7.929 -3.215,15.109 -8.411,20.305 -5.196,5.196 -12.375,8.411 -20.304,8.411 -7.929,0 -15.109,-3.215 -20.305,-8.411 -5.196,-5.196 -8.411,-12.376 -8.411,-20.305 0,-7.929 3.215,-15.108 8.411,-20.304 5.196,-5.197 12.375,-8.411 20.305,-8.411zm16.997 11.717c-4.349,-4.349 -10.36,-7.04 -16.997,-7.04 -6.638,0 -12.648,2.691 -16.998,7.04 -4.35,4.35 -7.04,10.36 -7.04,16.998 0,6.639 2.69,12.648 7.04,16.998 4.35,4.35 10.36,7.04 16.998,7.04 6.638,0 12.648,-2.69 16.997,-7.04 4.35,-4.35 7.041,-10.359 7.041,-16.998 0,-6.638 -2.691,-12.648 -7.041,-16.998zm70.831 276.573c-0.429,-3.861 -3.036,-6.138 -6.963,-6.138 -5.38,0 -8.581,4.554 -8.581,12.243 0,7.459 2.97,11.584 8.284,11.584 4.554,0 7.788,-3.366 7.788,-8.085 0,-4.555 -2.871,-7.624 -7.128,-7.624 -2.343,0 -4.059,1.023 -5.28,2.838 0.263,-2.706 0.692,-7.986 4.752,-7.986 1.947,0 3.102,1.056 3.498,3.168l3.63 0zm-7.359 4.983c2.508,0 4.125,1.881 4.125,4.753 0,2.904 -1.617,4.818 -4.026,4.818 -2.475,0 -4.125,-1.947 -4.125,-4.917 0,-2.838 1.584,-4.654 4.026,-4.654zm-0.149 -27.923c7.929,0 15.108,3.214 20.305,8.411 5.196,5.196 8.411,12.375 8.411,20.305 0,7.928 -3.215,15.108 -8.411,20.304 -5.197,5.197 -12.376,8.411 -20.305,8.411 -7.929,0 -15.108,-3.215 -20.305,-8.411 -5.196,-5.196 -8.411,-12.376 -8.411,-20.304 0,-7.93 3.215,-15.109 8.411,-20.305 5.197,-5.197 12.376,-8.411 20.305,-8.411zm16.998 11.718c-4.35,-4.35 -10.36,-7.041 -16.998,-7.041 -6.638,0 -12.648,2.691 -16.998,7.041 -4.349,4.349 -7.04,10.359 -7.04,16.998 0,6.638 2.691,12.647 7.04,16.997 4.35,4.35 10.36,7.04 16.998,7.04 6.638,0 12.648,-2.69 16.998,-7.04 4.349,-4.35 7.04,-10.359 7.04,-16.997 0,-6.639 -2.691,-12.649 -7.04,-16.998zm-21.124 213.057l-15.742 0 0 3.465 12.013 0c-4.621,4.323 -8.647,13.234 -8.812,19.504l4.126 0c0.263,-6.897 3.597,-14.982 8.415,-19.801l0 -3.168zm-7.871 -17.231c7.929,0 15.108,3.215 20.305,8.411 5.196,5.196 8.411,12.376 8.411,20.305 0,7.929 -3.215,15.108 -8.411,20.304 -5.197,5.197 -12.376,8.411 -20.305,8.411 -7.929,0 -15.108,-3.214 -20.305,-8.411 -5.196,-5.196 -8.41,-12.375 -8.41,-20.304 0,-7.929 3.214,-15.108 8.41,-20.305 5.197,-5.196 12.376,-8.411 20.305,-8.411zm16.998 11.718c-4.35,-4.349 -10.36,-7.04 -16.998,-7.04 -6.638,0 -12.648,2.691 -16.998,7.04 -4.349,4.35 -7.04,10.36 -7.04,16.998 0,6.638 2.691,12.648 7.04,16.997 4.35,4.35 10.36,7.041 16.998,7.041 6.638,0 12.648,-2.691 16.998,-7.041 4.349,-4.349 7.04,-10.359 7.04,-16.997 0,-6.638 -2.691,-12.648 -7.04,-16.998zm-204.675 -94.637l-11.253 0c0.792,-1.914 3.267,-3.564 4.95,-4.653 3.234,-2.145 6.336,-4.06 6.336,-8.416 0,-4.191 -2.97,-6.93 -7.458,-6.93 -4.752,0 -7.755,3.168 -7.755,8.118l0 0.594 3.663 0c0.066,-2.706 0.594,-5.478 3.993,-5.478 2.31,0 3.729,1.485 3.729,3.894 0,3.201 -2.772,4.653 -5.082,6.204 -3.927,2.641 -6.732,4.72 -6.898,10l15.775 0 0 -3.333zm-7.871 -37.048c7.93,0 15.109,3.214 20.305,8.41 5.196,5.196 8.411,12.376 8.411,20.305 0,7.929 -3.215,15.108 -8.411,20.304 -5.197,5.197 -12.375,8.411 -20.305,8.411 -7.929,0 -15.108,-3.214 -20.304,-8.411 -5.196,-5.196 -8.411,-12.375 -8.411,-20.304 0,-7.929 3.214,-15.108 8.411,-20.305 5.196,-5.196 12.375,-8.41 20.304,-8.41zm16.998 11.717c-4.35,-4.349 -10.36,-7.04 -16.998,-7.04 -6.638,0 -12.648,2.691 -16.997,7.04 -4.35,4.35 -7.041,10.36 -7.041,16.998 0,6.638 2.691,12.648 7.041,16.997 4.349,4.35 10.359,7.041 16.997,7.041 6.638,0 12.648,-2.691 16.998,-7.041 4.35,-4.349 7.04,-10.359 7.04,-16.997 0,-6.638 -2.69,-12.648 -7.04,-16.998zm-201.266 48.223l-3.036 0c-0.66,4.026 -4.257,4.488 -6.732,4.488l0 2.772 5.742 0 0 15.973 4.026 0 0 -23.233zm-4.884 -17.099c7.929,0 15.108,3.215 20.305,8.411 5.196,5.196 8.41,12.376 8.41,20.305 0,7.929 -3.214,15.108 -8.41,20.304 -5.197,5.197 -12.376,8.411 -20.305,8.411 -7.929,0 -15.108,-3.214 -20.305,-8.411 -5.196,-5.196 -8.411,-12.375 -8.411,-20.304 0,-7.929 3.215,-15.108 8.411,-20.305 5.197,-5.196 12.376,-8.411 20.305,-8.411zm16.997 11.718c-4.349,-4.349 -10.359,-7.04 -16.997,-7.04 -6.638,0 -12.648,2.691 -16.998,7.04 -4.35,4.35 -7.04,10.36 -7.04,16.998 0,6.638 2.69,12.648 7.04,16.997 4.35,4.35 10.36,7.041 16.998,7.041 6.638,0 12.648,-2.691 16.997,-7.041 4.35,-4.349 7.041,-10.359 7.041,-16.997 0,-6.638 -2.691,-12.648 -7.041,-16.998zm427.722 -178.316l0 131.532 -175.373 0 0 -7.095 3.026 0 0 -5.256 -11.717 0c1.904,-0.008 3.786,-0.073 5.688,-0.201l-0.175 -3.195c-1.873,0.126 -3.727,0.19 -5.604,0.196l0 3.2 -11.796 0 0 5.256 4.425 0 0 7.095 0 16.152 -5.588 0 0 5.256 23.604 0 0 -5.256 173.51 0 16.152 0 36.879 0 0 217.713 -230.266 0 0 -110.372 3.725 0 0 -5.255 -11.717 0c1.905,-0.008 3.786,-0.073 5.688,-0.202l-0.175 -3.194c-1.873,0.126 -3.727,0.19 -5.603,0.196l0 3.2 -11.797 0 0 5.255 3.726 0 0 110.372 -132.56 0 0 -78.245 0 -13.246 0 -2.907 -55.199 0 0 -3.725 -5.255 0 0 11.796 -3.2 0c-0.007,1.877 -0.07,3.731 -0.196,5.604l3.194 0.174c0.129,-1.901 0.194,-3.783 0.202,-5.687l0 11.717 5.255 0 0 -3.726 25.472 0 0 78.245 0 29.727 29.727 0 378.979 0 16.153 0 0 -29.727 0 -217.713 0 -16.152 0 -131.532 0 -16.152 0 -374.08 0 -29.727 -16.153 0 -71.723 0 0 5.572c-0.003,-0.053 -0.099,-0.096 -0.217,-0.096l-196.121 0c-0.12,0 -0.217,0.044 -0.217,0.099l0 6.955 0 0.008 0 -12.538 -65.296 0 -10.217 0 0 -152.741 0 -8.077 -16.153 0 -40.202 0 -8.077 0 -663.471 0 -16.153 0 0 8.077 0 152.741 0 29.727 0 781.714 0 91.3 0 16.153 16.153 0 484.621 0 16.153 0 0 -16.153 0 -195.63 29.402 0 0 3.726 5.255 0 0 -23.604 -5.255 0 0 3.725 -100.762 0 0 -27.235 1.356 0 0 -4.2 -9.432 0 0 -5.011 -68.464 0c0.023,-0.384 0.049,-0.767 0.077,-1.15l-2.268 -0.216c-0.125,1.731 -0.206,3.455 -0.228,5.192l1.014 0.022 0 1.163 1.264 0 59.173 0 0 4.2 1.356 0 0 27.235 0 16.153 71.359 0 0 195.63 -484.621 0 0 -91.3 16.152 0 0 -781.714 32.126 0 0 -5.477 139.166 0 0.007 0 0 0 0.008 0 139.36 0c0.084,0 0.153,-0.044 0.153,-0.098l0 5.575 83.462 0 0 45.204 0 29.726 2.828 0 0 299.15 0 16.152 0 64.253 0 16.153 0 27.236 -1.356 0 0 4.069 -25.494 0 -0.716 0 0 0.659 -0.574 0.012c0.013,0.984 0.059,1.959 0.13,2.939l1.283 -0.122c-0.015,-0.217 -0.03,-0.434 -0.043,-0.651l38.761 0 0 -2.706 5.517 0 0 -4.2 -1.356 0 0 -27.236 57.782 0 16.152 0 8.172 0 0 3.726 5.255 0 0 -11.797 3.201 0c0.006,-1.877 0.069,-3.73 0.195,-5.604l-3.194 -0.174c-0.129,1.902 -0.194,3.783 -0.202,5.687l0 -11.716 -5.255 0 0 3.725 -8.172 0 0 -64.253 0 -16.152 -16.152 0 -57.782 0 0 -299.15 10.747 0 60.537 0 0 -12.538 0.001 0.008 0 6.956c0,0.054 0.08,0.098 0.179,0.098l162.414 0c0.097,0 0.177,-0.043 0.179,-0.096l0 40.86 29.324 0 0 265.315 0 16.153 0 62.799 -73.934 0 0 -3.725 -5.256 0 0 23.604 5.256 0 0 -3.726 73.934 0 0 27.236 16.152 0 0 -27.236 0 -16.153 0 -62.799 10.85 0 0 3.725 5.255 0 0 -23.604 -5.255 0 0 3.726 -10.85 0 0 -375.533 94.469 0 0 -12.538 0 0.007 0 6.956c0,0.054 0.097,0.098 0.217,0.098l196.121 0c0.118,0 0.214,-0.043 0.217,-0.096l0 5.573 71.723 0 0 374.08 -36.879 0 -16.152 0 -175.373 0 -16.153 0 0 -2.273 -5.255 0 0 11.717c-0.008,-1.904 -0.073,-3.786 -0.202,-5.687l-3.194 0.174c0.126,1.873 0.19,3.727 0.196,5.604l3.2 0 0 11.796 5.255 0 0 11.917 -4.425 0 0 5.255 23.604 0 0 -5.255 -3.026 0 0 -17.096 175.373 0zm16.152 131.532l0 -131.532 36.879 0 0 131.532 -36.879 0zm-499.384 155.763l0 77.625 0 1.582 1.455 0 0.028 1.269c2.174,-0.028 4.33,-0.13 6.497,-0.287l-0.27 -2.837c-0.48,0.035 -0.96,0.067 -1.439,0.096l0 -85.668 -6.271 0 0 8.22zm11.226 79.897c2.161,-0.232 4.288,-0.526 6.428,-0.881l-0.599 -2.798c-2.073,0.345 -4.131,0.628 -6.224,0.853l0.395 2.826zm9.622 -1.473c2.071,-0.418 4.278,-0.895 6.298,-1.472l-0.937 -2.722c-2.006,0.539 -4.039,1.007 -6.082,1.42l0.721 2.774zm9.396 -2.351c2.053,-0.613 4.093,-1.301 6.091,-2.045l-1.242 -2.624c-1.931,0.717 -3.9,1.381 -5.884,1.974l1.035 2.695zm9.069 -3.203c1.954,-0.764 3.943,-1.687 5.823,-2.59l-1.53 -2.502c-1.817,0.874 -3.737,1.764 -5.626,2.503l1.333 2.589zm8.66 -4.018c1.869,-0.977 3.703,-2.015 5.493,-3.104l-1.813 -2.346c-1.732,1.052 -3.505,2.055 -5.313,3l1.633 2.45zm8.152 -4.779c1.75,-1.148 3.452,-2.332 5.114,-3.578l-2.073 -2.169c-1.605,1.206 -3.259,2.352 -4.949,3.461l1.908 2.286zm7.565 -5.475c1.614,-1.287 3.174,-2.632 4.689,-4.011l-2.297 -1.983c-1.464,1.334 -2.977,2.637 -4.538,3.881l2.146 2.113zm6.923 -6.121c1.459,-1.429 2.868,-2.892 4.221,-4.401l-2.509 -1.768c-1.306,1.461 -2.677,2.879 -4.087,4.26l2.375 1.909zm6.206 -6.689c1.301,-1.541 2.536,-3.134 3.719,-4.748l-2.687 -1.547c-1.143,1.562 -2.341,3.105 -3.599,4.594l2.567 1.701zm5.45 -7.203c1.122,-1.66 2.173,-3.332 3.182,-5.048l-2.849 -1.298c-1.008,1.661 -1.984,3.265 -3.081,4.885l2.748 1.461zm4.631 -7.634c0.936,-1.746 1.806,-3.504 2.619,-5.298l-2.976 -1.051c-0.771,1.731 -1.633,3.447 -2.533,5.128l2.89 1.221zm3.781 -7.998c0.741,-1.812 1.422,-3.648 2.03,-5.499l-3.075 -0.789c-0.59,1.791 -1.248,3.565 -1.965,5.319l3.01 0.969zm2.894 -8.285c0.544,-1.87 1.015,-3.752 1.427,-5.649l-3.147 -0.52c-0.386,1.826 -0.857,3.663 -1.381,5.462l3.101 0.707zm1.987 -8.496c0.336,-1.907 0.608,-3.814 0.812,-5.736l-3.186 -0.262c-0.201,1.866 -0.463,3.71 -0.79,5.562l3.164 0.436zm-214.269 -131.126c1.52,-0.104 3.024,-0.156 4.546,-0.162l-9.364 0 0 -4.2 7.829 0 0 -2.457 5.438 0c-0.847,-0.004 -1.685,-0.034 -2.532,-0.091l0.079 -1.445c0.847,0.057 1.686,0.086 2.535,0.089l0 1.447 5.515 0 0 2.457 0 4.2 -9.428 0 0 2.558c-1.499,0.005 -2.981,0.055 -4.478,0.156l-0.14 -2.552zm-31.34 -45.55c0.105,0.977 0.238,1.94 0.399,2.908l1.266 -0.272c-0.157,-0.937 -0.284,-1.868 -0.386,-2.816l-1.279 0.18zm0.666 4.353c0.19,0.937 0.405,1.936 0.666,2.849l1.232 -0.423c-0.244,-0.908 -0.456,-1.828 -0.642,-2.752l-1.256 0.326zm1.064 4.251c0.278,0.929 0.589,1.852 0.925,2.756l1.187 -0.562c-0.324,-0.873 -0.624,-1.765 -0.893,-2.662l-1.219 0.468zm1.45 4.103c0.345,0.885 0.763,1.784 1.172,2.635l1.131 -0.692c-0.395,-0.822 -0.798,-1.691 -1.133,-2.546l-1.17 0.603zm1.817 3.918c0.442,0.846 0.912,1.676 1.405,2.486l1.061 -0.82c-0.476,-0.784 -0.929,-1.586 -1.357,-2.404l-1.109 0.738zm2.163 3.69c0.519,0.791 1.055,1.561 1.618,2.313l0.982 -0.938c-0.546,-0.726 -1.065,-1.475 -1.566,-2.239l-1.034 0.864zm2.477 3.422c0.582,0.731 1.191,1.436 1.815,2.121l0.897 -1.039c-0.603,-0.662 -1.193,-1.346 -1.756,-2.053l-0.956 0.971zm2.769 3.132c0.647,0.66 1.309,1.298 1.992,1.91l0.799 -1.135c-0.66,-0.591 -1.302,-1.211 -1.927,-1.849l-0.864 1.074zm3.027 2.808c0.697,0.589 1.418,1.148 2.148,1.683l0.7 -1.216c-0.706,-0.517 -1.405,-1.059 -2.079,-1.628l-0.769 1.161zm3.259 2.466c0.751,0.508 1.508,0.983 2.284,1.44l0.587 -1.289c-0.751,-0.456 -1.477,-0.898 -2.21,-1.394l-0.661 1.243zm3.454 2.096c0.79,0.423 1.585,0.816 2.397,1.184l0.475 -1.346c-0.783,-0.349 -1.559,-0.739 -2.319,-1.146l-0.553 1.308zm3.618 1.71c0.821,0.336 1.651,0.644 2.489,0.919l0.357 -1.391c-0.81,-0.267 -1.613,-0.565 -2.407,-0.89l-0.439 1.362zm3.749 1.31c0.847,0.246 1.698,0.459 2.556,0.646l0.236 -1.424c-0.827,-0.175 -1.658,-0.388 -2.472,-0.625l-0.32 1.403zm3.844 0.899c0.863,0.152 1.726,0.275 2.596,0.367l0.118 -1.441c-0.844,-0.091 -1.678,-0.21 -2.516,-0.358l-0.198 1.432zm-67.824 75.643c0.186,-1.727 0.42,-3.427 0.704,-5.137l2.236 0.479c-0.275,1.657 -0.501,3.302 -0.682,4.974l-2.258 -0.316zm1.177 -7.689c0.334,-1.656 0.715,-3.419 1.176,-5.034l2.176 0.749c-0.43,1.604 -0.805,3.228 -1.135,4.861l-2.217 -0.576zm1.879 -7.509c0.49,-1.641 1.04,-3.272 1.634,-4.869l2.097 0.993c-0.573,1.543 -1.103,3.117 -1.577,4.702l-2.154 -0.826zm2.56 -7.248c0.611,-1.562 1.348,-3.151 2.07,-4.654l1.999 1.223c-0.698,1.452 -1.409,2.986 -2,4.496l-2.069 -1.065zm3.211 -6.921c0.781,-1.494 1.61,-2.96 2.48,-4.39l1.875 1.449c-0.84,1.384 -1.642,2.801 -2.397,4.245l-1.958 -1.304zm3.819 -6.516c0.918,-1.397 1.864,-2.758 2.859,-4.087l1.734 1.657c-0.963,1.283 -1.88,2.605 -2.766,3.955l-1.827 -1.525zm4.376 -6.045c1.028,-1.29 2.104,-2.537 3.205,-3.747l1.585 1.835c-1.066,1.17 -2.107,2.379 -3.102,3.627l-1.688 -1.715zm4.891 -5.532c1.142,-1.167 2.312,-2.293 3.518,-3.374l1.413 2.005c-1.167,1.044 -2.301,2.139 -3.405,3.266l-1.526 -1.897zm5.346 -4.96c1.232,-1.04 2.505,-2.028 3.795,-2.973l1.236 2.148c-1.248,0.913 -2.481,1.871 -3.672,2.876l-1.359 -2.051zm5.757 -4.356c1.326,-0.897 2.663,-1.737 4.034,-2.543l1.037 2.276c-1.327,0.807 -2.609,1.587 -3.903,2.463l-1.168 -2.196zm6.101 -3.701c1.395,-0.748 2.8,-1.443 4.234,-2.093l0.84 2.378c-1.384,0.617 -2.755,1.305 -4.098,2.025l-0.976 -2.31zm6.391 -3.021c1.449,-0.593 2.916,-1.137 4.395,-1.623l0.631 2.457c-1.431,0.472 -2.849,0.997 -4.251,1.571l-0.775 -2.405zm6.622 -2.313c1.495,-0.436 2.999,-0.812 4.515,-1.141l0.415 2.515c-1.46,0.308 -2.927,0.685 -4.366,1.104l-0.564 -2.478zm6.789 -1.588c1.525,-0.269 3.049,-0.486 4.585,-0.65l0.209 2.547c-1.491,0.16 -2.965,0.369 -4.445,0.631l-0.349 -2.528zm432.897 -140.841l77.625 0 1.582 0 0 1.455 1.269 0.028c-0.028,2.173 -0.13,4.33 -0.286,6.496l-2.837 -0.27c0.035,-0.48 0.067,-0.959 0.095,-1.438l-85.667 0 0 -6.271 8.219 0zm79.897 11.226c-0.232,2.16 -0.525,4.288 -0.881,6.427l-2.797 -0.599c0.344,-2.072 0.627,-4.131 0.852,-6.224l2.826 0.396zm-1.472 9.622c-0.419,2.071 -0.896,4.278 -1.472,6.298l-2.723 -0.938c0.539,-2.006 1.008,-4.038 1.42,-6.082l2.775 0.722zm-2.352 9.395c-0.613,2.053 -1.301,4.093 -2.044,6.092l-2.624 -1.242c0.716,-1.931 1.38,-3.901 1.974,-5.884l2.694 1.034zm-3.202 9.07c-0.765,1.954 -1.687,3.943 -2.591,5.822l-2.501 -1.53c0.873,-1.816 1.763,-3.737 2.502,-5.625l2.59 1.333zm-4.019 8.659c-0.977,1.869 -2.015,3.704 -3.103,5.493l-2.347 -1.813c1.052,-1.731 2.055,-3.504 3,-5.312l2.45 1.632zm-4.779 8.153c-1.147,1.749 -2.332,3.451 -3.577,5.114l-2.169 -2.074c1.205,-1.605 2.352,-3.259 3.46,-4.948l2.286 1.908zm-5.475 7.565c-1.286,1.614 -2.632,3.174 -4.011,4.688l-1.983 -2.296c1.334,-1.464 2.638,-2.977 3.881,-4.538l2.113 2.146zm-6.12 6.922c-1.429,1.459 -2.893,2.869 -4.402,4.222l-1.768 -2.51c1.461,-1.306 2.879,-2.676 4.261,-4.086l1.909 2.374zm-6.69 6.206c-1.541,1.302 -3.133,2.537 -4.747,3.72l-1.547 -2.687c1.561,-1.144 3.104,-2.341 4.594,-3.6l1.7 2.567zm-7.203 5.45c-1.659,1.123 -3.332,2.174 -5.048,3.183l-1.297 -2.849c1.66,-1.009 3.264,-1.985 4.884,-3.081l1.461 2.747zm-7.634 4.632c-1.746,0.936 -3.504,1.805 -5.298,2.618l-1.05 -2.975c1.731,-0.772 3.447,-1.633 5.127,-2.534l1.221 2.891zm-7.997 3.781c-1.813,0.741 -3.648,1.421 -5.5,2.03l-0.789 -3.075c1.791,-0.591 3.565,-1.248 5.319,-1.965l0.97 3.01zm-8.286 2.893c-1.87,0.545 -3.752,1.016 -5.649,1.428l-0.52 -3.147c1.827,-0.386 3.663,-0.857 5.463,-1.381l0.706 3.1zm-8.496 1.987c-1.907,0.337 -3.814,0.608 -5.735,0.813l-0.262 -3.187c1.865,-0.201 3.709,-0.462 5.561,-0.789l0.436 3.163zm-123.853 -132.755l0 -77.625 0 -1.582 1.456 0 0.027 -1.269c2.174,0.028 4.33,0.13 6.497,0.287l-0.27 2.836c-0.481,-0.035 -0.96,-0.067 -1.439,-0.095l0 85.667 -6.271 0 0 -8.219zm11.226 -79.897c2.161,0.232 4.289,0.525 6.428,0.881l-0.599 2.797c-2.073,-0.344 -4.131,-0.627 -6.224,-0.852l0.395 -2.826zm9.622 1.472c2.071,0.419 4.278,0.896 6.298,1.472l-0.937 2.723c-2.006,-0.539 -4.039,-1.007 -6.082,-1.42l0.721 -2.775zm9.395 2.352c2.054,0.613 4.094,1.301 6.092,2.044l-1.241 2.624c-1.932,-0.717 -3.901,-1.381 -5.885,-1.973l1.034 -2.695zm9.07 3.202c1.954,0.765 3.943,1.687 5.823,2.591l-1.53 2.502c-1.817,-0.874 -3.737,-1.764 -5.625,-2.503l1.332 -2.59zm8.66 4.019c1.869,0.977 3.703,2.015 5.492,3.103l-1.812 2.346c-1.732,-1.051 -3.505,-2.054 -5.312,-2.999l1.632 -2.45zm8.153 4.779c1.749,1.147 3.451,2.332 5.113,3.577l-2.073 2.169c-1.605,-1.205 -3.259,-2.352 -4.949,-3.46l1.909 -2.286zm7.564 5.475c1.614,1.286 3.174,2.632 4.689,4.011l-2.297 1.983c-1.464,-1.334 -2.976,-2.637 -4.538,-3.881l2.146 -2.113zm6.923 6.12c1.459,1.429 2.868,2.893 4.221,4.402l-2.509 1.768c-1.306,-1.461 -2.676,-2.879 -4.087,-4.261l2.375 -1.909zm6.205 6.69c1.302,1.541 2.538,3.133 3.72,4.748l-2.687 1.546c-1.143,-1.561 -2.341,-3.104 -3.599,-4.594l2.566 -1.7zm5.451 7.203c1.122,1.659 2.173,3.332 3.182,5.048l-2.848 1.297c-1.009,-1.66 -1.985,-3.264 -3.082,-4.884l2.748 -1.461zm4.631 7.634c0.936,1.746 1.806,3.504 2.619,5.298l-2.976 1.05c-0.771,-1.731 -1.633,-3.447 -2.533,-5.127l2.89 -1.221zm3.781 7.998c0.741,1.812 1.422,3.647 2.03,5.499l-3.075 0.789c-0.59,-1.791 -1.247,-3.565 -1.965,-5.319l3.01 -0.969zm2.894 8.285c0.544,1.87 1.016,3.752 1.427,5.649l-3.146 0.52c-0.386,-1.827 -0.858,-3.663 -1.382,-5.463l3.101 -0.706zm1.987 8.496c0.336,1.907 0.608,3.813 0.812,5.736l-3.186 0.262c-0.201,-1.866 -0.463,-3.71 -0.79,-5.562l3.164 -0.436zm20.956 173.954l77.625 0 1.582 0 0 1.456 1.269 0.027c-0.028,2.173 -0.129,4.33 -0.286,6.497l-2.837 -0.27c0.035,-0.481 0.067,-0.96 0.096,-1.439l-85.668 0 0 -6.271 8.219 0zm79.897 11.226c-0.232,2.161 -0.525,4.288 -0.881,6.428l-2.797 -0.599c0.344,-2.073 0.627,-4.131 0.852,-6.224l2.826 0.395zm-1.472 9.622c-0.419,2.071 -0.895,4.278 -1.472,6.298l-2.723 -0.937c0.539,-2.006 1.008,-4.039 1.421,-6.082l2.774 0.721zm-2.351 9.395c-0.614,2.054 -1.302,4.094 -2.045,6.092l-2.624 -1.242c0.717,-1.931 1.381,-3.9 1.974,-5.884l2.695 1.034zm-3.203 9.07c-0.765,1.954 -1.687,3.943 -2.591,5.823l-2.501 -1.53c0.873,-1.817 1.763,-3.737 2.502,-5.626l2.59 1.333zm-4.019 8.66c-0.976,1.869 -2.014,3.703 -3.103,5.492l-2.346 -1.812c1.051,-1.732 2.055,-3.505 2.999,-5.312l2.45 1.632zm-4.779 8.153c-1.147,1.749 -2.332,3.451 -3.577,5.113l-2.169 -2.073c1.205,-1.605 2.352,-3.259 3.461,-4.949l2.285 1.909zm-5.475 7.564c-1.286,1.614 -2.632,3.174 -4.011,4.689l-1.983 -2.297c1.334,-1.464 2.638,-2.976 3.881,-4.538l2.113 2.146zm-6.12 6.923c-1.429,1.459 -2.893,2.868 -4.402,4.221l-1.768 -2.509c1.461,-1.306 2.879,-2.677 4.261,-4.087l1.909 2.375zm-6.689 6.205c-1.542,1.302 -3.134,2.537 -4.749,3.72l-1.546 -2.687c1.561,-1.143 3.104,-2.341 4.594,-3.599l1.701 2.566zm-7.204 5.451c-1.659,1.122 -3.332,2.173 -5.048,3.182l-1.297 -2.848c1.66,-1.009 3.264,-1.985 4.884,-3.082l1.461 2.748zm-7.634 4.631c-1.746,0.936 -3.504,1.806 -5.298,2.619l-1.05 -2.976c1.731,-0.771 3.447,-1.633 5.127,-2.534l1.221 2.891zm-7.998 3.781c-1.812,0.741 -3.647,1.422 -5.498,2.03l-0.79 -3.075c1.791,-0.59 3.565,-1.247 5.319,-1.965l0.969 3.01zm-8.285 2.894c-1.87,0.544 -3.752,1.016 -5.648,1.427l-0.521 -3.147c1.827,-0.385 3.663,-0.857 5.463,-1.381l0.706 3.101zm-8.495 1.987c-1.908,0.336 -3.814,0.608 -5.736,0.812l-0.262 -3.186c1.865,-0.201 3.709,-0.463 5.561,-0.79l0.437 3.164zm-234.138 -184.391l0 -77.625 0 -1.582 -1.456 0 -0.027 -1.269c-2.173,0.028 -4.33,0.129 -6.496,0.286l0.27 2.837c0.48,-0.035 0.959,-0.067 1.438,-0.096l0 85.668 6.271 0 0 -8.219zm-11.226 -79.897c-2.16,0.232 -4.288,0.525 -6.427,0.881l0.599 2.797c2.072,-0.344 4.13,-0.627 6.223,-0.853l-0.395 -2.825zm-9.622 1.472c-2.071,0.419 -4.278,0.895 -6.298,1.472l0.937 2.722c2.006,-0.538 4.039,-1.007 6.082,-1.42l-0.721 -2.774zm-9.395 2.351c-2.054,0.614 -4.094,1.302 -6.092,2.045l1.242 2.624c1.931,-0.717 3.9,-1.381 5.884,-1.974l-1.034 -2.695zm-9.07 3.203c-1.954,0.765 -3.943,1.687 -5.822,2.591l1.529 2.501c1.817,-0.874 3.737,-1.764 5.626,-2.503l-1.333 -2.589zm-8.659 4.018c-1.869,0.977 -3.704,2.015 -5.493,3.104l1.813 2.346c1.731,-1.052 3.504,-2.055 5.312,-2.999l-1.632 -2.451zm-8.154 4.779c-1.748,1.148 -3.451,2.332 -5.113,3.578l2.073 2.169c1.605,-1.205 3.259,-2.352 4.949,-3.461l-1.909 -2.286zm-7.564 5.475c-1.614,1.287 -3.174,2.633 -4.688,4.012l2.296 1.982c1.464,-1.333 2.977,-2.637 4.538,-3.881l-2.146 -2.113zm-6.923 6.121c-1.459,1.429 -2.868,2.893 -4.221,4.401l2.509 1.769c1.307,-1.461 2.677,-2.879 4.087,-4.261l-2.375 -1.909zm-6.205 6.689c-1.302,1.542 -2.537,3.134 -3.72,4.748l2.687 1.547c1.143,-1.562 2.341,-3.104 3.6,-4.594l-2.567 -1.701zm-5.45 7.204c-1.123,1.659 -2.174,3.332 -3.183,5.047l2.849 1.298c1.008,-1.66 1.985,-3.265 3.081,-4.884l-2.747 -1.461zm-4.632 7.634c-0.936,1.746 -1.805,3.503 -2.618,5.298l2.975 1.05c0.771,-1.731 1.633,-3.447 2.534,-5.127l-2.891 -1.221zm-3.781 7.997c-0.741,1.813 -1.422,3.648 -2.03,5.499l3.075 0.79c0.59,-1.791 1.248,-3.565 1.965,-5.32l-3.01 -0.969zm-2.894 8.286c-0.544,1.87 -1.015,3.752 -1.427,5.648l3.147 0.52c0.386,-1.826 0.857,-3.662 1.381,-5.462l-3.101 -0.706zm-1.986 8.495c-0.337,1.907 -0.609,3.814 -0.813,5.736l3.187 0.262c0.201,-1.865 0.462,-3.71 0.789,-5.562l-3.163 -0.436zm285.372 -465.352l0 4.636 0 0.008 0 -4.651 0 0.007zm196.122 -6.872l0 6.632c-0.111,-0.037 -0.248,-0.059 -0.398,-0.059l-83.918 0c-0.192,-0.064 -0.448,-0.103 -0.729,-0.103l-12.733 0 -0.055 0.001 -0.003 0 -0.055 -0.001 -12.733 0c-0.281,0 -0.537,0.039 -0.729,0.103l-84.108 0c-0.08,0 -0.157,0.006 -0.228,0.018l0 -6.591 195.689 0zm0 7.097l0 4.186c-0.111,-0.036 -0.248,-0.058 -0.398,-0.058l-83.568 0 0 -1.184 83.568 0c0.13,0 0.236,-0.046 0.236,-0.103 0,-0.058 -0.106,-0.104 -0.236,-0.104l-83.568 0 0 -0.083 83.568 0c0.13,0 0.236,-0.047 0.236,-0.104 0,-0.057 -0.106,-0.104 -0.236,-0.104l-83.568 0 0 -0.706 83.568 0c0.13,0 0.236,-0.046 0.236,-0.104 0,-0.057 -0.106,-0.104 -0.236,-0.104l-83.568 0 0 -0.124 83.568 0c0.13,0 0.236,-0.047 0.236,-0.104 0,-0.057 -0.106,-0.104 -0.236,-0.104l-83.568 0 0 -1.142 83.568 0c0.15,0 0.287,-0.022 0.398,-0.058zm0 4.651l0 6.632 -195.689 0 0 -6.591c0.071,0.012 0.148,0.018 0.228,0.018l84.108 0c0.192,0.064 0.448,0.103 0.729,0.103l12.733 0 0.055 -0.001 0.003 0 0.055 0.001 12.733 0c0.281,0 0.537,-0.039 0.729,-0.103l83.918 0c0.15,0 0.287,-0.022 0.398,-0.059zm-195.689 -0.505l0 -1.279c0.026,0.045 0.119,0.077 0.228,0.077l83.757 0 0 1.184 -83.757 0c-0.08,0 -0.157,0.006 -0.228,0.018zm0 -1.332l0 -0.238c0.026,0.045 0.119,0.078 0.228,0.078l83.757 0 0 0.083 -83.757 0c-0.109,0 -0.202,0.032 -0.228,0.077zm0 -0.291l0 -0.86c0.026,0.044 0.119,0.077 0.228,0.077l83.757 0 0 0.706 -83.757 0c-0.109,0 -0.202,0.032 -0.228,0.077zm0 -0.913l0 -0.279c0.026,0.044 0.119,0.077 0.228,0.077l83.757 0 0 0.124 -83.757 0c-0.109,0 -0.202,0.033 -0.228,0.078zm0 -0.333l0 -1.236c0.071,0.011 0.148,0.017 0.228,0.017l83.757 0 0 1.142 -83.757 0c-0.109,0 -0.202,0.033 -0.228,0.077zm86.145 2.747l0 -3.862 10.573 0 0 3.862 -10.573 0zm12.846 0l0 -3.862 10.573 0 0 3.862 -10.573 0zm-401.784 75.598c0.059,0.012 0.123,0.018 0.189,0.018l69.653 0c0.16,0.064 0.371,0.104 0.604,0.104l10.544 0 0.046 -0.001 0.002 0 0.046 0.001 10.544 0c0.233,0 0.445,-0.04 0.605,-0.104l69.495 0c0.123,0 0.237,-0.022 0.329,-0.059l0 6.633 -162.057 0 0 -6.592zm162.057 -0.505c-0.092,-0.037 -0.206,-0.059 -0.329,-0.059l-69.205 0 0 -1.183 69.205 0c0.107,0 0.195,-0.047 0.195,-0.104 0,-0.057 -0.088,-0.104 -0.195,-0.104l-69.205 0 0 -0.083 69.205 0c0.107,0 0.195,-0.046 0.195,-0.104 0,-0.057 -0.088,-0.103 -0.195,-0.103l-69.205 0 0 -0.706 69.205 0c0.107,0 0.195,-0.047 0.195,-0.104 0,-0.057 -0.088,-0.104 -0.195,-0.104l-69.205 0 0 -0.125 69.205 0c0.107,0 0.195,-0.046 0.195,-0.103 0,-0.058 -0.088,-0.104 -0.195,-0.104l-69.205 0 0 -1.142 69.205 0c0.123,0 0.237,-0.022 0.329,-0.059l0 4.187zm0 -4.652c-0.092,-0.036 -0.206,-0.058 -0.329,-0.058l-69.495 0c-0.16,-0.064 -0.372,-0.104 -0.605,-0.104l-10.544 0 -0.046 0.001 -0.002 0 -0.046 -0.001 -10.544 0c-0.233,0 -0.444,0.04 -0.604,0.104l-69.653 0c-0.066,0 -0.13,0.006 -0.189,0.018l0 -6.591 162.057 0 0 6.631zm-162.414 0.24l0 4.637 -0.001 0.007 0 -4.651 0.001 0.007zm0.357 4.371l0 -1.279c0.022,0.045 0.099,0.078 0.189,0.078l69.363 0 0 1.183 -69.363 0c-0.066,0 -0.13,0.007 -0.189,0.018zm0 -1.331l0 -0.238c0.022,0.044 0.099,0.077 0.189,0.077l69.363 0 0 0.083 -69.363 0c-0.09,0 -0.167,0.033 -0.189,0.078zm0 -0.29l0 -0.862c0.022,0.045 0.099,0.078 0.189,0.078l69.363 0 0 0.706 -69.363 0c-0.09,0 -0.167,0.033 -0.189,0.078zm0 -0.914l0 -0.28c0.022,0.045 0.099,0.077 0.189,0.077l69.363 0 0 0.125 -69.363 0c-0.09,0 -0.167,0.033 -0.189,0.078zm0 -0.332l0 -1.238c0.059,0.012 0.123,0.018 0.189,0.018l69.363 0 0 1.142 -69.363 0c-0.09,0 -0.167,0.033 -0.189,0.078zm71.341 2.746l0 -3.863 8.755 0 0 3.863 -8.755 0zm10.638 0l0 -3.863 8.755 0 0 3.863 -8.755 0zm-395.43 -74.263c0.051,0.012 0.105,0.018 0.162,0.018l59.769 0c0.136,0.064 0.318,0.103 0.518,0.103l9.048 0 0.039 -0.001 0.002 0 0.039 0.001 9.048 0c0.2,0 0.382,-0.039 0.519,-0.103l59.633 0c0.106,0 0.204,-0.022 0.283,-0.059l0 6.632 -139.06 0 0 -6.591zm139.06 -0.506c-0.079,-0.036 -0.177,-0.058 -0.283,-0.058l-59.384 0 0 -1.184 59.384 0c0.093,0 0.168,-0.046 0.168,-0.103 0,-0.058 -0.075,-0.104 -0.168,-0.104l-59.384 0 0 -0.083 59.384 0c0.093,0 0.168,-0.047 0.168,-0.104 0,-0.057 -0.075,-0.104 -0.168,-0.104l-59.384 0 0 -0.706 59.384 0c0.093,0 0.168,-0.046 0.168,-0.104 0,-0.057 -0.075,-0.104 -0.168,-0.104l-59.384 0 0 -0.124 59.384 0c0.093,0 0.168,-0.047 0.168,-0.104 0,-0.057 -0.075,-0.104 -0.168,-0.104l-59.384 0 0 -1.142 59.384 0c0.106,0 0.204,-0.022 0.283,-0.058l0 4.186zm0 -4.651c-0.079,-0.037 -0.177,-0.059 -0.283,-0.059l-59.633 0c-0.137,-0.064 -0.319,-0.103 -0.519,-0.103l-9.048 0 -0.039 0.001 -0.002 0 -0.039 -0.001 -9.048 0c-0.2,0 -0.382,0.039 -0.518,0.103l-59.769 0c-0.057,0 -0.111,0.006 -0.162,0.018l0 -6.591 139.06 0 0 6.632zm-139.06 4.611l0 -1.279c0.019,0.045 0.084,0.077 0.162,0.077l59.52 0 0 1.184 -59.52 0c-0.057,0 -0.111,0.006 -0.162,0.018zm0 -1.332l0 -0.238c0.019,0.045 0.084,0.078 0.162,0.078l59.52 0 0 0.083 -59.52 0c-0.078,0 -0.143,0.032 -0.162,0.077zm0 -0.291l0 -0.86c0.019,0.044 0.084,0.077 0.162,0.077l59.52 0 0 0.706 -59.52 0c-0.078,0 -0.143,0.033 -0.162,0.077zm0 -0.913l0 -0.279c0.019,0.044 0.084,0.077 0.162,0.077l59.52 0 0 0.124 -59.52 0c-0.078,0 -0.143,0.033 -0.162,0.078zm0 -0.333l0 -1.236c0.051,0.011 0.105,0.017 0.162,0.017l59.52 0 0 1.142 -59.52 0c-0.078,0 -0.143,0.033 -0.162,0.077zm61.217 2.747l0 -3.862 7.512 0 0 3.862 -7.512 0zm9.128 0l0 -3.862 7.513 0 0 3.862 -7.513 0zm-209.672 7.259l0 -6.583c0.039,0.006 0.08,0.01 0.122,0.01l59.768 0c0.137,0.064 0.319,0.103 0.519,0.103l9.047 0 0.04 -0.001 0.002 0 0.039 0.001 9.048 0c0.2,0 0.382,-0.039 0.519,-0.103l59.633 0c0.106,0 0.204,-0.022 0.283,-0.059l0 6.632 -139.02 0zm139.02 -7.097c-0.079,-0.036 -0.177,-0.058 -0.283,-0.058l-59.385 0 0 -1.184 59.385 0c0.092,0 0.168,-0.046 0.168,-0.103 0,-0.058 -0.076,-0.104 -0.168,-0.104l-59.385 0 0 -0.083 59.385 0c0.092,0 0.168,-0.047 0.168,-0.104 0,-0.057 -0.076,-0.104 -0.168,-0.104l-59.385 0 0 -0.706 59.385 0c0.092,0 0.168,-0.046 0.168,-0.104 0,-0.057 -0.076,-0.104 -0.168,-0.104l-59.385 0 0 -0.124 59.385 0c0.092,0 0.168,-0.047 0.168,-0.104 0,-0.057 -0.076,-0.104 -0.168,-0.104l-59.385 0 0 -1.142 59.385 0c0.106,0 0.204,-0.022 0.283,-0.058l0 4.186zm0 -4.651c-0.079,-0.037 -0.177,-0.059 -0.283,-0.059l-59.633 0c-0.137,-0.064 -0.319,-0.103 -0.519,-0.103l-9.048 0 -0.039 0.001 -0.002 0 -0.04 -0.001 -9.047 0c-0.2,0 -0.382,0.039 -0.519,0.103l-59.768 0c-0.042,0 -0.083,0.004 -0.122,0.01l0 -6.583 139.02 0 0 6.632zm-79.379 4.593l-59.519 0c-0.042,0 -0.083,0.003 -0.122,0.009l0 -1.225c0.031,0.019 0.074,0.032 0.122,0.032l59.519 0 0 1.184zm0 -1.391l-59.519 0c-0.048,0 -0.091,0.013 -0.122,0.032l0 -0.148c0.031,0.02 0.074,0.033 0.122,0.033l59.519 0 0 0.083zm0 -0.291l-59.519 0c-0.048,0 -0.091,0.013 -0.122,0.032l0 -0.771c0.031,0.02 0.074,0.033 0.122,0.033l59.519 0 0 0.706zm0 -0.914l-59.519 0c-0.048,0 -0.091,0.013 -0.122,0.033l0 -0.19c0.031,0.02 0.074,0.033 0.122,0.033l59.519 0 0 0.124zm0 -0.332l-59.519 0c-0.048,0 -0.091,0.013 -0.122,0.033l0 -1.184c0.039,0.006 0.08,0.009 0.122,0.009l59.519 0 0 1.142zm1.535 2.824l0 -3.862 7.513 0 0 3.862 -7.513 0zm9.129 0l0 -3.862 7.512 0 0 3.862 -7.512 0zm368.613 403.165l0 64.253 -57.782 0 0 -64.253 57.782 0zm224.554 -419.959l-18.552 0 -21.65 0 0 -152.741 40.202 0 0 152.741z"/>
 </g>
</svg>
