<?xml version="1.0" encoding="UTF-8"?>
<!DOCTYPE svg PUBLIC "-//W3C//DTD SVG 1.1//EN" "http://www.w3.org/Graphics/SVG/1.1/DTD/svg11.dtd">
<!-- Creator: CorelDRAW 2018 (64-Bit) -->
<svg xmlns="http://www.w3.org/2000/svg" xml:space="preserve" width="1652px" height="1080px" version="1.1" style="shape-rendering:geometricPrecision; text-rendering:geometricPrecision; image-rendering:optimizeQuality; fill-rule:evenodd; clip-rule:evenodd"
viewBox="0 0 1654.365 1081.952"
 xmlns:xlink="http://www.w3.org/1999/xlink">
 <defs>
  <style type="text/css">
   <![CDATA[
    .fil0 {fill:#FEFEFE}
   ]]>
  </style>
 </defs>
 <g id="Слой_x0020_1">
  <metadata id="CorelCorpID_0Corel-Layer"/>
  <path class="fil0" d="M32.369 0l32.369 0 476.657 0 16.184 0 0 32.369 0 81.826 22.837 0 0 -1.859 5.679 0 0 -80.014 0 -1.709 1.574 0 0.029 -1.372c2.349,0.031 4.68,0.141 7.021,0.31l-0.292 3.066c-0.519,-0.038 -1.037,-0.073 -1.555,-0.104l0 92.577 -6.777 0 0 12.754 -5.679 0 0 -1.859 -22.837 0 0 92.406 1.077 0 0 4.083 -9.169 0 0 4.872 -66.556 0c0.022,0.372 0.047,0.745 0.074,1.117l-2.204 0.21c-0.121,-1.683 -0.2,-3.359 -0.222,-5.047l0.986 -0.021 0 -1.131 1.229 0 57.524 0 0 -4.083 1.077 0 0 -92.406 0 -21.79 0 -81.826 -384.7 0 0 101.617 0 16.184 -16.184 0 -75.773 0 0 687.66 33.958 0 8.092 0 19.255 0 0 7.667 152.377 0c0.093,0 0.169,0.04 0.169,0.09l0 6.317 0 4.221 0 6.318c0,0.049 -0.076,0.089 -0.169,0.089l-152.377 0 0 7.667 -19.255 0 0 203.661 763.045 0 0 -95.391 -24.277 0 -21.336 0 0 -32.369 21.336 0 0 -43.146 -21.487 0 0 -137.248 21.487 0 10.882 0 5.303 0 0 -302.015 -99.77 0 0 4.662 -5.679 0 0 80.013 0 1.71 -1.573 0 -0.03 1.372c-2.348,-0.031 -4.679,-0.141 -7.02,-0.31l0.292 -3.066c0.518,0.038 1.036,0.073 1.554,0.104l0 -92.577 6.777 0 0 -12.754 5.679 0 0 4.662 99.77 0 16.184 0 8.113 0 0 -4.662 5.679 0 0 12.754 6.777 0 0 92.577c0.518,-0.031 1.036,-0.066 1.554,-0.104l0.292 3.066c-2.34,0.169 -4.671,0.279 -7.02,0.31l-0.03 -1.372 -1.573 0 0 -1.71 0 -80.013 -5.679 0 0 -4.662 -8.113 0 0 302.015 0 72.124 0 6.011 0 24.039 104.879 0 0 7.667 188.611 0c0.115,0 0.208,0.04 0.208,0.09l0 16.856c0,0.049 -0.093,0.089 -0.208,0.089l-188.611 0 0 7.667 -104.879 0 0 45.851 0 32.369 0 103.483 -4.808 0 -3.284 0 -763.045 0 -8.092 0 -98.696 0 0 -2.51 0 -5.582 0 -198.166 32.369 0 0 -5.495 0 -32.369 0 -687.66 0 -16.184 0 -101.617 0 -32.369zm267.424 960.126c-5.191,0 -7.936,4.133 -7.936,11.937 0,7.87 2.745,11.871 8.069,11.871 5.191,0 7.936,-4.067 7.936,-11.805 0,-8.002 -2.679,-12.003 -8.069,-12.003zm0.033 3.174c4.266,0 4.233,5.82 4.233,8.829 0,2.91 -0.033,8.663 -4.166,8.663 -2.943,0 -4.233,-2.546 -4.233,-8.498 0,-3.703 0.099,-8.994 4.166,-8.994zm-15.078 -3.108l-3.042 0c-0.662,4.034 -4.266,4.497 -6.746,4.497l0 2.777 5.754 0 0 16.005 4.034 0 0 -23.279zm6.663 -16.934c7.945,0 15.138,3.22 20.345,8.427 5.206,5.206 8.427,12.4 8.427,20.345 0,7.944 -3.221,15.138 -8.427,20.344 -5.207,5.207 -12.4,8.428 -20.345,8.428 -7.945,0 -15.138,-3.221 -20.345,-8.428 -5.206,-5.206 -8.427,-12.4 -8.427,-20.344 0,-7.945 3.221,-15.138 8.427,-20.345 5.207,-5.207 12.4,-8.427 20.345,-8.427zm17.031 11.74c-4.358,-4.358 -10.38,-7.054 -17.031,-7.054 -6.651,0 -12.673,2.696 -17.031,7.054 -4.358,4.359 -7.054,10.38 -7.054,17.032 0,6.651 2.696,12.673 7.054,17.031 4.358,4.358 10.38,7.054 17.031,7.054 6.651,0 12.673,-2.696 17.031,-7.054 4.359,-4.358 7.054,-10.38 7.054,-17.031 0,-6.651 -2.695,-12.673 -7.054,-17.032zm2.842 -516.889l-2.943 0 0 -14.682 -3.571 0 -9.921 14.12 0 3.736 9.821 0 0.034 5.489 3.637 0 0 -5.489 2.943 0 0 -3.174zm-6.547 0l-6.779 0 6.779 -10.02 0 10.02zm-1.67 -31.782c7.945,0 15.138,3.221 20.345,8.428 5.206,5.206 8.427,12.4 8.427,20.345 0,7.944 -3.221,15.138 -8.427,20.344 -5.207,5.207 -12.4,8.428 -20.345,8.428 -7.945,0 -15.139,-3.221 -20.345,-8.428 -5.207,-5.206 -8.428,-12.4 -8.428,-20.344 0,-7.945 3.221,-15.138 8.428,-20.345 5.206,-5.207 12.4,-8.428 20.345,-8.428zm17.031 11.741c-4.358,-4.358 -10.38,-7.054 -17.031,-7.054 -6.652,0 -12.673,2.696 -17.032,7.054 -4.358,4.359 -7.054,10.38 -7.054,17.032 0,6.651 2.696,12.673 7.054,17.031 4.359,4.358 10.38,7.054 17.032,7.054 6.651,0 12.673,-2.696 17.031,-7.054 4.358,-4.358 7.054,-10.38 7.054,-17.031 0,-6.651 -2.696,-12.673 -7.054,-17.032zm382.006 282.562l3.604 0c0.1,-2.976 1.455,-4.563 3.87,-4.563 2.149,0 3.538,1.355 3.538,3.372 0,2.976 -2.447,3.34 -4.762,3.34l-0.331 0 0 2.844c0.562,-0.033 0.761,-0.033 1.191,-0.033 2.48,0 4.629,1.025 4.629,3.869 0,2.546 -1.62,4.133 -4.166,4.133 -2.91,0 -4.398,-1.62 -4.498,-4.861l-3.637 0 0 0.496c0,4.563 3.208,7.606 8.036,7.606 4.827,0 8.2,-3.043 8.2,-7.474 0,-2.777 -1.587,-4.794 -4.199,-5.456 1.984,-0.661 3.24,-2.48 3.24,-4.728 0,-3.703 -2.91,-6.217 -7.176,-6.217 -4.563,0 -7.406,2.91 -7.539,7.672zm7.556 -24.506c7.945,0 15.138,3.22 20.345,8.427 5.206,5.206 8.427,12.4 8.427,20.345 0,7.944 -3.221,15.138 -8.427,20.344 -5.207,5.207 -12.4,8.428 -20.345,8.428 -7.944,0 -15.138,-3.221 -20.344,-8.428 -5.207,-5.206 -8.428,-12.4 -8.428,-20.344 0,-7.945 3.221,-15.138 8.428,-20.345 5.206,-5.207 12.399,-8.427 20.344,-8.427zm17.031 11.74c-4.358,-4.358 -10.38,-7.054 -17.031,-7.054 -6.651,0 -12.673,2.696 -17.031,7.054 -4.358,4.359 -7.054,10.38 -7.054,17.032 0,6.651 2.696,12.673 7.054,17.031 4.358,4.358 10.38,7.054 17.031,7.054 6.651,0 12.673,-2.696 17.031,-7.054 4.359,-4.358 7.055,-10.38 7.055,-17.031 0,-6.651 -2.696,-12.673 -7.055,-17.032zm335.654 -33.801l-11.937 0 -2.216 12.466 3.307 0.1c0.992,-1.488 2.149,-2.083 3.869,-2.083 2.744,0 4.365,1.785 4.365,4.86 0,3.175 -1.555,4.993 -4.299,4.993 -2.348,0 -4.001,-1.521 -4.199,-3.901l-3.737 0c0.198,4.265 3.274,7.01 7.837,7.01 4.861,0 8.267,-3.406 8.267,-8.3 0,-4.53 -2.877,-7.572 -7.176,-7.572 -1.719,0 -3.174,0.396 -4.365,1.653l1.058 -5.952 9.226 0 0 -3.274zm-6.795 -17.049c7.945,0 15.138,3.22 20.345,8.427 5.206,5.206 8.427,12.4 8.427,20.345 0,7.944 -3.221,15.138 -8.427,20.344 -5.207,5.207 -12.4,8.428 -20.345,8.428 -7.945,0 -15.138,-3.221 -20.345,-8.428 -5.206,-5.206 -8.428,-12.4 -8.428,-20.344 0,-7.945 3.221,-15.138 8.428,-20.345 5.207,-5.207 12.4,-8.427 20.345,-8.427zm17.031 11.74c-4.358,-4.358 -10.38,-7.054 -17.031,-7.054 -6.652,0 -12.673,2.696 -17.032,7.054 -4.358,4.359 -7.054,10.38 -7.054,17.032 0,6.651 2.696,12.673 7.054,17.031 4.359,4.358 10.38,7.054 17.032,7.054 6.651,0 12.673,-2.696 17.031,-7.054 4.358,-4.358 7.054,-10.38 7.054,-17.031 0,-6.651 -2.696,-12.673 -7.054,-17.032zm370.619 -68.412c-0.429,-3.869 -3.042,-6.151 -6.977,-6.151 -5.39,0 -8.597,4.563 -8.597,12.268 0,7.473 2.976,11.606 8.3,11.606 4.563,0 7.803,-3.372 7.803,-8.101 0,-4.563 -2.876,-7.638 -7.142,-7.638 -2.348,0 -4.067,1.025 -5.291,2.843 0.265,-2.711 0.695,-8.002 4.762,-8.002 1.951,0 3.108,1.058 3.505,3.175l3.637 0zm-7.373 4.993c2.513,0 4.133,1.884 4.133,4.761 0,2.91 -1.62,4.828 -4.034,4.828 -2.48,0 -4.133,-1.951 -4.133,-4.927 0,-2.843 1.586,-4.662 4.034,-4.662zm-0.15 -27.979c7.945,0 15.139,3.221 20.345,8.428 5.207,5.206 8.428,12.4 8.428,20.344 0,7.945 -3.221,15.139 -8.428,20.345 -5.207,5.207 -12.4,8.427 -20.345,8.427 -7.944,0 -15.138,-3.22 -20.344,-8.427 -5.207,-5.206 -8.428,-12.4 -8.428,-20.345 0,-7.944 3.221,-15.138 8.428,-20.344 5.206,-5.207 12.4,-8.428 20.344,-8.428zm17.032 11.741c-4.359,-4.358 -10.381,-7.054 -17.032,-7.054 -6.651,0 -12.672,2.696 -17.031,7.054 -4.358,4.358 -7.054,10.38 -7.054,17.031 0,6.652 2.696,12.673 7.054,17.031 4.359,4.359 10.38,7.055 17.031,7.055 6.652,0 12.673,-2.696 17.032,-7.055 4.358,-4.358 7.054,-10.379 7.054,-17.031 0,-6.651 -2.696,-12.673 -7.054,-17.031zm35.481 -441.313l-15.773 0 0 3.472 12.036 0c-4.629,4.331 -8.663,13.26 -8.828,19.542l4.133 0c0.264,-6.911 3.604,-15.012 8.432,-19.84l0 -3.174zm-7.887 -17.265c7.945,0 15.139,3.22 20.345,8.427 5.207,5.206 8.428,12.4 8.428,20.345 0,7.944 -3.221,15.138 -8.428,20.344 -5.207,5.207 -12.4,8.428 -20.345,8.428 -7.944,0 -15.138,-3.221 -20.344,-8.428 -5.207,-5.206 -8.428,-12.4 -8.428,-20.344 0,-7.945 3.221,-15.138 8.428,-20.345 5.206,-5.207 12.4,-8.427 20.344,-8.427zm17.032 11.74c-4.359,-4.358 -10.381,-7.054 -17.032,-7.054 -6.651,0 -12.672,2.696 -17.031,7.054 -4.358,4.359 -7.054,10.38 -7.054,17.032 0,6.651 2.696,12.673 7.054,17.031 4.359,4.358 10.38,7.054 17.031,7.054 6.652,0 12.673,-2.696 17.032,-7.054 4.358,-4.358 7.054,-10.38 7.054,-17.031 0,-6.651 -2.696,-12.673 -7.054,-17.032zm-288.519 59.363c-2.679,0.827 -4.233,2.91 -4.233,5.787 0,4.232 3.273,7.076 8.101,7.076 4.894,0 8.168,-2.91 8.168,-7.274 0,-3.076 -1.554,-4.663 -4.233,-5.589 2.117,-0.892 3.274,-2.612 3.274,-4.927 0,-3.538 -2.91,-6.051 -7.076,-6.051 -4.299,0 -7.308,2.513 -7.308,6.151 0,2.314 1.223,4.1 3.307,4.827zm3.968 -7.936c2.182,0 3.604,1.29 3.604,3.34 0,2.083 -1.422,3.373 -3.637,3.373 -2.216,0 -3.704,-1.356 -3.704,-3.373 0,-2.05 1.455,-3.34 3.737,-3.34zm-0.1 9.424c2.646,0 4.365,1.621 4.365,4.2 0,2.645 -1.587,4.199 -4.232,4.199 -2.712,0 -4.431,-1.653 -4.431,-4.298 0,-2.447 1.752,-4.101 4.298,-4.101zm0.033 -29.318c7.945,0 15.139,3.221 20.345,8.428 5.207,5.206 8.428,12.4 8.428,20.345 0,7.944 -3.221,15.138 -8.428,20.344 -5.207,5.207 -12.4,8.428 -20.345,8.428 -7.944,0 -15.138,-3.221 -20.344,-8.428 -5.207,-5.206 -8.428,-12.4 -8.428,-20.344 0,-7.945 3.221,-15.138 8.428,-20.345 5.206,-5.207 12.4,-8.428 20.344,-8.428zm17.032 11.741c-4.359,-4.358 -10.381,-7.054 -17.032,-7.054 -6.651,0 -12.673,2.696 -17.031,7.054 -4.358,4.358 -7.054,10.38 -7.054,17.032 0,6.651 2.696,12.673 7.054,17.031 4.358,4.358 10.38,7.054 17.031,7.054 6.652,0 12.673,-2.696 17.032,-7.054 4.358,-4.358 7.054,-10.38 7.054,-17.031 0,-6.652 -2.696,-12.674 -7.054,-17.032zm-290.257 -26.613c0.198,3.604 3.174,6.217 7.076,6.217 6.712,0 8.531,-6.911 8.531,-12.499 0,-5.258 -1.653,-11.409 -8.2,-11.409 -4.564,0 -7.87,3.406 -7.87,8.135 0,4.431 2.975,7.605 7.142,7.605 2.348,0 3.902,-0.992 5.159,-2.943 -0.133,2.91 -0.728,8.102 -4.564,8.102 -2.149,0 -3.472,-1.356 -3.637,-3.208l-3.637 0zm7.274 -14.516c2.513,0 4.134,1.918 4.134,4.861 0,2.777 -1.654,4.662 -4.068,4.662 -2.447,0 -4.001,-1.819 -4.001,-4.662 0,-2.91 1.554,-4.861 3.935,-4.861zm0.298 -19.993c7.945,0 15.138,3.221 20.345,8.427 5.206,5.207 8.427,12.4 8.427,20.345 0,7.945 -3.221,15.138 -8.427,20.344 -5.207,5.208 -12.4,8.428 -20.345,8.428 -7.945,0 -15.138,-3.221 -20.345,-8.428 -5.206,-5.206 -8.427,-12.399 -8.427,-20.344 0,-7.945 3.22,-15.138 8.427,-20.345 5.207,-5.206 12.4,-8.427 20.345,-8.427zm17.031 11.741c-4.358,-4.358 -10.38,-7.055 -17.031,-7.055 -6.651,0 -12.673,2.697 -17.031,7.055 -4.359,4.358 -7.055,10.38 -7.055,17.031 0,6.651 2.696,12.673 7.055,17.031 4.358,4.358 10.38,7.055 17.031,7.055 6.651,0 12.673,-2.697 17.031,-7.055 4.358,-4.358 7.054,-10.38 7.054,-17.031 0,-6.651 -2.696,-12.673 -7.054,-17.031zm0.748 269.494l-11.275 0c0.793,-1.918 3.273,-3.571 4.96,-4.662 3.24,-2.15 6.349,-4.068 6.349,-8.433 0,-4.199 -2.976,-6.943 -7.474,-6.943 -4.761,0 -7.77,3.174 -7.77,8.134l0 0.595 3.67 0c0.066,-2.711 0.595,-5.489 4.001,-5.489 2.315,0 3.737,1.488 3.737,3.902 0,3.207 -2.778,4.662 -5.093,6.216 -3.935,2.646 -6.745,4.729 -6.911,10.02l15.806 0 0 -3.34zm-7.886 -37.121c7.945,0 15.138,3.22 20.345,8.427 5.206,5.206 8.427,12.4 8.427,20.345 0,7.944 -3.221,15.138 -8.427,20.344 -5.207,5.207 -12.4,8.428 -20.345,8.428 -7.945,0 -15.138,-3.221 -20.345,-8.428 -5.206,-5.206 -8.427,-12.4 -8.427,-20.344 0,-7.945 3.221,-15.138 8.427,-20.345 5.207,-5.207 12.4,-8.427 20.345,-8.427zm17.031 11.74c-4.358,-4.358 -10.38,-7.054 -17.031,-7.054 -6.651,0 -12.673,2.696 -17.031,7.054 -4.359,4.359 -7.054,10.38 -7.054,17.032 0,6.651 2.695,12.673 7.054,17.031 4.358,4.358 10.38,7.054 17.031,7.054 6.651,0 12.673,-2.696 17.031,-7.054 4.359,-4.358 7.054,-10.38 7.054,-17.031 0,-6.651 -2.695,-12.673 -7.054,-17.032zm-310.246 -153.278l-3.042 0c-0.661,4.034 -4.265,4.497 -6.745,4.497l0 2.778 5.753 0 0 16.004 4.034 0 0 -23.279zm-4.894 -17.133c7.945,0 15.139,3.221 20.345,8.428 5.207,5.206 8.428,12.4 8.428,20.344 0,7.945 -3.221,15.139 -8.428,20.345 -5.207,5.207 -12.4,8.427 -20.345,8.427 -7.944,0 -15.138,-3.22 -20.344,-8.427 -5.207,-5.206 -8.428,-12.4 -8.428,-20.345 0,-7.944 3.221,-15.138 8.428,-20.344 5.206,-5.207 12.399,-8.428 20.344,-8.428zm17.032 11.741c-4.359,-4.358 -10.381,-7.054 -17.032,-7.054 -6.651,0 -12.673,2.696 -17.031,7.054 -4.358,4.358 -7.054,10.38 -7.054,17.031 0,6.652 2.696,12.673 7.054,17.031 4.358,4.359 10.38,7.055 17.031,7.055 6.652,0 12.673,-2.696 17.032,-7.055 4.358,-4.358 7.054,-10.379 7.054,-17.031 0,-6.651 -2.696,-12.673 -7.054,-17.031zm-118.301 163.489l0 2.743 0 79.68 63.45 0 16.185 0 8.759 0 0 -4.662 5.68 0 0 12.748 3.457 0c0.007,2.028 0.076,4.032 0.212,6.056l-3.451 0.188c-0.138,-2.039 -0.209,-4.056 -0.218,-6.097l0 12.613 -5.68 0 0 -4.662 -8.759 0 0 74.978 0 16.184 -16.185 0 -63.45 0 0 282.977 0 6.011 0 26.358 -7.126 0 0 75.901 84.658 0 0 7.667 188.9 0c0.115,0 0.208,0.04 0.208,0.09l0 16.855c0,0.05 -0.093,0.09 -0.208,0.09l-188.9 0 0 7.667 -84.658 0 -32.369 0 0 -32.369 0 -75.901 -86.634 0 0 -7.754c-0.002,0.048 -0.077,0.087 -0.169,0.087l-152.524 0c-0.093,0 -0.168,-0.04 -0.168,-0.089l0 -6.318 0 -4.221 0 -6.317c0,-0.05 0.075,-0.09 0.168,-0.09l152.524 0c0.092,0 0.167,0.039 0.169,0.088l0 -7.755 86.634 0 23.311 0 0 -282.977 0 -16.184 0 -74.978 0 -16.184 0 -79.68 0 -2.743 16.184 0zm-3.559 -53.299l0 2.744 -6.159 0 0 1.67c-0.98,0.004 -1.948,0.037 -2.926,0.103l-0.09 -1.668c0.976,-0.066 1.943,-0.1 2.921,-0.105l-6.07 0 0 -2.744 -1.378 0 0 -4.083 9.103 0c-1.48,-0.006 -2.941,-0.057 -4.419,-0.157l0.136 -2.481c1.455,0.098 2.896,0.147 4.353,0.152l0 2.486 9.165 0 0 4.083 -4.636 0zm-10.453 53.298l-40.528 0 -0.826 0 0 -0.76 -0.662 -0.014c0.014,-1.134 0.067,-2.261 0.149,-3.392l1.481 0.141c-0.018,0.251 -0.035,0.501 -0.05,0.752l44.727 0 0 3.273 -4.291 0zm-41.714 -5.861c0.121,-1.128 0.274,-2.238 0.46,-3.355l1.46 0.312c-0.179,1.082 -0.327,2.157 -0.445,3.25l-1.475 -0.207zm0.768 -5.023c0.219,-1.082 0.468,-2.234 0.769,-3.288l1.421 0.489c-0.281,1.047 -0.525,2.109 -0.741,3.175l-1.449 -0.376zm1.228 -4.905c0.32,-1.073 0.68,-2.138 1.068,-3.181l1.37 0.648c-0.374,1.009 -0.721,2.037 -1.031,3.073l-1.407 -0.54zm1.672 -4.736c0.4,-1.02 0.881,-2.059 1.353,-3.04l1.306 0.799c-0.456,0.949 -0.921,1.951 -1.307,2.937l-1.352 -0.696zm2.098 -4.521c0.51,-0.976 1.052,-1.934 1.621,-2.868l1.225 0.947c-0.55,0.904 -1.073,1.83 -1.566,2.773l-1.28 -0.852zm2.496 -4.257c0.599,-0.913 1.217,-1.801 1.867,-2.67l1.133 1.083c-0.63,0.838 -1.228,1.702 -1.807,2.584l-1.193 -0.997zm2.858 -3.949c0.672,-0.843 1.374,-1.657 2.094,-2.448l1.036 1.199c-0.697,0.765 -1.377,1.554 -2.027,2.369l-1.103 -1.12zm3.196 -3.614c0.746,-0.762 1.51,-1.498 2.298,-2.204l0.923 1.31c-0.763,0.682 -1.504,1.397 -2.225,2.134l-0.996 -1.24zm3.492 -3.24c0.805,-0.68 1.636,-1.325 2.479,-1.943l0.808 1.403c-0.816,0.597 -1.621,1.223 -2.399,1.88l-0.888 -1.34zm3.761 -2.846c0.866,-0.586 1.74,-1.135 2.635,-1.661l0.678 1.487c-0.867,0.526 -1.705,1.036 -2.55,1.609l-0.763 -1.435zm3.986 -2.418c0.911,-0.489 1.829,-0.943 2.766,-1.367l0.548 1.554c-0.903,0.402 -1.8,0.852 -2.677,1.322l-0.637 -1.509zm4.175 -1.974c0.946,-0.387 1.904,-0.742 2.871,-1.06l0.412 1.606c-0.935,0.308 -1.861,0.651 -2.777,1.025l-0.506 -1.571zm4.326 -1.511c0.976,-0.284 1.959,-0.53 2.949,-0.745l0.272 1.643c-0.954,0.201 -1.913,0.448 -2.852,0.721l-0.369 -1.619zm4.435 -1.037c0.996,-0.176 1.992,-0.317 2.995,-0.424l0.137 1.663c-0.974,0.105 -1.937,0.242 -2.904,0.413l-0.228 -1.652zm-59.315 -73.995c0.18,1.678 0.408,3.331 0.684,4.993l2.173 -0.465c-0.267,-1.611 -0.487,-3.209 -0.662,-4.836l-2.195 0.308zm1.144 7.475c0.325,1.609 0.695,3.324 1.143,4.893l2.115 -0.728c-0.419,-1.559 -0.782,-3.138 -1.103,-4.725l-2.155 0.56zm1.826 7.299c0.477,1.596 1.011,3.181 1.589,4.733l2.038 -0.965c-0.557,-1.5 -1.072,-3.03 -1.533,-4.572l-2.094 0.804zm2.488 7.046c0.595,1.518 1.311,3.064 2.013,4.524l1.944 -1.189c-0.679,-1.411 -1.371,-2.903 -1.945,-4.37l-2.012 1.035zm3.123 6.728c0.758,1.452 1.565,2.878 2.41,4.268l1.823 -1.409c-0.817,-1.345 -1.596,-2.723 -2.33,-4.127l-1.903 1.268zm3.712 6.334c0.892,1.359 1.812,2.681 2.78,3.973l1.685 -1.611c-0.937,-1.247 -1.827,-2.532 -2.689,-3.844l-1.776 1.482zm4.254 5.877c0.999,1.255 2.045,2.466 3.116,3.643l1.541 -1.784c-1.036,-1.138 -2.049,-2.313 -3.016,-3.526l-1.641 1.667zm4.755 5.379c1.11,1.133 2.247,2.228 3.42,3.279l1.373 -1.949c-1.135,-1.015 -2.236,-2.079 -3.31,-3.176l-1.483 1.846zm5.197 4.821c1.197,1.011 2.435,1.971 3.689,2.89l1.201 -2.088c-1.213,-0.888 -2.411,-1.819 -3.569,-2.796l-1.321 1.994zm5.596 4.234c1.289,0.873 2.589,1.689 3.922,2.473l1.008 -2.213c-1.29,-0.784 -2.536,-1.542 -3.794,-2.394l-1.136 2.134zm5.931 3.599c1.357,0.727 2.723,1.402 4.116,2.034l0.816 -2.312c-1.344,-0.599 -2.678,-1.268 -3.983,-1.968l-0.949 2.246zm6.214 2.937c1.408,0.576 2.834,1.104 4.272,1.577l0.613 -2.389c-1.391,-0.458 -2.769,-0.969 -4.132,-1.526l-0.753 2.338zm6.437 2.248c1.453,0.423 2.915,0.789 4.388,1.109l0.404 -2.444c-1.419,-0.301 -2.845,-0.667 -4.243,-1.074l-0.549 2.409zm6.6 1.544c1.482,0.261 2.963,0.472 4.457,0.631l0.203 -2.475c-1.449,-0.157 -2.882,-0.36 -4.321,-0.614l-0.339 2.458zm793.165 576.839c-0.025,0 -0.05,0.001 -0.072,0.004l0 -0.121c0.022,0.002 0.047,0.004 0.072,0.004l89.783 0 0 0.113 -89.783 0zm-0.072 0.184c0.022,0.003 0.047,0.004 0.072,0.004l89.783 0 0 0.641 -89.783 0c-0.025,0 -0.05,0.001 -0.072,0.004l0 -0.649zm0.072 -0.486c-0.025,0 -0.05,0.002 -0.072,0.004l0 -1.041 0.072 0.001 89.783 0 0 1.036 -89.783 0zm-0.072 1.315c0.022,0.003 0.047,0.004 0.072,0.004l89.783 0 0 0.076 -89.783 0c-0.025,0 -0.05,0.001 -0.072,0.003l0 -0.083zm0 0.264c0.022,0.003 0.047,0.004 0.072,0.004l89.783 0 0 1.074 -89.783 0 -0.072 0.001 0 -1.079zm0 1.604l0.072 0.002 90.158 0c0.207,0.058 0.481,0.094 0.783,0.094l13.648 0 0.059 -0.001 0.003 0 0.06 0.001 13.648 0c0.301,0 0.576,-0.036 0.782,-0.094l89.955 0c0.16,0 0.308,-0.02 0.426,-0.054l0 6.018 -209.594 0 0 -5.966zm0.072 -4.746l-0.072 0.001 0 -5.965 209.594 0 0 6.017c-0.118,-0.034 -0.266,-0.053 -0.426,-0.053l-89.955 0c-0.206,-0.059 -0.481,-0.095 -0.782,-0.095l-13.648 0 -0.06 0.001 -0.003 0 -0.059 -0.001 -13.648 0c-0.302,0 -0.576,0.036 -0.783,0.095l-90.158 0zm119.516 2.053l89.58 0c0.14,0 0.253,-0.042 0.253,-0.094 0,-0.052 -0.113,-0.094 -0.253,-0.094l-89.58 0 0 -0.113 89.58 0c0.14,0 0.253,-0.042 0.253,-0.094 0,-0.052 -0.113,-0.095 -0.253,-0.095l-89.58 0 0 -1.036 89.58 0c0.16,0 0.308,-0.02 0.426,-0.053l0 3.799c-0.118,-0.033 -0.266,-0.053 -0.426,-0.053l-89.58 0 0 -1.074 89.58 0c0.14,0 0.253,-0.042 0.253,-0.094 0,-0.052 -0.113,-0.094 -0.253,-0.094l-89.58 0 0 -0.076 89.58 0c0.14,0 0.253,-0.042 0.253,-0.094 0,-0.052 -0.113,-0.094 -0.253,-0.094l-89.58 0 0 -0.641zm-13.648 2.073l0 -3.505 11.333 0 0 3.505 -11.333 0zm-13.77 0l0 -3.505 11.333 0 0 3.505 -11.333 0zm117.888 -10.18c0,-0.05 -0.104,-0.09 -0.232,-0.09l-209.826 0 0 -7.667 -82.04 0 0 -404.189 0 -16.184 0 -11.463 4.662 0 0 -5.68 -12.613 0c2.041,-0.009 4.058,-0.08 6.097,-0.218l-0.188 -3.451c-2.024,0.136 -4.028,0.205 -6.056,0.211l0 3.458 -12.748 0 0 5.68 4.662 0 0 11.463 -231.139 0 0 -4.662 -5.679 0 0 12.748 -3.458 0c-0.007,2.028 -0.076,4.032 -0.212,6.056l3.451 0.188c0.138,-2.039 0.209,-4.056 0.219,-6.097l0 12.613 5.679 0 0 -4.662 231.139 0 0 404.189 -60.705 0 0 32.369 60.705 0 16.184 0 82.04 0 0 -7.667 209.826 0c0.128,0 0.232,-0.04 0.232,-0.089l0 -16.856zm-558.434 7.919c-0.105,0 -0.192,0.029 -0.219,0.069l0 -0.251c0.027,0.04 0.114,0.069 0.219,0.069l80.639 0 0 0.113 -80.639 0zm-0.219 0.119c0.027,0.04 0.114,0.069 0.219,0.069l80.639 0 0 0.641 -80.639 0c-0.105,0 -0.192,0.029 -0.219,0.069l0 -0.779zm0.219 -0.421c-0.105,0 -0.192,0.03 -0.219,0.069l0 -1.121c0.068,0.011 0.142,0.016 0.219,0.016l80.639 0 0 1.036 -80.639 0zm-0.219 1.25c0.027,0.04 0.114,0.069 0.219,0.069l80.639 0 0 0.076 -80.639 0c-0.105,0 -0.192,0.029 -0.219,0.069l0 -0.214zm0 0.264c0.027,0.04 0.114,0.069 0.219,0.069l80.639 0 0 1.074 -80.639 0c-0.077,0 -0.151,0.006 -0.219,0.016l0 -1.159zm0 1.655c0.068,0.01 0.142,0.016 0.219,0.016l80.976 0c0.185,0.058 0.432,0.094 0.703,0.094l12.258 0 0.054 -0.001 0.002 0 0.054 0.001 12.258 0c0.271,0 0.517,-0.036 0.702,-0.094l80.794 0c0.144,0 0.276,-0.02 0.383,-0.054l0 6.018 -188.403 0 0 -5.98zm0.219 -4.732c-0.077,0 -0.151,0.005 -0.219,0.016l0 -5.98 188.403 0 0 6.017c-0.107,-0.034 -0.239,-0.053 -0.383,-0.053l-80.794 0c-0.185,-0.059 -0.431,-0.095 -0.702,-0.095l-12.258 0 -0.054 0.001 -0.002 0 -0.054 -0.001 -12.258 0c-0.271,0 -0.518,0.036 -0.703,0.095l-80.976 0zm107.345 2.053l80.456 0c0.125,0 0.227,-0.042 0.227,-0.094 0,-0.052 -0.102,-0.094 -0.227,-0.094l-80.456 0 0 -0.113 80.456 0c0.125,0 0.227,-0.042 0.227,-0.094 0,-0.052 -0.102,-0.095 -0.227,-0.095l-80.456 0 0 -1.036 80.456 0c0.144,0 0.276,-0.02 0.383,-0.053l0 3.799c-0.107,-0.033 -0.239,-0.053 -0.383,-0.053l-80.456 0 0 -1.074 80.456 0c0.125,0 0.227,-0.042 0.227,-0.094 0,-0.052 -0.102,-0.094 -0.227,-0.094l-80.456 0 0 -0.076 80.456 0c0.125,0 0.227,-0.042 0.227,-0.094 0,-0.052 -0.102,-0.094 -0.227,-0.094l-80.456 0 0 -0.641zm-12.259 2.073l0 -3.505 10.179 0 0 3.505 -10.179 0zm-12.367 0l0 -3.505 10.178 0 0 3.505 -10.178 0zm-430.331 75.959c-0.105,0 -0.193,0.029 -0.22,0.069l0 -0.252c0.027,0.04 0.115,0.07 0.22,0.07l80.729 0 0 0.113 -80.729 0zm-0.22 0.118c0.027,0.04 0.115,0.07 0.22,0.07l80.729 0 0 0.641 -80.729 0c-0.105,0 -0.193,0.029 -0.22,0.069l0 -0.78zm0.22 -0.42c-0.105,0 -0.193,0.03 -0.22,0.07l0 -1.122c0.069,0.01 0.143,0.016 0.22,0.016l80.729 0 0 1.036 -80.729 0zm-0.22 1.249c0.027,0.04 0.115,0.07 0.22,0.07l80.729 0 0 0.075 -80.729 0c-0.105,0 -0.193,0.03 -0.22,0.07l0 -0.215zm0 0.264c0.027,0.04 0.115,0.07 0.22,0.07l80.729 0 0 1.074 -80.729 0c-0.077,0 -0.151,0.005 -0.22,0.016l0 -1.16zm0 1.655c0.069,0.011 0.143,0.016 0.22,0.016l81.066 0c0.185,0.059 0.432,0.094 0.704,0.094l12.271 0 0.054 0 0.002 0 0.054 0 12.271 0c0.271,0 0.518,-0.035 0.704,-0.094l80.882 0c0.144,0 0.277,-0.02 0.384,-0.053l0 6.018 -188.612 0 0 -5.981zm0.22 -4.732c-0.077,0 -0.151,0.006 -0.22,0.016l0 -5.98 188.612 0 0 6.017c-0.107,-0.033 -0.24,-0.053 -0.384,-0.053l-80.882 0c-0.186,-0.058 -0.433,-0.094 -0.704,-0.094l-12.271 0 -0.054 0.001 -0.002 0 -0.054 -0.001 -12.271 0c-0.272,0 -0.519,0.036 -0.704,0.094l-81.066 0zm107.463 2.054l80.545 0c0.126,0 0.228,-0.042 0.228,-0.094 0,-0.052 -0.102,-0.094 -0.228,-0.094l-80.545 0 0 -0.113 80.545 0c0.126,0 0.228,-0.043 0.228,-0.095 0,-0.052 -0.102,-0.094 -0.228,-0.094l-80.545 0 0 -1.036 80.545 0c0.144,0 0.277,-0.02 0.384,-0.053l0 3.799c-0.107,-0.033 -0.24,-0.053 -0.384,-0.053l-80.545 0 0 -1.074 80.545 0c0.126,0 0.228,-0.043 0.228,-0.095 0,-0.051 -0.102,-0.094 -0.228,-0.094l-80.545 0 0 -0.075 80.545 0c0.126,0 0.228,-0.042 0.228,-0.094 0,-0.052 -0.102,-0.094 -0.228,-0.094l-80.545 0 0 -0.641zm-12.271 2.072l0 -3.504 10.189 0 0 3.504 -10.189 0zm-12.381 0l0 -3.504 10.189 0 0 3.504 -10.189 0zm-439.12 -110.53c-0.085,0 -0.156,0.03 -0.177,0.07l0 -0.253c0.021,0.04 0.092,0.07 0.177,0.07l65.139 0 0 0.113 -65.139 0zm-0.177 0.118c0.021,0.041 0.092,0.07 0.177,0.07l65.139 0 0 0.641 -65.139 0c-0.085,0 -0.156,0.03 -0.177,0.07l0 -0.781zm0.177 -0.42c-0.085,0 -0.156,0.03 -0.177,0.07l0 -1.122c0.055,0.01 0.115,0.016 0.177,0.016l65.139 0 0 1.036 -65.139 0zm-0.177 1.249c0.021,0.04 0.092,0.07 0.177,0.07l65.139 0 0 0.075 -65.139 0c-0.085,0 -0.156,0.03 -0.177,0.071l0 -0.216zm0 0.264c0.021,0.04 0.092,0.07 0.177,0.07l65.139 0 0 1.074 -65.139 0c-0.062,0 -0.122,0.006 -0.177,0.016l0 -1.16zm0 1.655c0.055,0.011 0.115,0.016 0.177,0.016l65.412 0c0.149,0.059 0.348,0.095 0.567,0.095l9.902 0 0.043 -0.001 0.002 0 0.043 0.001 9.902 0c0.219,0 0.418,-0.036 0.568,-0.095l65.263 0c0.116,0 0.223,-0.02 0.309,-0.053l0 6.018 -152.188 0 0 -5.981zm0.177 -4.731c-0.062,0 -0.122,0.005 -0.177,0.016l0 -5.98 152.188 0 0 6.017c-0.086,-0.033 -0.193,-0.053 -0.309,-0.053l-65.263 0c-0.15,-0.059 -0.349,-0.095 -0.568,-0.095l-9.902 0 -0.043 0.001 -0.002 0 -0.043 -0.001 -9.902 0c-0.219,0 -0.418,0.036 -0.567,0.095l-65.412 0zm86.711 2.053l64.991 0c0.102,0 0.184,-0.042 0.184,-0.094 0,-0.052 -0.082,-0.094 -0.184,-0.094l-64.991 0 0 -0.113 64.991 0c0.102,0 0.184,-0.042 0.184,-0.094 0,-0.052 -0.082,-0.095 -0.184,-0.095l-64.991 0 0 -1.036 64.991 0c0.116,0 0.223,-0.02 0.309,-0.053l0 3.799c-0.086,-0.033 -0.193,-0.053 -0.309,-0.053l-64.991 0 0 -1.074 64.991 0c0.102,0 0.184,-0.042 0.184,-0.094 0,-0.052 -0.082,-0.095 -0.184,-0.095l-64.991 0 0 -0.075 64.991 0c0.102,0 0.184,-0.042 0.184,-0.094 0,-0.052 -0.082,-0.094 -0.184,-0.094l-64.991 0 0 -0.641zm-9.902 2.073l0 -3.505 8.222 0 0 3.505 -8.222 0zm-9.99 0l0 -3.505 8.222 0 0 3.505 -8.222 0zm-67.846 -2.261c0.085,0 0.157,0.03 0.177,0.07l0 -0.253c-0.02,0.04 -0.092,0.07 -0.177,0.07l-65.139 0 0 0.113 65.139 0zm0.177 0.118c-0.02,0.041 -0.092,0.07 -0.177,0.07l-65.139 0 0 0.641 65.139 0c0.085,0 0.157,0.03 0.177,0.07l0 -0.781zm-0.177 -0.42c0.085,0 0.157,0.03 0.177,0.07l0 -1.122c-0.055,0.01 -0.115,0.016 -0.177,0.016l-65.139 0 0 1.036 65.139 0zm0.177 1.249c-0.02,0.04 -0.092,0.07 -0.177,0.07l-65.139 0 0 0.075 65.139 0c0.085,0 0.157,0.03 0.177,0.071l0 -0.216zm0 0.264c-0.02,0.04 -0.092,0.07 -0.177,0.07l-65.139 0 0 1.074 65.139 0c0.062,0 0.122,0.006 0.177,0.016l0 -1.16zm0 1.655c-0.055,0.011 -0.115,0.016 -0.177,0.016l-65.411 0c-0.15,0.059 -0.349,0.095 -0.568,0.095l-9.902 0 -0.043 -0.001 -0.002 0 -0.043 0.001 -9.902 0c-0.219,0 -0.418,-0.036 -0.567,-0.095l-65.264 0c-0.116,0 -0.223,-0.02 -0.309,-0.053l0 6.018 152.188 0 0 -5.981zm-0.177 -4.731c0.062,0 0.122,0.005 0.177,0.016l0 -5.98 -152.188 0 0 6.017c0.086,-0.033 0.193,-0.053 0.309,-0.053l65.264 0c0.149,-0.059 0.348,-0.095 0.567,-0.095l9.902 0 0.043 0.001 0.002 0 0.043 -0.001 9.902 0c0.219,0 0.418,0.036 0.568,0.095l65.411 0zm-86.711 2.053l-64.991 0c-0.101,0 -0.183,-0.042 -0.183,-0.094 0,-0.052 0.082,-0.094 0.183,-0.094l64.991 0 0 -0.113 -64.991 0c-0.101,0 -0.183,-0.042 -0.183,-0.094 0,-0.052 0.082,-0.095 0.183,-0.095l64.991 0 0 -1.036 -64.991 0c-0.116,0 -0.223,-0.02 -0.309,-0.053l0 3.799c0.086,-0.033 0.193,-0.053 0.309,-0.053l64.991 0 0 -1.074 -64.991 0c-0.101,0 -0.183,-0.042 -0.183,-0.094 0,-0.052 0.082,-0.095 0.183,-0.095l64.991 0 0 -0.075 -64.991 0c-0.101,0 -0.183,-0.042 -0.183,-0.094 0,-0.052 0.082,-0.094 0.183,-0.094l64.991 0 0 -0.641zm9.902 2.073l0 -3.505 -8.222 0 0 3.505 8.222 0zm9.99 0l0 -3.505 -8.222 0 0 3.505 8.222 0zm1220.934 -546.729l-5.679 0 0 -4.662 -87.9 0 0 3.35 -16.185 0 0 -3.35 -73.067 0 0 15.67 4.662 0 0 5.679 80.013 0 1.71 0 0 1.573 1.371 0.03c-0.03,2.348 -0.14,4.679 -0.309,7.02l-3.066 -0.292c0.038,-0.518 0.073,-1.036 0.104,-1.554l-92.578 0 0 -6.777 -12.753 0 0 -5.679 4.662 0 0 -15.67 0 -16.184 16.184 0 73.067 0 0 -164.832 -67.659 0 -16.184 0 -51.731 0 -16.185 0 -67.658 0 0 168.181 14.123 0 0 -8.011 5.679 0 0 -80.014 0 -1.709 1.573 0 0.03 -1.372c2.348,0.031 4.679,0.141 7.02,0.31l-0.292 3.066c-0.518,-0.038 -1.036,-0.073 -1.554,-0.104l0 92.577 -6.777 0 0 12.754 -5.679 0 0 -1.312 -14.123 0 -16.185 0 -60.748 0 0 4.662 -5.679 0 0 -12.749 -3.458 0c-0.007,-2.027 -0.075,-4.031 -0.212,-6.055l3.452 -0.188c0.138,2.038 0.208,4.056 0.218,6.097l0 -12.613 5.679 0 0 4.661 60.748 0 0 -168.181 0 -16.184 0 -74.807 -211.605 0 0 80.473 0 32.369 -32.369 0 -35.546 0 0 146.33 102.774 0 0 -4.661 5.68 0 0 -80.014 0 -1.709 1.573 0 0.03 -1.372c2.348,0.031 4.679,0.14 7.02,0.31l-0.292 3.065c-0.518,-0.037 -1.037,-0.072 -1.555,-0.103l0 92.577 -6.776 0 0 12.754 -5.68 0 0 -4.662 -102.774 0 -16.185 0 -73.369 0 0 -16.185 73.369 0 0 -146.33 -27.904 0 -66.457 0 0 -32.369 66.457 0 0 -80.473 0 -32.369 32.37 0 47.265 0 32.369 0 746.777 0 32.369 0 0 32.369 0 74.807 0 16.184 0 164.832 0 16.184 0 563.504 0 32.369 0 1.289 -32.369 0 0 -1.289 -80.539 0 0 -32.369 80.539 0 0 -563.504 -79.487 0 0 4.662 -5.68 0 0 -12.748 -3.457 0c-0.007,-2.028 -0.076,-4.032 -0.212,-6.056l3.451 -0.188c0.138,2.038 0.209,4.056 0.218,6.097l0 -12.613 5.68 0 0 4.662 79.487 0 0 -164.832 -86.894 0 -16.184 0 0 -16.184 0 -74.807 -180.307 0 0 74.807 0 16.184 0 164.832 87.9 0 0 -4.662 5.679 0 0 -80.014 0 -1.709 1.573 0 0.03 -1.372c2.348,0.031 4.679,0.141 7.02,0.31l-0.292 3.066c-0.518,-0.038 -1.036,-0.073 -1.554,-0.104l0 92.577 -6.777 0 0 12.754zm12.132 -107.977c2.334,0.251 4.634,0.568 6.946,0.952l-0.648 3.023c-2.239,-0.372 -4.464,-0.678 -6.726,-0.921l0.428 -3.054zm10.397 1.591c2.239,0.452 4.624,0.967 6.807,1.591l-1.013 2.942c-2.168,-0.583 -4.364,-1.089 -6.572,-1.535l0.778 -2.998zm10.154 2.541c2.219,0.663 4.423,1.406 6.583,2.21l-1.342 2.835c-2.087,-0.775 -4.215,-1.492 -6.359,-2.133l1.118 -2.912zm9.801 3.461c2.111,0.827 4.261,1.823 6.292,2.8l-1.653 2.703c-1.963,-0.944 -4.039,-1.906 -6.079,-2.705l1.44 -2.798zm9.358 4.343c2.02,1.055 4.002,2.177 5.936,3.353l-1.96 2.536c-1.871,-1.137 -3.787,-2.22 -5.74,-3.242l1.764 -2.647zm8.81 5.164c1.89,1.24 3.73,2.52 5.527,3.866l-2.241 2.344c-1.735,-1.302 -3.522,-2.541 -5.348,-3.74l2.062 -2.47zm8.175 5.917c1.745,1.39 3.43,2.844 5.067,4.334l-2.482 2.143c-1.582,-1.441 -3.217,-2.85 -4.904,-4.194l2.319 -2.283zm7.481 6.614c1.576,1.544 3.1,3.126 4.562,4.756l-2.712 1.911c-1.412,-1.579 -2.892,-3.111 -4.416,-4.604l2.566 -2.063zm6.706 7.229c1.407,1.665 2.742,3.386 4.02,5.131l-2.904 1.671c-1.235,-1.687 -2.53,-3.354 -3.89,-4.964l2.774 -1.838zm5.89 7.784c1.213,1.793 2.349,3.601 3.439,5.455l-3.078 1.402c-1.09,-1.794 -2.145,-3.528 -3.33,-5.278l2.969 -1.579zm5.005 8.25c1.011,1.887 1.951,3.786 2.83,5.725l-3.216 1.135c-0.834,-1.87 -1.764,-3.725 -2.738,-5.541l3.124 -1.319zm4.086 8.642c0.801,1.959 1.536,3.942 2.194,5.943l-3.323 0.853c-0.638,-1.936 -1.348,-3.853 -2.124,-5.748l3.253 -1.048zm3.127 8.954c0.589,2.021 1.098,4.055 1.542,6.104l-3.4 0.562c-0.417,-1.974 -0.926,-3.958 -1.493,-5.903l3.351 -0.763zm2.147 9.18c0.364,2.062 0.657,4.122 0.878,6.199l-3.443 0.283c-0.218,-2.016 -0.5,-4.009 -0.854,-6.01l3.419 -0.472zm-198.969 57.126c-0.251,2.334 -0.568,4.634 -0.952,6.946l-3.023 -0.648c0.372,-2.24 0.678,-4.464 0.921,-6.726l3.054 0.428zm-1.591 10.397c-0.453,2.239 -0.968,4.624 -1.591,6.807l-2.942 -1.013c0.582,-2.168 1.088,-4.365 1.534,-6.573l2.999 0.779zm-2.541 10.154c-0.663,2.219 -1.407,4.423 -2.21,6.583l-2.836 -1.342c0.775,-2.087 1.493,-4.215 2.133,-6.359l2.913 1.118zm-3.461 9.801c-0.827,2.111 -1.823,4.261 -2.8,6.292l-2.703 -1.653c0.944,-1.964 1.906,-4.039 2.704,-6.079l2.799 1.44zm-4.343 9.358c-1.055,2.02 -2.178,4.002 -3.354,5.936l-2.535 -1.96c1.137,-1.871 2.22,-3.787 3.241,-5.74l2.648 1.764zm-5.164 8.81c-1.24,1.89 -2.52,3.73 -3.867,5.527l-2.343 -2.241c1.302,-1.735 2.541,-3.522 3.739,-5.348l2.471 2.062zm-5.917 8.175c-1.39,1.744 -2.845,3.43 -4.334,5.067l-2.143 -2.482c1.441,-1.583 2.85,-3.217 4.194,-4.904l2.283 2.319zm-6.614 7.481c-1.544,1.576 -3.126,3.1 -4.757,4.562l-1.91 -2.712c1.578,-1.412 3.111,-2.892 4.604,-4.417l2.063 2.567zm-7.229 6.706c-1.665,1.406 -3.386,2.742 -5.131,4.02l-1.671 -2.904c1.687,-1.235 3.354,-2.53 4.964,-3.89l1.838 2.774zm-7.784 5.89c-1.793,1.213 -3.601,2.349 -5.455,3.439l-1.402 -3.078c1.794,-1.09 3.527,-2.145 5.278,-3.33l1.579 2.969zm-8.25 5.005c-1.887,1.011 -3.787,1.951 -5.725,2.829l-1.135 -3.215c1.87,-0.834 3.725,-1.764 5.54,-2.738l1.32 3.124zm-8.643 4.086c-1.958,0.801 -3.941,1.536 -5.942,2.194l-0.853 -3.324c1.935,-0.637 3.852,-1.348 5.748,-2.123l1.047 3.253zm-8.953 3.127c-2.021,0.588 -4.055,1.098 -6.104,1.542l-0.563 -3.4c1.974,-0.418 3.959,-0.927 5.903,-1.493l0.764 3.351zm-9.181 2.147c-2.061,0.364 -4.121,0.657 -6.199,0.878l-0.282 -3.443c2.015,-0.218 4.008,-0.5 6.01,-0.854l0.471 3.419zm-23.689 -119.956l-5.68 0 0 -12.748 -3.458 0c-0.006,-2.028 -0.075,-4.032 -0.211,-6.056l3.451 -0.188c0.138,2.038 0.209,4.056 0.218,6.097l0 -12.613 5.68 0 0 25.508zm-98.187 -107.977c2.334,0.251 4.634,0.568 6.946,0.952l-0.648 3.023c-2.24,-0.372 -4.464,-0.678 -6.726,-0.921l0.428 -3.054zm10.397 1.591c2.239,0.452 4.624,0.967 6.807,1.591l-1.013 2.942c-2.168,-0.583 -4.365,-1.089 -6.573,-1.535l0.779 -2.998zm10.154 2.541c2.219,0.663 4.423,1.406 6.583,2.21l-1.342 2.835c-2.087,-0.775 -4.215,-1.492 -6.359,-2.133l1.118 -2.912zm9.801 3.461c2.111,0.827 4.261,1.823 6.292,2.8l-1.653 2.703c-1.964,-0.944 -4.039,-1.906 -6.079,-2.705l1.44 -2.798zm9.358 4.343c2.02,1.055 4.002,2.177 5.936,3.353l-1.96 2.536c-1.871,-1.137 -3.787,-2.22 -5.74,-3.242l1.764 -2.647zm8.81 5.164c1.89,1.24 3.73,2.52 5.527,3.866l-2.241 2.344c-1.735,-1.302 -3.522,-2.541 -5.348,-3.74l2.062 -2.47zm8.175 5.917c1.744,1.39 3.43,2.844 5.067,4.334l-2.482 2.143c-1.582,-1.441 -3.217,-2.85 -4.904,-4.194l2.319 -2.283zm7.481 6.614c1.576,1.544 3.1,3.126 4.562,4.756l-2.712 1.911c-1.412,-1.579 -2.892,-3.111 -4.417,-4.604l2.567 -2.063zm6.706 7.229c1.407,1.665 2.742,3.386 4.02,5.131l-2.904 1.671c-1.235,-1.687 -2.53,-3.354 -3.89,-4.964l2.774 -1.838zm5.89 7.784c1.213,1.793 2.349,3.601 3.439,5.455l-3.078 1.402c-1.09,-1.794 -2.145,-3.528 -3.33,-5.278l2.969 -1.579zm5.005 8.25c1.011,1.887 1.951,3.786 2.829,5.725l-3.215 1.135c-0.834,-1.87 -1.764,-3.725 -2.738,-5.541l3.124 -1.319zm4.086 8.642c0.801,1.959 1.536,3.942 2.194,5.943l-3.324 0.853c-0.637,-1.936 -1.347,-3.853 -2.123,-5.748l3.253 -1.048zm3.127 8.954c0.588,2.021 1.098,4.055 1.542,6.104l-3.4 0.562c-0.417,-1.974 -0.927,-3.958 -1.493,-5.903l3.351 -0.763zm2.147 9.18c0.364,2.062 0.657,4.122 0.878,6.199l-3.443 0.283c-0.218,-2.016 -0.5,-4.009 -0.854,-6.01l3.419 -0.472zm-298.19 -76.32c2.334,0.25 4.633,0.567 6.945,0.952l-0.647 3.023c-2.24,-0.372 -4.464,-0.678 -6.726,-0.922l0.428 -3.053zm10.397 1.591c2.238,0.452 4.624,0.967 6.806,1.59l-1.013 2.942c-2.168,-0.582 -4.364,-1.088 -6.572,-1.534l0.779 -2.998zm10.153 2.541c2.22,0.663 4.424,1.406 6.584,2.209l-1.342 2.836c-2.087,-0.775 -4.216,-1.492 -6.359,-2.133l1.117 -2.912zm9.802 3.461c2.111,0.826 4.26,1.823 6.292,2.8l-1.654 2.703c-1.963,-0.945 -4.038,-1.906 -6.079,-2.705l1.441 -2.798zm9.357 4.343c2.02,1.055 4.003,2.177 5.936,3.353l-1.959 2.536c-1.871,-1.137 -3.787,-2.221 -5.741,-3.242l1.764 -2.647zm8.811 5.164c1.89,1.24 3.729,2.52 5.527,3.866l-2.242 2.343c-1.734,-1.302 -3.522,-2.541 -5.347,-3.739l2.062 -2.47zm8.174 5.916c1.745,1.391 3.431,2.845 5.067,4.335l-2.482 2.143c-1.582,-1.441 -3.216,-2.85 -4.903,-4.194l2.318 -2.284zm7.482 6.614c1.576,1.545 3.099,3.126 4.562,4.757l-2.712 1.911c-1.412,-1.579 -2.892,-3.111 -4.417,-4.605l2.567 -2.063zm6.706 7.23c1.406,1.665 2.741,3.386 4.02,5.13l-2.904 1.672c-1.236,-1.687 -2.53,-3.355 -3.89,-4.965l2.774 -1.837zm5.89 7.783c1.213,1.794 2.349,3.601 3.439,5.456l-3.079 1.402c-1.089,-1.794 -2.145,-3.528 -3.329,-5.278l2.969 -1.58zm5.005 8.251c1.011,1.886 1.951,3.786 2.829,5.725l-3.215 1.135c-0.834,-1.871 -1.765,-3.725 -2.738,-5.541l3.124 -1.319zm4.085 8.642c0.801,1.959 1.537,3.942 2.194,5.943l-3.323 0.853c-0.638,-1.936 -1.348,-3.853 -2.123,-5.748l3.252 -1.048zm3.128 8.954c0.588,2.02 1.097,4.054 1.542,6.104l-3.4 0.562c-0.418,-1.974 -0.927,-3.958 -1.493,-5.903l3.351 -0.763zm2.147 9.18c0.364,2.061 0.657,4.122 0.877,6.199l-3.443 0.283c-0.217,-2.016 -0.499,-4.009 -0.853,-6.01l3.419 -0.472zm-115.178 266.741c2.334,-0.251 4.634,-0.568 6.946,-0.952l-0.648 -3.023c-2.239,0.372 -4.464,0.678 -6.725,0.921l0.427 3.054zm10.397 -1.591c2.239,-0.453 4.624,-0.968 6.807,-1.591l-1.013 -2.942c-2.168,0.582 -4.364,1.088 -6.572,1.535l0.778 2.998zm10.154 -2.541c2.219,-0.663 4.424,-1.406 6.583,-2.21l-1.342 -2.836c-2.087,0.775 -4.215,1.493 -6.359,2.133l1.118 2.913zm9.801 -3.461c2.111,-0.827 4.261,-1.823 6.292,-2.8l-1.653 -2.703c-1.963,0.944 -4.038,1.906 -6.079,2.705l1.44 2.798zm9.358 -4.343c2.02,-1.055 4.002,-2.177 5.936,-3.354l-1.959 -2.535c-1.871,1.137 -3.787,2.22 -5.741,3.241l1.764 2.648zm8.81 -5.164c1.89,-1.24 3.73,-2.52 5.527,-3.867l-2.241 -2.343c-1.735,1.302 -3.522,2.541 -5.348,3.739l2.062 2.471zm8.175 -5.917c1.745,-1.39 3.43,-2.845 5.067,-4.334l-2.482 -2.143c-1.582,1.441 -3.217,2.85 -4.904,4.194l2.319 2.283zm7.481 -6.614c1.576,-1.544 3.1,-3.126 4.562,-4.757l-2.712 -1.91c-1.412,1.578 -2.892,3.111 -4.416,4.604l2.566 2.063zm6.706 -7.229c1.407,-1.665 2.742,-3.386 4.02,-5.131l-2.904 -1.671c-1.235,1.687 -2.529,3.354 -3.89,4.964l2.774 1.838zm5.89 -7.784c1.213,-1.793 2.349,-3.601 3.439,-5.455l-3.078 -1.402c-1.09,1.794 -2.145,3.528 -3.33,5.278l2.969 1.579zm5.005 -8.25c1.012,-1.887 1.951,-3.786 2.83,-5.725l-3.216 -1.135c-0.833,1.87 -1.764,3.725 -2.738,5.54l3.124 1.32zm4.086 -8.643c0.801,-1.958 1.536,-3.941 2.194,-5.942l-3.323 -0.853c-0.638,1.935 -1.348,3.853 -2.124,5.748l3.253 1.047zm3.127 -8.953c0.589,-2.021 1.098,-4.055 1.542,-6.104l-3.4 -0.563c-0.417,1.974 -0.926,3.959 -1.493,5.903l3.351 0.764zm2.147 -9.181c0.364,-2.061 0.658,-4.121 0.878,-6.199l-3.443 -0.282c-0.217,2.015 -0.5,4.008 -0.854,6.01l3.419 0.471zm-250.826 79.671c-2.334,-0.251 -4.634,-0.568 -6.946,-0.952l0.648 -3.023c2.239,0.372 4.464,0.678 6.726,0.921l-0.428 3.054zm-10.397 -1.591c-2.239,-0.453 -4.624,-0.968 -6.807,-1.591l1.013 -2.942c2.168,0.582 4.364,1.088 6.572,1.535l-0.778 2.998zm-10.154 -2.541c-2.219,-0.663 -4.423,-1.406 -6.583,-2.21l1.342 -2.836c2.087,0.775 4.215,1.493 6.359,2.133l-1.118 2.913zm-9.801 -3.461c-2.111,-0.827 -4.261,-1.823 -6.292,-2.8l1.653 -2.703c1.963,0.944 4.039,1.906 6.079,2.705l-1.44 2.798zm-9.358 -4.343c-2.02,-1.055 -4.002,-2.177 -5.936,-3.354l1.96 -2.535c1.871,1.137 3.787,2.22 5.74,3.241l-1.764 2.648zm-8.81 -5.164c-1.89,-1.24 -3.73,-2.52 -5.527,-3.867l2.241 -2.343c1.735,1.302 3.522,2.541 5.348,3.739l-2.062 2.471zm-8.175 -5.917c-1.745,-1.39 -3.43,-2.845 -5.067,-4.334l2.482 -2.143c1.582,1.441 3.217,2.85 4.904,4.194l-2.319 2.283zm-7.481 -6.614c-1.576,-1.544 -3.1,-3.126 -4.562,-4.757l2.712 -1.91c1.412,1.578 2.892,3.111 4.416,4.604l-2.566 2.063zm-6.706 -7.229c-1.407,-1.665 -2.742,-3.386 -4.02,-5.131l2.904 -1.671c1.235,1.687 2.53,3.354 3.89,4.964l-2.774 1.838zm-5.89 -7.784c-1.213,-1.793 -2.349,-3.601 -3.439,-5.455l3.078 -1.402c1.09,1.794 2.145,3.528 3.33,5.278l-2.969 1.579zm-5.005 -8.25c-1.011,-1.887 -1.951,-3.786 -2.83,-5.725l3.216 -1.135c0.834,1.87 1.764,3.725 2.738,5.54l-3.124 1.32zm-4.086 -8.643c-0.801,-1.958 -1.536,-3.941 -2.194,-5.942l3.323 -0.853c0.638,1.935 1.348,3.853 2.124,5.748l-3.253 1.047zm-3.127 -8.953c-0.589,-2.021 -1.098,-4.055 -1.542,-6.104l3.4 -0.563c0.417,1.974 0.926,3.959 1.493,5.903l-3.351 0.764zm-2.147 -9.181c-0.364,-2.061 -0.657,-4.121 -0.878,-6.199l3.443 -0.282c0.218,2.015 0.5,4.008 0.854,6.01l-3.419 0.471zm43.391 -333.307l-5.679 0 0 -12.748 -3.458 0c-0.007,-2.028 -0.076,-4.032 -0.212,-6.056l3.452 -0.188c0.138,2.038 0.208,4.056 0.218,6.097l0 -12.613 5.679 0 0 25.508zm-98.187 -107.977c2.335,0.251 4.634,0.568 6.946,0.952l-0.647 3.023c-2.24,-0.372 -4.464,-0.678 -6.726,-0.921l0.427 -3.054zm10.398 1.591c2.238,0.452 4.623,0.968 6.806,1.591l-1.013 2.942c-2.168,-0.583 -4.364,-1.089 -6.572,-1.535l0.779 -2.998zm10.153 2.541c2.219,0.663 4.424,1.406 6.583,2.21l-1.342 2.835c-2.087,-0.775 -4.215,-1.492 -6.359,-2.133l1.118 -2.912zm9.801 3.461c2.111,0.827 4.261,1.823 6.292,2.8l-1.653 2.703c-1.963,-0.944 -4.038,-1.906 -6.079,-2.705l1.44 -2.798zm9.358 4.343c2.02,1.055 4.002,2.177 5.936,3.353l-1.959 2.536c-1.871,-1.137 -3.787,-2.22 -5.741,-3.242l1.764 -2.647zm8.811 5.164c1.89,1.24 3.729,2.52 5.526,3.866l-2.241 2.344c-1.734,-1.302 -3.522,-2.541 -5.348,-3.74l2.063 -2.47zm8.174 5.917c1.745,1.39 3.43,2.844 5.067,4.334l-2.482 2.143c-1.582,-1.441 -3.217,-2.85 -4.904,-4.194l2.319 -2.283zm7.481 6.614c1.577,1.544 3.1,3.126 4.562,4.757l-2.712 1.91c-1.411,-1.579 -2.892,-3.111 -4.416,-4.604l2.566 -2.063zm6.706 7.229c1.407,1.665 2.742,3.386 4.02,5.131l-2.904 1.671c-1.235,-1.687 -2.529,-3.354 -3.889,-4.964l2.773 -1.838zm5.89 7.784c1.213,1.793 2.349,3.601 3.439,5.455l-3.078 1.402c-1.09,-1.794 -2.145,-3.528 -3.33,-5.278l2.969 -1.579zm5.006 8.25c1.011,1.887 1.95,3.786 2.829,5.725l-3.216 1.135c-0.833,-1.87 -1.764,-3.725 -2.737,-5.541l3.124 -1.319zm4.085 8.642c0.801,1.959 1.536,3.942 2.194,5.943l-3.323 0.853c-0.638,-1.935 -1.348,-3.853 -2.124,-5.748l3.253 -1.048zm3.127 8.954c0.589,2.021 1.098,4.055 1.543,6.104l-3.401 0.562c-0.417,-1.974 -0.926,-3.958 -1.493,-5.903l3.351 -0.763zm2.147 9.181c0.364,2.061 0.658,4.121 0.878,6.198l-3.443 0.283c-0.217,-2.015 -0.5,-4.009 -0.853,-6.01l3.418 -0.471zm-131.785 429.131l63.45 0 0 -74.978 -63.45 0 0 74.978zm-458.883 331.53l-33.958 0 0 31.339 -32.369 0 0 172.322 66.327 0 0 -203.661zm1436.406 -837.83l0 74.807 86.894 0 0 -74.807 -86.894 0zm-348.25 0l0 74.807 51.731 0 0 -74.807 -51.731 0zm-16.185 74.807l0 -74.807 -67.658 0 0 74.807 67.658 0zm84.1 -74.807l0 74.807 67.659 0 0 -74.807 -67.659 0zm-411.917 80.473l0 -80.473 -47.265 0 0 80.473 11.719 0 35.546 0zm-702.339 -80.473l-75.773 0 0 101.617 75.773 0 0 -101.617z"/>
 </g>
</svg>
