<?xml version="1.0" encoding="UTF-8"?>
<!DOCTYPE svg PUBLIC "-//W3C//DTD SVG 1.1//EN" "http://www.w3.org/Graphics/SVG/1.1/DTD/svg11.dtd">
<!-- Creator: CorelDRAW 2018 (64-Bit) -->
<svg xmlns="http://www.w3.org/2000/svg" xml:space="preserve" width="1652px" height="1080px" version="1.1" style="shape-rendering:geometricPrecision; text-rendering:geometricPrecision; image-rendering:optimizeQuality; fill-rule:evenodd; clip-rule:evenodd"
viewBox="0 0 1652 1080.406"
 xmlns:xlink="http://www.w3.org/1999/xlink">
 <defs>
  <style type="text/css">
   <![CDATA[
    .fil0 {fill:#FEFEFE}
   ]]>
  </style>
 </defs>
 <g id="Слой_x0020_1">
  <metadata id="CorelCorpID_0Corel-Layer"/>
  <path class="fil0" d="M1619.677 1080.406l-32.323 0 -475.975 0 -16.161 0 0 -32.323 0 -81.71 -22.804 0 0 1.857 -5.671 0 0 79.899 0 1.707 -1.571 0 -0.03 1.37c-2.345,-0.031 -4.673,-0.14 -7.01,-0.309l0.291 -3.062c0.518,0.038 1.035,0.073 1.553,0.104l0 -92.445 6.767 0 0 -12.735 5.671 0 0 1.856 22.804 0 0 -92.274 -1.076 0 0 -4.077 18.313 0 0 4.077 -1.076 0 0 92.274 0 21.758 0 81.71 384.15 0 0 -101.471 0 -16.162 16.161 0 75.664 0 0 -686.677 -33.908 0 -8.081 0 -19.228 0 0 -7.656 -152.159 0c-0.093,0 -0.168,-0.04 -0.168,-0.089l0 -6.309 0 -4.214 0 -6.309c0,-0.049 0.075,-0.09 0.168,-0.09l152.159 0 0 -7.656 19.228 0 0 -203.369 -761.954 0 0 95.255 24.242 0 21.306 0 0 32.322 -21.306 0 0 43.085 21.456 0 0 137.051 -21.456 0 -10.867 0 -5.295 0 0 301.583 99.627 0 0 -4.655 5.671 0 0 -79.899 0 -1.707 1.571 0 0.03 -1.37c2.345,0.031 4.673,0.14 7.01,0.309l-0.291 3.062c-0.518,-0.038 -1.035,-0.072 -1.553,-0.104l0 92.445 -6.767 0 0 12.736 -5.671 0 0 -4.655 -99.627 0 -16.161 0 -8.101 0 0 4.655 -5.671 0 0 -12.736 -6.767 0 0 -92.445c-0.517,0.032 -1.035,0.066 -1.553,0.104l-0.291 -3.062c2.337,-0.169 4.665,-0.278 7.01,-0.309l0.03 1.37 1.571 0 0 1.707 0 79.899 5.671 0 0 4.655 8.101 0 0 -301.583 0 -72.021 0 -6.002 0 -24.005 -104.729 0 0 -7.656 -188.341 0c-0.115,0 -0.208,-0.04 -0.208,-0.089l0 -16.832c0,-0.049 0.093,-0.09 0.208,-0.09l188.341 0 0 -7.656 104.729 0 0 -45.785 0 -32.322 0 -103.336 4.801 0 3.28 0 761.954 0 8.081 0 98.554 0 0 2.507 0 5.574 0 197.882 -32.323 0 0 5.487 0 32.323 0 686.677 0 16.162 0 101.471 0 32.323zm-250.301 -982.528c-5.184,0 -7.925,4.128 -7.925,11.921 0,7.858 2.741,11.854 8.057,11.854 5.184,0 7.925,-4.062 7.925,-11.788 0,-7.991 -2.675,-11.987 -8.057,-11.987zm0.033 3.17c4.26,0 4.227,5.812 4.227,8.817 0,2.905 -0.033,8.651 -4.161,8.651 -2.939,0 -4.226,-2.543 -4.226,-8.486 0,-3.698 0.099,-8.982 4.16,-8.982zm-15.057 -3.103l-3.038 0c-0.66,4.028 -4.259,4.49 -6.736,4.49l0 2.774 5.746 0 0 15.982 4.028 0 0 -23.246zm6.654 40.552c-7.934,0 -15.117,-3.217 -20.316,-8.416 -5.199,-5.199 -8.416,-12.382 -8.416,-20.316 0,-7.933 3.217,-15.116 8.416,-20.315 5.199,-5.199 12.382,-8.415 20.316,-8.415 7.933,0 15.116,3.216 20.315,8.415 5.199,5.199 8.416,12.382 8.416,20.315 0,7.934 -3.217,15.117 -8.416,20.316 -5.199,5.199 -12.382,8.416 -20.315,8.416zm-17.007 -11.724c4.352,4.351 10.365,7.044 17.007,7.044 6.641,0 12.654,-2.693 17.006,-7.044 4.353,-4.352 7.045,-10.366 7.045,-17.008 0,-6.641 -2.692,-12.654 -7.045,-17.006 -4.352,-4.352 -10.365,-7.045 -17.006,-7.045 -6.642,0 -12.655,2.693 -17.007,7.045 -4.352,4.352 -7.044,10.365 -7.044,17.006 0,6.642 2.692,12.656 7.044,17.008zm13.573 522.16l-2.939 0 0 -14.661 -3.566 0 -9.906 14.099 0 3.732 9.807 0 0.033 5.481 3.632 0 0 -5.481 2.939 0 0 -3.17zm-6.538 0l-6.769 0 6.769 -10.005 0 10.005zm-1.667 25.726c-7.934,0 -15.117,-3.216 -20.316,-8.415 -5.199,-5.199 -8.415,-12.383 -8.415,-20.316 0,-7.933 3.216,-15.117 8.415,-20.315 5.199,-5.2 12.382,-8.416 20.316,-8.416 7.933,0 15.116,3.216 20.315,8.416 5.199,5.198 8.416,12.382 8.416,20.315 0,7.933 -3.216,15.116 -8.416,20.316 -5.199,5.199 -12.382,8.415 -20.315,8.415zm-17.007 -11.724c4.352,4.352 10.365,7.044 17.007,7.044 6.641,0 12.654,-2.692 17.007,-7.044 4.352,-4.352 7.044,-10.365 7.044,-17.007 0,-6.642 -2.692,-12.655 -7.044,-17.007 -4.353,-4.352 -10.366,-7.044 -17.007,-7.044 -6.642,0 -12.655,2.692 -17.007,7.044 -4.352,4.352 -7.044,10.365 -7.044,17.007 0,6.642 2.692,12.655 7.044,17.007zm-396.55 -290.677l3.599 0c0.099,-2.972 1.453,-4.556 3.863,-4.556 2.146,0 3.533,1.353 3.533,3.368 0,2.971 -2.443,3.335 -4.755,3.335l-0.33 0 0 2.839c0.562,-0.033 0.76,-0.033 1.189,-0.033 2.476,0 4.623,1.024 4.623,3.864 0,2.542 -1.618,4.127 -4.161,4.127 -2.906,0 -4.391,-1.618 -4.491,-4.854l-3.632 0 0 0.495c0,4.557 3.203,7.595 8.024,7.595 4.821,0 8.189,-3.038 8.189,-7.463 0,-2.773 -1.585,-4.788 -4.193,-5.448 1.981,-0.66 3.235,-2.476 3.235,-4.722 0,-3.698 -2.905,-6.207 -7.165,-6.207 -4.557,0 -7.396,2.905 -7.528,7.66zm7.544 32.991c-7.933,0 -15.116,-3.217 -20.315,-8.416 -5.199,-5.199 -8.416,-12.382 -8.416,-20.315 0,-7.934 3.217,-15.117 8.416,-20.316 5.199,-5.199 12.382,-8.415 20.315,-8.415 7.934,0 15.117,3.216 20.316,8.415 5.199,5.199 8.416,12.382 8.416,20.316 0,7.933 -3.217,15.116 -8.416,20.315 -5.199,5.199 -12.382,8.416 -20.316,8.416zm-17.006 -11.724c4.352,4.352 10.365,7.044 17.006,7.044 6.642,0 12.655,-2.692 17.007,-7.044 4.352,-4.352 7.044,-10.365 7.044,-17.007 0,-6.642 -2.692,-12.655 -7.044,-17.007 -4.352,-4.352 -10.365,-7.044 -17.007,-7.044 -6.641,0 -12.654,2.692 -17.006,7.044 -4.353,4.352 -7.045,10.365 -7.045,17.007 0,6.641 2.692,12.655 7.045,17.007zm-321.603 10.341l-11.92 0 -2.213 12.449 3.302 0.099c0.991,-1.486 2.147,-2.08 3.864,-2.08 2.74,0 4.358,1.783 4.358,4.854 0,3.169 -1.552,4.985 -4.292,4.985 -2.345,0 -3.996,-1.519 -4.194,-3.896l-3.731 0c0.198,4.26 3.269,7 7.826,7 4.854,0 8.255,-3.401 8.255,-8.288 0,-4.523 -2.873,-7.561 -7.166,-7.561 -1.717,0 -3.17,0.396 -4.358,1.651l1.056 -5.944 9.213 0 0 -3.269zm-6.786 40.437c-7.933,0 -15.116,-3.217 -20.315,-8.416 -5.199,-5.199 -8.416,-12.382 -8.416,-20.315 0,-7.934 3.217,-15.117 8.416,-20.316 5.199,-5.199 12.382,-8.415 20.315,-8.415 7.934,0 15.117,3.216 20.316,8.415 5.199,5.199 8.416,12.382 8.416,20.316 0,7.933 -3.217,15.116 -8.416,20.315 -5.199,5.199 -12.382,8.416 -20.316,8.416zm-17.006 -11.724c4.352,4.352 10.365,7.044 17.006,7.044 6.642,0 12.655,-2.692 17.007,-7.044 4.352,-4.352 7.044,-10.365 7.044,-17.007 0,-6.642 -2.692,-12.655 -7.044,-17.007 -4.352,-4.352 -10.365,-7.044 -17.007,-7.044 -6.641,0 -12.654,2.692 -17.006,7.044 -4.353,4.352 -7.045,10.365 -7.045,17.007 0,6.641 2.692,12.655 7.045,17.007zm-370.09 68.315c0.429,3.863 3.038,6.141 6.967,6.141 5.382,0 8.585,-4.556 8.585,-12.25 0,-7.463 -2.972,-11.59 -8.288,-11.59 -4.557,0 -7.792,3.368 -7.792,8.09 0,4.557 2.872,7.628 7.132,7.628 2.344,0 4.061,-1.024 5.283,-2.84 -0.264,2.707 -0.693,7.991 -4.755,7.991 -1.948,0 -3.104,-1.057 -3.5,-3.17l-3.632 0zm7.363 -4.986c-2.509,0 -4.127,-1.882 -4.127,-4.755 0,-2.906 1.618,-4.821 4.028,-4.821 2.477,0 4.128,1.948 4.128,4.92 0,2.839 -1.585,4.656 -4.029,4.656zm0.149 27.938c-7.933,0 -15.116,-3.216 -20.316,-8.415 -5.198,-5.199 -8.415,-12.382 -8.415,-20.316 0,-7.933 3.217,-15.116 8.415,-20.315 5.2,-5.2 12.383,-8.416 20.316,-8.416 7.933,0 15.117,3.216 20.316,8.416 5.199,5.199 8.415,12.382 8.415,20.315 0,7.934 -3.216,15.117 -8.415,20.316 -5.199,5.199 -12.382,8.415 -20.316,8.415zm-17.007 -11.724c4.352,4.352 10.366,7.044 17.007,7.044 6.642,0 12.655,-2.692 17.007,-7.044 4.352,-4.352 7.044,-10.365 7.044,-17.007 0,-6.642 -2.692,-12.655 -7.044,-17.007 -4.352,-4.352 -10.365,-7.044 -17.007,-7.044 -6.642,0 -12.655,2.692 -17.007,7.044 -4.352,4.352 -7.044,10.365 -7.044,17.007 0,6.642 2.692,12.655 7.044,17.007zm-19.68 417.701l-15.75 0 0 3.467 12.019 0c-4.623,4.326 -8.651,13.241 -8.816,19.515l4.127 0c0.264,-6.901 3.599,-14.991 8.42,-19.812l0 -3.17zm-7.875 40.222c-7.934,0 -15.117,-3.216 -20.316,-8.415 -5.199,-5.199 -8.415,-12.383 -8.415,-20.316 0,-7.933 3.216,-15.117 8.415,-20.315 5.2,-5.2 12.382,-8.416 20.316,-8.416 7.933,0 15.116,3.216 20.316,8.416 5.199,5.198 8.415,12.382 8.415,20.315 0,7.933 -3.216,15.116 -8.415,20.316 -5.2,5.199 -12.383,8.415 -20.316,8.415zm-17.007 -11.724c4.352,4.352 10.366,7.044 17.007,7.044 6.642,0 12.655,-2.692 17.007,-7.044 4.352,-4.352 7.044,-10.365 7.044,-17.007 0,-6.642 -2.692,-12.655 -7.044,-17.007 -4.352,-4.352 -10.365,-7.044 -17.007,-7.044 -6.642,0 -12.655,2.692 -17.007,7.044 -4.352,4.352 -7.044,10.365 -7.044,17.007 0,6.642 2.692,12.655 7.044,17.007zm280.314 -61.16c-2.675,0.825 -4.226,2.906 -4.226,5.778 0,4.227 3.268,7.067 8.089,7.067 4.887,0 8.156,-2.906 8.156,-7.265 0,-3.071 -1.552,-4.655 -4.226,-5.58 2.113,-0.891 3.269,-2.609 3.269,-4.92 0,-3.533 -2.906,-6.043 -7.067,-6.043 -4.292,0 -7.297,2.51 -7.297,6.142 0,2.311 1.222,4.095 3.302,4.821zm3.962 -7.925c2.18,0 3.6,1.288 3.6,3.335 0,2.08 -1.42,3.368 -3.633,3.368 -2.212,0 -3.698,-1.354 -3.698,-3.368 0,-2.047 1.453,-3.335 3.731,-3.335zm-0.099 9.411c2.642,0 4.359,1.618 4.359,4.193 0,2.642 -1.585,4.194 -4.227,4.194 -2.707,0 -4.424,-1.651 -4.424,-4.293 0,-2.443 1.75,-4.094 4.292,-4.094zm0.033 28.186c-7.933,0 -15.116,-3.216 -20.315,-8.415 -5.199,-5.199 -8.416,-12.383 -8.416,-20.316 0,-7.933 3.217,-15.117 8.416,-20.315 5.199,-5.2 12.382,-8.416 20.315,-8.416 7.934,0 15.117,3.216 20.316,8.416 5.199,5.198 8.416,12.382 8.416,20.315 0,7.933 -3.217,15.116 -8.416,20.316 -5.199,5.199 -12.382,8.415 -20.316,8.415zm-17.006 -11.724c4.352,4.352 10.365,7.044 17.006,7.044 6.642,0 12.655,-2.692 17.007,-7.044 4.352,-4.352 7.044,-10.365 7.044,-17.007 0,-6.642 -2.692,-12.655 -7.044,-17.007 -4.352,-4.352 -10.365,-7.044 -17.007,-7.044 -6.641,0 -12.654,2.692 -17.006,7.044 -4.353,4.352 -7.045,10.365 -7.045,17.007 0,6.642 2.692,12.655 7.045,17.007zm274.719 38.033c0.198,3.599 3.17,6.207 7.066,6.207 6.703,0 8.519,-6.901 8.519,-12.481 0,-5.25 -1.651,-11.392 -8.189,-11.392 -4.557,0 -7.859,3.401 -7.859,8.123 0,4.425 2.972,7.595 7.133,7.595 2.344,0 3.896,-0.991 5.151,-2.939 -0.132,2.906 -0.727,8.09 -4.557,8.09 -2.146,0 -3.467,-1.354 -3.632,-3.203l-3.632 0zm7.264 -14.496c2.509,0 4.128,1.915 4.128,4.854 0,2.774 -1.652,4.656 -4.062,4.656 -2.444,0 -3.995,-1.816 -3.995,-4.656 0,-2.906 1.551,-4.854 3.929,-4.854zm0.297 37.498c-7.933,0 -15.116,-3.216 -20.316,-8.415 -5.198,-5.199 -8.415,-12.383 -8.415,-20.316 0,-7.933 3.217,-15.117 8.415,-20.315 5.2,-5.2 12.383,-8.416 20.316,-8.416 7.933,0 15.117,3.216 20.316,8.416 5.199,5.198 8.415,12.382 8.415,20.315 0,7.933 -3.216,15.116 -8.415,20.316 -5.199,5.199 -12.382,8.415 -20.316,8.415zm-17.007 -11.724c4.352,4.352 10.366,7.044 17.007,7.044 6.642,0 12.655,-2.692 17.007,-7.044 4.352,-4.352 7.044,-10.365 7.044,-17.007 0,-6.642 -2.692,-12.655 -7.044,-17.007 -4.352,-4.352 -10.365,-7.044 -17.007,-7.044 -6.642,0 -12.655,2.692 -17.007,7.044 -4.352,4.352 -7.044,10.365 -7.044,17.007 0,6.642 2.692,12.655 7.044,17.007zm15.003 -252.434l-11.259 0c0.792,-1.915 3.269,-3.566 4.953,-4.656 3.236,-2.146 6.34,-4.062 6.34,-8.42 0,-4.194 -2.972,-6.934 -7.463,-6.934 -4.755,0 -7.759,3.17 -7.759,8.123l0 0.594 3.665 0c0.066,-2.708 0.594,-5.481 3.995,-5.481 2.311,0 3.731,1.486 3.731,3.896 0,3.203 -2.773,4.656 -5.085,6.208 -3.929,2.641 -6.736,4.721 -6.901,10.005l15.783 0 0 -3.335zm-7.875 20.393c-7.933,0 -15.116,-3.216 -20.316,-8.415 -5.198,-5.199 -8.415,-12.382 -8.415,-20.316 0,-7.933 3.217,-15.116 8.415,-20.315 5.2,-5.2 12.383,-8.416 20.316,-8.416 7.933,0 15.117,3.216 20.316,8.416 5.199,5.199 8.415,12.382 8.415,20.315 0,7.934 -3.216,15.117 -8.415,20.316 -5.199,5.199 -12.382,8.415 -20.316,8.415zm-17.007 -11.724c4.352,4.352 10.366,7.044 17.007,7.044 6.642,0 12.655,-2.692 17.007,-7.044 4.352,-4.352 7.044,-10.365 7.044,-17.007 0,-6.642 -2.692,-12.655 -7.044,-17.007 -4.352,-4.352 -10.365,-7.044 -17.007,-7.044 -6.641,0 -12.655,2.692 -17.007,7.044 -4.352,4.352 -7.044,10.365 -7.044,17.007 0,6.642 2.692,12.655 7.044,17.007zm319.576 129.814l-3.037 0c-0.661,4.028 -4.26,4.49 -6.736,4.49l0 2.774 5.745 0 0 15.982 4.028 0 0 -23.246zm-4.886 40.354c-7.934,0 -15.117,-3.216 -20.316,-8.416 -5.199,-5.199 -8.416,-12.382 -8.416,-20.315 0,-7.934 3.217,-15.117 8.416,-20.316 5.199,-5.199 12.382,-8.415 20.316,-8.415 7.933,0 15.116,3.216 20.315,8.415 5.199,5.199 8.416,12.382 8.416,20.316 0,7.933 -3.216,15.116 -8.416,20.315 -5.199,5.2 -12.382,8.416 -20.315,8.416zm-17.007 -11.724c4.352,4.352 10.365,7.044 17.007,7.044 6.641,0 12.654,-2.692 17.007,-7.044 4.352,-4.352 7.044,-10.365 7.044,-17.007 0,-6.642 -2.692,-12.655 -7.044,-17.007 -4.353,-4.352 -10.366,-7.044 -17.007,-7.044 -6.642,0 -12.655,2.692 -17.007,7.044 -4.352,4.352 -7.044,10.365 -7.044,17.007 0,6.641 2.692,12.655 7.044,17.007zm118.131 -163.255l0 -2.74 0 -79.565 -63.359 0 -16.162 0 -8.747 0 0 4.655 -5.671 0 0 -12.73 -3.453 0c-0.007,-2.025 -0.075,-4.026 -0.211,-6.047l3.446 -0.188c0.138,2.035 0.209,4.05 0.218,6.088l0 -12.595 5.671 0 0 4.655 8.747 0 0 -74.87 0 -16.162 16.162 0 63.359 0 0 -282.572 0 -6.002 0 -26.321 7.116 0 0 -75.792 -84.537 0 0 -7.656 -188.63 0c-0.115,0 -0.208,-0.04 -0.208,-0.089l0 -16.832c0,-0.049 0.093,-0.09 0.208,-0.09l188.63 0 0 -7.655 84.537 0 32.323 0 0 32.322 0 75.792 86.51 0 0 7.744c0.002,-0.048 0.077,-0.088 0.168,-0.088l152.307 0c0.092,0 0.167,0.041 0.167,0.09l0 6.309 0 4.214 0 6.309c0,0.049 -0.075,0.089 -0.167,0.089l-152.307 0c-0.091,0 -0.166,-0.039 -0.168,-0.087l0 7.743 -86.51 0 -23.278 0 0 282.572 0 16.162 0 74.87 0 16.162 0 79.565 0 2.74 38.301 0 0.825 0 0 0.759 0.661 0.014c-0.014,1.133 -0.067,2.258 -0.149,3.387l-1.479 -0.141c0.018,-0.25 0.035,-0.5 0.05,-0.75l-44.663 0 0 -3.269 -9.707 0zm3.554 53.222l0 -2.74 6.15 0 0 -1.668c0.979,-0.003 1.945,-0.036 2.922,-0.102l0.091 1.665c-0.976,0.066 -1.941,0.1 -2.918,0.105l6.061 0 0 2.74 1.377 0 0 4.077 -9.09 0c1.477,0.007 2.937,0.057 4.412,0.157l-0.135 2.478c-1.453,-0.098 -2.892,-0.147 -4.348,-0.152l0 -2.483 -9.152 0 0 -4.077 4.63 0zm52.093 -47.369c-0.121,1.126 -0.274,2.235 -0.46,3.351l-1.458 -0.313c0.179,-1.08 0.327,-2.153 0.444,-3.244l1.474 0.206zm-0.768 5.016c-0.218,1.08 -0.467,2.231 -0.767,3.284l-1.42 -0.489c0.281,-1.046 0.525,-2.106 0.741,-3.171l1.446 0.376zm-1.226 4.898c-0.32,1.071 -0.678,2.135 -1.066,3.176l-1.368 -0.647c0.374,-1.007 0.72,-2.034 1.029,-3.068l1.405 0.539zm-1.67 4.729c-0.399,1.019 -0.879,2.056 -1.35,3.035l-1.304 -0.797c0.455,-0.947 0.919,-1.948 1.304,-2.933l1.35 0.695zm-2.095 4.515c-0.509,0.974 -1.05,1.931 -1.618,2.863l-1.223 -0.945c0.549,-0.903 1.071,-1.827 1.564,-2.77l1.277 0.852zm-2.491 4.25c-0.598,0.912 -1.216,1.799 -1.865,2.666l-1.131 -1.081c0.628,-0.837 1.226,-1.699 1.804,-2.58l1.192 0.995zm-2.855 3.944c-0.67,0.842 -1.372,1.655 -2.091,2.444l-1.034 -1.197c0.696,-0.763 1.375,-1.552 2.024,-2.366l1.101 1.119zm-3.191 3.609c-0.744,0.761 -1.507,1.496 -2.294,2.201l-0.922 -1.308c0.761,-0.682 1.501,-1.396 2.221,-2.131l0.995 1.238zm-3.487 3.235c-0.803,0.679 -1.634,1.323 -2.476,1.94l-0.806 -1.401c0.814,-0.596 1.619,-1.221 2.395,-1.877l0.887 1.338zm-3.755 2.842c-0.866,0.585 -1.738,1.133 -2.632,1.659l-0.677 -1.485c0.866,-0.526 1.702,-1.035 2.547,-1.607l0.762 1.433zm-3.981 2.415c-0.91,0.487 -1.826,0.941 -2.762,1.365l-0.547 -1.552c0.902,-0.402 1.797,-0.851 2.673,-1.321l0.636 1.508zm-4.169 1.971c-0.945,0.386 -1.902,0.741 -2.867,1.058l-0.412 -1.603c0.934,-0.308 1.859,-0.65 2.773,-1.024l0.506 1.569zm-4.32 1.508c-0.975,0.284 -1.956,0.53 -2.945,0.744l-0.271 -1.64c0.952,-0.201 1.91,-0.447 2.848,-0.72l0.368 1.616zm-4.429 1.036c-0.994,0.176 -1.988,0.317 -2.991,0.424l-0.136 -1.661c0.973,-0.105 1.934,-0.241 2.9,-0.412l0.227 1.649zm-2.753 82.599l60.221 0 1.228 0 0 -1.129 0.984 -0.022c-0.022,-1.685 -0.1,-3.359 -0.222,-5.04l-2.201 0.21c0.027,0.373 0.052,0.744 0.075,1.116l-66.462 0 0 4.865 6.377 0zm61.984 -8.709c-0.18,-1.676 -0.407,-3.327 -0.683,-4.987l-2.171 0.465c0.268,1.608 0.487,3.205 0.662,4.829l2.192 -0.307zm-1.142 -7.465c-0.325,-1.607 -0.695,-3.319 -1.142,-4.886l-2.112 0.727c0.418,1.557 0.781,3.134 1.101,4.719l2.153 -0.56zm-1.824 -7.289c-0.476,-1.593 -1.01,-3.176 -1.586,-4.726l-2.036 0.964c0.556,1.498 1.071,3.026 1.531,4.565l2.091 -0.803zm-2.485 -7.036c-0.593,-1.516 -1.309,-3.059 -2.01,-4.517l-1.94 1.187c0.677,1.409 1.368,2.899 1.941,4.364l2.009 -1.034zm-3.117 -6.718c-0.758,-1.45 -1.564,-2.873 -2.408,-4.262l-1.82 1.407c0.816,1.343 1.594,2.719 2.327,4.121l1.901 -1.266zm-3.708 -6.325c-0.89,-1.357 -1.809,-2.677 -2.776,-3.968l-1.682 1.609c0.935,1.245 1.824,2.529 2.685,3.839l1.773 -1.48zm-4.247 -5.869c-0.999,-1.252 -2.043,-2.462 -3.112,-3.637l-1.539 1.782c1.035,1.135 2.046,2.309 3.011,3.52l1.64 -1.665zm-4.749 -5.37c-1.108,-1.132 -2.244,-2.226 -3.415,-3.275l-1.371 1.946c1.133,1.014 2.233,2.077 3.305,3.171l1.481 -1.842zm-5.189 -4.815c-1.196,-1.01 -2.431,-1.968 -3.684,-2.886l-1.2 2.085c1.211,0.887 2.408,1.816 3.564,2.792l1.32 -1.991zm-5.589 -4.228c-1.287,-0.871 -2.585,-1.686 -3.916,-2.469l-1.006 2.21c1.288,0.782 2.532,1.54 3.789,2.391l1.133 -2.132zm-5.922 -3.593c-1.355,-0.726 -2.719,-1.401 -4.11,-2.031l-0.815 2.308c1.342,0.598 2.674,1.267 3.977,1.965l0.948 -2.242zm-6.205 -2.933c-1.406,-0.575 -2.83,-1.103 -4.266,-1.575l-0.613 2.385c1.39,0.458 2.766,0.968 4.127,1.525l0.752 -2.335zm-6.428 -2.245c-1.45,-0.423 -2.911,-0.788 -4.382,-1.108l-0.404 2.441c1.418,0.3 2.842,0.666 4.238,1.072l0.548 -2.405zm-6.59 -1.542c-1.48,-0.261 -2.959,-0.472 -4.451,-0.63l-0.203 2.472c1.448,0.156 2.878,0.359 4.315,0.613l0.339 -2.455zm-792.031 -576.014c0.025,0 0.049,-0.002 0.072,-0.004l0 0.121c-0.023,-0.003 -0.047,-0.004 -0.072,-0.004l-89.655 0 0 -0.113 89.655 0zm0.072 -0.184c-0.023,-0.003 -0.047,-0.004 -0.072,-0.004l-89.655 0 0 -0.64 89.655 0c0.025,0 0.049,-0.001 0.072,-0.004l0 0.648zm-0.072 0.485c0.025,0 0.049,-0.001 0.072,-0.004l0 1.04 -0.072 -0.001 -89.655 0 0 -1.035 89.655 0zm0.072 -1.313c-0.023,-0.003 -0.047,-0.004 -0.072,-0.004l-89.655 0 0 -0.075 89.655 0c0.025,0 0.049,-0.002 0.072,-0.004l0 0.083zm0 -0.264c-0.023,-0.002 -0.047,-0.003 -0.072,-0.003l-89.655 0 0 -1.073 89.655 0 0.072 -0.001 0 1.077zm0 -1.601l-0.072 -0.002 -90.03 0c-0.206,-0.058 -0.48,-0.094 -0.781,-0.094l-13.629 0 -0.059 0.001 -0.003 0 -0.059 -0.001 -13.629 0c-0.301,0 -0.576,0.036 -0.781,0.094l-89.826 0c-0.16,0 -0.308,0.02 -0.426,0.053l0 -6.009 209.295 0 0 5.958zm-0.072 4.739l0.072 -0.001 0 5.957 -209.295 0 0 -6.009c0.118,0.034 0.266,0.053 0.426,0.053l89.826 0c0.205,0.059 0.48,0.095 0.781,0.095l13.629 0 0.059 -0.001 0.003 0 0.059 0.001 13.629 0c0.301,0 0.575,-0.036 0.781,-0.095l90.03 0zm-119.346 -2.05l-89.451 0c-0.14,0 -0.253,0.042 -0.253,0.094 0,0.052 0.113,0.094 0.253,0.094l89.451 0 0 0.113 -89.451 0c-0.14,0 -0.253,0.042 -0.253,0.094 0,0.052 0.113,0.094 0.253,0.094l89.451 0 0 1.035 -89.451 0c-0.16,0 -0.308,0.019 -0.426,0.053l0 -3.794c0.118,0.033 0.266,0.053 0.426,0.053l89.451 0 0 1.073 -89.451 0c-0.14,0 -0.253,0.042 -0.253,0.094 0,0.052 0.113,0.094 0.253,0.094l89.451 0 0 0.075 -89.451 0c-0.14,0 -0.253,0.042 -0.253,0.094 0,0.052 0.113,0.094 0.253,0.094l89.451 0 0 0.64zm13.629 -2.07l0 3.5 -11.317 0 0 -3.5 11.317 0zm13.75 0l0 3.5 -11.317 0 0 -3.5 11.317 0zm-117.719 10.166c0,0.049 0.104,0.089 0.232,0.089l209.526 0 0 7.656 81.922 0 0 403.611 0 16.162 0 11.446 -4.655 0 0 5.671 12.595 0c-2.038,0.01 -4.053,0.08 -6.088,0.218l0.187 3.447c2.022,-0.136 4.023,-0.205 6.048,-0.212l0 -3.453 12.73 0 0 -5.671 -4.655 0 0 -11.446 230.808 0 0 4.655 5.671 0 0 -12.73 3.453 0c0.007,-2.025 0.075,-4.026 0.211,-6.047l-3.446 -0.188c-0.138,2.035 -0.208,4.05 -0.218,6.088l0 -12.595 -5.671 0 0 4.655 -230.808 0 0 -403.611 60.618 0 0 -32.323 -60.618 0 -16.162 0 -81.922 0 0 7.656 -209.526 0c-0.128,0 -0.232,0.041 -0.232,0.09l0 16.832zm557.636 -7.908c0.104,0 0.192,-0.029 0.218,-0.069l0 0.251c-0.026,-0.04 -0.114,-0.069 -0.218,-0.069l-80.525 0 0 -0.113 80.525 0zm0.218 -0.12c-0.026,-0.039 -0.114,-0.068 -0.218,-0.068l-80.525 0 0 -0.64 80.525 0c0.104,0 0.192,-0.029 0.218,-0.069l0 0.777zm-0.218 0.421c0.104,0 0.192,-0.029 0.218,-0.069l0 1.12c-0.068,-0.011 -0.142,-0.016 -0.218,-0.016l-80.525 0 0 -1.035 80.525 0zm0.218 -1.248c-0.026,-0.04 -0.114,-0.069 -0.218,-0.069l-80.525 0 0 -0.075 80.525 0c0.104,0 0.192,-0.029 0.218,-0.069l0 0.213zm0 -0.264c-0.026,-0.039 -0.114,-0.068 -0.218,-0.068l-80.525 0 0 -1.073 80.525 0c0.076,0 0.15,-0.006 0.218,-0.016l0 1.157zm0 -1.652c-0.068,-0.01 -0.142,-0.016 -0.218,-0.016l-80.861 0c-0.185,-0.058 -0.431,-0.094 -0.702,-0.094l-12.241 0 -0.053 0.001 -0.002 0 -0.054 -0.001 -12.24 0c-0.271,0 -0.517,0.036 -0.702,0.094l-80.678 0c-0.144,0 -0.276,0.02 -0.382,0.053l0 -6.009 188.133 0 0 5.972zm-0.218 4.725c0.076,0 0.15,-0.005 0.218,-0.015l0 5.971 -188.133 0 0 -6.009c0.106,0.034 0.238,0.053 0.382,0.053l80.678 0c0.185,0.059 0.431,0.095 0.702,0.095l12.24 0 0.054 -0.001 0.002 0 0.053 0.001 12.241 0c0.271,0 0.517,-0.036 0.702,-0.095l80.861 0zm-107.192 -2.05l-80.341 0c-0.125,0 -0.227,0.042 -0.227,0.094 0,0.052 0.102,0.094 0.227,0.094l80.341 0 0 0.113 -80.341 0c-0.125,0 -0.227,0.042 -0.227,0.094 0,0.052 0.102,0.094 0.227,0.094l80.341 0 0 1.035 -80.341 0c-0.144,0 -0.276,0.019 -0.382,0.053l0 -3.794c0.106,0.033 0.238,0.053 0.382,0.053l80.341 0 0 1.073 -80.341 0c-0.125,0 -0.227,0.042 -0.227,0.094 0,0.052 0.102,0.094 0.227,0.094l80.341 0 0 0.075 -80.341 0c-0.125,0 -0.227,0.042 -0.227,0.094 0,0.052 0.102,0.094 0.227,0.094l80.341 0 0 0.64zm12.241 -2.07l0 3.5 -10.164 0 0 -3.5 10.164 0zm12.35 0l0 3.5 -10.164 0 0 -3.5 10.164 0zm429.715 -75.85c0.105,0 0.194,-0.03 0.22,-0.07l0 0.253c-0.026,-0.04 -0.115,-0.07 -0.22,-0.07l-80.613 0 0 -0.113 80.613 0zm0.22 -0.119c-0.026,-0.039 -0.115,-0.069 -0.22,-0.069l-80.613 0 0 -0.64 80.613 0c0.105,0 0.194,-0.029 0.22,-0.069l0 0.778zm-0.22 0.42c0.105,0 0.194,-0.03 0.22,-0.07l0 1.121c-0.069,-0.011 -0.143,-0.016 -0.22,-0.016l-80.613 0 0 -1.035 80.613 0zm0.22 -1.247c-0.026,-0.04 -0.115,-0.07 -0.22,-0.07l-80.613 0 0 -0.075 80.613 0c0.105,0 0.194,-0.03 0.22,-0.07l0 0.215zm0 -0.264c-0.026,-0.04 -0.115,-0.069 -0.22,-0.069l-80.613 0 0 -1.073 80.613 0c0.077,0 0.151,-0.005 0.22,-0.016l0 1.158zm0 -1.653c-0.069,-0.01 -0.143,-0.016 -0.22,-0.016l-80.95 0c-0.184,-0.058 -0.431,-0.094 -0.702,-0.094l-12.254 0 -0.054 0.001 -0.002 0 -0.054 -0.001 -12.254 0c-0.27,0 -0.517,0.036 -0.702,0.094l-80.767 0c-0.144,0 -0.276,0.02 -0.383,0.054l0 -6.01 188.342 0 0 5.972zm-0.22 4.726c0.077,0 0.151,-0.006 0.22,-0.016l0 5.971 -188.342 0 0 -6.008c0.107,0.033 0.239,0.053 0.383,0.053l80.767 0c0.185,0.058 0.432,0.094 0.702,0.094l12.254 0 0.054 -0.001 0.002 0 0.054 0.001 12.254 0c0.271,0 0.518,-0.036 0.702,-0.094l80.95 0zm-107.309 -2.051l-80.43 0c-0.126,0 -0.227,0.042 -0.227,0.094 0,0.052 0.101,0.094 0.227,0.094l80.43 0 0 0.113 -80.43 0c-0.126,0 -0.227,0.042 -0.227,0.094 0,0.052 0.101,0.094 0.227,0.094l80.43 0 0 1.035 -80.43 0c-0.144,0 -0.276,0.02 -0.383,0.053l0 -3.794c0.107,0.033 0.239,0.053 0.383,0.053l80.43 0 0 1.073 -80.43 0c-0.126,0 -0.227,0.042 -0.227,0.094 0,0.052 0.101,0.094 0.227,0.094l80.43 0 0 0.075 -80.43 0c-0.126,0 -0.227,0.042 -0.227,0.094 0,0.052 0.101,0.094 0.227,0.094l80.43 0 0 0.64zm12.254 -2.07l0 3.5 -10.175 0 0 -3.5 10.175 0zm12.363 0l0 3.5 -10.175 0 0 -3.5 10.175 0zm438.492 110.373c0.085,0 0.156,-0.03 0.177,-0.07l0 0.253c-0.021,-0.04 -0.092,-0.07 -0.177,-0.07l-65.046 0 0 -0.113 65.046 0zm0.177 -0.118c-0.021,-0.041 -0.092,-0.07 -0.177,-0.07l-65.046 0 0 -0.64 65.046 0c0.085,0 0.156,-0.029 0.177,-0.07l0 0.78zm-0.177 0.419c0.085,0 0.156,-0.03 0.177,-0.07l0 1.121c-0.056,-0.011 -0.115,-0.016 -0.177,-0.016l-65.046 0 0 -1.035 65.046 0zm0.177 -1.247c-0.021,-0.04 -0.092,-0.07 -0.177,-0.07l-65.046 0 0 -0.075 65.046 0c0.085,0 0.156,-0.03 0.177,-0.07l0 0.215zm0 -0.263c-0.021,-0.041 -0.092,-0.07 -0.177,-0.07l-65.046 0 0 -1.073 65.046 0c0.062,0 0.121,-0.005 0.177,-0.016l0 1.159zm0 -1.653c-0.056,-0.011 -0.115,-0.017 -0.177,-0.017l-65.318 0c-0.149,-0.058 -0.348,-0.094 -0.567,-0.094l-9.887 0 -0.044 0.001 -0.002 0 -0.043 -0.001 -9.887 0c-0.219,0 -0.418,0.036 -0.567,0.094l-65.17 0c-0.116,0 -0.223,0.021 -0.309,0.054l0 -6.01 151.971 0 0 5.973zm-0.177 4.725c0.062,0 0.121,-0.006 0.177,-0.017l0 5.972 -151.971 0 0 -6.009c0.086,0.033 0.193,0.054 0.309,0.054l65.17 0c0.149,0.058 0.348,0.094 0.567,0.094l9.887 0 0.043 -0.001 0.002 0 0.044 0.001 9.887 0c0.219,0 0.418,-0.036 0.567,-0.094l65.318 0zm-86.587 -2.051l-64.898 0c-0.101,0 -0.183,0.042 -0.183,0.094 0,0.052 0.082,0.094 0.183,0.094l64.898 0 0 0.113 -64.898 0c-0.101,0 -0.183,0.042 -0.183,0.094 0,0.052 0.082,0.094 0.183,0.094l64.898 0 0 1.035 -64.898 0c-0.116,0 -0.223,0.02 -0.309,0.053l0 -3.794c0.086,0.033 0.193,0.053 0.309,0.053l64.898 0 0 1.073 -64.898 0c-0.101,0 -0.183,0.042 -0.183,0.094 0,0.052 0.082,0.094 0.183,0.094l64.898 0 0 0.075 -64.898 0c-0.101,0 -0.183,0.042 -0.183,0.094 0,0.052 0.082,0.094 0.183,0.094l64.898 0 0 0.64zm9.888 -2.07l0 3.5 -8.211 0 0 -3.5 8.211 0zm9.976 0l0 3.5 -8.211 0 0 -3.5 8.211 0zm67.749 2.258c-0.085,0 -0.157,-0.03 -0.178,-0.07l0 0.253c0.021,-0.04 0.093,-0.07 0.178,-0.07l65.045 0 0 -0.113 -65.045 0zm-0.178 -0.118c0.021,-0.041 0.093,-0.07 0.178,-0.07l65.045 0 0 -0.64 -65.045 0c-0.085,0 -0.157,-0.029 -0.178,-0.07l0 0.78zm0.178 0.419c-0.085,0 -0.157,-0.03 -0.178,-0.07l0 1.121c0.056,-0.011 0.115,-0.016 0.178,-0.016l65.045 0 0 -1.035 -65.045 0zm-0.178 -1.247c0.021,-0.04 0.093,-0.07 0.178,-0.07l65.045 0 0 -0.075 -65.045 0c-0.085,0 -0.157,-0.03 -0.178,-0.07l0 0.215zm0 -0.263c0.021,-0.041 0.093,-0.07 0.178,-0.07l65.045 0 0 -1.073 -65.045 0c-0.063,0 -0.122,-0.005 -0.178,-0.016l0 1.159zm0 -1.653c0.056,-0.011 0.115,-0.017 0.178,-0.017l65.317 0c0.149,-0.058 0.348,-0.094 0.567,-0.094l9.888 0 0.043 0.001 0.002 0 0.043 -0.001 9.888 0c0.218,0 0.417,0.036 0.566,0.094l65.171 0c0.115,0 0.222,0.021 0.308,0.054l0 -6.01 -151.971 0 0 5.973zm0.178 4.725c-0.063,0 -0.122,-0.006 -0.178,-0.017l0 5.972 151.971 0 0 -6.009c-0.086,0.033 -0.193,0.054 -0.308,0.054l-65.171 0c-0.149,0.058 -0.348,0.094 -0.566,0.094l-9.888 0 -0.043 -0.001 -0.002 0 -0.043 0.001 -9.888 0c-0.219,0 -0.418,-0.036 -0.567,-0.094l-65.317 0zm86.586 -2.051l64.899 0c0.101,0 0.183,0.042 0.183,0.094 0,0.052 -0.082,0.094 -0.183,0.094l-64.899 0 0 0.113 64.899 0c0.101,0 0.183,0.042 0.183,0.094 0,0.052 -0.082,0.094 -0.183,0.094l-64.899 0 0 1.035 64.899 0c0.115,0 0.222,0.02 0.308,0.053l0 -3.794c-0.086,0.033 -0.193,0.053 -0.308,0.053l-64.899 0 0 1.073 64.899 0c0.101,0 0.183,0.042 0.183,0.094 0,0.052 -0.082,0.094 -0.183,0.094l-64.899 0 0 0.075 64.899 0c0.101,0 0.183,0.042 0.183,0.094 0,0.052 -0.082,0.094 -0.183,0.094l-64.899 0 0 0.64zm-9.887 -2.07l0 3.5 8.21 0 0 -3.5 -8.21 0zm-9.976 0l0 3.5 8.21 0 0 -3.5 -8.21 0zm-1219.188 545.948l5.671 0 0 4.654 87.774 0 0 -3.344 16.162 0 0 3.344 72.962 0 0 -15.647 -4.655 0 0 -5.671 -79.899 0 -1.707 0 0 -1.571 -1.37 -0.029c0.031,-2.345 0.14,-4.673 0.309,-7.011l3.062 0.292c-0.038,0.518 -0.073,1.035 -0.104,1.552l92.445 0 0 6.767 12.736 0 0 5.671 -4.655 0 0 15.647 0 16.162 -16.162 0 -72.962 0 0 164.596 67.562 0 16.161 0 51.657 0 16.161 0 67.562 0 0 -167.941 -14.102 0 0 8 -5.672 0 0 79.899 0 1.707 -1.571 0 -0.029 1.37c-2.345,-0.031 -4.673,-0.14 -7.011,-0.309l0.292 -3.062c0.518,0.038 1.035,0.073 1.552,0.104l0 -92.445 6.767 0 0 -12.735 5.672 0 0 1.31 14.102 0 16.162 0 60.661 0 0 -4.655 5.671 0 0 12.73 3.453 0c0.007,2.024 0.075,4.025 0.211,6.047l-3.446 0.187c-0.138,-2.035 -0.209,-4.05 -0.218,-6.088l0 12.595 -5.671 0 0 -4.655 -60.661 0 0 167.941 0 16.161 0 74.7 211.302 0 0 -80.359 0 -32.322 32.323 0 35.496 0 0 -146.121 -102.628 0 0 4.655 -5.671 0 0 79.899 0 1.707 -1.571 0 -0.03 1.37c-2.345,-0.031 -4.673,-0.14 -7.01,-0.309l0.291 -3.062c0.518,0.038 1.035,0.073 1.553,0.104l0 -92.445 6.767 0 0 -12.735 5.671 0 0 4.655 102.628 0 16.161 0 73.264 0 0 16.161 -73.264 0 0 146.121 27.864 0 66.363 0 0 32.322 -66.363 0 0 80.359 0 32.323 -32.323 0 -47.198 0 -32.323 0 -745.709 0 -32.323 0 0 -32.323 0 -74.7 0 -16.161 0 -164.596 0 -16.162 0 -562.698 0 -32.323 0 -1.286 32.323 0 0 1.286 80.424 0 0 32.323 -80.424 0 0 562.698 79.374 0 0 -4.654 5.671 0 0 12.73 3.453 0c0.007,2.024 0.075,4.025 0.211,6.047l-3.446 0.187c-0.138,-2.035 -0.209,-4.05 -0.218,-6.088l0 12.595 -5.671 0 0 -4.655 -79.374 0 0 164.596 86.769 0 16.162 0 0 16.161 0 74.7 180.049 0 0 -74.7 0 -16.161 0 -164.596 -87.774 0 0 4.655 -5.671 0 0 79.899 0 1.707 -1.572 0 -0.029 1.37c-2.345,-0.031 -4.673,-0.14 -7.01,-0.309l0.291 -3.062c0.518,0.038 1.035,0.073 1.553,0.104l0 -92.445 6.767 0 0 -12.735zm-12.115 107.822c-2.331,-0.25 -4.627,-0.567 -6.936,-0.951l0.647 -3.018c2.236,0.371 4.457,0.677 6.716,0.92l-0.427 3.049zm-10.383 -1.589c-2.235,-0.452 -4.616,-0.966 -6.796,-1.588l1.011 -2.938c2.165,0.582 4.358,1.087 6.563,1.532l-0.778 2.994zm-10.138 -2.537c-2.216,-0.662 -4.418,-1.404 -6.574,-2.207l1.34 -2.831c2.084,0.774 4.209,1.49 6.35,2.13l-1.116 2.908zm-9.788 -3.456c-2.108,-0.826 -4.254,-1.821 -6.283,-2.796l1.651 -2.699c1.961,0.943 4.033,1.903 6.071,2.701l-1.439 2.794zm-9.344 -4.337c-2.017,-1.054 -3.997,-2.174 -5.927,-3.349l1.956 -2.532c1.868,1.136 3.782,2.218 5.732,3.237l-1.761 2.644zm-8.798 -5.157c-1.887,-1.238 -3.724,-2.516 -5.519,-3.86l2.238 -2.34c1.732,1.3 3.517,2.537 5.34,3.734l-2.059 2.466zm-8.163 -5.908c-1.742,-1.388 -3.425,-2.84 -5.059,-4.328l2.478 -2.14c1.58,1.439 3.212,2.846 4.897,4.188l-2.316 2.28zm-7.47 -6.604c-1.574,-1.543 -3.096,-3.122 -4.556,-4.75l2.708 -1.908c1.41,1.576 2.888,3.106 4.411,4.598l-2.563 2.06zm-6.697 -7.219c-1.404,-1.663 -2.737,-3.381 -4.014,-5.124l2.9 -1.669c1.233,1.685 2.526,3.35 3.884,4.958l-2.77 1.835zm-5.881 -7.773c-1.212,-1.791 -2.346,-3.596 -3.434,-5.447l3.073 -1.4c1.089,1.791 2.142,3.522 3.326,5.27l-2.965 1.577zm-4.998 -8.238c-1.01,-1.884 -1.948,-3.781 -2.826,-5.717l3.211 -1.134c0.833,1.868 1.762,3.72 2.734,5.533l-3.119 1.318zm-4.08 -8.63c-0.8,-1.956 -1.534,-3.937 -2.191,-5.934l3.319 -0.852c0.636,1.932 1.346,3.847 2.12,5.74l-3.248 1.046zm-3.123 -8.941c-0.587,-2.018 -1.096,-4.049 -1.54,-6.096l3.396 -0.561c0.416,1.971 0.925,3.952 1.49,5.894l-3.346 0.763zm-2.144 -9.168c-0.363,-2.058 -0.656,-4.115 -0.876,-6.19l3.438 -0.282c0.217,2.013 0.499,4.003 0.852,6.001l-3.414 0.471zm198.685 -57.043c0.25,-2.331 0.567,-4.627 0.951,-6.936l3.019 0.646c-0.372,2.237 -0.678,4.458 -0.921,6.717l-3.049 -0.427zm1.589 -10.383c0.452,-2.235 0.966,-4.617 1.588,-6.796l2.938 1.011c-0.581,2.165 -1.087,4.358 -1.532,6.563l-2.994 -0.778zm2.537 -10.139c0.662,-2.216 1.404,-4.417 2.207,-6.573l2.831 1.34c-0.773,2.084 -1.49,4.209 -2.13,6.35l-2.908 -1.117zm3.456 -9.787c0.826,-2.108 1.821,-4.255 2.796,-6.283l2.699 1.651c-0.943,1.96 -1.903,4.032 -2.701,6.07l-2.794 -1.438zm4.337 -9.344c1.054,-2.017 2.174,-3.997 3.349,-5.928l2.532 1.957c-1.136,1.868 -2.218,3.781 -3.237,5.732l-2.644 -1.761zm5.157 -8.798c1.238,-1.888 2.516,-3.724 3.86,-5.519l2.341 2.238c-1.301,1.732 -2.538,3.517 -3.734,5.34l-2.467 -2.059zm5.908 -8.163c1.388,-1.742 2.84,-3.425 4.328,-5.06l2.14 2.479c-1.439,1.58 -2.846,3.212 -4.188,4.896l-2.28 -2.315zm6.604 -7.47c1.543,-1.575 3.122,-3.096 4.75,-4.556l1.908 2.708c-1.576,1.41 -3.106,2.888 -4.598,4.41l-2.06 -2.562zm7.219 -6.697c1.663,-1.405 3.381,-2.738 5.124,-4.014l1.669 2.9c-1.685,1.233 -3.35,2.526 -4.958,3.884l-1.835 -2.77zm7.773 -5.881c1.791,-1.212 3.596,-2.346 5.447,-3.435l1.4 3.074c-1.791,1.088 -3.522,2.142 -5.27,3.325l-1.577 -2.964zm8.238 -4.999c1.884,-1.009 3.781,-1.948 5.717,-2.825l1.134 3.211c-1.868,0.832 -3.72,1.762 -5.533,2.734l-1.318 -3.12zm8.631 -4.079c1.955,-0.8 3.936,-1.534 5.933,-2.191l0.852 3.318c-1.932,0.637 -3.847,1.346 -5.739,2.121l-1.046 -3.248zm8.94 -3.123c2.018,-0.588 4.049,-1.096 6.096,-1.54l0.561 3.395c-1.971,0.417 -3.952,0.925 -5.894,1.491l-0.763 -3.346zm9.168 -2.144c2.058,-0.363 4.115,-0.657 6.19,-0.877l0.282 3.439c-2.013,0.217 -4.003,0.499 -6.001,0.852l-0.471 -3.414zm23.655 119.785l5.672 0 0 12.73 3.453 0c0.006,2.024 0.075,4.025 0.211,6.047l-3.447 0.187c-0.137,-2.035 -0.208,-4.05 -0.217,-6.088l0 12.595 -5.672 0 0 -25.471zm98.047 107.822c-2.331,-0.25 -4.627,-0.567 -6.936,-0.951l0.646 -3.018c2.237,0.371 4.458,0.677 6.717,0.92l-0.427 3.049zm-10.383 -1.589c-2.235,-0.452 -4.617,-0.966 -6.796,-1.588l1.011 -2.938c2.165,0.582 4.358,1.087 6.563,1.532l-0.778 2.994zm-10.139 -2.537c-2.216,-0.662 -4.417,-1.404 -6.573,-2.207l1.34 -2.831c2.084,0.774 4.209,1.49 6.35,2.13l-1.117 2.908zm-9.787 -3.456c-2.108,-0.826 -4.255,-1.821 -6.283,-2.796l1.651 -2.699c1.96,0.943 4.033,1.903 6.07,2.701l-1.438 2.794zm-9.344 -4.337c-2.017,-1.054 -3.997,-2.174 -5.928,-3.349l1.957 -2.532c1.868,1.136 3.781,2.218 5.732,3.237l-1.761 2.644zm-8.798 -5.157c-1.888,-1.238 -3.724,-2.516 -5.519,-3.86l2.238 -2.34c1.732,1.3 3.517,2.537 5.34,3.734l-2.059 2.466zm-8.163 -5.908c-1.742,-1.388 -3.425,-2.84 -5.06,-4.328l2.479 -2.14c1.58,1.439 3.212,2.846 4.897,4.188l-2.316 2.28zm-7.47 -6.604c-1.575,-1.543 -3.096,-3.122 -4.556,-4.75l2.708 -1.908c1.41,1.576 2.888,3.106 4.41,4.598l-2.562 2.06zm-6.697 -7.219c-1.404,-1.663 -2.738,-3.381 -4.014,-5.124l2.9 -1.669c1.233,1.685 2.526,3.35 3.884,4.958l-2.77 1.835zm-5.881 -7.773c-1.212,-1.791 -2.346,-3.596 -3.435,-5.447l3.074 -1.4c1.088,1.791 2.142,3.522 3.325,5.27l-2.964 1.577zm-4.999 -8.238c-1.009,-1.884 -1.948,-3.781 -2.825,-5.717l3.211 -1.134c0.832,1.868 1.762,3.72 2.734,5.533l-3.12 1.318zm-4.079 -8.63c-0.8,-1.956 -1.534,-3.937 -2.191,-5.934l3.318 -0.852c0.637,1.932 1.346,3.847 2.121,5.74l-3.248 1.046zm-3.123 -8.941c-0.588,-2.018 -1.096,-4.049 -1.54,-6.096l3.395 -0.561c0.417,1.971 0.925,3.952 1.491,5.894l-3.346 0.763zm-2.144 -9.168c-0.363,-2.058 -0.656,-4.115 -0.877,-6.19l3.439 -0.282c0.217,2.013 0.499,4.003 0.852,6.001l-3.414 0.471zm297.764 76.212c-2.331,-0.25 -4.627,-0.567 -6.936,-0.951l0.647 -3.018c2.236,0.371 4.457,0.677 6.716,0.92l-0.427 3.049zm-10.383 -1.589c-2.235,-0.451 -4.616,-0.966 -6.796,-1.588l1.011 -2.938c2.165,0.582 4.358,1.087 6.563,1.532l-0.778 2.994zm-10.138 -2.537c-2.216,-0.662 -4.418,-1.404 -6.574,-2.206l1.34 -2.832c2.084,0.774 4.209,1.49 6.35,2.13l-1.116 2.908zm-9.788 -3.456c-2.108,-0.826 -4.254,-1.821 -6.283,-2.796l1.651 -2.699c1.961,0.943 4.033,1.903 6.071,2.701l-1.439 2.794zm-9.344 -4.337c-2.017,-1.053 -3.997,-2.174 -5.927,-3.348l1.956 -2.533c1.868,1.136 3.782,2.218 5.732,3.237l-1.761 2.644zm-8.798 -5.157c-1.887,-1.238 -3.724,-2.516 -5.519,-3.86l2.238 -2.34c1.732,1.3 3.517,2.537 5.34,3.734l-2.059 2.466zm-8.163 -5.908c-1.742,-1.388 -3.425,-2.84 -5.059,-4.328l2.478 -2.14c1.58,1.439 3.212,2.846 4.897,4.188l-2.316 2.28zm-7.47 -6.604c-1.574,-1.543 -3.096,-3.122 -4.556,-4.75l2.708 -1.908c1.41,1.576 2.888,3.107 4.411,4.598l-2.563 2.06zm-6.697 -7.219c-1.404,-1.663 -2.737,-3.381 -4.014,-5.124l2.9 -1.669c1.234,1.685 2.526,3.35 3.884,4.958l-2.77 1.835zm-5.881 -7.773c-1.212,-1.791 -2.346,-3.596 -3.434,-5.447l3.074 -1.4c1.088,1.791 2.141,3.522 3.325,5.27l-2.965 1.577zm-4.998 -8.238c-1.01,-1.884 -1.948,-3.781 -2.826,-5.717l3.211 -1.134c0.833,1.868 1.762,3.72 2.734,5.533l-3.119 1.318zm-4.08 -8.63c-0.8,-1.956 -1.534,-3.937 -2.191,-5.934l3.319 -0.852c0.636,1.932 1.346,3.847 2.12,5.74l-3.248 1.046zm-3.123 -8.941c-0.587,-2.018 -1.096,-4.049 -1.54,-6.096l3.396 -0.561c0.416,1.971 0.925,3.953 1.49,5.894l-3.346 0.763zm-2.144 -9.168c-0.363,-2.058 -0.656,-4.115 -0.876,-6.19l3.438 -0.282c0.217,2.013 0.499,4.003 0.852,6.001l-3.414 0.471zm115.013 -266.359c-2.331,0.25 -4.627,0.567 -6.936,0.951l0.647 3.019c2.236,-0.372 4.457,-0.677 6.716,-0.92l-0.427 -3.05zm-10.382 1.589c-2.236,0.452 -4.617,0.966 -6.797,1.588l1.012 2.938c2.164,-0.581 4.358,-1.087 6.562,-1.532l-0.777 -2.994zm-10.139 2.537c-2.216,0.662 -4.418,1.405 -6.574,2.207l1.34 2.831c2.084,-0.773 4.209,-1.49 6.35,-2.13l-1.116 -2.908zm-9.787 3.457c-2.108,0.825 -4.255,1.82 -6.283,2.795l1.65 2.699c1.961,-0.942 4.033,-1.903 6.071,-2.7l-1.438 -2.794zm-9.345 4.336c-2.017,1.054 -3.997,2.174 -5.927,3.349l1.956 2.532c1.868,-1.136 3.782,-2.218 5.733,-3.237l-1.762 -2.644zm-8.798 5.157c-1.887,1.238 -3.724,2.516 -5.518,3.861l2.238 2.34c1.731,-1.301 3.516,-2.538 5.34,-3.734l-2.06 -2.467zm-8.162 5.908c-1.743,1.388 -3.426,2.841 -5.06,4.328l2.478 2.14c1.58,-1.439 3.212,-2.846 4.897,-4.188l-2.315 -2.28zm-7.471 6.605c-1.574,1.542 -3.095,3.121 -4.556,4.75l2.708 1.907c1.41,-1.576 2.888,-3.106 4.411,-4.597l-2.563 -2.06zm-6.697 7.218c-1.404,1.663 -2.737,3.382 -4.014,5.124l2.9 1.669c1.234,-1.685 2.526,-3.35 3.884,-4.958l-2.77 -1.835zm-5.881 7.773c-1.212,1.791 -2.346,3.596 -3.434,5.448l3.074 1.399c1.088,-1.791 2.142,-3.522 3.325,-5.27l-2.965 -1.577zm-4.998 8.238c-1.01,1.885 -1.948,3.781 -2.825,5.717l3.21 1.134c0.833,-1.868 1.762,-3.72 2.734,-5.533l-3.119 -1.318zm-4.08 8.631c-0.8,1.955 -1.534,3.936 -2.191,5.934l3.319 0.851c0.637,-1.932 1.346,-3.847 2.12,-5.739l-3.248 -1.046zm-3.123 8.941c-0.587,2.017 -1.096,4.048 -1.54,6.095l3.396 0.561c0.417,-1.971 0.925,-3.952 1.491,-5.894l-3.347 -0.762zm-2.144 9.167c-0.363,2.058 -0.656,4.115 -0.876,6.19l3.438 0.282c0.217,-2.013 0.499,-4.003 0.852,-6.001l-3.414 -0.471zm250.468 -79.557c2.331,0.25 4.627,0.567 6.936,0.951l-0.647 3.019c-2.236,-0.372 -4.457,-0.677 -6.716,-0.92l0.427 -3.05zm10.382 1.589c2.236,0.452 4.617,0.966 6.797,1.588l-1.011 2.938c-2.165,-0.581 -4.358,-1.087 -6.563,-1.532l0.777 -2.994zm10.139 2.537c2.216,0.662 4.418,1.405 6.574,2.207l-1.34 2.831c-2.084,-0.773 -4.209,-1.49 -6.35,-2.13l1.116 -2.908zm9.787 3.457c2.109,0.825 4.255,1.82 6.283,2.795l-1.65 2.699c-1.961,-0.942 -4.033,-1.903 -6.071,-2.7l1.438 -2.794zm9.345 4.336c2.017,1.054 3.997,2.174 5.927,3.349l-1.956 2.532c-1.868,-1.136 -3.782,-2.218 -5.732,-3.237l1.761 -2.644zm8.798 5.157c1.887,1.238 3.724,2.516 5.519,3.861l-2.238 2.34c-1.732,-1.301 -3.517,-2.538 -5.34,-3.734l2.059 -2.467zm8.163 5.908c1.742,1.388 3.425,2.841 5.059,4.328l-2.478 2.14c-1.58,-1.439 -3.212,-2.846 -4.897,-4.188l2.316 -2.28zm7.47 6.605c1.574,1.542 3.096,3.121 4.556,4.75l-2.708 1.907c-1.41,-1.576 -2.888,-3.106 -4.411,-4.597l2.563 -2.06zm6.697 7.218c1.404,1.663 2.737,3.382 4.014,5.124l-2.9 1.669c-1.234,-1.685 -2.526,-3.35 -3.884,-4.958l2.77 -1.835zm5.881 7.773c1.212,1.791 2.346,3.596 3.434,5.448l-3.074 1.399c-1.088,-1.791 -2.141,-3.522 -3.325,-5.27l2.965 -1.577zm4.998 8.238c1.01,1.885 1.948,3.781 2.826,5.717l-3.211 1.134c-0.833,-1.868 -1.762,-3.72 -2.734,-5.533l3.119 -1.318zm4.08 8.631c0.8,1.955 1.534,3.936 2.191,5.934l-3.319 0.851c-0.637,-1.932 -1.346,-3.847 -2.12,-5.739l3.248 -1.046zm3.123 8.941c0.587,2.017 1.096,4.048 1.54,6.095l-3.396 0.561c-0.416,-1.971 -0.925,-3.952 -1.49,-5.894l3.346 -0.762zm2.144 9.167c0.363,2.058 0.656,4.115 0.876,6.19l-3.438 0.282c-0.217,-2.013 -0.499,-4.003 -0.852,-6.001l3.414 -0.471zm-43.329 332.831l5.671 0 0 12.73 3.453 0c0.007,2.024 0.075,4.025 0.211,6.047l-3.446 0.187c-0.138,-2.035 -0.208,-4.05 -0.218,-6.088l0 12.595 -5.671 0 0 -25.471zm98.046 107.822c-2.331,-0.25 -4.627,-0.567 -6.936,-0.951l0.647 -3.018c2.236,0.371 4.457,0.677 6.716,0.92l-0.427 3.049zm-10.382 -1.589c-2.236,-0.451 -4.617,-0.966 -6.797,-1.588l1.011 -2.938c2.165,0.582 4.358,1.087 6.563,1.532l-0.777 2.994zm-10.139 -2.537c-2.216,-0.662 -4.418,-1.404 -6.574,-2.206l1.34 -2.832c2.084,0.774 4.209,1.49 6.35,2.13l-1.116 2.908zm-9.787 -3.456c-2.109,-0.826 -4.255,-1.821 -6.283,-2.796l1.65 -2.699c1.961,0.943 4.033,1.903 6.071,2.701l-1.438 2.794zm-9.345 -4.337c-2.017,-1.053 -3.997,-2.174 -5.927,-3.348l1.956 -2.532c1.868,1.135 3.782,2.217 5.733,3.237l-1.762 2.643zm-8.798 -5.156c-1.887,-1.239 -3.724,-2.517 -5.519,-3.861l2.238 -2.34c1.732,1.3 3.517,2.537 5.34,3.734l-2.059 2.467zm-8.163 -5.909c-1.742,-1.388 -3.425,-2.84 -5.059,-4.328l2.478 -2.14c1.58,1.439 3.212,2.846 4.897,4.188l-2.316 2.28zm-7.47 -6.604c-1.574,-1.542 -3.095,-3.122 -4.556,-4.75l2.708 -1.908c1.41,1.576 2.888,3.107 4.411,4.598l-2.563 2.06zm-6.697 -7.219c-1.404,-1.663 -2.737,-3.381 -4.014,-5.124l2.9 -1.669c1.234,1.685 2.526,3.35 3.884,4.958l-2.77 1.835zm-5.881 -7.773c-1.212,-1.791 -2.346,-3.596 -3.434,-5.447l3.074 -1.4c1.088,1.791 2.141,3.522 3.325,5.27l-2.965 1.577zm-4.998 -8.238c-1.01,-1.884 -1.948,-3.781 -2.826,-5.717l3.211 -1.133c0.833,1.867 1.762,3.719 2.734,5.532l-3.119 1.318zm-4.08 -8.63c-0.8,-1.956 -1.534,-3.936 -2.191,-5.934l3.319 -0.852c0.637,1.933 1.346,3.847 2.12,5.74l-3.248 1.046zm-3.123 -8.941c-0.587,-2.018 -1.096,-4.049 -1.54,-6.096l3.396 -0.561c0.416,1.971 0.925,3.953 1.49,5.895l-3.346 0.762zm-2.144 -9.167c-0.363,-2.059 -0.656,-4.116 -0.876,-6.19l3.438 -0.283c0.217,2.013 0.499,4.003 0.852,6.002l-3.414 0.471zm131.597 -428.518l-63.359 0 0 74.87 63.359 0 0 -74.87zm458.228 -331.057l33.908 0 0 -31.293 32.323 0 0 -172.076 -66.231 0 0 203.369zm-1434.354 836.633l0 -74.7 -86.769 0 0 74.7 86.769 0zm347.753 0l0 -74.7 -51.657 0 0 74.7 51.657 0zm16.161 -74.7l0 74.7 67.562 0 0 -74.7 -67.562 0zm-83.979 74.7l0 -74.7 -67.562 0 0 74.7 67.562 0zm411.328 -80.359l0 80.359 47.198 0 0 -80.359 -11.702 0 -35.496 0zm701.335 80.359l75.664 0 0 -101.471 -75.664 0 0 101.471z"/>
 </g>
</svg>
