<?xml version="1.0" encoding="UTF-8"?>
<!DOCTYPE svg PUBLIC "-//W3C//DTD SVG 1.1//EN" "http://www.w3.org/Graphics/SVG/1.1/DTD/svg11.dtd">
<!-- Creator: CorelDRAW 2018 (64-Bit) -->
<svg xmlns="http://www.w3.org/2000/svg" xml:space="preserve" width="1619px" height="1080px" version="1.1" style="shape-rendering:geometricPrecision; text-rendering:geometricPrecision; image-rendering:optimizeQuality; fill-rule:evenodd; clip-rule:evenodd"
viewBox="0 0 1587.323 1058.824"
 xmlns:xlink="http://www.w3.org/1999/xlink">
 <defs>
  <style type="text/css">
   <![CDATA[
    .fil0 {fill:#FEFEFE}
   ]]>
  </style>
 </defs>
 <g id="Слой_x0020_1">
  <metadata id="CorelCorpID_0Corel-Layer"/>
  <path class="fil0" d="M1587.323 1058.824l-31.677 0 -466.468 0 -15.838 0 0 -31.678 0 -80.077 -22.348 0 0 1.82 -5.558 0 0 78.303 0 1.673 -1.54 0 -0.029 1.342c-2.298,-0.03 -4.579,-0.137 -6.87,-0.303l0.285 -3c0.508,0.037 1.015,0.071 1.522,0.102l0 -90.599 6.632 0 0 -12.481 5.558 0 0 1.82 22.348 0 0 -90.431 -1.054 0 0 -3.995 17.946 0 0 3.995 -1.054 0 0 90.431 0 21.323 0 80.077 376.476 0 0 -99.444 0 -15.838 15.839 0 74.153 0 0 -672.96 -59.995 0 0 -7.504 -149.12 0c-0.091,0 -0.164,-0.039 -0.164,-0.087l0 -6.183 0 -4.13 0 -6.183c0,-0.048 0.073,-0.087 0.164,-0.087l149.12 0 0 -7.503 59.995 0 15.838 0 0 -27.166 -49.07 0 -7.919 0 0 -7.919 0 -164.223 -746.734 0 0 93.352 23.758 0 20.881 0 0 31.677 -20.881 0 0 42.224 21.028 0 0 134.314 -21.028 0 -10.649 0 -5.189 0 0 295.559 97.636 0 0 -4.562 5.558 0 0 -78.303 0 -1.673 1.54 0 0.029 -1.343c2.298,0.03 4.579,0.138 6.87,0.303l-0.285 3c-0.508,-0.037 -1.015,-0.07 -1.522,-0.101l0 90.598 -6.632 0 0 12.481 -5.558 0 0 -4.562 -97.636 0 -15.839 0 -7.939 0 0 4.562 -5.558 0 0 -12.481 -6.632 0 0 -90.598c-0.507,0.031 -1.014,0.064 -1.521,0.101l-0.286 -3c2.291,-0.165 4.572,-0.273 6.87,-0.303l0.029 1.343 1.54 0 0 1.673 0 78.303 5.558 0 0 4.562 7.939 0 0 -295.559 0 -70.582 0 -5.882 0 -23.526 -102.637 0 0 -7.503 -184.579 0c-0.112,0 -0.203,-0.039 -0.203,-0.088l0 -16.495c0,-0.049 0.091,-0.088 0.203,-0.088l184.579 0 0 -7.503 102.637 0 0 -44.871 0 -31.677 0 -101.271 4.706 0 3.213 0 746.734 0 7.919 0 64.909 0 0 2.457 0 5.462 0 164.223 0 7.919 0 27.166 0 31.677 0 672.96 0 15.838 0 99.444 0 31.678zm-245.301 -962.901c-5.081,0 -7.767,4.045 -7.767,11.682 0,7.702 2.686,11.618 7.896,11.618 5.081,0 7.767,-3.98 7.767,-11.553 0,-7.831 -2.622,-11.747 -7.896,-11.747zm0.032 3.107c4.174,0 4.142,5.695 4.142,8.64 0,2.848 -0.032,8.478 -4.077,8.478 -2.88,0 -4.142,-2.491 -4.142,-8.316 0,-3.624 0.097,-8.802 4.077,-8.802zm-14.756 -3.042l-2.977 0c-0.647,3.948 -4.175,4.401 -6.602,4.401l0 2.718 5.631 0 0 15.663 3.948 0 0 -22.782zm6.52 39.742c-7.775,0 -14.814,-3.152 -19.91,-8.247 -5.095,-5.095 -8.247,-12.135 -8.247,-19.91 0,-7.775 3.152,-14.815 8.247,-19.91 5.096,-5.095 12.135,-8.247 19.91,-8.247 7.775,0 14.815,3.152 19.91,8.247 5.095,5.095 8.248,12.135 8.248,19.91 0,7.775 -3.152,14.814 -8.248,19.91 -5.095,5.095 -12.135,8.247 -19.91,8.247zm-16.667 -11.49c4.265,4.265 10.159,6.904 16.667,6.904 6.509,0 12.402,-2.639 16.668,-6.904 4.265,-4.265 6.903,-10.158 6.903,-16.667 0,-6.509 -2.638,-12.402 -6.903,-16.667 -4.266,-4.265 -10.159,-6.904 -16.668,-6.904 -6.509,0 -12.402,2.639 -16.667,6.904 -4.265,4.265 -6.903,10.158 -6.903,16.667 0,6.509 2.638,12.402 6.903,16.667zm13.303 511.73l-2.88 0 0 -14.368 -3.495 0 -9.709 13.818 0 3.657 9.611 0 0.033 5.371 3.56 0 0 -5.371 2.88 0 0 -3.107zm-6.408 0l-6.634 0 6.634 -9.805 0 9.805zm-1.634 25.212c-7.775,0 -14.815,-3.152 -19.91,-8.247 -5.095,-5.095 -8.247,-12.135 -8.247,-19.91 0,-7.775 3.152,-14.815 8.247,-19.91 5.096,-5.095 12.135,-8.247 19.91,-8.247 7.775,0 14.815,3.152 19.91,8.247 5.095,5.095 8.247,12.135 8.247,19.91 0,7.775 -3.152,14.814 -8.247,19.91 -5.095,5.095 -12.135,8.247 -19.91,8.247zm-16.667 -11.49c4.265,4.265 10.158,6.904 16.667,6.904 6.509,0 12.402,-2.639 16.667,-6.904 4.265,-4.265 6.904,-10.158 6.904,-16.667 0,-6.509 -2.639,-12.402 -6.904,-16.667 -4.265,-4.265 -10.158,-6.904 -16.667,-6.904 -6.509,0 -12.402,2.639 -16.667,6.904 -4.265,4.265 -6.904,10.158 -6.904,16.667 0,6.509 2.639,12.402 6.904,16.667zm-388.629 -284.87l3.527 0c0.098,-2.912 1.424,-4.466 3.787,-4.466 2.103,0 3.462,1.327 3.462,3.301 0,2.913 -2.394,3.269 -4.66,3.269l-0.323 0 0 2.782c0.55,-0.032 0.744,-0.032 1.165,-0.032 2.427,0 4.53,1.003 4.53,3.786 0,2.492 -1.586,4.045 -4.077,4.045 -2.848,0 -4.304,-1.585 -4.401,-4.757l-3.56 0 0 0.486c0,4.465 3.139,7.443 7.864,7.443 4.724,0 8.025,-2.978 8.025,-7.314 0,-2.718 -1.554,-4.692 -4.11,-5.339 1.942,-0.648 3.171,-2.427 3.171,-4.628 0,-3.624 -2.847,-6.083 -7.022,-6.083 -4.465,0 -7.248,2.847 -7.378,7.507zm7.394 32.331c-7.775,0 -14.814,-3.151 -19.91,-8.247 -5.095,-5.095 -8.247,-12.135 -8.247,-19.91 0,-7.774 3.152,-14.814 8.247,-19.909 5.096,-5.096 12.135,-8.248 19.91,-8.248 7.775,0 14.815,3.152 19.91,8.248 5.095,5.095 8.247,12.135 8.247,19.909 0,7.775 -3.152,14.815 -8.247,19.91 -5.095,5.096 -12.135,8.247 -19.91,8.247zm-16.667 -11.489c4.265,4.265 10.158,6.903 16.667,6.903 6.509,0 12.402,-2.638 16.667,-6.903 4.266,-4.265 6.904,-10.158 6.904,-16.668 0,-6.509 -2.638,-12.402 -6.904,-16.667 -4.265,-4.265 -10.158,-6.903 -16.667,-6.903 -6.509,0 -12.402,2.638 -16.667,6.903 -4.265,4.265 -6.903,10.158 -6.903,16.667 0,6.509 2.638,12.403 6.903,16.668zm-315.178 10.135l-11.682 0 -2.169 12.2 3.237 0.097c0.97,-1.457 2.103,-2.039 3.786,-2.039 2.685,0 4.271,1.747 4.271,4.757 0,3.106 -1.521,4.886 -4.207,4.886 -2.297,0 -3.915,-1.488 -4.109,-3.818l-3.657 0c0.194,4.174 3.204,6.86 7.669,6.86 4.757,0 8.09,-3.333 8.09,-8.122 0,-4.434 -2.815,-7.411 -7.022,-7.411 -1.683,0 -3.106,0.388 -4.272,1.618l1.036 -5.825 9.029 0 0 -3.203zm-6.65 39.628c-7.775,0 -14.815,-3.152 -19.91,-8.247 -5.095,-5.095 -8.247,-12.135 -8.247,-19.91 0,-7.775 3.152,-14.814 8.247,-19.909 5.095,-5.096 12.135,-8.248 19.91,-8.248 7.775,0 14.814,3.152 19.909,8.248 5.096,5.095 8.248,12.134 8.248,19.909 0,7.775 -3.152,14.815 -8.248,19.91 -5.095,5.095 -12.134,8.247 -19.909,8.247zm-16.667 -11.489c4.265,4.265 10.158,6.903 16.667,6.903 6.509,0 12.402,-2.638 16.667,-6.903 4.265,-4.265 6.903,-10.158 6.903,-16.668 0,-6.509 -2.638,-12.402 -6.903,-16.667 -4.265,-4.265 -10.158,-6.903 -16.667,-6.903 -6.509,0 -12.402,2.638 -16.667,6.903 -4.266,4.265 -6.904,10.158 -6.904,16.667 0,6.509 2.638,12.403 6.904,16.668zm-362.697 66.95c0.421,3.786 2.977,6.019 6.828,6.019 5.275,0 8.413,-4.466 8.413,-12.006 0,-7.313 -2.912,-11.358 -8.122,-11.358 -4.466,0 -7.637,3.301 -7.637,7.928 0,4.466 2.815,7.475 6.99,7.475 2.297,0 3.98,-1.003 5.177,-2.783 -0.258,2.654 -0.679,7.832 -4.659,7.832 -1.91,0 -3.042,-1.036 -3.431,-3.107l-3.559 0zm7.216 -4.887c-2.459,0 -4.045,-1.844 -4.045,-4.659 0,-2.848 1.586,-4.725 3.948,-4.725 2.427,0 4.045,1.909 4.045,4.822 0,2.783 -1.553,4.562 -3.948,4.562zm0.146 27.381c-7.775,0 -14.815,-3.152 -19.91,-8.247 -5.095,-5.095 -8.247,-12.135 -8.247,-19.91 0,-7.775 3.152,-14.815 8.247,-19.91 5.096,-5.095 12.135,-8.247 19.91,-8.247 7.775,0 14.814,3.152 19.91,8.247 5.095,5.095 8.247,12.135 8.247,19.91 0,7.775 -3.152,14.814 -8.247,19.91 -5.096,5.095 -12.135,8.247 -19.91,8.247zm-16.667 -11.49c4.265,4.265 10.158,6.904 16.667,6.904 6.509,0 12.402,-2.639 16.667,-6.904 4.265,-4.265 6.903,-10.158 6.903,-16.667 0,-6.509 -2.638,-12.402 -6.903,-16.667 -4.265,-4.265 -10.158,-6.904 -16.667,-6.904 -6.509,0 -12.402,2.639 -16.667,6.904 -4.265,4.265 -6.904,10.158 -6.904,16.667 0,6.509 2.639,12.402 6.904,16.667zm-19.287 409.357l-15.436 0 0 3.398 11.779 0c-4.53,4.239 -8.478,12.976 -8.64,19.125l4.045 0c0.259,-6.764 3.527,-14.692 8.252,-19.416l0 -3.107zm-7.718 39.419c-7.775,0 -14.815,-3.152 -19.91,-8.248 -5.095,-5.095 -8.247,-12.135 -8.247,-19.91 0,-7.774 3.152,-14.814 8.247,-19.909 5.096,-5.096 12.135,-8.248 19.91,-8.248 7.775,0 14.814,3.152 19.91,8.248 5.095,5.095 8.247,12.135 8.247,19.909 0,7.775 -3.152,14.815 -8.247,19.91 -5.096,5.096 -12.135,8.248 -19.91,8.248zm-16.667 -11.49c4.265,4.265 10.158,6.903 16.667,6.903 6.509,0 12.402,-2.638 16.667,-6.903 4.265,-4.265 6.903,-10.158 6.903,-16.668 0,-6.509 -2.638,-12.402 -6.903,-16.667 -4.265,-4.265 -10.158,-6.903 -16.667,-6.903 -6.509,0 -12.402,2.638 -16.667,6.903 -4.265,4.265 -6.904,10.158 -6.904,16.667 0,6.509 2.639,12.403 6.904,16.668zm274.714 -59.938c-2.621,0.808 -4.142,2.847 -4.142,5.662 0,4.143 3.204,6.925 7.928,6.925 4.79,0 7.993,-2.847 7.993,-7.119 0,-3.009 -1.521,-4.562 -4.142,-5.468 2.071,-0.874 3.204,-2.557 3.204,-4.822 0,-3.463 -2.848,-5.922 -6.925,-5.922 -4.207,0 -7.152,2.459 -7.152,6.019 0,2.265 1.197,4.013 3.236,4.725zm3.883 -7.767c2.136,0 3.528,1.262 3.528,3.269 0,2.038 -1.392,3.3 -3.56,3.3 -2.168,0 -3.624,-1.327 -3.624,-3.3 0,-2.007 1.424,-3.269 3.656,-3.269zm-0.097 9.223c2.589,0 4.272,1.585 4.272,4.109 0,2.589 -1.553,4.11 -4.142,4.11 -2.654,0 -4.337,-1.618 -4.337,-4.207 0,-2.394 1.716,-4.012 4.207,-4.012zm0.033 27.623c-7.775,0 -14.815,-3.152 -19.91,-8.247 -5.095,-5.096 -8.247,-12.135 -8.247,-19.91 0,-7.775 3.152,-14.815 8.247,-19.91 5.096,-5.096 12.135,-8.247 19.91,-8.247 7.775,0 14.814,3.152 19.91,8.247 5.095,5.095 8.247,12.135 8.247,19.91 0,7.775 -3.152,14.814 -8.247,19.91 -5.096,5.095 -12.135,8.247 -19.91,8.247zm-16.667 -11.49c4.265,4.265 10.158,6.903 16.667,6.903 6.509,0 12.402,-2.638 16.667,-6.903 4.265,-4.265 6.903,-10.158 6.903,-16.667 0,-6.509 -2.638,-12.402 -6.903,-16.667 -4.265,-4.266 -10.158,-6.904 -16.667,-6.904 -6.509,0 -12.402,2.638 -16.667,6.904 -4.266,4.265 -6.904,10.158 -6.904,16.667 0,6.509 2.638,12.402 6.904,16.667zm269.231 37.273c0.194,3.527 3.107,6.084 6.925,6.084 6.569,0 8.349,-6.764 8.349,-12.232 0,-5.146 -1.618,-11.165 -8.025,-11.165 -4.466,0 -7.702,3.333 -7.702,7.961 0,4.336 2.912,7.443 6.99,7.443 2.297,0 3.818,-0.971 5.048,-2.88 -0.129,2.847 -0.712,7.928 -4.466,7.928 -2.103,0 -3.398,-1.327 -3.559,-3.139l-3.56 0zm7.119 -14.206c2.459,0 4.045,1.877 4.045,4.757 0,2.718 -1.618,4.563 -3.98,4.563 -2.395,0 -3.916,-1.78 -3.916,-4.563 0,-2.848 1.521,-4.757 3.851,-4.757zm0.291 36.749c-7.775,0 -14.814,-3.152 -19.91,-8.247 -5.094,-5.096 -8.247,-12.135 -8.247,-19.911 0,-7.774 3.153,-14.814 8.247,-19.909 5.096,-5.096 12.135,-8.247 19.91,-8.247 7.775,0 14.815,3.152 19.91,8.247 5.095,5.095 8.248,12.135 8.248,19.909 0,7.776 -3.152,14.815 -8.248,19.911 -5.095,5.095 -12.134,8.247 -19.91,8.247zm-16.667 -11.49c4.265,4.265 10.159,6.903 16.667,6.903 6.509,0 12.402,-2.638 16.668,-6.903 4.265,-4.265 6.903,-10.158 6.903,-16.668 0,-6.509 -2.638,-12.402 -6.903,-16.666 -4.266,-4.266 -10.159,-6.904 -16.668,-6.904 -6.509,0 -12.402,2.638 -16.667,6.904 -4.265,4.264 -6.903,10.157 -6.903,16.666 0,6.51 2.638,12.403 6.903,16.668zm14.704 -247.392l-11.035 0c0.777,-1.877 3.204,-3.495 4.854,-4.563 3.171,-2.103 6.213,-3.98 6.213,-8.251 0,-4.11 -2.912,-6.796 -7.313,-6.796 -4.66,0 -7.605,3.107 -7.605,7.961l0 0.582 3.592 0c0.065,-2.653 0.583,-5.372 3.916,-5.372 2.265,0 3.656,1.457 3.656,3.819 0,3.139 -2.718,4.563 -4.983,6.083 -3.851,2.589 -6.601,4.628 -6.763,9.806l15.468 0 0 -3.269zm-7.718 19.986c-7.775,0 -14.815,-3.152 -19.91,-8.247 -5.095,-5.095 -8.247,-12.135 -8.247,-19.91 0,-7.775 3.152,-14.814 8.247,-19.909 5.096,-5.096 12.135,-8.248 19.91,-8.248 7.775,0 14.814,3.152 19.91,8.248 5.095,5.095 8.247,12.134 8.247,19.909 0,7.775 -3.152,14.815 -8.247,19.91 -5.096,5.095 -12.135,8.247 -19.91,8.247zm-16.667 -11.489c4.265,4.265 10.158,6.903 16.667,6.903 6.509,0 12.402,-2.638 16.667,-6.903 4.265,-4.266 6.903,-10.159 6.903,-16.668 0,-6.509 -2.638,-12.402 -6.903,-16.667 -4.265,-4.265 -10.158,-6.903 -16.667,-6.903 -6.509,0 -12.402,2.638 -16.667,6.903 -4.265,4.265 -6.904,10.158 -6.904,16.667 0,6.509 2.639,12.402 6.904,16.668zm313.192 127.22l-2.977 0c-0.647,3.948 -4.174,4.401 -6.601,4.401l0 2.718 5.63 0 0 15.662 3.948 0 0 -22.781zm-4.789 39.548c-7.775,0 -14.815,-3.152 -19.91,-8.247 -5.095,-5.096 -8.247,-12.135 -8.247,-19.91 0,-7.775 3.152,-14.815 8.247,-19.91 5.096,-5.096 12.135,-8.247 19.91,-8.247 7.775,0 14.814,3.152 19.91,8.247 5.095,5.095 8.247,12.135 8.247,19.91 0,7.775 -3.152,14.814 -8.247,19.91 -5.096,5.095 -12.135,8.247 -19.91,8.247zm-16.667 -11.49c4.265,4.265 10.158,6.903 16.667,6.903 6.509,0 12.402,-2.638 16.667,-6.903 4.265,-4.265 6.903,-10.158 6.903,-16.667 0,-6.509 -2.638,-12.402 -6.903,-16.667 -4.265,-4.265 -10.158,-6.904 -16.667,-6.904 -6.509,0 -12.402,2.639 -16.667,6.904 -4.266,4.265 -6.904,10.158 -6.904,16.667 0,6.509 2.638,12.402 6.904,16.667zm115.771 -159.994l0 -2.685 0 -77.976 -62.093 0 -15.839 0 -8.572 0 0 4.562 -5.558 0 0 -12.475 -3.384 0c-0.007,-1.985 -0.074,-3.946 -0.207,-5.927l3.377 -0.184c0.135,1.995 0.204,3.969 0.214,5.967l0 -12.343 5.558 0 0 4.562 8.572 0 0 -73.375 0 -15.839 15.839 0 62.093 0 0 -276.927 0 -5.882 0 -25.795 6.974 0 0 -74.279 -82.848 0 0 -7.503 -184.862 0c-0.113,0 -0.204,-0.039 -0.204,-0.087l0 -16.496c0,-0.048 0.091,-0.088 0.204,-0.088l184.862 0 0 -7.503 82.848 0 31.677 0 0 31.677 0 74.279 84.782 0 0 7.588c0.002,-0.047 0.076,-0.085 0.165,-0.085l149.264 0c0.091,0 0.165,0.039 0.165,0.087l0 6.183 0 4.13 0 6.183c0,0.048 -0.074,0.087 -0.165,0.087l-149.264 0c-0.089,0 -0.163,-0.038 -0.165,-0.085l0 7.589 -84.782 0 -22.813 0 0 276.927 0 15.839 0 73.375 0 15.838 0 77.976 0 2.685 37.536 0 0.808 0 0 0.744 0.649 0.014c-0.014,1.11 -0.066,2.213 -0.146,3.32l-1.45 -0.138c0.018,-0.246 0.034,-0.491 0.049,-0.735l-43.771 0 0 -3.205 -9.513 0zm3.483 52.16l0 -2.686 6.028 0 0 -1.635c0.958,-0.003 1.906,-0.035 2.863,-0.1l0.089 1.632c-0.956,0.065 -1.903,0.098 -2.86,0.103l5.94 0 0 2.686 1.349 0 0 3.995 -8.908 0c1.448,0.006 2.879,0.056 4.324,0.154l-0.132 2.428c-1.424,-0.096 -2.834,-0.144 -4.261,-0.149l0 -2.433 -8.969 0 0 -3.995 4.537 0zm51.052 -46.424c-0.118,1.104 -0.268,2.191 -0.45,3.284l-1.429 -0.306c0.176,-1.059 0.32,-2.11 0.435,-3.18l1.444 0.202zm-0.752 4.916c-0.214,1.059 -0.458,2.186 -0.752,3.218l-1.391 -0.478c0.275,-1.026 0.514,-2.064 0.725,-3.108l1.418 0.368zm-1.201 4.801c-0.314,1.049 -0.665,2.091 -1.045,3.112l-1.341 -0.634c0.367,-0.987 0.706,-1.993 1.009,-3.007l1.377 0.529zm-1.637 4.634c-0.391,0.998 -0.862,2.015 -1.324,2.975l-1.278 -0.782c0.447,-0.928 0.902,-1.909 1.279,-2.874l1.323 0.681zm-2.053 4.424c-0.499,0.956 -1.03,1.893 -1.586,2.807l-1.198 -0.926c0.537,-0.885 1.049,-1.791 1.532,-2.715l1.252 0.834zm-2.442 4.166c-0.586,0.894 -1.191,1.763 -1.828,2.613l-1.108 -1.06c0.616,-0.82 1.202,-1.665 1.768,-2.528l1.168 0.975zm-2.797 3.865c-0.657,0.825 -1.345,1.622 -2.05,2.396l-1.013 -1.174c0.682,-0.748 1.348,-1.521 1.983,-2.318l1.08 1.096zm-3.127 3.537c-0.73,0.746 -1.478,1.466 -2.249,2.157l-0.904 -1.282c0.747,-0.668 1.471,-1.367 2.177,-2.088l0.976 1.213zm-3.418 3.171c-0.788,0.665 -1.601,1.296 -2.426,1.901l-0.791 -1.373c0.798,-0.585 1.587,-1.197 2.348,-1.84l0.869 1.312zm-3.681 2.784c-0.847,0.574 -1.702,1.111 -2.579,1.627l-0.663 -1.456c0.848,-0.515 1.668,-1.014 2.496,-1.574l0.746 1.403zm-3.9 2.367c-0.892,0.478 -1.791,0.922 -2.707,1.338l-0.537 -1.52c0.885,-0.395 1.762,-0.835 2.62,-1.295l0.624 1.477zm-4.086 1.932c-0.927,0.378 -1.864,0.726 -2.81,1.037l-0.404 -1.571c0.916,-0.302 1.822,-0.638 2.718,-1.004l0.496 1.538zm-4.234 1.478c-0.955,0.278 -1.917,0.519 -2.886,0.729l-0.266 -1.607c0.934,-0.197 1.872,-0.438 2.791,-0.706l0.361 1.584zm-4.34 1.015c-0.975,0.172 -1.949,0.311 -2.931,0.416l-0.134 -1.629c0.953,-0.102 1.895,-0.236 2.842,-0.403l0.223 1.616zm-2.699 80.949l59.019 0 1.203 0 0 -1.106 0.965 -0.021c-0.022,-1.653 -0.099,-3.293 -0.218,-4.94l-2.157 0.206c0.027,0.365 0.051,0.729 0.073,1.094l-65.134 0 0 4.767 6.249 0zm60.746 -8.535c-0.176,-1.643 -0.399,-3.26 -0.67,-4.887l-2.126 0.456c0.262,1.576 0.477,3.14 0.648,4.732l2.148 -0.301zm-1.119 -7.315c-0.318,-1.575 -0.681,-3.253 -1.119,-4.789l-2.07 0.713c0.41,1.525 0.765,3.07 1.079,4.624l2.11 -0.548zm-1.788 -7.144c-0.466,-1.561 -0.989,-3.112 -1.554,-4.632l-1.995 0.945c0.545,1.468 1.049,2.965 1.5,4.474l2.049 -0.787zm-2.435 -6.895c-0.581,-1.486 -1.282,-2.998 -1.97,-4.427l-1.901 1.163c0.664,1.381 1.341,2.841 1.902,4.277l1.969 -1.013zm-3.055 -6.584c-0.743,-1.422 -1.532,-2.816 -2.36,-4.177l-1.784 1.379c0.8,1.316 1.563,2.664 2.281,4.039l1.863 -1.241zm-3.634 -6.199c-0.872,-1.33 -1.772,-2.624 -2.72,-3.888l-1.648 1.576c0.916,1.221 1.787,2.478 2.631,3.763l1.737 -1.451zm-4.162 -5.751c-0.978,-1.228 -2.002,-2.414 -3.05,-3.565l-1.508 1.746c1.015,1.113 2.006,2.263 2.951,3.45l1.607 -1.631zm-4.654 -5.264c-1.086,-1.109 -2.199,-2.181 -3.346,-3.209l-1.344 1.907c1.11,0.994 2.188,2.035 3.239,3.108l1.451 -1.806zm-5.086 -4.718c-1.171,-0.99 -2.382,-1.929 -3.61,-2.828l-1.176 2.043c1.188,0.869 2.361,1.78 3.493,2.736l1.293 -1.951zm-5.476 -4.144c-1.262,-0.853 -2.534,-1.652 -3.838,-2.42l-0.987 2.166c1.263,0.767 2.482,1.509 3.714,2.343l1.111 -2.089zm-5.805 -3.521c-1.327,-0.712 -2.664,-1.373 -4.028,-1.991l-0.798 2.262c1.316,0.587 2.621,1.242 3.898,1.927l0.928 -2.198zm-6.08 -2.875c-1.378,-0.563 -2.773,-1.081 -4.181,-1.543l-0.6 2.338c1.361,0.448 2.71,0.948 4.044,1.494l0.737 -2.289zm-6.3 -2.2c-1.421,-0.414 -2.852,-0.772 -4.294,-1.085l-0.396 2.392c1.389,0.294 2.785,0.652 4.153,1.051l0.537 -2.358zm-6.459 -1.511c-1.45,-0.255 -2.899,-0.462 -4.361,-0.617l-0.199 2.423c1.418,0.152 2.82,0.351 4.228,0.6l0.332 -2.406zm-776.209 -564.508c0.025,0 0.048,-0.001 0.071,-0.003l0 0.118c-0.023,-0.003 -0.046,-0.004 -0.071,-0.004l-87.864 0 0 -0.111 87.864 0zm0.071 -0.18c-0.023,-0.003 -0.046,-0.004 -0.071,-0.004l-87.864 0 0 -0.627 87.864 0c0.025,0 0.048,-0.001 0.071,-0.004l0 0.635zm-0.071 0.476c0.025,0 0.048,-0.002 0.071,-0.004l0 1.019 -0.071 -0.002 -87.864 0 0 -1.013 87.864 0zm0.071 -1.287c-0.023,-0.003 -0.046,-0.004 -0.071,-0.004l-87.864 0 0 -0.074 87.864 0c0.025,0 0.048,-0.001 0.071,-0.004l0 0.082zm0 -0.258c-0.023,-0.003 -0.046,-0.004 -0.071,-0.004l-87.864 0 0 -1.051 87.864 0 0.071 -0.002 0 1.057zm0 -1.57l-0.071 -0.002 -88.231 0c-0.202,-0.057 -0.47,-0.092 -0.766,-0.092l-13.356 0 -0.058 0.001 -0.003 0 -0.058 -0.001 -13.357 0c-0.295,0 -0.564,0.035 -0.765,0.092l-88.032 0c-0.157,0 -0.301,0.02 -0.417,0.052l0 -5.889 205.114 0 0 5.839zm-0.071 4.645l0.071 -0.002 0 5.838 -205.114 0 0 -5.888c0.116,0.032 0.26,0.052 0.417,0.052l88.032 0c0.201,0.057 0.47,0.092 0.765,0.092l13.357 0 0.058 -0.001 0.003 0 0.058 0.001 13.356 0c0.296,0 0.564,-0.035 0.766,-0.092l88.231 0zm-116.962 -2.01l-87.664 0c-0.137,0 -0.248,0.041 -0.248,0.092 0,0.051 0.111,0.092 0.248,0.092l87.664 0 0 0.111 -87.664 0c-0.137,0 -0.248,0.041 -0.248,0.092 0,0.051 0.111,0.093 0.248,0.093l87.664 0 0 1.013 -87.664 0c-0.157,0 -0.301,0.02 -0.417,0.052l0 -3.717c0.116,0.032 0.26,0.052 0.417,0.052l87.664 0 0 1.051 -87.664 0c-0.137,0 -0.248,0.041 -0.248,0.092 0,0.051 0.111,0.092 0.248,0.092l87.664 0 0 0.074 -87.664 0c-0.137,0 -0.248,0.041 -0.248,0.092 0,0.051 0.111,0.092 0.248,0.092l87.664 0 0 0.627zm13.357 -2.028l0 3.429 -11.091 0 0 -3.429 11.091 0zm13.475 0l0 3.429 -11.09 0 0 -3.429 11.09 0zm-115.367 9.962c0,0.049 0.101,0.088 0.227,0.088l205.341 0 0 7.503 80.285 0 0 395.549 0 15.838 0 11.218 -4.561 0 0 5.558 12.342 0c-1.997,0.01 -3.971,0.078 -5.966,0.214l0.184 3.377c1.981,-0.133 3.942,-0.2 5.926,-0.207l0 -3.384 12.476 0 0 -5.558 -4.562 0 0 -11.218 226.198 0 0 4.562 5.558 0 0 -12.475 3.384 0c0.006,-1.985 0.073,-3.946 0.207,-5.927l-3.378 -0.184c-0.135,1.995 -0.204,3.969 -0.213,5.967l0 -12.343 -5.558 0 0 4.562 -226.198 0 0 -395.549 59.407 0 0 -31.677 -59.407 0 -15.839 0 -80.285 0 0 7.503 -205.341 0c-0.126,0 -0.227,0.039 -0.227,0.088l0 16.495zm546.496 -7.75c0.102,0 0.188,-0.028 0.214,-0.067l0 0.246c-0.026,-0.039 -0.112,-0.068 -0.214,-0.068l-78.916 0 0 -0.111 78.916 0zm0.214 -0.117c-0.026,-0.038 -0.112,-0.067 -0.214,-0.067l-78.916 0 0 -0.627 78.916 0c0.102,0 0.188,-0.028 0.214,-0.067l0 0.761zm-0.214 0.413c0.102,0 0.188,-0.029 0.214,-0.068l0 1.097c-0.066,-0.01 -0.139,-0.016 -0.214,-0.016l-78.916 0 0 -1.013 78.916 0zm0.214 -1.224c-0.026,-0.039 -0.112,-0.067 -0.214,-0.067l-78.916 0 0 -0.074 78.916 0c0.102,0 0.188,-0.028 0.214,-0.067l0 0.208zm0 -0.258c-0.026,-0.039 -0.112,-0.067 -0.214,-0.067l-78.916 0 0 -1.051 78.916 0c0.075,0 0.148,-0.006 0.214,-0.016l0 1.134zm0 -1.619c-0.066,-0.01 -0.139,-0.016 -0.214,-0.016l-79.245 0c-0.181,-0.057 -0.423,-0.092 -0.688,-0.092l-11.996 0 -0.052 0.001 -0.003 0 -0.052 -0.001 -11.996 0c-0.265,0 -0.507,0.035 -0.688,0.092l-79.066 0c-0.141,0 -0.271,0.02 -0.375,0.052l0 -5.889 184.375 0 0 5.853zm-0.214 4.631c0.075,0 0.148,-0.006 0.214,-0.016l0 5.852 -184.375 0 0 -5.888c0.104,0.032 0.234,0.052 0.375,0.052l79.066 0c0.181,0.057 0.423,0.092 0.688,0.092l11.996 0 0.052 -0.001 0.003 0 0.052 0.001 11.996 0c0.265,0 0.507,-0.035 0.688,-0.092l79.245 0zm-105.05 -2.01l-78.736 0c-0.123,0 -0.223,0.041 -0.223,0.092 0,0.051 0.1,0.092 0.223,0.092l78.736 0 0 0.111 -78.736 0c-0.123,0 -0.223,0.041 -0.223,0.092 0,0.051 0.1,0.093 0.223,0.093l78.736 0 0 1.013 -78.736 0c-0.141,0 -0.271,0.02 -0.375,0.052l0 -3.717c0.104,0.032 0.234,0.052 0.375,0.052l78.736 0 0 1.051 -78.736 0c-0.123,0 -0.223,0.041 -0.223,0.092 0,0.051 0.1,0.092 0.223,0.092l78.736 0 0 0.074 -78.736 0c-0.123,0 -0.223,0.041 -0.223,0.092 0,0.051 0.1,0.092 0.223,0.092l78.736 0 0 0.627zm11.996 -2.028l0 3.429 -9.961 0 0 -3.429 9.961 0zm12.104 0l0 3.429 -9.962 0 0 -3.429 9.962 0zm421.131 -74.335c0.103,0 0.189,-0.029 0.215,-0.069l0 0.248c-0.026,-0.039 -0.112,-0.069 -0.215,-0.069l-79.003 0 0 -0.11 79.003 0zm0.215 -0.116c-0.026,-0.04 -0.112,-0.069 -0.215,-0.069l-79.003 0 0 -0.627 79.003 0c0.103,0 0.189,-0.028 0.215,-0.068l0 0.764zm-0.215 0.411c0.103,0 0.189,-0.029 0.215,-0.068l0 1.097c-0.067,-0.01 -0.139,-0.015 -0.215,-0.015l-79.003 0 0 -1.014 79.003 0zm0.215 -1.222c-0.026,-0.04 -0.112,-0.069 -0.215,-0.069l-79.003 0 0 -0.073 79.003 0c0.103,0 0.189,-0.03 0.215,-0.069l0 0.211zm0 -0.259c-0.026,-0.039 -0.112,-0.068 -0.215,-0.068l-79.003 0 0 -1.051 79.003 0c0.076,0 0.148,-0.005 0.215,-0.015l0 1.134zm0 -1.62c-0.067,-0.01 -0.139,-0.015 -0.215,-0.015l-79.333 0c-0.181,-0.057 -0.423,-0.092 -0.688,-0.092l-12.01 0 -0.052 0 -0.002 0 -0.053 0 -12.009 0c-0.266,0 -0.507,0.035 -0.689,0.092l-79.153 0c-0.141,0 -0.271,0.019 -0.375,0.052l0 -5.889 184.579 0 0 5.852zm-0.215 4.631c0.076,0 0.148,-0.005 0.215,-0.015l0 5.852 -184.579 0 0 -5.889c0.104,0.033 0.234,0.052 0.375,0.052l79.153 0c0.182,0.057 0.423,0.092 0.689,0.092l12.009 0 0.053 0 0.002 0 0.052 0 12.01 0c0.265,0 0.507,-0.035 0.688,-0.092l79.333 0zm-105.166 -2.01l-78.823 0c-0.123,0 -0.223,0.042 -0.223,0.093 0,0.05 0.1,0.092 0.223,0.092l78.823 0 0 0.11 -78.823 0c-0.123,0 -0.223,0.042 -0.223,0.093 0,0.051 0.1,0.092 0.223,0.092l78.823 0 0 1.014 -78.823 0c-0.141,0 -0.271,0.019 -0.375,0.052l0 -3.718c0.104,0.033 0.234,0.052 0.375,0.052l78.823 0 0 1.051 -78.823 0c-0.123,0 -0.223,0.041 -0.223,0.092 0,0.051 0.1,0.093 0.223,0.093l78.823 0 0 0.073 -78.823 0c-0.123,0 -0.223,0.042 -0.223,0.092 0,0.051 0.1,0.092 0.223,0.092l78.823 0 0 0.627zm12.01 -2.028l0 3.43 -9.972 0 0 -3.43 9.972 0zm12.116 0l0 3.43 -9.972 0 0 -3.43 9.972 0zm429.732 108.168c0.083,0 0.153,-0.029 0.174,-0.069l0 0.248c-0.021,-0.039 -0.091,-0.068 -0.174,-0.068l-63.746 0 0 -0.111 63.746 0zm0.174 -0.116c-0.021,-0.039 -0.091,-0.068 -0.174,-0.068l-63.746 0 0 -0.627 63.746 0c0.083,0 0.153,-0.029 0.174,-0.069l0 0.764zm-0.174 0.411c0.083,0 0.153,-0.029 0.174,-0.068l0 1.098c-0.055,-0.01 -0.113,-0.016 -0.174,-0.016l-63.746 0 0 -1.014 63.746 0zm0.174 -1.222c-0.021,-0.039 -0.091,-0.069 -0.174,-0.069l-63.746 0 0 -0.073 63.746 0c0.083,0 0.153,-0.029 0.174,-0.069l0 0.211zm0 -0.258c-0.021,-0.04 -0.091,-0.069 -0.174,-0.069l-63.746 0 0 -1.051 63.746 0c0.061,0 0.119,-0.005 0.174,-0.016l0 1.136zm0 -1.62c-0.055,-0.01 -0.113,-0.016 -0.174,-0.016l-64.013 0c-0.146,-0.057 -0.341,-0.092 -0.555,-0.092l-9.691 0 -0.042 0 -0.002 0 -0.042 0 -9.69 0c-0.214,0 -0.409,0.035 -0.556,0.092l-63.868 0c-0.114,0 -0.218,0.02 -0.302,0.052l0 -5.889 148.935 0 0 5.853zm-0.174 4.63c0.061,0 0.119,-0.005 0.174,-0.015l0 5.852 -148.935 0 0 -5.889c0.084,0.033 0.188,0.052 0.302,0.052l63.868 0c0.147,0.058 0.342,0.093 0.556,0.093l9.69 0 0.042 -0.001 0.002 0 0.042 0.001 9.691 0c0.214,0 0.409,-0.035 0.555,-0.093l64.013 0zm-84.857 -2.009l-63.602 0c-0.099,0 -0.179,0.041 -0.179,0.092 0,0.051 0.08,0.092 0.179,0.092l63.602 0 0 0.111 -63.602 0c-0.099,0 -0.179,0.041 -0.179,0.092 0,0.051 0.08,0.092 0.179,0.092l63.602 0 0 1.014 -63.602 0c-0.114,0 -0.218,0.02 -0.302,0.052l0 -3.718c0.084,0.033 0.188,0.052 0.302,0.052l63.602 0 0 1.051 -63.602 0c-0.099,0 -0.179,0.042 -0.179,0.093 0,0.05 0.08,0.092 0.179,0.092l63.602 0 0 0.073 -63.602 0c-0.099,0 -0.179,0.042 -0.179,0.093 0,0.051 0.08,0.092 0.179,0.092l63.602 0 0 0.627zm9.69 -2.028l0 3.429 -8.046 0 0 -3.429 8.046 0zm9.777 0l0 3.429 -8.047 0 0 -3.429 8.047 0zm66.396 2.212c-0.084,0 -0.154,-0.029 -0.174,-0.069l0 0.248c0.02,-0.039 0.09,-0.068 0.174,-0.068l63.746 0 0 -0.111 -63.746 0zm-0.174 -0.116c0.02,-0.039 0.09,-0.068 0.174,-0.068l63.746 0 0 -0.627 -63.746 0c-0.084,0 -0.154,-0.029 -0.174,-0.069l0 0.764zm0.174 0.411c-0.084,0 -0.154,-0.029 -0.174,-0.068l0 1.098c0.054,-0.01 0.112,-0.016 0.174,-0.016l63.746 0 0 -1.014 -63.746 0zm-0.174 -1.222c0.02,-0.039 0.09,-0.069 0.174,-0.069l63.746 0 0 -0.073 -63.746 0c-0.084,0 -0.154,-0.029 -0.174,-0.069l0 0.211zm0 -0.258c0.02,-0.04 0.09,-0.069 0.174,-0.069l63.746 0 0 -1.051 -63.746 0c-0.062,0 -0.12,-0.005 -0.174,-0.016l0 1.136zm0 -1.62c0.054,-0.01 0.112,-0.016 0.174,-0.016l64.012 0c0.146,-0.057 0.342,-0.092 0.556,-0.092l9.69 0 0.042 0 0.002 0 0.042 0 9.691 0c0.214,0 0.409,0.035 0.555,0.092l63.868 0c0.114,0 0.219,0.02 0.303,0.052l0 -5.889 -148.935 0 0 5.853zm0.174 4.63c-0.062,0 -0.12,-0.005 -0.174,-0.015l0 5.852 148.935 0 0 -5.889c-0.084,0.033 -0.189,0.052 -0.303,0.052l-63.868 0c-0.146,0.058 -0.341,0.093 -0.555,0.093l-9.691 0 -0.042 -0.001 -0.002 0 -0.042 0.001 -9.69 0c-0.214,0 -0.41,-0.035 -0.556,-0.093l-64.012 0zm84.857 -2.009l63.601 0c0.1,0 0.18,0.041 0.18,0.092 0,0.051 -0.08,0.092 -0.18,0.092l-63.601 0 0 0.111 63.601 0c0.1,0 0.18,0.041 0.18,0.092 0,0.051 -0.08,0.092 -0.18,0.092l-63.601 0 0 1.014 63.601 0c0.114,0 0.219,0.02 0.303,0.052l0 -3.718c-0.084,0.033 -0.189,0.052 -0.303,0.052l-63.601 0 0 1.051 63.601 0c0.1,0 0.18,0.042 0.18,0.093 0,0.05 -0.08,0.092 -0.18,0.092l-63.601 0 0 0.073 63.601 0c0.1,0 0.18,0.042 0.18,0.093 0,0.051 -0.08,0.092 -0.18,0.092l-63.601 0 0 0.627zm-9.691 -2.028l0 3.429 8.047 0 0 -3.429 -8.047 0zm-9.776 0l0 3.429 8.046 0 0 -3.429 -8.046 0zm-1194.834 535.041l5.558 0 0 4.562 86.021 0 0 -3.278 15.838 0 0 3.278 71.505 0 0 -15.334 -4.561 0 0 -5.558 -78.304 0 -1.673 0 0 -1.54 -1.342 -0.029c0.03,-2.298 0.137,-4.579 0.303,-6.87l3 0.285c-0.037,0.508 -0.071,1.015 -0.101,1.522l90.598 0 0 6.632 12.481 0 0 5.558 -4.562 0 0 15.334 0 15.839 -15.839 0 -71.505 0 0 161.307 66.213 0 15.838 0 50.625 0 15.839 0 66.212 0 0 -164.586 -13.821 0 0 7.84 -5.558 0 0 78.304 0 1.673 -1.539 0 -0.029 1.342c-2.299,-0.03 -4.58,-0.137 -6.871,-0.303l0.286 -3c0.507,0.037 1.015,0.071 1.521,0.101l0 -90.598 6.632 0 0 -12.481 5.558 0 0 1.284 13.821 0 15.839 0 59.449 0 0 -4.562 5.558 0 0 12.476 3.384 0c0.007,1.984 0.074,3.945 0.207,5.926l-3.378 0.184c-0.135,-1.995 -0.204,-3.969 -0.213,-5.967l0 12.343 -5.558 0 0 -4.562 -59.449 0 0 164.586 0 15.839 0 73.207 207.081 0 0 -78.753 0 -31.677 31.677 0 34.787 0 0 -143.202 -100.578 0 0 4.562 -5.558 0 0 78.304 0 1.672 -1.539 0 -0.029 1.343c-2.299,-0.03 -4.58,-0.137 -6.87,-0.303l0.285 -3c0.508,0.037 1.015,0.071 1.522,0.101l0 -90.598 6.631 0 0 -12.481 5.558 0 0 4.562 100.578 0 15.839 0 71.8 0 0 15.838 -71.8 0 0 143.202 27.307 0 65.037 0 0 31.677 -65.037 0 0 78.753 0 31.678 -31.677 0 -46.256 0 -31.677 0 -730.813 0 -31.677 0 0 -31.678 0 -73.207 0 -15.839 0 -161.307 0 -15.839 0 -551.458 0 -31.677 0 -1.261 31.677 0 0 1.261 78.818 0 0 31.677 -78.818 0 0 551.458 77.788 0 0 -4.562 5.558 0 0 12.476 3.384 0c0.007,1.984 0.074,3.945 0.208,5.926l-3.378 0.184c-0.135,-1.995 -0.204,-3.969 -0.214,-5.967l0 12.343 -5.558 0 0 -4.561 -77.788 0 0 161.307 85.036 0 15.839 0 0 15.839 0 73.207 176.453 0 0 -73.207 0 -15.839 0 -161.307 -86.021 0 0 4.561 -5.558 0 0 78.304 0 1.673 -1.54 0 -0.029 1.342c-2.298,-0.03 -4.579,-0.137 -6.87,-0.303l0.286 -3c0.507,0.037 1.014,0.071 1.521,0.101l0 -90.598 6.632 0 0 -12.481zm-11.873 105.669c-2.284,-0.246 -4.535,-0.556 -6.797,-0.932l0.634 -2.959c2.191,0.365 4.368,0.664 6.582,0.902l-0.419 2.989zm-10.175 -1.557c-2.19,-0.443 -4.525,-0.947 -6.661,-1.557l0.992 -2.879c2.121,0.57 4.271,1.065 6.431,1.501l-0.762 2.935zm-9.936 -2.487c-2.172,-0.649 -4.329,-1.376 -6.443,-2.162l1.314 -2.776c2.042,0.759 4.125,1.461 6.223,2.088l-1.094 2.85zm-9.592 -3.387c-2.066,-0.809 -4.17,-1.784 -6.157,-2.74l1.617 -2.645c1.922,0.924 3.952,1.865 5.95,2.647l-1.41 2.738zm-9.158 -4.25c-1.976,-1.033 -3.917,-2.131 -5.809,-3.282l1.918 -2.481c1.831,1.112 3.706,2.173 5.618,3.172l-1.727 2.591zm-8.622 -5.054c-1.85,-1.213 -3.65,-2.466 -5.408,-3.784l2.193 -2.293c1.697,1.275 3.447,2.487 5.233,3.66l-2.018 2.417zm-8 -5.79c-1.707,-1.361 -3.357,-2.784 -4.958,-4.242l2.429 -2.097c1.548,1.41 3.147,2.789 4.799,4.105l-2.27 2.234zm-7.321 -6.473c-1.543,-1.511 -3.033,-3.059 -4.464,-4.655l2.654 -1.869c1.381,1.544 2.83,3.044 4.322,4.506l-2.512 2.018zm-6.563 -7.074c-1.376,-1.63 -2.683,-3.314 -3.934,-5.021l2.842 -1.636c1.209,1.651 2.476,3.283 3.807,4.858l-2.715 1.799zm-5.764 -7.618c-1.187,-1.755 -2.298,-3.524 -3.365,-5.338l3.012 -1.372c1.067,1.755 2.099,3.452 3.259,5.165l-2.906 1.545zm-4.898 -8.073c-0.989,-1.847 -1.909,-3.706 -2.769,-5.603l3.147 -1.111c0.816,1.83 1.727,3.645 2.679,5.422l-3.057 1.292zm-3.998 -8.458c-0.784,-1.917 -1.503,-3.858 -2.147,-5.816l3.252 -0.834c0.624,1.894 1.319,3.77 2.078,5.625l-3.183 1.025zm-3.06 -8.763c-0.576,-1.977 -1.075,-3.967 -1.51,-5.973l3.328 -0.55c0.408,1.931 0.907,3.873 1.461,5.776l-3.279 0.747zm-2.102 -8.984c-0.356,-2.017 -0.643,-4.033 -0.859,-6.066l3.37 -0.277c0.213,1.973 0.489,3.923 0.835,5.882l-3.346 0.461zm194.716 -55.904c0.246,-2.284 0.556,-4.535 0.932,-6.797l2.959 0.633c-0.365,2.192 -0.664,4.369 -0.902,6.582l-2.989 -0.418zm1.557 -10.175c0.443,-2.191 0.947,-4.525 1.557,-6.661l2.879 0.991c-0.57,2.122 -1.065,4.271 -1.501,6.432l-2.935 -0.762zm2.487 -9.936c0.649,-2.172 1.376,-4.33 2.162,-6.443l2.776 1.313c-0.759,2.043 -1.461,4.126 -2.088,6.224l-2.85 -1.094zm3.387 -9.592c0.809,-2.066 1.784,-4.17 2.74,-6.158l2.645 1.618c-0.924,1.922 -1.865,3.952 -2.647,5.949l-2.738 -1.409zm4.25 -9.158c1.033,-1.977 2.131,-3.917 3.282,-5.809l2.481 1.917c-1.112,1.831 -2.173,3.707 -3.172,5.618l-2.591 -1.726zm5.054 -8.622c1.213,-1.85 2.466,-3.65 3.784,-5.408l2.293 2.193c-1.275,1.697 -2.487,3.446 -3.66,5.233l-2.417 -2.018zm5.79 -8c1.361,-1.707 2.784,-3.357 4.242,-4.958l2.097 2.428c-1.41,1.549 -2.789,3.148 -4.105,4.799l-2.234 -2.269zm6.473 -7.321c1.511,-1.543 3.059,-3.034 4.655,-4.465l1.869 2.654c-1.544,1.382 -3.044,2.831 -4.506,4.323l-2.018 -2.512zm7.074 -6.563c1.63,-1.376 3.314,-2.683 5.021,-3.934l1.636 2.842c-1.651,1.209 -3.283,2.476 -4.858,3.807l-1.799 -2.715zm7.618 -5.764c1.755,-1.187 3.524,-2.299 5.338,-3.365l1.372 3.012c-1.755,1.067 -3.452,2.099 -5.165,3.259l-1.545 -2.906zm8.073 -4.898c1.847,-0.99 3.706,-1.909 5.603,-2.769l1.111 3.147c-1.83,0.816 -3.645,1.727 -5.422,2.679l-1.292 -3.057zm8.458 -3.998c1.917,-0.784 3.858,-1.504 5.816,-2.147l0.834 3.252c-1.894,0.624 -3.77,1.319 -5.625,2.078l-1.025 -3.183zm8.763 -3.061c1.977,-0.576 3.967,-1.074 5.973,-1.509l0.55 3.328c-1.931,0.408 -3.873,0.906 -5.776,1.461l-0.747 -3.28zm8.984 -2.101c2.017,-0.356 4.033,-0.643 6.066,-0.859l0.277 3.37c-1.973,0.212 -3.923,0.489 -5.882,0.835l-0.461 -3.346zm23.183 117.392l5.558 0 0 12.476 3.384 0c0.006,1.984 0.074,3.945 0.207,5.926l-3.378 0.184c-0.135,-1.995 -0.204,-3.969 -0.213,-5.967l0 12.343 -5.558 0 0 -24.962zm96.088 105.669c-2.285,-0.246 -4.535,-0.556 -6.798,-0.932l0.634 -2.959c2.192,0.365 4.369,0.664 6.582,0.902l-0.418 2.989zm-10.175 -1.557c-2.191,-0.443 -4.525,-0.947 -6.661,-1.557l0.991 -2.879c2.122,0.57 4.271,1.065 6.432,1.501l-0.762 2.935zm-9.937 -2.487c-2.171,-0.649 -4.329,-1.376 -6.442,-2.162l1.313 -2.776c2.043,0.759 4.125,1.461 6.223,2.088l-1.094 2.85zm-9.591 -3.387c-2.066,-0.809 -4.17,-1.784 -6.158,-2.74l1.618 -2.645c1.921,0.924 3.952,1.865 5.949,2.647l-1.409 2.738zm-9.158 -4.25c-1.977,-1.033 -3.917,-2.131 -5.809,-3.282l1.917 -2.481c1.831,1.112 3.706,2.173 5.618,3.172l-1.726 2.591zm-8.622 -5.054c-1.85,-1.213 -3.65,-2.466 -5.409,-3.784l2.193 -2.293c1.698,1.275 3.447,2.487 5.234,3.66l-2.018 2.417zm-8 -5.79c-1.708,-1.361 -3.357,-2.784 -4.959,-4.242l2.429 -2.097c1.549,1.41 3.148,2.789 4.799,4.105l-2.269 2.234zm-7.321 -6.473c-1.543,-1.511 -3.034,-3.059 -4.465,-4.655l2.654 -1.869c1.382,1.544 2.83,3.044 4.322,4.506l-2.511 2.018zm-6.563 -7.074c-1.377,-1.63 -2.683,-3.314 -3.934,-5.021l2.842 -1.636c1.209,1.651 2.475,3.283 3.806,4.858l-2.714 1.799zm-5.764 -7.618c-1.187,-1.755 -2.299,-3.524 -3.366,-5.338l3.013 -1.372c1.066,1.755 2.099,3.452 3.258,5.165l-2.905 1.545zm-4.898 -8.073c-0.99,-1.847 -1.909,-3.706 -2.769,-5.603l3.146 -1.111c0.816,1.83 1.727,3.645 2.68,5.422l-3.057 1.292zm-3.999 -8.458c-0.783,-1.917 -1.503,-3.858 -2.147,-5.816l3.253 -0.834c0.624,1.894 1.319,3.77 2.078,5.625l-3.184 1.025zm-3.06 -8.763c-0.576,-1.977 -1.074,-3.967 -1.509,-5.973l3.327 -0.55c0.409,1.931 0.907,3.873 1.461,5.776l-3.279 0.747zm-2.101 -8.984c-0.356,-2.017 -0.643,-4.033 -0.859,-6.066l3.369 -0.277c0.213,1.973 0.49,3.923 0.835,5.882l-3.345 0.461zm291.816 74.689c-2.285,-0.245 -4.535,-0.555 -6.797,-0.931l0.633 -2.959c2.192,0.365 4.369,0.664 6.582,0.902l-0.418 2.988zm-10.175 -1.557c-2.191,-0.442 -4.525,-0.946 -6.661,-1.556l0.991 -2.879c2.122,0.57 4.271,1.065 6.432,1.501l-0.762 2.934zm-9.937 -2.486c-2.171,-0.649 -4.329,-1.376 -6.442,-2.162l1.313 -2.776c2.043,0.759 4.125,1.461 6.223,2.088l-1.094 2.85zm-9.591 -3.387c-2.066,-0.809 -4.17,-1.784 -6.158,-2.74l1.618 -2.645c1.921,0.924 3.952,1.865 5.949,2.646l-1.409 2.739zm-9.158 -4.25c-1.977,-1.033 -3.917,-2.131 -5.809,-3.282l1.917 -2.481c1.831,1.112 3.706,2.173 5.618,3.172l-1.726 2.591zm-8.622 -5.054c-1.85,-1.214 -3.65,-2.466 -5.409,-3.784l2.194 -2.293c1.697,1.274 3.446,2.487 5.233,3.659l-2.018 2.418zm-8 -5.79c-1.707,-1.361 -3.357,-2.784 -4.959,-4.242l2.429 -2.097c1.549,1.41 3.148,2.789 4.799,4.104l-2.269 2.235zm-7.321 -6.473c-1.543,-1.511 -3.034,-3.059 -4.465,-4.655l2.654 -1.869c1.382,1.544 2.83,3.044 4.322,4.505l-2.511 2.019zm-6.563 -7.074c-1.376,-1.63 -2.683,-3.314 -3.934,-5.022l2.842 -1.635c1.209,1.651 2.475,3.283 3.806,4.858l-2.714 1.799zm-5.764 -7.618c-1.187,-1.755 -2.299,-3.524 -3.366,-5.338l3.013 -1.372c1.066,1.755 2.099,3.452 3.259,5.165l-2.906 1.545zm-4.898 -8.074c-0.99,-1.846 -1.909,-3.705 -2.769,-5.602l3.147 -1.111c0.815,1.83 1.726,3.645 2.679,5.422l-3.057 1.291zm-3.998 -8.457c-0.784,-1.917 -1.504,-3.858 -2.148,-5.816l3.253 -0.835c0.624,1.894 1.319,3.771 2.078,5.625l-3.183 1.026zm-3.061 -8.763c-0.576,-1.977 -1.074,-3.968 -1.509,-5.973l3.327 -0.551c0.409,1.932 0.907,3.874 1.461,5.777l-3.279 0.747zm-2.101 -8.984c-0.356,-2.017 -0.643,-4.033 -0.859,-6.066l3.37 -0.277c0.212,1.973 0.489,3.923 0.835,5.882l-3.346 0.461zm112.715 -261.038c-2.284,0.245 -4.534,0.555 -6.797,0.931l0.634 2.959c2.192,-0.365 4.368,-0.664 6.582,-0.902l-0.419 -2.988zm-10.175 1.557c-2.19,0.442 -4.524,0.946 -6.66,1.556l0.991 2.879c2.121,-0.569 4.271,-1.065 6.432,-1.501l-0.763 -2.934zm-9.936 2.486c-2.172,0.649 -4.329,1.376 -6.442,2.163l1.313 2.775c2.042,-0.759 4.125,-1.461 6.223,-2.088l-1.094 -2.85zm-9.592 3.388c-2.066,0.808 -4.169,1.783 -6.157,2.739l1.618 2.646c1.921,-0.924 3.952,-1.866 5.949,-2.647l-1.41 -2.738zm-9.157 4.249c-1.977,1.033 -3.917,2.131 -5.809,3.282l1.917 2.482c1.831,-1.113 3.706,-2.173 5.618,-3.173l-1.726 -2.591zm-8.623 5.054c-1.849,1.214 -3.649,2.466 -5.408,3.784l2.193 2.293c1.698,-1.274 3.447,-2.487 5.234,-3.659l-2.019 -2.418zm-7.999 5.79c-1.708,1.361 -3.357,2.784 -4.959,4.242l2.429 2.097c1.548,-1.41 3.148,-2.789 4.799,-4.104l-2.269 -2.235zm-7.322 6.473c-1.542,1.511 -3.033,3.059 -4.464,4.655l2.654 1.87c1.381,-1.545 2.83,-3.045 4.322,-4.506l-2.512 -2.019zm-6.563 7.074c-1.376,1.63 -2.682,3.314 -3.933,5.022l2.841 1.635c1.209,-1.651 2.476,-3.283 3.807,-4.858l-2.715 -1.799zm-5.763 7.618c-1.188,1.755 -2.299,3.524 -3.366,5.339l3.013 1.371c1.066,-1.755 2.099,-3.452 3.258,-5.164l-2.905 -1.546zm-4.899 8.074c-0.989,1.846 -1.909,3.705 -2.769,5.602l3.147 1.111c0.816,-1.83 1.727,-3.645 2.679,-5.422l-3.057 -1.291zm-3.998 8.458c-0.784,1.916 -1.503,3.857 -2.147,5.815l3.252 0.835c0.624,-1.894 1.319,-3.771 2.078,-5.625l-3.183 -1.025zm-3.06 8.762c-0.576,1.977 -1.074,3.968 -1.51,5.973l3.328 0.551c0.409,-1.932 0.907,-3.874 1.461,-5.777l-3.279 -0.747zm-2.101 8.984c-0.356,2.017 -0.644,4.033 -0.859,6.066l3.369 0.277c0.213,-1.973 0.489,-3.923 0.835,-5.881l-3.345 -0.462zm245.464 -77.967c2.284,0.245 4.535,0.555 6.797,0.931l-0.633 2.959c-2.192,-0.365 -4.369,-0.664 -6.583,-0.902l0.419 -2.988zm10.175 1.557c2.191,0.442 4.525,0.946 6.661,1.556l-0.991 2.879c-2.122,-0.569 -4.271,-1.065 -6.432,-1.501l0.762 -2.934zm9.936 2.486c2.172,0.649 4.329,1.376 6.443,2.163l-1.314 2.775c-2.042,-0.759 -4.125,-1.461 -6.223,-2.088l1.094 -2.85zm9.592 3.388c2.066,0.808 4.17,1.783 6.157,2.739l-1.617 2.646c-1.922,-0.924 -3.952,-1.866 -5.949,-2.647l1.409 -2.738zm9.158 4.249c1.977,1.033 3.917,2.131 5.809,3.282l-1.918 2.482c-1.831,-1.113 -3.706,-2.173 -5.617,-3.173l1.726 -2.591zm8.622 5.054c1.85,1.214 3.65,2.466 5.408,3.784l-2.193 2.293c-1.697,-1.274 -3.446,-2.487 -5.233,-3.659l2.018 -2.418zm8 5.79c1.707,1.361 3.357,2.784 4.958,4.242l-2.429 2.097c-1.548,-1.41 -3.147,-2.789 -4.799,-4.104l2.27 -2.235zm7.321 6.473c1.543,1.511 3.033,3.059 4.465,4.655l-2.654 1.87c-1.382,-1.545 -2.831,-3.045 -4.323,-4.506l2.512 -2.019zm6.563 7.074c1.376,1.63 2.683,3.314 3.934,5.022l-2.842 1.635c-1.209,-1.651 -2.476,-3.283 -3.807,-4.858l2.715 -1.799zm5.764 7.618c1.187,1.755 2.298,3.524 3.365,5.339l-3.012 1.371c-1.067,-1.755 -2.099,-3.452 -3.259,-5.164l2.906 -1.546zm4.898 8.074c0.99,1.846 1.909,3.705 2.769,5.602l-3.147 1.111c-0.816,-1.83 -1.727,-3.645 -2.679,-5.422l3.057 -1.291zm3.998 8.458c0.784,1.916 1.503,3.857 2.147,5.815l-3.252 0.835c-0.624,-1.894 -1.319,-3.771 -2.078,-5.625l3.183 -1.025zm3.06 8.762c0.576,1.977 1.075,3.968 1.51,5.973l-3.328 0.551c-0.408,-1.932 -0.906,-3.874 -1.461,-5.777l3.279 -0.747zm2.102 8.984c0.356,2.017 0.643,4.033 0.859,6.066l-3.37 0.277c-0.212,-1.973 -0.489,-3.923 -0.835,-5.881l3.346 -0.462zm-42.464 326.182l5.558 0 0 12.476 3.384 0c0.007,1.984 0.074,3.945 0.207,5.926l-3.377 0.184c-0.136,-1.995 -0.204,-3.969 -0.214,-5.966l0 12.343 -5.558 0 0 -24.963zm96.088 105.669c-2.284,-0.245 -4.535,-0.556 -6.797,-0.932l0.633 -2.958c2.192,0.364 4.369,0.663 6.583,0.902l-0.419 2.988zm-10.175 -1.557c-2.191,-0.443 -4.525,-0.947 -6.661,-1.557l0.991 -2.879c2.122,0.57 4.271,1.065 6.432,1.502l-0.762 2.934zm-9.936 -2.487c-2.172,-0.648 -4.33,-1.376 -6.443,-2.162l1.313 -2.775c2.043,0.758 4.126,1.46 6.224,2.087l-1.094 2.85zm-9.592 -3.387c-2.066,-0.809 -4.17,-1.784 -6.158,-2.74l1.618 -2.645c1.922,0.924 3.952,1.865 5.949,2.647l-1.409 2.738zm-9.158 -4.25c-1.977,-1.032 -3.917,-2.131 -5.809,-3.282l1.918 -2.481c1.83,1.113 3.706,2.173 5.617,3.172l-1.726 2.591zm-8.622 -5.054c-1.85,-1.213 -3.65,-2.466 -5.408,-3.783l2.193 -2.294c1.697,1.275 3.446,2.487 5.233,3.66l-2.018 2.417zm-8 -5.79c-1.707,-1.36 -3.357,-2.784 -4.958,-4.242l2.429 -2.097c1.548,1.411 3.147,2.79 4.798,4.105l-2.269 2.234zm-7.321 -6.472c-1.543,-1.512 -3.034,-3.06 -4.465,-4.655l2.654 -1.87c1.382,1.545 2.831,3.044 4.323,4.506l-2.512 2.019zm-6.563 -7.075c-1.376,-1.63 -2.683,-3.314 -3.934,-5.021l2.842 -1.636c1.209,1.651 2.476,3.283 3.807,4.859l-2.715 1.798zm-5.764 -7.617c-1.187,-1.755 -2.299,-3.524 -3.365,-5.339l3.012 -1.372c1.067,1.755 2.099,3.452 3.259,5.165l-2.906 1.546zm-4.898 -8.074c-0.99,-1.847 -1.909,-3.706 -2.769,-5.603l3.147 -1.111c0.816,1.831 1.727,3.646 2.679,5.423l-3.057 1.291zm-3.998 -8.458c-0.784,-1.917 -1.504,-3.857 -2.147,-5.815l3.252 -0.835c0.624,1.894 1.319,3.77 2.078,5.625l-3.183 1.025zm-3.061 -8.762c-0.576,-1.978 -1.074,-3.968 -1.509,-5.974l3.328 -0.55c0.408,1.932 0.906,3.874 1.461,5.777l-3.28 0.747zm-2.101 -8.984c-0.356,-2.018 -0.643,-4.034 -0.859,-6.067l3.37 -0.277c0.212,1.973 0.489,3.924 0.835,5.882l-3.346 0.462zm128.968 -419.958l-62.093 0 0 73.375 62.093 0 0 -73.375zm498.144 -359.528l0 -164.223 -49.07 0 0 164.223 49.07 0zm-1454.771 855.004l0 -73.207 -85.036 0 0 73.207 85.036 0zm340.806 0l0 -73.207 -50.625 0 0 73.207 50.625 0zm15.839 -73.207l0 73.207 66.212 0 0 -73.207 -66.212 0zm-82.302 73.207l0 -73.207 -66.213 0 0 73.207 66.213 0zm403.111 -78.753l0 78.753 46.256 0 0 -78.753 -11.469 0 -34.787 0zm687.326 78.753l74.153 0 0 -99.444 -74.153 0 0 99.444z"/>
 </g>
</svg>
