<?xml version="1.0" encoding="UTF-8"?>
<!DOCTYPE svg PUBLIC "-//W3C//DTD SVG 1.1//EN" "http://www.w3.org/Graphics/SVG/1.1/DTD/svg11.dtd">
<!-- Creator: CorelDRAW 2018 (64-Bit) -->
<svg xmlns="http://www.w3.org/2000/svg" xml:space="preserve" width="1920px" height="905px" version="1.1" style="shape-rendering:geometricPrecision; text-rendering:geometricPrecision; image-rendering:optimizeQuality; fill-rule:evenodd; clip-rule:evenodd"
viewBox="0 0 1920 904.945"
 xmlns:xlink="http://www.w3.org/1999/xlink">
 <defs>
  <style type="text/css">
   <![CDATA[
    .fil0 {fill:#FEFEFE}
   ]]>
  </style>
 </defs>
 <g id="Слой_x0020_1">
  <metadata id="CorelCorpID_0Corel-Layer"/>
  <path class="fil0" d="M0 90.114l0 33.016 0 762.525 0 19.29 8.254 0 143.557 0 33.016 0 67.983 0 302.001 0 122 0 0 -19.29 231.002 0 16.508 0 228.984 0 16.508 0 223.991 0 16.508 0 313.985 0 33.016 0 154.433 0 8.254 0 0 -19.29 0 -399.598 0 -33.017 0 0 -8.254 0 -154.433 0 0 -50.636 -7.771 0c0.051,-0.002 0.091,-0.085 0.091,-0.186l0 -169.017c0,-0.017 -0.001,-0.033 -0.003,-0.048l7.683 0 0 -90.733 0 -33.016 -33.016 0 -548.231 0 -16.508 0 -213.239 0 -16.508 0 -9.811 0 0 33.016 9.811 0 0 171.223 0 16.508 16.508 0 90.492 0 0 -8.253 6.007 0 0 -83.927c0.459,0.029 0.918,0.06 1.378,0.094l0.259 -2.779c-2.075,-0.154 -4.142,-0.253 -6.223,-0.281l-0.026 1.244 -1.395 0 0 1.55 0 75.844 -90.492 0 0 -171.223 213.239 0 0 60.231 0 16.508 16.508 0 58.238 0 0 94.484 -104.936 0 0 2.599 -3.06 0.171c0.121,1.835 0.182,3.651 0.188,5.49l2.872 0 0 8.248 104.936 0 0 23.251 8.249 0 0 3.066c1.838,0.006 3.655,0.067 5.49,0.187l0.171 -3.059c-1.893,-0.125 -3.765,-0.188 -5.661,-0.194l8.259 0 0 -23.251 0 -16.508 0 -94.484 0 -16.508 0 -60.231 473.485 0 0 90.733 7.683 0c-0.002,0.015 -0.003,0.031 -0.003,0.048l0 169.017c0,0.101 0.04,0.184 0.09,0.186l-7.77 0 0 50.636 -313.985 0 -16.508 0 -142.992 0 0 -6.887 75.845 0 1.55 0 0 -1.395 1.243 -0.026c-0.027,-2.082 -0.127,-4.148 -0.28,-6.223l-2.78 0.259c0.035,0.46 0.066,0.919 0.094,1.378l-83.926 0 0 6.007 -8.254 0 0 6.887 -10.434 0 0 8.25 -2.872 0c-0.006,1.838 -0.067,3.654 -0.188,5.49l3.06 0.17 0 2.599 10.434 0 0 59.604 16.508 0 0 -59.604 142.992 0 0 59.604 16.508 0 0 -59.604 313.985 0 0 110.604 7.685 0c-0.003,0.02 -0.005,0.042 -0.005,0.065l0 191.723c0,0.115 0.04,0.209 0.09,0.212l-7.77 0 0 113.502 -313.985 0 0 -225.494 0 -16.508 -16.508 0 -122.392 0 0 16.508 122.392 0 0 225.494 -223.991 0 0 -70.304 -4.223 0 0 -3.013c-1.838,-0.006 -3.655,-0.067 -5.49,-0.188l-0.17 3.06c0.948,0.063 1.892,0.109 2.836,0.141l-9.461 0 0 70.304 -228.984 0 0 -154.496 68.484 0 16.508 0 0 -16.508 0 -53.602 95.746 0 0 1.604 16.508 0 0 -1.604 31.738 0 0 61.604 -71.819 0 -1.55 0 0 1.394 -1.243 0.027c0.027,2.082 0.127,4.148 0.28,6.222l2.78 -0.258c-0.035,-0.46 -0.066,-0.919 -0.094,-1.378l83.926 0 0 -6.007 4.228 0 0 -61.604 0 -16.508 -16.508 0 -31.738 0 0 -174.992 9.746 0 0 75.845 0 1.55 1.394 0 0.027 1.243c2.081,-0.028 4.148,-0.127 6.222,-0.281l-0.258 -2.779c-0.46,0.034 -0.919,0.066 -1.378,0.094l0 -83.926 -6.007 0 0 -8.255 -9.746 0 -16.508 0 -9.746 0 0 8.255 -6.007 0 0 83.926c-0.459,-0.028 -0.918,-0.06 -1.378,-0.094l-0.259 2.779c2.075,0.154 4.141,0.253 6.223,0.281l0.026 -1.243 1.395 0 0 -1.55 0 -75.845 9.746 0 0 174.992 -95.746 0 -16.508 0 -68.484 0 0 -174.992 79.774 0 0 -2.673 1.721 -0.096c-0.121,-1.836 -0.182,-3.652 -0.188,-5.49l-1.533 0 0 -8.25 -79.774 0 -16.508 0 -28.5 0 0 16.509 28.5 0 0 174.992 0 16.508 0 53.602 0 16.508 0 154.496 -231.002 0 0 0 -122 0 0 19.29 -302.001 0 0 -19.29 -67.983 0 0 -61.667 -7.77 0c0.05,-0.004 0.09,-0.14 0.09,-0.308l0 -279.029 7.68 0 0 -76.746 567.984 0 0 -8.254 0 -8.254 -24.992 0 0 -10.996 -8.254 0 0 -6.007 -83.926 0c0.028,-0.459 0.06,-0.918 0.094,-1.378l-2.779 -0.258c-0.154,2.074 -0.253,4.141 -0.281,6.222l1.244 0.027 0 1.394 1.549 0 75.845 0 0 10.996 -526.484 0 0 -74.993 -7.77 0c0.05,-0.002 0.09,-0.084 0.09,-0.184l0 -166.57 7.68 0 0 -67.23 444.985 0 0 60.231 0 16.508 16.508 0 64.991 0 0 92.992 0 16.508 0 18.992 8.259 0 0 3.065c-1.838,0.007 -3.654,0.067 -5.489,0.188l-0.171 -3.06c1.892,-0.125 3.764,-0.187 5.66,-0.193l8.249 0 0 -18.992 59.992 0 0 -16.508 -59.992 0 0 -92.992 0 -16.508 0 -76.739 86.992 0 0 -8.254 6.8 0 0 -95.01c0.52,0.032 1.04,0.067 1.56,0.106l0.293 -3.146c-2.349,-0.174 -4.688,-0.287 -7.044,-0.318l-0.03 1.408 -1.579 0 0 1.754 0 86.09 0 0.862 -86.992 0 -5.008 0 -31 0 -45.491 0 -16.508 0 -444.985 0 -33.016 0 -143.557 0 -8.254 0zm96.401 402.406l-3.103 0c-0.675,4.115 -4.351,4.587 -6.881,4.587l0 2.833 5.869 0 0 16.325 4.115 0 0 -23.745zm-18.753 0l-3.103 0c-0.675,4.115 -4.351,4.587 -6.881,4.587l0 2.833 5.869 0 0 16.325 4.115 0 0 -23.745zm4.385 41.22c-8.104,0 -15.441,-3.285 -20.752,-8.596 -5.311,-5.31 -8.596,-12.648 -8.596,-20.751 0,-8.104 3.285,-15.441 8.596,-20.752 5.311,-5.311 12.648,-8.596 20.752,-8.596 8.103,0 15.441,3.285 20.751,8.596 5.311,5.311 8.596,12.648 8.596,20.752 0,8.103 -3.285,15.44 -8.596,20.751 -5.31,5.311 -12.648,8.596 -20.751,8.596zm-17.372 -11.975c4.445,4.445 10.588,7.195 17.372,7.195 6.784,0 12.926,-2.75 17.371,-7.195 4.446,-4.446 7.196,-10.588 7.196,-17.372 0,-6.785 -2.75,-12.927 -7.196,-17.372 -4.445,-4.446 -10.587,-7.196 -17.371,-7.196 -6.785,0 -12.927,2.75 -17.372,7.196 -4.446,4.445 -7.196,10.587 -7.196,17.372 0,6.784 2.75,12.926 7.196,17.372zm1786.311 153.317l-11.501 0c0.809,-1.956 3.339,-3.643 5.059,-4.756 3.305,-2.192 6.476,-4.148 6.476,-8.601 0,-4.283 -3.036,-7.082 -7.623,-7.082 -4.857,0 -7.926,3.238 -7.926,8.297l0 0.607 3.744 0c0.067,-2.766 0.607,-5.599 4.081,-5.599 2.361,0 3.811,1.518 3.811,3.98 0,3.272 -2.833,4.756 -5.194,6.341 -4.014,2.698 -6.88,4.823 -7.049,10.219l16.122 0 0 -3.406zm-22.935 -20.338l-3.103 0c-0.675,4.115 -4.351,4.587 -6.881,4.587l0 2.833 5.869 0 0 16.324 4.115 0 0 -23.744zm6.493 41.169c-8.104,0 -15.441,-3.285 -20.752,-8.595 -5.311,-5.311 -8.596,-12.648 -8.596,-20.752 0,-8.104 3.285,-15.441 8.596,-20.752 5.311,-5.311 12.648,-8.596 20.752,-8.596 8.103,0 15.441,3.286 20.751,8.596 5.311,5.311 8.596,12.648 8.596,20.752 0,8.104 -3.285,15.441 -8.596,20.752 -5.31,5.31 -12.648,8.595 -20.751,8.595zm-17.372 -11.975c4.445,4.445 10.588,7.195 17.372,7.195 6.784,0 12.926,-2.75 17.371,-7.195 4.446,-4.446 7.196,-10.588 7.196,-17.372 0,-6.785 -2.75,-12.927 -7.196,-17.372 -4.445,-4.445 -10.587,-7.195 -17.371,-7.195 -6.785,0 -12.927,2.75 -17.372,7.195 -4.446,4.445 -7.196,10.587 -7.196,17.372 0,6.784 2.75,12.926 7.196,17.372zm-242.922 -37.583l-12.176 0 -2.26 12.716 3.373 0.101c1.012,-1.518 2.192,-2.125 3.946,-2.125 2.8,0 4.452,1.821 4.452,4.958 0,3.238 -1.585,5.093 -4.384,5.093 -2.395,0 -4.081,-1.552 -4.284,-3.98l-3.811 0c0.202,4.351 3.339,7.15 7.993,7.15 4.958,0 8.432,-3.474 8.432,-8.465 0,-4.621 -2.934,-7.724 -7.318,-7.724 -1.755,0 -3.238,0.405 -4.453,1.686l1.08 -6.071 9.41 0 0 -3.339zm-6.931 41.304c-8.104,0 -15.441,-3.285 -20.752,-8.596 -5.31,-5.31 -8.596,-12.648 -8.596,-20.751 0,-8.104 3.286,-15.441 8.596,-20.752 5.311,-5.311 12.648,-8.596 20.752,-8.596 8.103,0 15.441,3.285 20.751,8.596 5.311,5.311 8.596,12.648 8.596,20.752 0,8.103 -3.285,15.44 -8.596,20.751 -5.31,5.311 -12.648,8.596 -20.751,8.596zm-17.372 -11.975c4.445,4.445 10.588,7.195 17.372,7.195 6.784,0 12.926,-2.75 17.371,-7.195 4.446,-4.446 7.196,-10.588 7.196,-17.372 0,-6.785 -2.75,-12.927 -7.196,-17.372 -4.445,-4.446 -10.587,-7.196 -17.371,-7.196 -6.785,0 -12.927,2.75 -17.372,7.196 -4.446,4.445 -7.195,10.587 -7.195,17.372 0,6.784 2.749,12.926 7.195,17.372zm-257.14 66.196l-16.088 0 0 3.542 12.277 0c-4.722,4.418 -8.837,13.525 -9.006,19.933l4.216 0c0.27,-7.049 3.677,-15.312 8.601,-20.237l0 -3.238zm-8.044 41.085c-8.104,0 -15.441,-3.285 -20.752,-8.595 -5.31,-5.311 -8.596,-12.648 -8.596,-20.752 0,-8.104 3.286,-15.441 8.596,-20.752 5.311,-5.311 12.648,-8.596 20.752,-8.596 8.103,0 15.441,3.286 20.751,8.596 5.311,5.311 8.596,12.648 8.596,20.752 0,8.104 -3.285,15.441 -8.596,20.752 -5.31,5.31 -12.647,8.595 -20.751,8.595zm-17.372 -11.975c4.445,4.445 10.588,7.195 17.372,7.195 6.784,0 12.926,-2.75 17.372,-7.195 4.445,-4.446 7.195,-10.588 7.195,-17.372 0,-6.785 -2.75,-12.927 -7.195,-17.372 -4.446,-4.446 -10.588,-7.195 -17.372,-7.195 -6.784,0 -12.927,2.749 -17.372,7.195 -4.445,4.445 -7.195,10.587 -7.195,17.372 0,6.784 2.75,12.926 7.195,17.372zm-232.1 -17.446c-2.732,0.843 -4.318,2.968 -4.318,5.902 0,4.317 3.339,7.218 8.264,7.218 4.992,0 8.33,-2.968 8.33,-7.42 0,-3.137 -1.585,-4.756 -4.317,-5.7 2.159,-0.911 3.339,-2.665 3.339,-5.026 0,-3.609 -2.968,-6.172 -7.217,-6.172 -4.385,0 -7.454,2.563 -7.454,6.274 0,2.361 1.248,4.182 3.373,4.924zm4.047 -8.095c2.226,0 3.676,1.316 3.676,3.407 0,2.125 -1.45,3.44 -3.71,3.44 -2.26,0 -3.778,-1.383 -3.778,-3.44 0,-2.091 1.485,-3.407 3.812,-3.407zm-0.101 9.613c2.698,0 4.452,1.652 4.452,4.283 0,2.698 -1.619,4.283 -4.317,4.283 -2.766,0 -4.52,-1.686 -4.52,-4.384 0,-2.496 1.788,-4.182 4.385,-4.182zm0.034 28.791c-8.104,0 -15.441,-3.285 -20.752,-8.596 -5.311,-5.311 -8.596,-12.648 -8.596,-20.752 0,-8.103 3.285,-15.44 8.596,-20.751 5.311,-5.311 12.648,-8.596 20.752,-8.596 8.103,0 15.441,3.285 20.751,8.596 5.311,5.311 8.596,12.648 8.596,20.751 0,8.104 -3.285,15.441 -8.596,20.752 -5.31,5.311 -12.648,8.596 -20.751,8.596zm-17.372 -11.976c4.445,4.446 10.588,7.195 17.372,7.195 6.784,0 12.926,-2.749 17.371,-7.195 4.446,-4.445 7.196,-10.587 7.196,-17.372 0,-6.784 -2.75,-12.926 -7.196,-17.371 -4.445,-4.446 -10.587,-7.196 -17.371,-7.196 -6.785,0 -12.927,2.75 -17.372,7.196 -4.446,4.445 -7.196,10.587 -7.196,17.371 0,6.784 2.75,12.927 7.196,17.372zm-467.184 -111.318l-3.001 0 0 -14.975 -3.643 0 -10.118 14.402 0 3.811 10.017 0 0.034 5.599 3.71 0 0 -5.599 3.001 0 0 -3.238zm-6.678 0l-6.914 0 6.914 -10.22 0 10.22zm-1.703 26.278c-8.103,0 -15.441,-3.285 -20.752,-8.595 -5.31,-5.311 -8.595,-12.648 -8.595,-20.752 0,-8.104 3.285,-15.441 8.595,-20.752 5.311,-5.311 12.649,-8.596 20.752,-8.596 8.104,0 15.441,3.286 20.752,8.596 5.311,5.311 8.596,12.648 8.596,20.752 0,8.104 -3.285,15.441 -8.596,20.752 -5.311,5.31 -12.648,8.595 -20.752,8.595zm-17.372 -11.975c4.446,4.445 10.588,7.195 17.372,7.195 6.784,0 12.927,-2.75 17.372,-7.195 4.445,-4.446 7.195,-10.588 7.195,-17.372 0,-6.784 -2.75,-12.927 -7.195,-17.372 -4.445,-4.445 -10.588,-7.195 -17.372,-7.195 -6.784,0 -12.926,2.75 -17.372,7.195 -4.445,4.445 -7.195,10.588 -7.195,17.372 0,6.784 2.75,12.926 7.195,17.372zm-88.586 -401.595l3.677 0c0.101,-3.035 1.484,-4.654 3.946,-4.654 2.192,0 3.609,1.383 3.609,3.44 0,3.036 -2.496,3.407 -4.857,3.407l-0.337 0 0 2.9c0.573,-0.033 0.775,-0.033 1.214,-0.033 2.53,0 4.722,1.045 4.722,3.946 0,2.597 -1.653,4.216 -4.25,4.216 -2.968,0 -4.486,-1.653 -4.587,-4.958l-3.71 0 0 0.506c0,4.654 3.272,7.757 8.196,7.757 4.924,0 8.364,-3.103 8.364,-7.623 0,-2.833 -1.618,-4.89 -4.283,-5.565 2.024,-0.674 3.305,-2.529 3.305,-4.823 0,-3.777 -2.968,-6.34 -7.319,-6.34 -4.654,0 -7.555,2.967 -7.69,7.824zm7.707 33.699c-8.103,0 -15.44,-3.285 -20.751,-8.596 -5.311,-5.311 -8.596,-12.648 -8.596,-20.752 0,-8.103 3.285,-15.44 8.596,-20.751 5.311,-5.311 12.648,-8.596 20.751,-8.596 8.104,0 15.441,3.285 20.752,8.596 5.311,5.311 8.596,12.648 8.596,20.751 0,8.104 -3.285,15.441 -8.596,20.752 -5.311,5.311 -12.648,8.596 -20.752,8.596zm-17.372 -11.976c4.446,4.446 10.588,7.195 17.372,7.195 6.785,0 12.927,-2.749 17.372,-7.195 4.446,-4.445 7.195,-10.587 7.195,-17.372 0,-6.784 -2.749,-12.926 -7.195,-17.371 -4.445,-4.446 -10.587,-7.196 -17.372,-7.196 -6.784,0 -12.926,2.75 -17.372,7.196 -4.445,4.445 -7.195,10.587 -7.195,17.371 0,6.784 2.75,12.927 7.195,17.372zm525.628 248.616c0.203,3.677 3.238,6.341 7.218,6.341 6.847,0 8.702,-7.049 8.702,-12.749 0,-5.363 -1.687,-11.636 -8.365,-11.636 -4.654,0 -8.027,3.474 -8.027,8.297 0,4.519 3.036,7.757 7.285,7.757 2.395,0 3.98,-1.012 5.262,-3.001 -0.135,2.968 -0.742,8.263 -4.655,8.263 -2.192,0 -3.541,-1.383 -3.71,-3.272l-3.71 0zm7.42 -14.806c2.564,0 4.216,1.956 4.216,4.958 0,2.833 -1.686,4.755 -4.148,4.755 -2.496,0 -4.081,-1.855 -4.081,-4.755 0,-2.969 1.585,-4.958 4.013,-4.958zm0.304 38.302c-8.103,0 -15.441,-3.285 -20.752,-8.596 -5.31,-5.31 -8.595,-12.648 -8.595,-20.751 0,-8.104 3.285,-15.441 8.595,-20.752 5.311,-5.311 12.649,-8.596 20.752,-8.596 8.104,0 15.441,3.285 20.752,8.596 5.311,5.311 8.596,12.648 8.596,20.752 0,8.103 -3.285,15.44 -8.596,20.751 -5.311,5.311 -12.648,8.596 -20.752,8.596zm-17.372 -11.975c4.446,4.445 10.588,7.195 17.372,7.195 6.784,0 12.927,-2.75 17.372,-7.195 4.445,-4.446 7.195,-10.588 7.195,-17.372 0,-6.785 -2.75,-12.927 -7.195,-17.372 -4.445,-4.446 -10.588,-7.196 -17.372,-7.196 -6.784,0 -12.926,2.75 -17.372,7.196 -4.445,4.445 -7.195,10.587 -7.195,17.372 0,6.784 2.75,12.926 7.195,17.372zm569.68 -294.418c-0.439,-3.946 -3.103,-6.273 -7.117,-6.273 -5.498,0 -8.769,4.654 -8.769,12.513 0,7.622 3.035,11.838 8.466,11.838 4.654,0 7.959,-3.44 7.959,-8.263 0,-4.654 -2.934,-7.791 -7.285,-7.791 -2.395,0 -4.149,1.045 -5.396,2.901 0.27,-2.766 0.708,-8.163 4.857,-8.163 1.989,0 3.17,1.08 3.575,3.238l3.71 0zm-7.522 5.093c2.564,0 4.216,1.923 4.216,4.857 0,2.968 -1.652,4.924 -4.114,4.924 -2.53,0 -4.216,-1.99 -4.216,-5.025 0,-2.901 1.619,-4.756 4.114,-4.756zm-0.151 30.157c-8.104,0 -15.441,-3.285 -20.752,-8.596 -5.311,-5.31 -8.596,-12.648 -8.596,-20.751 0,-8.104 3.285,-15.441 8.596,-20.752 5.311,-5.311 12.648,-8.596 20.752,-8.596 8.103,0 15.441,3.285 20.751,8.596 5.311,5.311 8.596,12.648 8.596,20.752 0,8.103 -3.285,15.44 -8.596,20.751 -5.31,5.311 -12.648,8.596 -20.751,8.596zm-17.372 -11.975c4.445,4.445 10.588,7.195 17.372,7.195 6.784,0 12.926,-2.75 17.371,-7.195 4.446,-4.446 7.196,-10.588 7.196,-17.372 0,-6.785 -2.75,-12.927 -7.196,-17.372 -4.445,-4.446 -10.587,-7.196 -17.371,-7.196 -6.785,0 -12.927,2.75 -17.372,7.196 -4.446,4.445 -7.196,10.587 -7.196,17.372 0,6.784 2.75,12.926 7.196,17.372zm-491.197 -87.384c-5.295,0 -8.095,4.216 -8.095,12.175 0,8.028 2.8,12.109 8.23,12.109 5.295,0 8.095,-4.149 8.095,-12.041 0,-8.162 -2.732,-12.243 -8.23,-12.243zm0.034 3.237c4.351,0 4.317,5.937 4.317,9.006 0,2.968 -0.033,8.837 -4.249,8.837 -3.002,0 -4.318,-2.598 -4.318,-8.668 0,-3.778 0.102,-9.175 4.25,-9.175zm-15.38 -3.17l-3.103 0c-0.675,4.115 -4.351,4.587 -6.88,4.587l0 2.833 5.868 0 0 16.325 4.115 0 0 -23.745zm6.796 41.422c-8.103,0 -15.44,-3.285 -20.751,-8.595 -5.311,-5.311 -8.596,-12.648 -8.596,-20.752 0,-8.104 3.285,-15.441 8.596,-20.752 5.311,-5.311 12.648,-8.596 20.751,-8.596 8.104,0 15.441,3.286 20.752,8.596 5.311,5.311 8.596,12.648 8.596,20.752 0,8.104 -3.285,15.441 -8.596,20.752 -5.311,5.31 -12.648,8.595 -20.752,8.595zm-17.372 -11.975c4.446,4.445 10.588,7.195 17.372,7.195 6.785,0 12.927,-2.75 17.372,-7.195 4.446,-4.446 7.196,-10.588 7.196,-17.372 0,-6.785 -2.75,-12.927 -7.196,-17.372 -4.445,-4.445 -10.587,-7.195 -17.372,-7.195 -6.784,0 -12.926,2.75 -17.372,7.195 -4.445,4.445 -7.195,10.587 -7.195,17.372 0,6.784 2.75,12.926 7.195,17.372zm115.909 154.709l-11.501 0c0.809,-1.957 3.339,-3.643 5.059,-4.756 3.305,-2.192 6.475,-4.149 6.475,-8.601 0,-4.283 -3.035,-7.083 -7.622,-7.083 -4.857,0 -7.926,3.238 -7.926,8.297l0 0.608 3.744 0c0.067,-2.766 0.607,-5.599 4.081,-5.599 2.361,0 3.811,1.517 3.811,3.979 0,3.272 -2.833,4.756 -5.194,6.341 -4.014,2.698 -6.88,4.823 -7.049,10.22l16.122 0 0 -3.406zm-8.044 20.83c-8.104,0 -15.441,-3.285 -20.752,-8.595 -5.31,-5.311 -8.596,-12.648 -8.596,-20.752 0,-8.104 3.286,-15.441 8.596,-20.751 5.311,-5.311 12.648,-8.597 20.752,-8.597 8.103,0 15.441,3.286 20.751,8.597 5.311,5.31 8.596,12.647 8.596,20.751 0,8.104 -3.285,15.441 -8.596,20.752 -5.31,5.31 -12.647,8.595 -20.751,8.595zm-17.372 -11.975c4.445,4.445 10.588,7.195 17.372,7.195 6.784,0 12.926,-2.75 17.371,-7.195 4.446,-4.446 7.196,-10.588 7.196,-17.372 0,-6.784 -2.75,-12.926 -7.196,-17.372 -4.445,-4.445 -10.587,-7.195 -17.371,-7.195 -6.785,0 -12.927,2.75 -17.372,7.195 -4.446,4.446 -7.195,10.588 -7.195,17.372 0,6.784 2.749,12.926 7.195,17.372zm-227.011 -193.939l-3.103 0c-0.674,4.115 -4.351,4.587 -6.88,4.587l0 2.833 5.868 0 0 16.325 4.115 0 0 -23.745zm-829.421 -72.609l143.557 0 0 67.23 7.68 0 0 166.57c0,0.1 0.041,0.182 0.091,0.184l-7.771 0 0 168.247 7.68 0 0 279.029c0,0.168 0.041,0.304 0.091,0.308l-7.771 0 0 80.957 -143.557 0 0 -762.525zm638.066 0l64.991 0 0 60.231 -64.991 0 0 -60.231zm1265.426 743.235l-154.433 0 0 -113.502 -7.771 0c0.051,-0.003 0.091,-0.097 0.091,-0.212l0 -191.723c0,-0.023 -0.002,-0.045 -0.005,-0.065l7.685 0 0 -94.096 154.433 0 0 399.598zm-735.68 -743.235l58.238 0 0 60.231 -58.238 0 0 -60.231zm-251.745 518.629l68.484 0 0 53.602 -68.484 0 0 -53.602zm-764.644 -116.398l6.188 0c-0.004,0.066 -0.006,0.135 -0.006,0.206l0 119.847c-0.061,0.274 -0.098,0.638 -0.098,1.039l0 18.143 0.001 0.079 0 0.003 -0.001 0.079 0 18.142c0,0.402 0.037,0.767 0.098,1.04l0 119.577c0,0.212 0.02,0.408 0.055,0.566l-6.237 0 0 -278.721zm6.722 0l1.101 0c-0.013,0.057 -0.021,0.128 -0.021,0.206l0 119.347 -1.073 0 0 -119.347c0,-0.071 -0.003,-0.14 -0.007,-0.206zm1.255 0l0.158 0c-0.012,0.057 -0.02,0.128 -0.02,0.206l0 119.347 -0.117 0 0 -119.347c0,-0.078 -0.008,-0.149 -0.021,-0.206zm0.313 0l0.705 0c-0.013,0.057 -0.021,0.128 -0.021,0.206l0 119.347 -0.664 0 0 -119.347c0,-0.078 -0.007,-0.149 -0.02,-0.206zm0.859 0l0.119 0c-0.013,0.057 -0.02,0.128 -0.02,0.206l0 119.347 -0.079 0 0 -119.347c0,-0.078 -0.007,-0.149 -0.02,-0.206zm0.273 0l1.14 0c-0.004,0.066 -0.006,0.135 -0.006,0.206l0 119.347 -1.113 0 0 -119.347c0,-0.078 -0.008,-0.149 -0.021,-0.206zm1.674 0l6.189 0 0 278.721 -6.237 0c0.034,-0.158 0.055,-0.354 0.055,-0.566l0 -119.577c0.06,-0.273 0.097,-0.638 0.097,-1.04l0 -18.142 0 -0.079 0 -0.003 0 -0.079 0 -18.143c0,-0.401 -0.037,-0.765 -0.097,-1.039l0 -119.847c0,-0.071 -0.002,-0.14 -0.007,-0.206zm-11.096 -335.001l6.182 0 0 71.573c-0.061,0.163 -0.098,0.381 -0.098,0.621l0 10.841 0.001 0.047 0 0.003 -0.001 0.047 0 10.841c0,0.239 0.037,0.458 0.098,0.621l0 71.453c0,0.127 0.02,0.245 0.055,0.339l-6.237 0 0 -166.386zm6.729 0l1.073 0 0 71.275 -1.073 0 0 -71.275zm1.269 0l0.117 0 0 71.275 -0.117 0 0 -71.275zm0.312 0l0.664 0 0 71.275 -0.664 0 0 -71.275zm0.859 0l0.079 0 0 71.275 -0.079 0 0 -71.275zm0.274 0l1.113 0 0 71.275 -1.113 0 0 -71.275zm1.66 0l6.182 0 0 166.386 -6.237 0c0.034,-0.094 0.055,-0.212 0.055,-0.339l0 -71.453c0.06,-0.163 0.097,-0.382 0.097,-0.621l0 -10.841 0 -0.047 0 -0.003 0 -0.047 0 -10.841c0,-0.24 -0.037,-0.458 -0.097,-0.621l0 -71.573zm-0.492 613.722c-0.035,-0.158 -0.055,-0.354 -0.055,-0.566l0 -119.077 -1.113 0 0 119.077c0,0.185 -0.044,0.336 -0.098,0.336 -0.054,0 -0.097,-0.151 -0.097,-0.336l0 -119.077 -0.079 0 0 119.077c0,0.185 -0.043,0.336 -0.097,0.336 -0.054,0 -0.098,-0.151 -0.098,-0.336l0 -119.077 -0.664 0 0 119.077c0,0.185 -0.044,0.336 -0.097,0.336 -0.054,0 -0.098,-0.151 -0.098,-0.336l0 -119.077 -0.117 0 0 119.077c0,0.185 -0.044,0.336 -0.098,0.336 -0.054,0 -0.098,-0.151 -0.098,-0.336l0 -119.077 -1.073 0 0 119.077c0,0.212 -0.021,0.408 -0.055,0.566l3.937 0zm0 -447.336c-0.035,-0.094 -0.055,-0.212 -0.055,-0.339l0 -71.155 -1.113 0 0 71.155c0,0.111 -0.044,0.201 -0.098,0.201 -0.054,0 -0.097,-0.09 -0.097,-0.201l0 -71.155 -0.079 0 0 71.155c0,0.111 -0.043,0.201 -0.097,0.201 -0.054,0 -0.098,-0.09 -0.098,-0.201l0 -71.155 -0.664 0 0 71.155c0,0.111 -0.044,0.201 -0.097,0.201 -0.054,0 -0.098,-0.09 -0.098,-0.201l0 -71.155 -0.117 0 0 71.155c0,0.111 -0.044,0.201 -0.098,0.201 -0.054,0 -0.098,-0.09 -0.098,-0.201l0 -71.155 -1.073 0 0 71.155c0,0.127 -0.021,0.245 -0.055,0.339l3.937 0zm1573.075 -47.314c0,0.243 -0.037,0.463 -0.097,0.629l0 72.484c0,0.069 -0.006,0.135 -0.017,0.196l6.198 0 0 -168.643 -6.237 0c0.035,0.095 0.056,0.214 0.056,0.342l0 72.32c0.06,0.166 0.097,0.387 0.097,0.629l0 10.973 0 0.047 0 0.002 0 0.048 0 10.973zm-0.627 73.309c-0.011,-0.061 -0.017,-0.127 -0.017,-0.196l0 -72.182 -1.074 0 0 72.182c0,0.094 -0.031,0.173 -0.073,0.196l1.164 0zm-1.214 0c-0.041,-0.023 -0.072,-0.102 -0.072,-0.196l0 -72.182 -0.118 0 0 72.182c0,0.094 -0.031,0.173 -0.072,0.196l0.262 0zm-0.312 0c-0.042,-0.023 -0.073,-0.102 -0.073,-0.196l0 -72.182 -0.664 0 0 72.182c0,0.094 -0.031,0.173 -0.072,0.196l0.809 0zm-0.859 0c-0.042,-0.023 -0.073,-0.102 -0.073,-0.196l0 -72.182 -0.078 0 0 72.182c0,0.094 -0.031,0.173 -0.073,0.196l0.224 0zm-0.274 0c-0.042,-0.023 -0.072,-0.102 -0.072,-0.196l0 -72.182 -1.113 0 0 72.182c0,0.069 -0.007,0.135 -0.017,0.196l1.202 0zm-1.715 0c-0.011,-0.061 -0.017,-0.127 -0.017,-0.196l0 -72.484c-0.061,-0.166 -0.098,-0.386 -0.098,-0.629l0 -10.973 0.001 -0.048 0 -0.002 -0.001 -0.047 0 -10.973c0,-0.242 0.037,-0.463 0.098,-0.629l0 -72.32c0,-0.128 0.02,-0.247 0.055,-0.342l-6.237 0 0 168.643 6.199 0zm0.474 -168.643c0.035,0.095 0.056,0.214 0.056,0.342l0 72.018 1.113 0 0 -72.018c0,-0.112 0.043,-0.203 0.097,-0.203 0.054,0 0.098,0.091 0.098,0.203l0 72.018 0.078 0 0 -72.018c0,-0.112 0.044,-0.203 0.098,-0.203 0.053,0 0.097,0.091 0.097,0.203l0 72.018 0.664 0 0 -72.018c0,-0.112 0.044,-0.203 0.098,-0.203 0.054,0 0.097,0.091 0.097,0.203l0 72.018 0.118 0 0 -72.018c0,-0.112 0.043,-0.203 0.097,-0.203 0.054,0 0.098,0.091 0.098,0.203l0 72.018 1.074 0 0 -72.018c0,-0.128 0.02,-0.247 0.055,-0.342l-3.938 0zm4.527 455.184c0,0.275 -0.037,0.525 -0.097,0.713l0 82.222c0,0.078 -0.006,0.153 -0.017,0.223l6.198 0 0 -191.3 -6.237 0c0.035,0.108 0.056,0.242 0.056,0.388l0 82.036c0.06,0.188 0.097,0.439 0.097,0.714l0 12.446 0 0.054 0 0.003 0 0.054 0 12.447zm-0.627 83.158c-0.011,-0.07 -0.017,-0.145 -0.017,-0.223l0 -81.88 -1.074 0 0 81.88c0,0.106 -0.031,0.196 -0.072,0.223l1.163 0zm-1.214 0c-0.042,-0.027 -0.072,-0.117 -0.072,-0.223l0 -81.88 -0.118 0 0 81.88c0,0.106 -0.03,0.196 -0.072,0.223l0.262 0zm-0.312 0c-0.042,-0.027 -0.073,-0.117 -0.073,-0.223l0 -81.88 -0.664 0 0 81.88c0,0.106 -0.031,0.196 -0.072,0.223l0.809 0zm-0.86 0c-0.041,-0.027 -0.072,-0.117 -0.072,-0.223l0 -81.88 -0.078 0 0 81.88c0,0.106 -0.031,0.196 -0.072,0.223l0.222 0zm-0.273 0c-0.042,-0.027 -0.072,-0.117 -0.072,-0.223l0 -81.88 -1.113 0 0 81.88c0,0.078 -0.007,0.153 -0.017,0.223l1.202 0zm-1.715 0c-0.011,-0.07 -0.017,-0.145 -0.017,-0.223l0 -82.222c-0.061,-0.188 -0.098,-0.438 -0.098,-0.713l0 -12.447 0.001 -0.054 0 -0.003 -0.001 -0.054 0 -12.446c0,-0.275 0.037,-0.526 0.098,-0.714l0 -82.036c0,-0.146 0.02,-0.28 0.055,-0.388l-6.237 0 0 191.3 6.199 0zm0.474 -191.3c0.035,0.108 0.056,0.242 0.056,0.388l0 81.694 1.113 0 0 -81.694c0,-0.127 0.043,-0.23 0.097,-0.23 0.054,0 0.098,0.103 0.098,0.23l0 81.694 0.078 0 0 -81.694c0,-0.127 0.044,-0.23 0.098,-0.23 0.053,0 0.097,0.103 0.097,0.23l0 81.694 0.664 0 0 -81.694c0,-0.127 0.044,-0.23 0.098,-0.23 0.054,0 0.097,0.103 0.097,0.23l0 81.694 0.118 0 0 -81.694c0,-0.127 0.043,-0.23 0.097,-0.23 0.054,0 0.098,0.103 0.098,0.23l0 81.694 1.074 0 0 -81.694c0,-0.146 0.02,-0.28 0.055,-0.388l-3.938 0zm-819.245 -469.175c0.142,2.142 0.212,4.262 0.219,6.408l-3.47 0c-0.007,-2.081 -0.076,-4.137 -0.212,-6.215l3.463 -0.193zm-86.907 144.994c-8.104,0 -15.441,-3.285 -20.752,-8.596 -5.311,-5.311 -8.596,-12.648 -8.596,-20.752 0,-8.103 3.285,-15.44 8.596,-20.751 5.311,-5.311 12.648,-8.596 20.752,-8.596 8.103,0 15.44,3.285 20.751,8.596 5.311,5.311 8.596,12.648 8.596,20.751 0,8.104 -3.285,15.441 -8.596,20.752 -5.311,5.311 -12.648,8.596 -20.751,8.596zm-17.373 -11.976c4.446,4.446 10.588,7.196 17.373,7.196 6.784,0 12.926,-2.75 17.371,-7.196 4.446,-4.445 7.196,-10.587 7.196,-17.372 0,-6.784 -2.75,-12.926 -7.196,-17.371 -4.445,-4.446 -10.587,-7.196 -17.371,-7.196 -6.785,0 -12.927,2.75 -17.373,7.196 -4.445,4.445 -7.195,10.587 -7.195,17.371 0,6.784 2.75,12.927 7.195,17.372zm513.572 191.126c-0.227,-2.069 -0.514,-4.107 -0.863,-6.157l-2.741 0.575c0.338,1.985 0.615,3.956 0.836,5.961l2.768 -0.379zm-1.442 -9.216c-0.41,-1.984 -0.877,-4.098 -1.442,-6.033l-2.667 0.898c0.527,1.922 0.986,3.869 1.391,5.826l2.718 -0.691zm-2.304 -9c-0.601,-1.967 -1.275,-3.921 -2.003,-5.835l-2.571 1.19c0.703,1.85 1.353,3.736 1.934,5.636l2.64 -0.991zm-3.137 -8.687c-0.75,-1.871 -1.653,-3.777 -2.539,-5.577l-2.45 1.465c0.856,1.74 1.728,3.58 2.452,5.388l2.537 -1.276zm-3.937 -8.295c-0.957,-1.79 -1.974,-3.547 -3.041,-5.261l-2.298 1.736c1.03,1.659 2.013,3.357 2.938,5.089l2.401 -1.564zm-4.682 -7.809c-1.124,-1.675 -2.285,-3.306 -3.505,-4.898l-2.124 1.986c1.18,1.537 2.303,3.122 3.39,4.74l2.239 -1.828zm-5.364 -7.246c-1.26,-1.546 -2.579,-3.04 -3.929,-4.491l-1.943 2.2c1.307,1.402 2.584,2.851 3.802,4.347l2.07 -2.056zm-5.996 -6.631c-1.4,-1.397 -2.833,-2.747 -4.312,-4.044l-1.732 2.404c1.431,1.251 2.82,2.564 4.174,3.915l1.87 -2.275zm-6.553 -5.944c-1.51,-1.247 -3.07,-2.43 -4.652,-3.563l-1.515 2.574c1.53,1.095 3.041,2.242 4.501,3.448l1.666 -2.459zm-7.057 -5.22c-1.626,-1.076 -3.264,-2.083 -4.945,-3.049l-1.271 2.729c1.626,0.966 3.198,1.901 4.785,2.951l1.431 -2.631zm-7.479 -4.437c-1.711,-0.897 -3.433,-1.729 -5.19,-2.508l-1.029 2.85c1.696,0.739 3.377,1.564 5.023,2.427l1.196 -2.769zm-7.835 -3.622c-1.776,-0.71 -3.573,-1.361 -5.387,-1.944l-0.773 2.945c1.754,0.566 3.492,1.195 5.211,1.882l0.949 -2.883zm-8.117 -2.772c-1.832,-0.521 -3.676,-0.972 -5.534,-1.367l-0.509 3.014c1.789,0.37 3.588,0.822 5.351,1.324l0.692 -2.971zm-8.323 -1.903c-1.868,-0.322 -3.736,-0.582 -5.619,-0.778l-0.257 3.053c1.828,0.192 3.634,0.442 5.449,0.756l0.427 -3.031zm-177.397 378.79c0.227,2.069 0.515,4.107 0.863,6.156l2.741 -0.574c-0.338,-1.985 -0.615,-3.956 -0.836,-5.961l-2.768 0.379zm1.442 9.216c0.411,1.984 0.877,4.098 1.442,6.032l2.667 -0.897c-0.527,-1.922 -0.986,-3.869 -1.391,-5.826l-2.718 0.691zm2.304 8.999c0.601,1.967 1.275,3.921 2.003,5.835l2.571 -1.189c-0.703,-1.85 -1.353,-3.736 -1.934,-5.637l-2.64 0.991zm3.137 8.688c0.75,1.871 1.653,3.776 2.539,5.577l2.45 -1.465c-0.856,-1.741 -1.728,-3.58 -2.452,-5.389l-2.537 1.277zm3.937 8.294c0.957,1.791 1.974,3.548 3.041,5.262l2.298 -1.737c-1.03,-1.658 -2.013,-3.357 -2.938,-5.088l-2.401 1.563zm4.682 7.81c1.124,1.675 2.285,3.305 3.505,4.898l2.125 -1.986c-1.181,-1.537 -2.304,-3.122 -3.39,-4.74l-2.24 1.828zm5.364 7.245c1.26,1.547 2.579,3.041 3.929,4.492l1.943 -2.2c-1.307,-1.403 -2.584,-2.851 -3.802,-4.347l-2.07 2.055zm5.996 6.632c1.4,1.397 2.834,2.747 4.312,4.043l1.732 -2.404c-1.431,-1.251 -2.82,-2.563 -4.174,-3.914l-1.87 2.275zm6.553 5.944c1.51,1.246 3.07,2.43 4.652,3.563l1.515 -2.574c-1.53,-1.095 -3.041,-2.242 -4.501,-3.448l-1.666 2.459zm7.057 5.22c1.626,1.076 3.264,2.082 4.945,3.049l1.271 -2.729c-1.626,-0.966 -3.198,-1.901 -4.784,-2.952l-1.432 2.632zm7.479 4.437c1.711,0.896 3.433,1.729 5.19,2.508l1.029 -2.85c-1.696,-0.739 -3.377,-1.564 -5.023,-2.427l-1.196 2.769zm7.835 3.621c1.776,0.71 3.574,1.362 5.387,1.945l0.773 -2.946c-1.754,-0.565 -3.492,-1.195 -5.21,-1.882l-0.95 2.883zm8.117 2.772c1.832,0.522 3.676,0.973 5.534,1.367l0.509 -3.014c-1.789,-0.37 -3.588,-0.821 -5.351,-1.323l-0.692 2.97zm8.323 1.903c1.868,0.323 3.736,0.583 5.619,0.778l0.257 -3.052c-1.828,-0.192 -3.634,-0.443 -5.449,-0.756l-0.427 3.03zm-9.42 -266.568c2.07,-0.227 4.108,-0.515 6.157,-0.864l-0.574 -2.74c-1.985,0.338 -3.957,0.615 -5.961,0.835l0.378 2.769zm9.216 -1.443c1.984,-0.41 4.099,-0.877 6.033,-1.442l-0.898 -2.667c-1.921,0.528 -3.868,0.987 -5.825,1.391l0.69 2.718zm9 -2.303c1.967,-0.601 3.921,-1.275 5.835,-2.003l-1.189 -2.571c-1.85,0.702 -3.736,1.353 -5.637,1.934l0.991 2.64zm8.688 -3.138c1.871,-0.749 3.776,-1.652 5.577,-2.538l-1.466 -2.45c-1.74,0.856 -3.579,1.727 -5.388,2.451l1.277 2.537zm8.294 -3.937c1.791,-0.957 3.548,-1.974 5.262,-3.04l-1.737 -2.299c-1.658,1.031 -3.357,2.013 -5.088,2.939l1.563 2.4zm7.81 -4.682c1.675,-1.124 3.305,-2.284 4.898,-3.504l-1.986 -2.125c-1.537,1.181 -3.122,2.304 -4.74,3.39l1.828 2.239zm7.245 -5.363c1.547,-1.261 3.041,-2.579 4.492,-3.93l-2.2 -1.942c-1.403,1.306 -2.851,2.584 -4.347,3.802l2.055 2.07zm6.631 -5.996c1.398,-1.4 2.748,-2.834 4.044,-4.312l-2.404 -1.732c-1.251,1.431 -2.563,2.82 -3.914,4.174l2.274 1.87zm5.945 -6.554c1.246,-1.51 2.43,-3.069 3.563,-4.651l-2.574 -1.515c-1.095,1.529 -2.242,3.041 -3.448,4.5l2.459 1.666zm5.22 -7.056c1.075,-1.626 2.082,-3.265 3.049,-4.946l-2.729 -1.271c-0.966,1.626 -1.901,3.198 -2.952,4.785l2.632 1.432zm4.437 -7.48c0.896,-1.71 1.729,-3.432 2.508,-5.19l-2.85 -1.029c-0.739,1.696 -1.565,3.377 -2.427,5.023l2.769 1.196zm3.621 -7.834c0.71,-1.776 1.362,-3.574 1.945,-5.388l-2.946 -0.773c-0.565,1.755 -1.195,3.493 -1.882,5.211l2.883 0.95zm2.772 -8.118c0.522,-1.831 0.973,-3.675 1.367,-5.533l-3.014 -0.51c-0.37,1.79 -0.821,3.588 -1.323,5.352l2.97 0.691zm1.903 -8.322c0.323,-1.869 0.583,-3.736 0.778,-5.619l-3.052 -0.257c-0.192,1.827 -0.443,3.634 -0.756,5.448l3.03 0.428zm-138.289 72.226c-2.069,-0.227 -4.107,-0.515 -6.156,-0.864l0.574 -2.74c1.985,0.338 3.956,0.615 5.961,0.835l-0.379 2.769zm-9.216 -1.443c-1.984,-0.41 -4.098,-0.877 -6.033,-1.442l0.898 -2.667c1.922,0.528 3.869,0.987 5.826,1.391l-0.691 2.718zm-9 -2.303c-1.967,-0.601 -3.92,-1.275 -5.835,-2.003l1.19 -2.571c1.85,0.702 3.736,1.353 5.636,1.934l-0.991 2.64zm-8.687 -3.138c-1.871,-0.749 -3.777,-1.652 -5.577,-2.538l1.465 -2.45c1.74,0.856 3.58,1.727 5.389,2.451l-1.277 2.537zm-8.295 -3.937c-1.79,-0.957 -3.547,-1.974 -5.261,-3.04l1.736 -2.299c1.659,1.031 3.358,2.013 5.089,2.939l-1.564 2.4zm-7.809 -4.682c-1.675,-1.124 -3.306,-2.284 -4.898,-3.504l1.986 -2.125c1.537,1.181 3.122,2.304 4.74,3.39l-1.828 2.239zm-7.246 -5.363c-1.546,-1.261 -3.04,-2.579 -4.491,-3.93l2.2 -1.942c1.402,1.306 2.851,2.584 4.347,3.802l-2.056 2.07zm-6.631 -5.996c-1.397,-1.4 -2.747,-2.834 -4.043,-4.312l2.403 -1.732c1.252,1.431 2.564,2.82 3.915,4.174l-2.275 1.87zm-5.944 -6.554c-1.247,-1.51 -2.43,-3.069 -3.563,-4.651l2.574 -1.515c1.095,1.529 2.242,3.041 3.448,4.5l-2.459 1.666zm-5.22 -7.056c-1.076,-1.626 -2.083,-3.265 -3.049,-4.946l2.729 -1.271c0.966,1.626 1.901,3.198 2.951,4.785l-2.631 1.432zm-4.437 -7.48c-0.896,-1.71 -1.729,-3.432 -2.508,-5.19l2.85 -1.029c0.739,1.696 1.564,3.377 2.427,5.023l-2.769 1.196zm-3.621 -7.834c-0.71,-1.776 -1.362,-3.574 -1.945,-5.388l2.946 -0.773c0.565,1.755 1.194,3.493 1.881,5.211l-2.882 0.95zm-2.772 -8.118c-0.522,-1.831 -0.973,-3.675 -1.368,-5.533l3.015 -0.51c0.369,1.79 0.821,3.588 1.323,5.352l-2.97 0.691zm-1.904 -8.322c-0.322,-1.869 -0.582,-3.736 -0.777,-5.619l3.052 -0.257c0.192,1.827 0.442,3.634 0.756,5.448l-3.031 0.428zm43.788 -239.821c2.069,0.227 4.107,0.514 6.156,0.863l-0.574 2.74c-1.985,-0.337 -3.956,-0.615 -5.961,-0.835l0.379 -2.768zm9.216 1.442c1.984,0.41 4.098,0.877 6.032,1.442l-0.897 2.667c-1.922,-0.528 -3.869,-0.986 -5.826,-1.391l0.691 -2.718zm8.999 2.303c1.967,0.602 3.921,1.275 5.836,2.003l-1.19 2.571c-1.85,-0.702 -3.736,-1.353 -5.636,-1.933l0.99 -2.641zm8.688 3.138c1.871,0.75 3.777,1.653 5.577,2.538l-1.465 2.451c-1.74,-0.856 -3.58,-1.728 -5.389,-2.452l1.277 -2.537zm8.295 3.937c1.79,0.957 3.547,1.974 5.261,3.04l-1.737 2.299c-1.658,-1.031 -3.357,-2.013 -5.088,-2.939l1.564 -2.4zm7.809 4.681c1.675,1.125 3.306,2.285 4.899,3.506l-1.987 2.124c-1.537,-1.181 -3.122,-2.304 -4.74,-3.39l1.828 -2.24zm7.246 5.364c1.546,1.26 3.04,2.579 4.491,3.93l-2.2 1.943c-1.402,-1.307 -2.851,-2.584 -4.347,-3.803l2.056 -2.07zm6.631 5.996c1.397,1.4 2.747,2.834 4.043,4.313l-2.403 1.731c-1.252,-1.431 -2.564,-2.82 -3.915,-4.173l2.275 -1.871zm5.944 6.554c1.247,1.51 2.43,3.069 3.563,4.651l-2.574 1.516c-1.095,-1.53 -2.242,-3.041 -3.447,-4.501l2.458 -1.666zm5.22 7.056c1.076,1.626 2.083,3.265 3.049,4.946l-2.729 1.271c-0.966,-1.626 -1.901,-3.198 -2.951,-4.785l2.631 -1.432zm4.437 7.48c0.897,1.71 1.729,3.432 2.508,5.19l-2.85 1.029c-0.739,-1.696 -1.564,-3.377 -2.427,-5.023l2.769 -1.196zm3.621 7.835c0.71,1.775 1.362,3.573 1.945,5.387l-2.946 0.773c-0.565,-1.755 -1.194,-3.493 -1.882,-5.211l2.883 -0.949zm2.772 8.117c0.522,1.832 0.973,3.675 1.367,5.533l-3.014 0.51c-0.37,-1.79 -0.821,-3.588 -1.323,-5.352l2.97 -0.691zm1.903 8.322c0.323,1.869 0.583,3.737 0.779,5.62l-3.052 0.256c-0.193,-1.827 -0.443,-3.634 -0.757,-5.448l3.03 -0.428zm-495.106 121.85c0.227,-2.069 0.515,-4.108 0.864,-6.157l2.74 0.574c-0.338,1.985 -0.615,3.957 -0.835,5.962l-2.769 -0.379zm1.443 -9.216c0.41,-1.984 0.876,-4.098 1.442,-6.033l2.666 0.898c-0.527,1.921 -0.986,3.868 -1.39,5.825l-2.718 -0.69zm2.303 -9c0.601,-1.967 1.275,-3.921 2.003,-5.835l2.571 1.189c-0.702,1.85 -1.353,3.737 -1.934,5.637l-2.64 -0.991zm3.138 -8.687c0.749,-1.872 1.652,-3.777 2.538,-5.578l2.45 1.466c-0.856,1.74 -1.727,3.579 -2.451,5.388l-2.537 -1.276zm3.937 -8.295c0.957,-1.791 1.974,-3.548 3.04,-5.262l2.298 1.737c-1.03,1.658 -2.013,3.357 -2.938,5.088l-2.4 -1.563zm4.681 -7.81c1.125,-1.675 2.285,-3.305 3.506,-4.898l2.124 1.986c-1.181,1.538 -2.304,3.122 -3.39,4.741l-2.24 -1.829zm5.364 -7.245c1.26,-1.547 2.579,-3.041 3.93,-4.492l1.942 2.2c-1.306,1.403 -2.583,2.852 -3.802,4.347l-2.07 -2.055zm5.996 -6.631c1.4,-1.398 2.834,-2.748 4.312,-4.044l1.732 2.403c-1.431,1.252 -2.82,2.564 -4.174,3.915l-1.87 -2.274zm6.554 -5.944c1.51,-1.247 3.069,-2.431 4.651,-3.564l1.515 2.574c-1.529,1.095 -3.041,2.243 -4.5,3.448l-1.666 -2.458zm7.056 -5.221c1.626,-1.075 3.265,-2.082 4.946,-3.049l1.27 2.729c-1.626,0.966 -3.197,1.901 -4.784,2.952l-1.432 -2.632zm7.48 -4.436c1.71,-0.897 3.432,-1.73 5.19,-2.509l1.028 2.85c-1.695,0.739 -3.376,1.565 -5.022,2.427l-1.196 -2.768zm7.835 -3.622c1.775,-0.71 3.573,-1.362 5.387,-1.945l0.773 2.946c-1.755,0.565 -3.493,1.195 -5.211,1.882l-0.949 -2.883zm8.116 -2.772c1.832,-0.522 3.676,-0.973 5.534,-1.367l0.51 3.014c-1.79,0.37 -3.589,0.821 -5.352,1.323l-0.692 -2.97zm8.323 -1.903c1.868,-0.322 3.736,-0.583 5.62,-0.778l0.256 3.052c-1.827,0.193 -3.634,0.443 -5.448,0.756l-0.428 -3.03zm121.519 -328.934c2.342,0.257 4.649,0.583 6.969,0.977l-0.649 3.103c-2.248,-0.382 -4.48,-0.696 -6.749,-0.946l0.429 -3.134zm10.433 1.633c2.246,0.464 4.639,0.993 6.829,1.633l-1.016 3.019c-2.175,-0.598 -4.379,-1.117 -6.595,-1.575l0.782 -3.077zm10.188 2.608c2.227,0.68 4.439,1.443 6.606,2.267l-1.347 2.911c-2.094,-0.795 -4.23,-1.532 -6.381,-2.189l1.122 -2.989zm9.835 3.552c2.118,0.848 4.276,1.871 6.313,2.874l-1.658 2.773c-1.97,-0.969 -4.053,-1.956 -6.101,-2.775l1.446 -2.872zm9.39 4.457c2.027,1.083 4.016,2.234 5.956,3.441l-1.966 2.603c-1.877,-1.167 -3.8,-2.279 -5.76,-3.327l1.77 -2.717zm8.841 5.3c1.896,1.272 3.742,2.586 5.545,3.968l-2.249 2.404c-1.74,-1.336 -3.534,-2.608 -5.366,-3.837l2.07 -2.535zm8.202 6.072c1.751,1.426 3.442,2.919 5.084,4.448l-2.49 2.199c-1.588,-1.479 -3.228,-2.925 -4.921,-4.304l2.327 -2.343zm7.507 6.788c1.582,1.584 3.11,3.208 4.578,4.881l-2.721 1.961c-1.417,-1.62 -2.903,-3.193 -4.432,-4.725l2.575 -2.117zm6.729 7.419c1.411,1.709 2.751,3.475 4.034,5.265l-2.914 1.716c-1.24,-1.732 -2.539,-3.443 -3.903,-5.095l2.783 -1.886zm5.91 7.988c1.217,1.841 2.357,3.696 3.451,5.599l-3.089 1.438c-1.094,-1.841 -2.152,-3.62 -3.341,-5.416l2.979 -1.621zm5.022 8.467c1.015,1.936 1.958,3.886 2.84,5.875l-3.227 1.165c-0.836,-1.919 -1.77,-3.823 -2.747,-5.686l3.134 -1.354zm4.1 8.87c0.804,2.01 1.542,4.045 2.202,6.098l-3.335 0.876c-0.64,-1.987 -1.353,-3.954 -2.131,-5.899l3.264 -1.075zm3.138 9.188c0.591,2.074 1.102,4.162 1.548,6.265l-3.412 0.577c-0.419,-2.026 -0.93,-4.062 -1.498,-6.058l3.362 -0.784zm2.154 9.422c0.366,2.116 0.66,4.23 0.881,6.362l-3.455 0.29c-0.218,-2.069 -0.501,-4.114 -0.856,-6.168l3.43 -0.484zm820.555 573.262l3.632 0 0 -10.335 -3.632 0 0 10.335zm0 12.558l3.632 0 0 -10.335 -3.632 0 0 10.335zm0 -370.795l3.632 0 0 -9.111 -3.632 0 0 9.111zm0 11.07l3.632 0 0 -9.11 -3.632 0 0 9.11zm-1568.854 -34.09l-3.632 0 0 9.002 3.632 0 0 -9.002zm0 -10.937l-3.632 0 0 9.001 3.632 0 0 -9.001zm0 402.822l-3.632 0 0 15.065 3.632 0 0 -15.065zm0 -18.304l-3.632 0 0 15.064 3.632 0 0 -15.064z"/>
 </g>
</svg>
