<?xml version="1.0" encoding="UTF-8"?>
<!DOCTYPE svg PUBLIC "-//W3C//DTD SVG 1.1//EN" "http://www.w3.org/Graphics/SVG/1.1/DTD/svg11.dtd">
<!-- Creator: CorelDRAW 2018 (64-Bit) -->
<svg xmlns="http://www.w3.org/2000/svg" xml:space="preserve" width="1230px" height="1078px" version="1.1" style="shape-rendering:geometricPrecision; text-rendering:geometricPrecision; image-rendering:optimizeQuality; fill-rule:evenodd; clip-rule:evenodd"
viewBox="0 0 1230 1078.336"
 xmlns:xlink="http://www.w3.org/1999/xlink">
 <defs>
  <style type="text/css">
   <![CDATA[
    .fil0 {fill:#FEFEFE}
   ]]>
  </style>
 </defs>
 <g id="Слой_x0020_1">
  <metadata id="CorelCorpID_0Corel-Layer"/>
  <path class="fil0" d="M16.514 245.13l16.513 0 73.16 0 0 60.818 -89.673 0 0 -60.818zm798.586 727.853l-16.094 0 0 3.543 12.282 0c-4.724,4.42 -8.84,13.529 -9.009,19.94l4.217 0c0.27,-7.052 3.678,-15.318 8.604,-20.244l0 -3.239zm-9.616 40.964c-8.106,0 -15.446,-3.286 -20.758,-8.599 -5.312,-5.312 -8.599,-12.652 -8.599,-20.759 0,-8.106 3.287,-15.446 8.599,-20.758 5.313,-5.313 12.652,-8.599 20.758,-8.599 8.107,0 15.447,3.286 20.759,8.599 5.312,5.312 8.599,12.652 8.599,20.758 0,8.107 -3.286,15.446 -8.599,20.759 -5.312,5.313 -12.652,8.599 -20.759,8.599zm-17.377 -11.98c4.447,4.447 10.591,7.198 17.377,7.198 6.787,0 12.931,-2.751 17.378,-7.198 4.447,-4.447 7.198,-10.591 7.198,-17.378 0,-6.786 -2.751,-12.93 -7.198,-17.377 -4.447,-4.447 -10.591,-7.198 -17.378,-7.198 -6.786,0 -12.93,2.751 -17.377,7.198 -4.447,4.447 -7.198,10.591 -7.198,17.377 0,6.787 2.751,12.931 7.198,17.378zm273.037 -357.352l3.678 0c0.101,-3.037 1.484,-4.656 3.947,-4.656 2.193,0 3.61,1.384 3.61,3.442 0,3.036 -2.497,3.407 -4.858,3.407l-0.338 0 0 2.902c0.574,-0.034 0.776,-0.034 1.215,-0.034 2.53,0 4.723,1.046 4.723,3.948 0,2.597 -1.653,4.217 -4.251,4.217 -2.969,0 -4.487,-1.653 -4.588,-4.96l-3.711 0 0 0.506c0,4.656 3.272,7.761 8.198,7.761 4.926,0 8.367,-3.105 8.367,-7.626 0,-2.834 -1.619,-4.892 -4.284,-5.567 2.024,-0.674 3.306,-2.53 3.306,-4.824 0,-3.779 -2.969,-6.343 -7.321,-6.343 -4.656,0 -7.558,2.969 -7.693,7.827zm6.242 33.507c-8.107,0 -15.447,-3.286 -20.759,-8.598 -5.312,-5.313 -8.599,-12.653 -8.599,-20.759 0,-8.106 3.287,-15.446 8.599,-20.759 5.313,-5.312 12.652,-8.599 20.759,-8.599 8.106,0 15.446,3.287 20.758,8.599 5.313,5.313 8.599,12.653 8.599,20.759 0,8.106 -3.286,15.446 -8.599,20.759 -5.312,5.312 -12.652,8.598 -20.758,8.598zm-17.378 -11.979c4.447,4.447 10.591,7.197 17.378,7.197 6.786,0 12.931,-2.75 17.377,-7.197 4.447,-4.447 7.198,-10.591 7.198,-17.378 0,-6.787 -2.751,-12.931 -7.198,-17.378 -4.446,-4.447 -10.591,-7.198 -17.377,-7.198 -6.787,0 -12.931,2.751 -17.378,7.198 -4.447,4.447 -7.198,10.591 -7.198,17.378 0,6.786 2.751,12.931 7.198,17.378zm-821.998 -9.117l-3.002 0 0 -14.98 -3.644 0 -10.122 14.407 0 3.812 10.02 0 0.034 5.601 3.712 0 0 -5.601 3.002 0 0 -3.239zm-6.68 0l-6.917 0 6.917 -10.223 0 10.223zm-3.205 26.321c-8.107,0 -15.447,-3.286 -20.759,-8.599 -5.312,-5.312 -8.599,-12.652 -8.599,-20.759 0,-8.106 3.287,-15.446 8.599,-20.758 5.313,-5.313 12.652,-8.599 20.759,-8.599 8.106,0 15.446,3.286 20.758,8.599 5.313,5.312 8.599,12.652 8.599,20.758 0,8.107 -3.286,15.446 -8.599,20.759 -5.312,5.313 -12.652,8.599 -20.758,8.599zm-17.378 -11.98c4.447,4.447 10.591,7.198 17.378,7.198 6.786,0 12.93,-2.751 17.377,-7.198 4.447,-4.446 7.198,-10.591 7.198,-17.378 0,-6.786 -2.751,-12.93 -7.198,-17.377 -4.447,-4.447 -10.591,-7.198 -17.377,-7.198 -6.787,0 -12.931,2.751 -17.378,7.198 -4.447,4.447 -7.198,10.591 -7.198,17.377 0,6.787 2.751,12.932 7.198,17.378zm-39.472 -346.365l-12.18 0 -2.26 12.72 3.374 0.101c1.012,-1.518 2.193,-2.125 3.947,-2.125 2.801,0 4.454,1.822 4.454,4.959 0,3.239 -1.586,5.095 -4.386,5.095 -2.396,0 -4.083,-1.552 -4.285,-3.981l-3.813 0c0.202,4.352 3.34,7.153 7.996,7.153 4.96,0 8.435,-3.476 8.435,-8.469 0,-4.622 -2.935,-7.726 -7.321,-7.726 -1.755,0 -3.239,0.405 -4.454,1.687l1.08 -6.073 9.413 0 0 -3.341zm-8.367 40.964c-8.107,0 -15.447,-3.286 -20.759,-8.599 -5.312,-5.312 -8.599,-12.652 -8.599,-20.759 0,-8.106 3.287,-15.446 8.599,-20.758 5.313,-5.313 12.652,-8.599 20.759,-8.599 8.106,0 15.446,3.287 20.758,8.599 5.313,5.312 8.599,12.652 8.599,20.758 0,8.107 -3.286,15.447 -8.599,20.759 -5.312,5.313 -12.652,8.599 -20.758,8.599zm-17.378 -11.979c4.447,4.446 10.591,7.197 17.378,7.197 6.786,0 12.93,-2.751 17.378,-7.197 4.446,-4.447 7.197,-10.592 7.197,-17.379 0,-6.786 -2.751,-12.93 -7.197,-17.377 -4.448,-4.447 -10.592,-7.198 -17.378,-7.198 -6.787,0 -12.931,2.751 -17.378,7.198 -4.447,4.447 -7.198,10.591 -7.198,17.377 0,6.787 2.751,12.932 7.198,17.379zm26.757 -236.937c-0.438,-3.947 -3.104,-6.275 -7.119,-6.275 -5.499,0 -8.772,4.656 -8.772,12.517 0,7.625 3.037,11.843 8.469,11.843 4.656,0 7.962,-3.442 7.962,-8.267 0,-4.656 -2.935,-7.794 -7.288,-7.794 -2.395,0 -4.15,1.046 -5.398,2.902 0.27,-2.767 0.708,-8.165 4.859,-8.165 1.99,0 3.171,1.08 3.576,3.239l3.711 0zm-7.524 5.095c2.565,0 4.218,1.923 4.218,4.858 0,2.969 -1.653,4.926 -4.116,4.926 -2.531,0 -4.218,-1.99 -4.218,-5.027 0,-2.901 1.62,-4.757 4.116,-4.757zm-1.855 29.998c-8.107,0 -15.447,-3.286 -20.759,-8.598 -5.312,-5.313 -8.599,-12.653 -8.599,-20.759 0,-8.106 3.287,-15.446 8.599,-20.759 5.313,-5.313 12.652,-8.599 20.759,-8.599 8.106,0 15.446,3.287 20.758,8.599 5.313,5.313 8.599,12.653 8.599,20.759 0,8.106 -3.286,15.446 -8.599,20.759 -5.312,5.312 -12.652,8.598 -20.758,8.598zm-17.378 -11.979c4.447,4.447 10.591,7.197 17.378,7.197 6.786,0 12.93,-2.75 17.378,-7.197 4.446,-4.447 7.197,-10.592 7.197,-17.378 0,-6.787 -2.751,-12.931 -7.197,-17.378 -4.448,-4.447 -10.592,-7.198 -17.378,-7.198 -6.787,0 -12.931,2.751 -17.378,7.198 -4.447,4.447 -7.198,10.591 -7.198,17.378 0,6.786 2.751,12.931 7.198,17.378zm458.291 77.078l-3.104 0c-0.675,4.116 -4.352,4.588 -6.883,4.588l0 2.834 5.871 0 0 16.33 4.116 0 0 -23.752zm-4.993 41.233c-8.107,0 -15.446,-3.286 -20.759,-8.599 -5.312,-5.312 -8.599,-12.652 -8.599,-20.759 0,-8.106 3.287,-15.446 8.599,-20.758 5.313,-5.313 12.652,-8.599 20.759,-8.599 8.106,0 15.446,3.286 20.758,8.599 5.313,5.312 8.6,12.652 8.6,20.758 0,8.107 -3.287,15.446 -8.6,20.759 -5.312,5.313 -12.652,8.599 -20.758,8.599zm-17.378 -11.98c4.447,4.447 10.591,7.198 17.378,7.198 6.786,0 12.931,-2.751 17.378,-7.198 4.446,-4.446 7.197,-10.591 7.197,-17.378 0,-6.786 -2.751,-12.93 -7.197,-17.377 -4.447,-4.447 -10.592,-7.198 -17.378,-7.198 -6.787,0 -12.931,2.751 -17.378,7.198 -4.447,4.447 -7.198,10.591 -7.198,17.377 0,6.787 2.751,12.932 7.198,17.378zm-199.797 -14.019l-11.505 0c0.81,-1.957 3.34,-3.644 5.061,-4.757 3.306,-2.194 6.478,-4.151 6.478,-8.604 0,-4.285 -3.037,-7.085 -7.625,-7.085 -4.859,0 -7.929,3.238 -7.929,8.299l0 0.608 3.745 0c0.068,-2.767 0.607,-5.601 4.083,-5.601 2.361,0 3.812,1.518 3.812,3.981 0,3.273 -2.834,4.757 -5.196,6.343 -4.015,2.699 -6.882,4.825 -7.051,10.223l16.127 0 0 -3.407zm-9.177 20.889c-8.107,0 -15.446,-3.287 -20.759,-8.599 -5.312,-5.313 -8.598,-12.653 -8.598,-20.759 0,-8.106 3.286,-15.446 8.598,-20.758 5.313,-5.313 12.652,-8.599 20.759,-8.599 8.106,0 15.446,3.286 20.759,8.599 5.312,5.312 8.599,12.652 8.599,20.758 0,8.106 -3.287,15.446 -8.599,20.759 -5.313,5.312 -12.652,8.599 -20.759,8.599zm-17.378 -11.98c4.447,4.447 10.592,7.198 17.378,7.198 6.787,0 12.931,-2.751 17.378,-7.198 4.447,-4.447 7.198,-10.591 7.198,-17.378 0,-6.787 -2.751,-12.931 -7.198,-17.377 -4.447,-4.448 -10.591,-7.198 -17.378,-7.198 -6.786,0 -12.931,2.75 -17.378,7.198 -4.447,4.446 -7.197,10.59 -7.197,17.377 0,6.786 2.75,12.931 7.197,17.378zm248.767 341.511l-11.505 0c0.809,-1.957 3.34,-3.644 5.06,-4.757 3.307,-2.193 6.478,-4.15 6.478,-8.604 0,-4.285 -3.036,-7.085 -7.625,-7.085 -4.858,0 -7.929,3.239 -7.929,8.3l0 0.607 3.746 0c0.067,-2.767 0.607,-5.601 4.082,-5.601 2.362,0 3.813,1.518 3.813,3.981 0,3.273 -2.835,4.758 -5.196,6.344 -4.015,2.699 -6.883,4.824 -7.052,10.223l16.128 0 0 -3.408zm-9.177 20.889c-8.107,0 -15.446,-3.287 -20.759,-8.599 -5.312,-5.312 -8.599,-12.652 -8.599,-20.759 0,-8.106 3.287,-15.446 8.599,-20.758 5.313,-5.313 12.652,-8.599 20.759,-8.599 8.106,0 15.446,3.286 20.758,8.599 5.312,5.312 8.599,12.652 8.599,20.758 0,8.107 -3.286,15.446 -8.599,20.759 -5.312,5.312 -12.652,8.599 -20.758,8.599zm-17.378 -11.98c4.447,4.447 10.591,7.198 17.378,7.198 6.786,0 12.93,-2.751 17.377,-7.198 4.447,-4.447 7.198,-10.591 7.198,-17.378 0,-6.786 -2.751,-12.931 -7.198,-17.377 -4.447,-4.447 -10.591,-7.198 -17.377,-7.198 -6.787,0 -12.931,2.751 -17.378,7.198 -4.447,4.446 -7.198,10.591 -7.198,17.377 0,6.787 2.751,12.931 7.198,17.378zm178.545 -361.933c-1.288,0.086 -2.563,0.128 -3.854,0.133l0 2.681c1.609,0.006 3.198,0.059 4.803,0.165l0.15 -2.677c-1.656,-0.11 -3.294,-0.165 -4.953,-0.169l0 -2.088c1.252,-0.004 2.489,-0.045 3.738,-0.128l0.116 2.083zm1.632 -63.023l51.782 0 1.055 0 0 0.95 0.847 0.018c-0.019,1.417 -0.087,2.824 -0.191,4.237l-1.893 -0.176c0.024,-0.314 0.045,-0.626 0.064,-0.939l-57.146 0 0 -4.09 5.482 0zm53.297 7.322c-0.154,1.409 -0.35,2.797 -0.587,4.193l-1.867 -0.391c0.23,-1.352 0.42,-2.695 0.57,-4.06l1.884 0.258zm-0.981 6.276c-0.28,1.351 -0.598,2.79 -0.983,4.108l-1.815 -0.612c0.359,-1.308 0.671,-2.634 0.947,-3.966l1.851 0.47zm-1.569 6.128c-0.409,1.339 -0.868,2.669 -1.364,3.973l-1.75 -0.81c0.478,-1.259 0.921,-2.544 1.317,-3.838l1.797 0.675zm-2.136 5.916c-0.511,1.274 -1.126,2.571 -1.729,3.797l-1.668 -0.998c0.582,-1.185 1.176,-2.437 1.669,-3.669l1.728 0.87zm-2.681 5.647c-0.652,1.219 -1.344,2.416 -2.07,3.583l-1.565 -1.183c0.701,-1.129 1.37,-2.285 2,-3.464l1.635 1.064zm-3.188 5.318c-0.765,1.14 -1.556,2.251 -2.387,3.335l-1.446 -1.352c0.804,-1.047 1.568,-2.126 2.308,-3.228l1.525 1.245zm-3.652 4.933c-0.858,1.053 -1.756,2.071 -2.676,3.059l-1.323 -1.498c0.89,-0.955 1.76,-1.942 2.589,-2.96l1.41 1.399zm-4.083 4.516c-0.953,0.951 -1.93,1.87 -2.936,2.753l-1.18 -1.637c0.975,-0.852 1.921,-1.745 2.842,-2.665l1.274 1.549zm-4.462 4.047c-1.028,0.849 -2.091,1.655 -3.168,2.426l-1.031 -1.752c1.041,-0.746 2.07,-1.527 3.064,-2.348l1.135 1.674zm-4.805 3.555c-1.107,0.732 -2.223,1.418 -3.368,2.076l-0.865 -1.859c1.107,-0.657 2.178,-1.294 3.258,-2.009l0.975 1.792zm-5.093 3.021c-1.164,0.611 -2.337,1.177 -3.534,1.708l-0.701 -1.941c1.155,-0.503 2.3,-1.065 3.42,-1.653l0.815 1.886zm-5.335 2.466c-1.209,0.483 -2.433,0.927 -3.669,1.324l-0.526 -2.006c1.195,-0.385 2.378,-0.813 3.548,-1.281l0.647 1.963zm-5.527 1.887c-1.248,0.355 -2.503,0.662 -3.768,0.931l-0.347 -2.052c1.218,-0.252 2.443,-0.559 3.644,-0.901l0.471 2.022zm-5.667 1.296c-1.272,0.22 -2.544,0.397 -3.826,0.53l-0.175 -2.078c1.244,-0.131 2.474,-0.302 3.71,-0.515l0.291 2.063zm-1.342 81.979l65.325 0 1.356 0 0 -1.22 1.088 -0.023c-0.024,-1.821 -0.111,-3.629 -0.246,-5.445l-2.432 0.227c0.03,0.402 0.058,0.804 0.083,1.205l-73.432 0 0 5.256 -8.255 0 0 35.166 -70.203 0 -16.514 0 -23.051 0 0 8.252 -3.105 0c-0.006,1.894 -0.069,3.765 -0.193,5.656l3.152 0.176c0.065,-0.978 0.113,-1.95 0.146,-2.923l0 5.353 23.051 0 0 75.474 0 16.514 16.514 0 70.203 0 0 331.195 -16.598 0 -67.457 0 0 7.774c-0.003,-0.051 -0.08,-0.091 -0.175,-0.091l-158.527 0c-0.095,0 -0.172,0.04 -0.174,0.091l0 -7.774 -38.68 0 -16.514 0 0 -341.418 0 -16.514 0 -65.251 92.845 0 0 0.039 0 78.355 0 1.597 1.437 0 0.027 1.281c2.145,-0.028 4.274,-0.131 6.412,-0.289l-0.267 -2.864c-0.473,0.036 -0.947,0.068 -1.42,0.097l0 -86.473 -6.189 0 0 -8.257 -92.845 0 -10.385 0 -6.128 0 0 81.765 -22.491 0 0 8.257 -6.189 0 0 86.474c-0.473,-0.029 -0.946,-0.062 -1.42,-0.097l-0.267 2.864c2.138,0.158 4.267,0.26 6.412,0.289l0.026 -1.282 1.438 0 0 -1.596 0 -78.356 0 -0.039 22.491 0 0 341.418 0 33.028 0 44.331 -5.116 0 -16.513 0 -84.025 0 0 7.773c-0.004,-0.05 -0.11,-0.09 -0.241,-0.09l-218.364 0c-0.131,0 -0.237,0.04 -0.24,0.09l0 -7.773 -78.099 0 0 -418.777 17.137 0 239.137 0 16.514 0 11.753 0 0 -8.262c0.006,1.953 0.071,3.883 0.2,5.832l3.152 -0.176c-0.124,-1.89 -0.187,-3.762 -0.193,-5.656l-3.159 0 0 -8.252 -11.753 0 0 -10.571 -8.257 0 0 -6.189 -86.474 0c0.029,-0.473 0.062,-0.946 0.097,-1.42l-2.864 -0.266c-0.158,2.137 -0.26,4.266 -0.289,6.411l1.282 0.027 0 1.437 1.596 0 78.356 0 0.039 0 0 10.571 -239.137 0 0 -105.625 72.536 0 16.514 0 0 -16.514 0 -60.818 150.087 0 -0.001 77.332 2.448 0 0.159 2.841c1.89,-0.125 3.762,-0.187 5.656,-0.194l0 -2.647 8.252 0 0 -103.23 -8.257 0 0 -6.189 -86.474 0c0.029,-0.473 0.062,-0.946 0.097,-1.42l-2.864 -0.266c-0.158,2.138 -0.26,4.267 -0.289,6.412l1.282 0.026 0 1.437 1.596 0 78.356 0 0.039 0 0 9.385 -150.087 0 -16.514 0 -73.16 0 0 -211.662 239.761 0 0 106.712 8.262 0c-1.953,0.006 -3.883,0.07 -5.833,0.199l0.177 3.153c1.89,-0.125 3.762,-0.187 5.656,-0.194l0 -3.158 8.252 0 0 -106.712 146.349 0 0 96.331 0 16.514 0 0.509 33.027 0 0 -0.509 30.662 0 0 -8.259 5.277 0 0 -116.966c0.64,0.04 1.28,0.083 1.92,0.132l0.361 -3.874c-2.891,-0.215 -5.771,-0.353 -8.672,-0.391l-0.036 1.733 -1.944 0 0 2.16 0 105.984 0 2.967 -27.568 0 0 -96.331 0 -16.513 -33.027 0 -146.349 0 -16.514 0 -239.761 0 0 -0.442 -33.027 0 0 0.442 0 16.513 0 228.175 0 618.248 0 33.028 16.514 0 78.099 0 0 -7.774c0.003,0.051 0.109,0.091 0.24,0.091l218.364 0c0.131,0 0.237,-0.04 0.241,-0.091l0 7.774 84.025 0 0 5.268 0 168.034 0 8.628 16.513 0 63.177 0 8.628 0 711.172 0 33.027 0 0 -8.628 0 -170.237 0 -33.028 0 -849.488 0 -16.513 -33.027 0 -91.785 0 -16.514 0 -338.411 0 -16.513 0 -65.604 0 -16.514 0 0 16.513 0 96.331 -26.392 0 0 0.373 -4.265 0.238c0.169,2.558 0.254,5.089 0.262,7.651l4.003 0 0 8.252 26.392 0 16.514 0 65.604 0 0 36.794 16.513 0 0 -36.794 0 -16.514 0 -96.331 338.411 0 0 96.331 0 16.514 16.514 0 91.785 0 0 736.643 -43.541 0 0 10.114c-0.002,-0.05 -0.078,-0.09 -0.171,-0.09l-155.29 0c-0.093,0 -0.169,0.04 -0.171,0.09 -0.002,-0.05 -0.078,-0.09 -0.171,-0.09l-155.29 0c-0.093,0 -0.169,0.04 -0.171,0.09l0 -10.114 -91.988 0 0 -47.396 0 -33.028 0.083 0 0 -331.195 0 -16.514 0 -75.474 0 -16.514 0 -35.166zm67.272 -9.409c-0.199,-1.81 -0.45,-3.593 -0.755,-5.386l-2.398 0.502c0.296,1.737 0.538,3.462 0.731,5.216l2.422 -0.332zm-1.261 -8.063c-0.359,-1.736 -0.768,-3.586 -1.262,-5.279l-2.334 0.786c0.462,1.681 0.864,3.385 1.217,5.097l2.379 -0.604zm-2.016 -7.874c-0.526,-1.721 -1.115,-3.431 -1.752,-5.106l-2.25 1.04c0.615,1.619 1.184,3.27 1.692,4.933l2.31 -0.867zm-2.745 -7.602c-0.656,-1.637 -1.446,-3.304 -2.221,-4.879l-2.144 1.282c0.749,1.522 1.511,3.132 2.145,4.714l2.22 -1.117zm-3.445 -7.257c-0.837,-1.566 -1.727,-3.104 -2.66,-4.603l-2.011 1.519c0.902,1.451 1.761,2.937 2.571,4.452l2.1 -1.368zm-4.096 -6.833c-0.984,-1.465 -1.999,-2.892 -3.067,-4.286l-1.859 1.739c1.033,1.344 2.016,2.731 2.966,4.147l1.96 -1.6zm-4.693 -6.339c-1.103,-1.353 -2.256,-2.661 -3.438,-3.93l-1.7 1.925c1.143,1.227 2.261,2.494 3.327,3.803l1.811 -1.798zm-5.246 -5.802c-1.225,-1.223 -2.48,-2.404 -3.774,-3.538l-1.515 2.103c1.253,1.095 2.468,2.243 3.652,3.425l1.637 -1.99zm-5.734 -5.201c-1.321,-1.091 -2.686,-2.126 -4.07,-3.118l-1.326 2.252c1.338,0.958 2.661,1.963 3.938,3.017l1.458 -2.151zm-6.174 -4.568c-1.423,-0.941 -2.857,-1.821 -4.328,-2.667l-1.112 2.388c1.424,0.845 2.799,1.663 4.187,2.582l1.253 -2.303zm-6.544 -3.881c-1.497,-0.785 -3.003,-1.513 -4.542,-2.195l-0.9 2.494c1.484,0.646 2.955,1.368 4.395,2.123l1.047 -2.422zm-6.856 -3.169c-1.553,-0.621 -3.126,-1.192 -4.713,-1.702l-0.677 2.578c1.536,0.494 3.056,1.045 4.559,1.647l0.831 -2.523zm-7.101 -2.425c-1.603,-0.457 -3.217,-0.851 -4.842,-1.197l-0.446 2.638c1.566,0.323 3.139,0.718 4.682,1.157l0.606 -2.598zm-7.282 -1.665c-1.635,-0.283 -3.269,-0.51 -4.917,-0.681l-0.225 2.67c1.599,0.169 3.18,0.388 4.767,0.662l0.375 -2.651zm-214.792 212.456c2.132,-0.234 4.232,-0.53 6.343,-0.889l-0.591 -2.824c-2.045,0.347 -4.077,0.633 -6.143,0.86l0.391 2.853zm9.496 -1.486c2.044,-0.423 4.222,-0.904 6.216,-1.486l-0.925 -2.748c-1.98,0.544 -3.986,1.016 -6.003,1.433l0.712 2.801zm9.272 -2.374c2.027,-0.619 4.04,-1.314 6.013,-2.064l-1.226 -2.649c-1.906,0.724 -3.85,1.394 -5.807,1.993l1.02 2.72zm8.952 -3.233c1.928,-0.772 3.891,-1.702 5.746,-2.615l-1.51 -2.525c-1.793,0.882 -3.688,1.78 -5.552,2.526l1.316 2.614zm8.546 -4.056c1.845,-0.986 3.656,-2.034 5.421,-3.132l-1.789 -2.369c-1.709,1.062 -3.459,2.074 -5.243,3.028l1.611 2.473zm8.046 -4.824c1.727,-1.158 3.407,-2.354 5.048,-3.611l-2.047 -2.189c-1.584,1.216 -3.216,2.374 -4.884,3.493l1.883 2.307zm7.466 -5.527c1.593,-1.298 3.133,-2.656 4.628,-4.048l-2.267 -2.002c-1.445,1.346 -2.938,2.663 -4.479,3.918l2.118 2.132zm6.832 -6.177c1.44,-1.443 2.831,-2.92 4.167,-4.444l-2.477 -1.784c-1.289,1.475 -2.641,2.906 -4.033,4.3l2.343 1.928zm6.125 -6.753c1.285,-1.555 2.504,-3.162 3.671,-4.793l-2.652 -1.561c-1.128,1.576 -2.31,3.134 -3.552,4.637l2.533 1.717zm5.379 -7.271c1.108,-1.675 2.145,-3.363 3.141,-5.095l-2.811 -1.31c-0.996,1.676 -1.959,3.296 -3.041,4.93l2.711 1.475zm4.571 -7.706c0.924,-1.762 1.782,-3.537 2.584,-5.347l-2.936 -1.061c-0.761,1.747 -1.612,3.48 -2.501,5.176l2.853 1.232zm3.731 -8.073c0.732,-1.829 1.404,-3.681 2.005,-5.55l-3.036 -0.797c-0.582,1.808 -1.231,3.598 -1.939,5.369l2.97 0.978zm2.857 -8.363c0.537,-1.887 1.002,-3.787 1.408,-5.702l-3.105 -0.525c-0.381,1.844 -0.846,3.698 -1.364,5.514l3.061 0.713zm1.961 -8.575c0.332,-1.925 0.6,-3.85 0.801,-5.79l-3.144 -0.264c-0.199,1.882 -0.457,3.744 -0.78,5.613l3.123 0.441zm-111.551 -367.874c2.883,0.317 5.724,0.717 8.58,1.203l-0.8 3.82c-2.767,-0.471 -5.514,-0.857 -8.309,-1.165l0.529 -3.858zm12.844 2.01c2.765,0.572 5.711,1.223 8.408,2.01l-1.252 3.717c-2.678,-0.736 -5.391,-1.375 -8.119,-1.938l0.963 -3.789zm12.543 3.211c2.741,0.838 5.464,1.776 8.132,2.791l-1.658 3.583c-2.578,-0.978 -5.207,-1.885 -7.856,-2.695l1.382 -3.679zm12.107 4.373c2.608,1.044 5.264,2.303 7.773,3.537l-2.043 3.415c-2.425,-1.193 -4.988,-2.408 -7.509,-3.418l1.779 -3.534zm11.56 5.487c2.495,1.333 4.944,2.75 7.333,4.237l-2.42 3.202c-2.312,-1.435 -4.679,-2.805 -7.092,-4.094l2.179 -3.345zm10.884 6.524c2.334,1.567 4.607,3.185 6.827,4.885l-2.769 2.961c-2.142,-1.646 -4.35,-3.211 -6.606,-4.725l2.548 -3.121zm10.098 7.476c2.155,1.756 4.237,3.593 6.259,5.475l-3.066 2.709c-1.954,-1.822 -3.973,-3.602 -6.058,-5.3l2.865 -2.884zm9.242 8.356c1.947,1.951 3.828,3.95 5.635,6.01l-3.35 2.413c-1.744,-1.994 -3.573,-3.93 -5.456,-5.817l3.171 -2.606zm8.284 9.133c1.737,2.104 3.386,4.278 4.966,6.483l-3.588 2.112c-1.526,-2.132 -3.125,-4.239 -4.805,-6.273l3.427 -2.322zm7.276 9.835c1.498,2.266 2.901,4.55 4.248,6.892l-3.803 1.771c-1.346,-2.266 -2.65,-4.457 -4.113,-6.667l3.668 -1.996zm6.183 10.423c1.249,2.384 2.409,4.784 3.495,7.234l-3.972 1.434c-1.03,-2.363 -2.18,-4.707 -3.382,-7.001l3.859 -1.667zm5.046 10.92c0.99,2.475 1.898,4.98 2.711,7.508l-4.105 1.078c-0.788,-2.446 -1.665,-4.868 -2.623,-7.263l4.017 -1.323zm3.864 11.313c0.727,2.552 1.355,5.122 1.905,7.712l-4.2 0.71c-0.516,-2.494 -1.145,-5.001 -1.845,-7.458l4.14 -0.964zm2.652 11.598c0.449,2.604 0.812,5.208 1.084,7.832l-4.253 0.358c-0.268,-2.547 -0.617,-5.066 -1.054,-7.594l4.223 -0.596zm-431.716 106.261c0.234,-2.132 0.53,-4.232 0.889,-6.343l2.824 0.591c-0.348,2.046 -0.634,4.077 -0.861,6.143l-2.852 -0.391zm1.486 -9.496c0.423,-2.044 0.903,-4.222 1.486,-6.215l2.748 0.925c-0.544,1.98 -1.017,3.985 -1.434,6.002l-2.8 -0.712zm2.373 -9.272c0.62,-2.027 1.314,-4.04 2.064,-6.012l2.649 1.225c-0.724,1.906 -1.394,3.85 -1.993,5.808l-2.72 -1.021zm3.233 -8.952c0.772,-1.928 1.703,-3.891 2.616,-5.746l2.524 1.51c-0.882,1.793 -1.78,3.688 -2.526,5.552l-2.614 -1.316zm4.057 -8.546c0.985,-1.845 2.033,-3.655 3.132,-5.421l2.368 1.789c-1.062,1.709 -2.074,3.459 -3.027,5.243l-2.473 -1.611zm4.823 -8.046c1.159,-1.726 2.354,-3.406 3.612,-5.047l2.189 2.046c-1.217,1.584 -2.374,3.217 -3.493,4.884l-2.308 -1.883zm5.527 -7.466c1.298,-1.593 2.657,-3.133 4.049,-4.627l2.002 2.266c-1.347,1.445 -2.663,2.938 -3.918,4.479l-2.133 -2.118zm6.178 -6.832c1.443,-1.44 2.92,-2.831 4.443,-4.167l1.784 2.477c-1.474,1.29 -2.905,2.641 -4.3,4.034l-1.927 -2.344zm6.752 -6.125c1.556,-1.284 3.163,-2.504 4.793,-3.671l1.561 2.652c-1.576,1.128 -3.133,2.31 -4.637,3.552l-1.717 -2.533zm7.271 -5.379c1.675,-1.108 3.364,-2.145 5.095,-3.141l1.31 2.812c-1.675,0.995 -3.295,1.959 -4.93,3.041l-1.475 -2.712zm7.706 -4.571c1.762,-0.924 3.537,-1.781 5.348,-2.584l1.06 2.937c-1.747,0.761 -3.48,1.611 -5.175,2.5l-1.233 -2.853zm8.073 -3.731c1.83,-0.731 3.682,-1.403 5.55,-2.004l0.797 3.035c-1.808,0.583 -3.598,1.231 -5.369,1.939l-0.978 -2.97zm8.363 -2.856c1.888,-0.538 3.788,-1.003 5.702,-1.409l0.525 3.105c-1.844,0.381 -3.697,0.847 -5.514,1.364l-0.713 -3.06zm8.576 -1.961c1.925,-0.332 3.849,-0.6 5.79,-0.802l0.264 3.145c-1.883,0.198 -3.745,0.456 -5.614,0.779l-0.44 -3.122zm-74.418 281.517c0.234,-2.132 0.53,-4.232 0.889,-6.343l2.824 0.591c-0.348,2.046 -0.634,4.077 -0.861,6.143l-2.852 -0.391zm1.486 -9.496c0.423,-2.044 0.903,-4.222 1.486,-6.216l2.748 0.926c-0.544,1.98 -1.017,3.985 -1.434,6.002l-2.8 -0.712zm2.373 -9.272c0.62,-2.027 1.314,-4.04 2.064,-6.012l2.649 1.225c-0.724,1.906 -1.394,3.85 -1.993,5.808l-2.72 -1.021zm3.233 -8.952c0.772,-1.928 1.703,-3.891 2.616,-5.746l2.524 1.51c-0.882,1.793 -1.78,3.688 -2.526,5.552l-2.614 -1.316zm4.057 -8.546c0.985,-1.845 2.033,-3.655 3.132,-5.421l2.368 1.789c-1.062,1.709 -2.074,3.459 -3.027,5.243l-2.473 -1.611zm4.823 -8.047c1.159,-1.725 2.354,-3.405 3.612,-5.047l2.189 2.047c-1.217,1.584 -2.374,3.217 -3.493,4.884l-2.308 -1.884zm5.527 -7.465c1.298,-1.593 2.657,-3.133 4.049,-4.627l2.002 2.266c-1.347,1.445 -2.663,2.938 -3.918,4.479l-2.133 -2.118zm6.178 -6.832c1.443,-1.44 2.92,-2.831 4.443,-4.167l1.784 2.477c-1.474,1.289 -2.905,2.641 -4.3,4.033l-1.927 -2.343zm6.752 -6.125c1.556,-1.284 3.163,-2.503 4.793,-3.671l1.561 2.652c-1.576,1.128 -3.133,2.31 -4.637,3.552l-1.717 -2.533zm7.271 -5.379c1.675,-1.108 3.364,-2.145 5.095,-3.141l1.31 2.811c-1.675,0.996 -3.295,1.96 -4.93,3.042l-1.475 -2.712zm7.706 -4.571c1.762,-0.924 3.537,-1.782 5.348,-2.584l1.06 2.936c-1.747,0.762 -3.48,1.612 -5.175,2.501l-1.233 -2.853zm8.073 -3.731c1.83,-0.732 3.682,-1.403 5.55,-2.004l0.797 3.035c-1.808,0.582 -3.598,1.231 -5.369,1.939l-0.978 -2.97zm8.363 -2.856c1.888,-0.538 3.788,-1.003 5.702,-1.409l0.525 3.105c-1.844,0.381 -3.697,0.847 -5.514,1.364l-0.713 -3.06zm8.576 -1.961c1.925,-0.332 3.849,-0.601 5.79,-0.802l0.264 3.145c-1.883,0.198 -3.745,0.456 -5.614,0.779l-0.44 -3.122zm119.023 202.086c-2.132,-0.234 -4.232,-0.53 -6.344,-0.889l0.592 -2.824c2.045,0.348 4.076,0.634 6.142,0.861l-0.39 2.852zm-9.496 -1.486c-2.044,-0.423 -4.223,-0.904 -6.216,-1.486l0.925 -2.748c1.98,0.544 3.986,1.017 6.002,1.433l-0.711 2.801zm-9.273 -2.373c-2.026,-0.62 -4.04,-1.314 -6.012,-2.064l1.225 -2.649c1.906,0.723 3.85,1.394 5.808,1.993l-1.021 2.72zm-8.951 -3.233c-1.928,-0.772 -3.892,-1.703 -5.746,-2.616l1.51 -2.524c1.792,0.882 3.688,1.78 5.551,2.526l-1.315 2.614zm-8.546 -4.057c-1.845,-0.985 -3.656,-2.033 -5.422,-3.132l1.79 -2.368c1.709,1.061 3.458,2.074 5.243,3.027l-1.611 2.473zm-8.047 -4.823c-1.726,-1.159 -3.406,-2.354 -5.047,-3.612l2.046 -2.189c1.585,1.217 3.217,2.374 4.885,3.493l-1.884 2.308zm-7.465 -5.527c-1.594,-1.298 -3.133,-2.657 -4.628,-4.049l2.267 -2.002c1.444,1.347 2.937,2.663 4.478,3.918l-2.117 2.133zm-6.833 -6.178c-1.44,-1.443 -2.831,-2.92 -4.166,-4.443l2.477 -1.784c1.289,1.474 2.641,2.905 4.033,4.3l-2.344 1.927zm-6.124 -6.752c-1.285,-1.556 -2.504,-3.163 -3.672,-4.793l2.652 -1.561c1.129,1.576 2.311,3.133 3.553,4.637l-2.533 1.717zm-5.38 -7.271c-1.108,-1.675 -2.145,-3.364 -3.14,-5.095l2.811 -1.31c0.995,1.675 1.959,3.295 3.041,4.93l-2.712 1.475zm-4.571 -7.706c-0.923,-1.762 -1.781,-3.537 -2.584,-5.348l2.937 -1.06c0.761,1.747 1.612,3.48 2.5,5.175l-2.853 1.233zm-3.731 -8.073c-0.731,-1.83 -1.403,-3.682 -2.004,-5.551l3.036 -0.796c0.582,1.807 1.231,3.598 1.939,5.369l-2.971 0.978zm-2.856 -8.364c-0.538,-1.887 -1.002,-3.787 -1.409,-5.701l3.106 -0.525c0.381,1.844 0.846,3.697 1.363,5.514l-3.06 0.712zm-1.961 -8.575c-0.332,-1.925 -0.6,-3.85 -0.801,-5.79l3.144 -0.264c0.198,1.883 0.456,3.745 0.779,5.614l-3.122 0.44zm695.493 443.167c-0.002,0.051 -0.078,0.091 -0.171,0.091l-155.29 0c-0.093,0 -0.169,-0.04 -0.171,-0.091l0 5.433 -91.988 0 -14.63 0 -18.398 0 0 -80.424 -67.457 0 0 -7.774c-0.003,0.051 -0.08,0.091 -0.175,0.091l-158.527 0c-0.095,0 -0.172,-0.04 -0.174,-0.091l0 7.774 -38.68 0 0 44.331 0 29.668 25.034 0 8.628 0 0 8.628 0 168.034 711.172 0 0 -170.237 -43.541 0 0 -5.433c-0.002,0.051 -0.078,0.091 -0.171,0.091l-155.29 0c-0.093,0 -0.169,-0.04 -0.171,-0.091zm-155.29 -17.386l0 6.239c0.088,-0.034 0.197,-0.055 0.315,-0.055l66.446 0c0.153,-0.061 0.356,-0.097 0.578,-0.097l10.082 0 0.044 0 0.002 0 0.044 0 10.081 0c0.223,0 0.426,0.036 0.578,0.097l66.597 0c0.063,0 0.124,0.006 0.181,0.017l0 -6.201 -154.948 0zm0 6.676l0 3.939c0.088,-0.035 0.197,-0.055 0.315,-0.055l66.169 0 0 -1.114 -66.169 0c-0.103,0 -0.186,-0.043 -0.186,-0.097 0,-0.054 0.083,-0.098 0.186,-0.098l66.169 0 0 -0.078 -66.169 0c-0.103,0 -0.186,-0.044 -0.186,-0.098 0,-0.054 0.083,-0.098 0.186,-0.098l66.169 0 0 -0.664 -66.169 0c-0.103,0 -0.186,-0.043 -0.186,-0.097 0,-0.054 0.083,-0.098 0.186,-0.098l66.169 0 0 -0.117 -66.169 0c-0.103,0 -0.186,-0.044 -0.186,-0.098 0,-0.054 0.083,-0.097 0.186,-0.097l66.169 0 0 -1.075 -66.169 0c-0.118,0 -0.227,-0.021 -0.315,-0.055zm0 4.376l0 6.239 154.948 0 0 -6.201c-0.057,0.011 -0.118,0.017 -0.181,0.017l-66.597 0c-0.152,0.061 -0.355,0.098 -0.578,0.098l-10.081 0 -0.044 -0.001 -0.002 0 -0.044 0.001 -10.082 0c-0.222,0 -0.425,-0.037 -0.578,-0.098l-66.446 0c-0.118,0 -0.227,-0.021 -0.315,-0.055zm154.948 -0.475l0 -1.204c-0.021,0.042 -0.094,0.073 -0.181,0.073l-66.32 0 0 1.114 66.32 0c0.063,0 0.124,0.006 0.181,0.017zm0 -1.253l0 -0.225c-0.021,0.043 -0.094,0.074 -0.181,0.074l-66.32 0 0 0.078 66.32 0c0.087,0 0.16,0.031 0.181,0.073zm0 -0.273l0 -0.811c-0.021,0.042 -0.094,0.073 -0.181,0.073l-66.32 0 0 0.664 66.32 0c0.087,0 0.16,0.032 0.181,0.074zm0 -0.86l0 -0.264c-0.021,0.043 -0.094,0.074 -0.181,0.074l-66.32 0 0 0.117 66.32 0c0.087,0 0.16,0.031 0.181,0.073zm0 -0.312l0 -1.165c-0.057,0.011 -0.118,0.017 -0.181,0.017l-66.32 0 0 1.075 66.32 0c0.087,0 0.16,0.031 0.181,0.073zm-68.211 2.583l0 -3.633 -8.371 0 0 3.633 8.371 0zm-10.171 0l0 -3.633 -8.372 0 0 3.633 8.372 0zm234.014 -10.462l0 6.239c-0.088,-0.034 -0.197,-0.055 -0.315,-0.055l-66.446 0c-0.153,-0.061 -0.355,-0.097 -0.578,-0.097l-10.082 0 -0.044 0 -0.002 0 -0.044 0 -10.081 0c-0.223,0 -0.426,0.036 -0.578,0.097l-66.597 0c-0.064,0 -0.124,0.006 -0.181,0.017l0 -6.201 154.948 0zm0 6.676l0 3.939c-0.088,-0.035 -0.197,-0.055 -0.315,-0.055l-66.169 0 0 -1.114 66.169 0c0.103,0 0.187,-0.043 0.187,-0.097 0,-0.054 -0.084,-0.098 -0.187,-0.098l-66.169 0 0 -0.078 66.169 0c0.103,0 0.187,-0.044 0.187,-0.098 0,-0.054 -0.084,-0.098 -0.187,-0.098l-66.169 0 0 -0.664 66.169 0c0.103,0 0.187,-0.043 0.187,-0.097 0,-0.054 -0.084,-0.098 -0.187,-0.098l-66.169 0 0 -0.117 66.169 0c0.103,0 0.187,-0.044 0.187,-0.098 0,-0.054 -0.084,-0.097 -0.187,-0.097l-66.169 0 0 -1.075 66.169 0c0.118,0 0.227,-0.02 0.315,-0.055zm0 4.376l0 6.239 -154.948 0 0 -6.201c0.057,0.011 0.117,0.017 0.181,0.017l66.597 0c0.152,0.061 0.355,0.098 0.578,0.098l10.081 0 0.044 -0.001 0.002 0 0.044 0.001 10.082 0c0.223,0 0.425,-0.037 0.578,-0.098l66.446 0c0.118,0 0.227,-0.02 0.315,-0.055zm-154.948 -0.475l0 -1.204c0.021,0.042 0.094,0.073 0.181,0.073l66.32 0 0 1.114 -66.32 0c-0.064,0 -0.124,0.006 -0.181,0.017zm0 -1.253l0 -0.225c0.021,0.043 0.094,0.074 0.181,0.074l66.32 0 0 0.078 -66.32 0c-0.087,0 -0.16,0.031 -0.181,0.073zm0 -0.273l0 -0.811c0.021,0.042 0.094,0.073 0.181,0.073l66.32 0 0 0.664 -66.32 0c-0.087,0 -0.16,0.032 -0.181,0.074zm0 -0.86l0 -0.264c0.021,0.043 0.094,0.074 0.181,0.074l66.32 0 0 0.117 -66.32 0c-0.087,0 -0.16,0.031 -0.181,0.073zm0 -0.312l0 -1.165c0.057,0.011 0.117,0.017 0.181,0.017l66.32 0 0 1.075 -66.32 0c-0.087,0 -0.16,0.031 -0.181,0.073zm68.211 2.583l0 -3.633 8.371 0 0 3.633 -8.371 0zm10.171 0l0 -3.633 8.371 0 0 3.633 -8.371 0zm-585.356 -93.227l0 6.239c0.09,-0.034 0.201,-0.054 0.321,-0.054l67.831 0c0.156,-0.061 0.363,-0.098 0.591,-0.098l10.292 0 0.044 0 0.003 0 0.044 0 10.292 0c0.228,0 0.435,0.037 0.591,0.098l67.984 0c0.064,0 0.126,0.005 0.184,0.016l0 -6.201 -158.177 0zm0 6.677l0 3.938c0.09,-0.035 0.201,-0.055 0.321,-0.055l67.549 0 0 -1.114 -67.549 0c-0.105,0 -0.19,-0.043 -0.19,-0.097 0,-0.054 0.085,-0.098 0.19,-0.098l67.549 0 0 -0.078 -67.549 0c-0.105,0 -0.19,-0.044 -0.19,-0.098 0,-0.054 0.085,-0.097 0.19,-0.097l67.549 0 0 -0.664 -67.549 0c-0.105,0 -0.19,-0.044 -0.19,-0.098 0,-0.054 0.085,-0.098 0.19,-0.098l67.549 0 0 -0.117 -67.549 0c-0.105,0 -0.19,-0.044 -0.19,-0.098 0,-0.054 0.085,-0.097 0.19,-0.097l67.549 0 0 -1.074 -67.549 0c-0.12,0 -0.231,-0.021 -0.321,-0.055zm0 4.375l0 6.239 158.177 0 0 -6.201c-0.058,0.011 -0.12,0.017 -0.184,0.017l-67.985 0c-0.156,0.061 -0.363,0.098 -0.59,0.098l-10.292 0 -0.044 -0.001 -0.003 0 -0.044 0.001 -10.292 0c-0.227,0 -0.434,-0.037 -0.59,-0.098l-67.832 0c-0.12,0 -0.231,-0.02 -0.321,-0.055zm158.177 -0.475l0 -1.203c-0.022,0.042 -0.096,0.072 -0.184,0.072l-67.702 0 0 1.114 67.702 0c0.064,0 0.126,0.006 0.184,0.017zm0 -1.253l0 -0.223c-0.022,0.041 -0.096,0.072 -0.184,0.072l-67.702 0 0 0.078 67.702 0c0.088,0 0.162,0.031 0.184,0.073zm0 -0.274l0 -0.809c-0.022,0.042 -0.096,0.073 -0.184,0.073l-67.702 0 0 0.664 67.702 0c0.088,0 0.162,0.03 0.184,0.072zm0 -0.859l0 -0.262c-0.022,0.041 -0.096,0.072 -0.184,0.072l-67.702 0 0 0.117 67.702 0c0.088,0 0.162,0.031 0.184,0.073zm0 -0.313l0 -1.163c-0.058,0.011 -0.12,0.017 -0.184,0.017l-67.702 0 0 1.074 67.702 0c0.088,0 0.162,0.03 0.184,0.072zm-69.632 2.584l0 -3.633 -8.546 0 0 3.633 8.546 0zm-10.384 0l0 -3.633 -8.545 0 0 3.633 8.545 0zm-474.235 66.897l0 6.239c0.123,-0.035 0.277,-0.055 0.443,-0.055l93.434 0c0.214,-0.06 0.5,-0.098 0.813,-0.098l14.177 0 0.061 0.001 0.003 0 0.062 -0.001 14.176 0c0.314,0 0.6,0.038 0.814,0.098l93.645 0c0.09,0 0.175,0.006 0.254,0.017l0 -6.201 -217.882 0zm0 6.676l0 3.939c0.123,-0.035 0.277,-0.055 0.443,-0.055l93.045 0 0 -1.114 -93.045 0c-0.145,0 -0.263,-0.044 -0.263,-0.097 0,-0.054 0.118,-0.098 0.263,-0.098l93.045 0 0 -0.078 -93.045 0c-0.145,0 -0.263,-0.044 -0.263,-0.098 0,-0.054 0.118,-0.098 0.263,-0.098l93.045 0 0 -0.664 -93.045 0c-0.145,0 -0.263,-0.043 -0.263,-0.097 0,-0.054 0.118,-0.098 0.263,-0.098l93.045 0 0 -0.117 -93.045 0c-0.145,0 -0.263,-0.044 -0.263,-0.098 0,-0.054 0.118,-0.098 0.263,-0.098l93.045 0 0 -1.074 -93.045 0c-0.166,0 -0.32,-0.02 -0.443,-0.055zm0 4.376l0 6.239 217.882 0 0 -6.201c-0.079,0.011 -0.164,0.017 -0.254,0.017l-93.646 0c-0.214,0.061 -0.499,0.097 -0.813,0.097l-14.176 0 -0.062 0 -0.003 0 -0.061 0 -14.177 0c-0.313,0 -0.598,-0.036 -0.812,-0.097l-93.435 0c-0.166,0 -0.32,-0.021 -0.443,-0.055zm217.882 -0.476l0 -1.202c-0.03,0.041 -0.132,0.072 -0.254,0.072l-93.256 0 0 1.114 93.256 0c0.09,0 0.175,0.006 0.254,0.016zm0 -1.253l0 -0.222c-0.03,0.041 -0.132,0.072 -0.254,0.072l-93.256 0 0 0.078 93.256 0c0.122,0 0.224,0.031 0.254,0.072zm0 -0.273l0 -0.809c-0.03,0.042 -0.132,0.072 -0.254,0.072l-93.256 0 0 0.664 93.256 0c0.122,0 0.224,0.031 0.254,0.073zm0 -0.86l0 -0.261c-0.03,0.041 -0.132,0.072 -0.254,0.072l-93.256 0 0 0.117 93.256 0c0.122,0 0.224,0.031 0.254,0.072zm0 -0.312l0 -1.163c-0.079,0.01 -0.164,0.016 -0.254,0.016l-93.256 0 0 1.074 93.256 0c0.122,0 0.224,0.031 0.254,0.073zm-95.915 2.584l0 -3.633 -11.772 0 0 3.633 11.772 0zm-14.303 0l0 -3.633 -11.771 0 0 3.633 11.771 0zm994.215 -768.422l-91.785 0 0 -96.331 91.785 0 0 96.331zm-719.8 788.388l0 168.034 -63.177 0 0 -168.034 63.177 0zm190.973 -788.388l0 -96.331 65.604 0 0 96.331 -65.604 0zm-4.599 325.024l0 -75.474 70.203 0 0 75.474 -70.203 0z"/>
 </g>
</svg>
