<?xml version="1.0" encoding="UTF-8"?>
<!DOCTYPE svg PUBLIC "-//W3C//DTD SVG 1.1//EN" "http://www.w3.org/Graphics/SVG/1.1/DTD/svg11.dtd">
<!-- Creator: CorelDRAW 2018 (64-Bit) -->
<svg xmlns="http://www.w3.org/2000/svg" xml:space="preserve" width="1219px" height="1079px" version="1.1" style="shape-rendering:geometricPrecision; text-rendering:geometricPrecision; image-rendering:optimizeQuality; fill-rule:evenodd; clip-rule:evenodd"
viewBox="0 0 1219 1079.173"
 xmlns:xlink="http://www.w3.org/1999/xlink">
 <defs>
  <style type="text/css">
   <![CDATA[
    .fil0 {fill:#FEFEFE}
   ]]>
  </style>
 </defs>
 <g id="Слой_x0020_1">
  <metadata id="CorelCorpID_0Corel-Layer"/>
  <path class="fil0" d="M0 0l0 23.427 0 408.8 0 11.713 0 356.799 0 23.426 0 0.287 23.427 0 0 -0.287 59.737 0 0 -23.426 -59.737 0 0 -356.799 84.02 0 0 -5.861 2.664 0c0.006,-1.863 0.067,-3.704 0.19,-5.564l-2.854 -0.159 0 -0.129 -84.02 0 0 -408.8 207.741 0 0 268.652 0 11.714 0 72.432 0 11.714 0 44.288 -30.162 0 0 -2.314 0 -77.073 0 -1.571 -1.413 0 -0.027 -1.26c-2.109,0.028 -4.203,0.128 -6.307,0.284l0.263 2.817c0.466,-0.035 0.931,-0.067 1.396,-0.095l0 85.059 6.088 0 0 5.866 30.162 0 0 99.29 0 10.927 0 0.787 25.002 0 0 -11.714 -13.289 0 0 -99.29 0 -11.713 0 -44.288 70.577 0 11.714 0 124.291 0 0 155.291 -95.29 0 0 11.714 95.29 0 11.713 0 0 -11.714 0 -155.291 0 -11.714 -11.713 0 -124.291 0 0 -72.432 0 -11.714 -11.714 0 -70.577 0 0 -268.652 791.886 0 0 77.003 2.886 0 0 182.59c0,0.11 0.04,0.199 0.09,0.202l-2.976 0 0 77.003 0 23.427 23.427 0 137.379 0 0 77.002 2.885 0 0 182.226c0,0.111 0.042,0.201 0.093,0.201l6.549 0 4.374 0 6.548 0c0.051,0 0.093,-0.09 0.093,-0.201l0 -182.226 2.885 0 0 -77.002 0 -23.427 -23.427 0 -137.379 0 0 -77.003 -2.976 0c0.051,-0.003 0.091,-0.092 0.091,-0.202l0 -182.59 2.885 0 0 -77.003 0 -23.427 -23.427 0 -791.886 0 -11.713 0 -207.741 0 -23.427 0zm358.563 474.761l-3.002 0 0 -14.976 -3.643 0 -10.118 14.403 0 3.811 10.017 0 0.034 5.599 3.71 0 0 -5.599 3.002 0 0 -3.238zm-6.678 0l-6.915 0 6.915 -10.22 0 10.22zm-1.703 26.279c-8.104,0 -15.442,-3.285 -20.753,-8.596 -5.311,-5.311 -8.596,-12.648 -8.596,-20.752 0,-8.104 3.285,-15.441 8.596,-20.752 5.311,-5.311 12.649,-8.597 20.753,-8.597 8.103,0 15.441,3.286 20.752,8.597 5.311,5.311 8.596,12.648 8.596,20.752 0,8.104 -3.285,15.441 -8.596,20.752 -5.311,5.311 -12.648,8.596 -20.752,8.596zm-17.373 -11.976c4.446,4.446 10.588,7.196 17.373,7.196 6.784,0 12.926,-2.75 17.372,-7.196 4.445,-4.445 7.195,-10.588 7.195,-17.372 0,-6.785 -2.75,-12.927 -7.195,-17.372 -4.446,-4.446 -10.588,-7.196 -17.372,-7.196 -6.785,0 -12.927,2.75 -17.373,7.196 -4.446,4.445 -7.195,10.587 -7.195,17.372 0,6.784 2.749,12.927 7.195,17.372zm314.06 -191.362l-11.501 0c0.809,-1.956 3.339,-3.643 5.059,-4.756 3.305,-2.192 6.476,-4.149 6.476,-8.601 0,-4.283 -3.036,-7.083 -7.623,-7.083 -4.857,0 -7.926,3.238 -7.926,8.298l0 0.607 3.744 0c0.067,-2.766 0.607,-5.599 4.081,-5.599 2.361,0 3.811,1.517 3.811,3.98 0,3.271 -2.833,4.755 -5.194,6.341 -4.014,2.698 -6.881,4.823 -7.049,10.22l16.122 0 0 -3.407zm-8.044 20.832c-8.104,0 -15.442,-3.285 -20.753,-8.596 -5.31,-5.311 -8.596,-12.649 -8.596,-20.753 0,-8.103 3.286,-15.441 8.596,-20.752 5.311,-5.311 12.649,-8.596 20.753,-8.596 8.103,0 15.441,3.285 20.752,8.596 5.311,5.311 8.596,12.649 8.596,20.752 0,8.104 -3.285,15.442 -8.596,20.753 -5.311,5.311 -12.648,8.596 -20.752,8.596zm-17.373 -11.976c4.446,4.445 10.588,7.195 17.373,7.195 6.784,0 12.926,-2.75 17.372,-7.195 4.446,-4.446 7.196,-10.588 7.196,-17.373 0,-6.784 -2.75,-12.926 -7.196,-17.372 -4.446,-4.446 -10.588,-7.196 -17.372,-7.196 -6.785,0 -12.927,2.75 -17.373,7.196 -4.445,4.446 -7.195,10.588 -7.195,17.372 0,6.785 2.75,12.927 7.195,17.373zm-487.223 -90.688l-12.177 0 -2.26 12.716 3.374 0.101c1.011,-1.518 2.192,-2.125 3.946,-2.125 2.799,0 4.452,1.822 4.452,4.958 0,3.238 -1.585,5.093 -4.385,5.093 -2.395,0 -4.081,-1.551 -4.283,-3.98l-3.812 0c0.202,4.351 3.339,7.151 7.994,7.151 4.958,0 8.432,-3.474 8.432,-8.466 0,-4.621 -2.934,-7.724 -7.319,-7.724 -1.754,0 -3.238,0.405 -4.452,1.686l1.079 -6.071 9.411 0 0 -3.339zm-6.932 41.305c-8.103,0 -15.441,-3.285 -20.752,-8.596 -5.311,-5.311 -8.596,-12.648 -8.596,-20.752 0,-8.104 3.285,-15.441 8.596,-20.752 5.311,-5.311 12.649,-8.597 20.752,-8.597 8.104,0 15.442,3.286 20.752,8.597 5.312,5.311 8.597,12.648 8.597,20.752 0,8.104 -3.285,15.441 -8.597,20.752 -5.31,5.311 -12.648,8.596 -20.752,8.596zm-17.372 -11.976c4.445,4.446 10.588,7.196 17.372,7.196 6.785,0 12.927,-2.75 17.373,-7.196 4.445,-4.445 7.195,-10.588 7.195,-17.372 0,-6.785 -2.75,-12.927 -7.195,-17.372 -4.446,-4.446 -10.588,-7.196 -17.373,-7.196 -6.784,0 -12.927,2.75 -17.372,7.196 -4.446,4.445 -7.196,10.587 -7.196,17.372 0,6.784 2.75,12.927 7.196,17.372zm44.212 380.754l-3.103 0c-0.675,4.114 -4.351,4.587 -6.881,4.587l0 2.833 5.869 0 0 16.325 4.115 0 0 -23.745zm-3.491 41.187c-8.104,0 -15.441,-3.285 -20.752,-8.596 -5.311,-5.311 -8.596,-12.649 -8.596,-20.752 0,-8.104 3.285,-15.442 8.596,-20.753 5.311,-5.311 12.648,-8.596 20.752,-8.596 8.104,0 15.442,3.285 20.752,8.596 5.311,5.311 8.597,12.649 8.597,20.753 0,8.103 -3.286,15.441 -8.597,20.752 -5.31,5.311 -12.648,8.596 -20.752,8.596zm-17.372 -11.976c4.445,4.445 10.588,7.195 17.372,7.195 6.785,0 12.927,-2.75 17.372,-7.195 4.446,-4.446 7.196,-10.588 7.196,-17.372 0,-6.785 -2.75,-12.927 -7.196,-17.373 -4.445,-4.446 -10.587,-7.196 -17.372,-7.196 -6.784,0 -12.927,2.75 -17.372,7.196 -4.446,4.446 -7.196,10.588 -7.196,17.373 0,6.784 2.75,12.926 7.196,17.372zm607.891 237.583l3.677 0c0.101,-3.036 1.484,-4.655 3.946,-4.655 2.192,0 3.609,1.383 3.609,3.441 0,3.035 -2.496,3.406 -4.857,3.406l-0.337 0 0 2.901c0.573,-0.034 0.775,-0.034 1.214,-0.034 2.529,0 4.722,1.046 4.722,3.947 0,2.597 -1.653,4.216 -4.25,4.216 -2.968,0 -4.486,-1.653 -4.587,-4.958l-3.71 0 0 0.506c0,4.654 3.271,7.757 8.196,7.757 4.924,0 8.365,-3.103 8.365,-7.623 0,-2.833 -1.619,-4.89 -4.284,-5.565 2.024,-0.674 3.306,-2.529 3.306,-4.823 0,-3.778 -2.969,-6.341 -7.32,-6.341 -4.654,0 -7.555,2.968 -7.69,7.825zm7.707 33.7c-8.104,0 -15.441,-3.286 -20.752,-8.596 -5.311,-5.311 -8.596,-12.649 -8.596,-20.753 0,-8.104 3.285,-15.441 8.596,-20.752 5.311,-5.311 12.648,-8.596 20.752,-8.596 8.104,0 15.442,3.285 20.752,8.596 5.311,5.311 8.597,12.648 8.597,20.752 0,8.104 -3.286,15.441 -8.597,20.753 -5.31,5.31 -12.648,8.596 -20.752,8.596zm-17.372 -11.976c4.445,4.445 10.588,7.195 17.372,7.195 6.785,0 12.927,-2.75 17.372,-7.195 4.446,-4.446 7.196,-10.588 7.196,-17.373 0,-6.784 -2.75,-12.927 -7.196,-17.372 -4.445,-4.446 -10.587,-7.196 -17.372,-7.196 -6.784,0 -12.927,2.75 -17.372,7.196 -4.446,4.445 -7.196,10.588 -7.196,17.372 0,6.784 2.75,12.927 7.196,17.373zm467.144 -453.817l6.182 0 0 78.217c-0.061,0.179 -0.097,0.418 -0.097,0.681l0 11.867 0 0.051 0 0.002 0 0.052 0 11.868c0,0.262 0.036,0.501 0.097,0.68l0 78.394c0,0.074 0.006,0.146 0.017,0.212l-6.199 0 0 -182.024zm6.712 182.024c0.011,-0.066 0.017,-0.138 0.017,-0.212l0 -78.068 1.113 0 0 78.068c0,0.101 0.031,0.187 0.073,0.212l-1.203 0zm1.253 0c0.042,-0.025 0.072,-0.111 0.072,-0.212l0 -78.068 0.079 0 0 78.068c0,0.101 0.03,0.187 0.072,0.212l-0.223 0zm0.273 0c0.042,-0.025 0.073,-0.111 0.073,-0.212l0 -78.068 0.664 0 0 78.068c0,0.101 0.03,0.187 0.072,0.212l-0.809 0zm0.86 0c0.041,-0.025 0.072,-0.111 0.072,-0.212l0 -78.068 0.117 0 0 78.068c0,0.101 0.031,0.187 0.072,0.212l-0.261 0zm0.312 0c0.042,-0.025 0.073,-0.111 0.073,-0.212l0 -78.068 1.073 0 0 78.068c0,0.074 0.006,0.146 0.017,0.212l-1.163 0zm1.677 0c0.01,-0.066 0.016,-0.138 0.016,-0.212l0 -78.394c0.061,-0.179 0.098,-0.418 0.098,-0.68l0 -11.868 -0.001 -0.052 0 -0.002 0.001 -0.051 0 -11.867c0,-0.263 -0.037,-0.502 -0.098,-0.681l0 -78.217 6.182 0 0 182.024 -6.198 0zm-4.26 -80.293l3.632 0 0 -9.854 -3.632 0 0 9.854zm-0.098 -23.84l0 -77.891 1.113 0 0 77.891 -1.113 0zm1.308 0l0 -77.891 0.079 0 0 77.891 -0.079 0zm0.274 0l0 -77.891 0.664 0 0 77.891 -0.664 0zm0.859 0l0 -77.891 0.117 0 0 77.891 -0.117 0zm0.313 0l0 -77.891 1.073 0 0 77.891 -1.073 0zm-2.656 11.867l3.632 0 0 -9.854 -3.632 0 0 9.854zm-147.476 252.04l137.578 0 23.427 0 0 -23.427 0 -40.575 0 -23.427 0 -69.789 -23.427 0 0 69.789 -137.578 0 -23.427 0 -450.388 0 0 11.708 -3.107 0c-0.006,1.863 -0.067,3.704 -0.19,5.564l3.101 0.173c0.127,-1.918 0.19,-3.815 0.196,-5.737l0 11.719 450.388 0 0 40.575 0 23.427 2.976 0c-0.051,0.002 -0.091,0.095 -0.091,0.208l0 188.876c0,0.113 0.04,0.206 0.091,0.208l-2.976 0 0 64.002 -774.972 0 0 -231.581 156.727 0 0 36.789 23.427 0 23.426 0 0 -36.789 0 -23.426 0 -62.289 27.002 0 0 73.521 0 1.571 1.413 0 0.026 1.26c2.11,-0.028 4.204,-0.129 6.307,-0.285l-0.262 -2.817c-0.466,0.035 -0.931,0.067 -1.397,0.096l0 -85.06 -6.087 0 0 -11.713 -27.002 0 -23.426 0 -23.427 0 0 23.427 0 62.289 -156.727 0 0 -0.288 -16.715 0 0 -74.001 -11.713 0 0 74.289 -32 0 0 11.714 -7.513 0 0 104.965c-0.574,-0.035 -1.148,-0.075 -1.723,-0.118l-0.324 3.477c2.595,0.191 5.18,0.316 7.783,0.35l0.033 -1.555 1.744 0 0 -1.938 0 -93.469 32 0 5.001 0 0 231.581 0 23.427 23.427 0 774.972 0 23.427 0 0 -23.427 0 -64.002 -2.976 0c0.05,-0.002 0.091,-0.095 0.091,-0.208l0 -188.876c0,-0.113 -0.041,-0.206 -0.091,-0.208l2.976 0zm137.578 -23.427l-137.578 0 0 -40.575 137.578 0 0 40.575zm-157.735 -678.595l6.236 0c-0.034,0.102 -0.054,0.228 -0.054,0.365l0 78.217c-0.06,0.179 -0.097,0.418 -0.097,0.68l0 11.867 0 0.052 0 0.002 0 0.052 0 11.867c0,0.262 0.037,0.501 0.097,0.681l0 78.393c0,0.075 0.006,0.147 0.017,0.213l-6.199 0 0 -182.389zm11.087 182.389c0.011,-0.066 0.017,-0.138 0.017,-0.213l0 -78.393c0.06,-0.18 0.097,-0.419 0.097,-0.681l0 -11.867 0 -0.052 0 -0.002 0 -0.052 0 -11.867c0,-0.262 -0.037,-0.501 -0.097,-0.68l0 -78.217c0,-0.137 -0.02,-0.263 -0.054,-0.365l6.235 0 0 182.389 -6.198 0zm-4.374 0l1.202 0c-0.042,-0.026 -0.073,-0.111 -0.073,-0.213l0 -78.067 -1.113 0 0 78.067c0,0.075 -0.006,0.147 -0.016,0.213zm1.252 0l0.223 0c-0.041,-0.026 -0.072,-0.111 -0.072,-0.213l0 -78.067 -0.078 0 0 78.067c0,0.102 -0.031,0.187 -0.073,0.213zm0.274 0l0.808 0c-0.041,-0.026 -0.072,-0.111 -0.072,-0.213l0 -78.067 -0.664 0 0 78.067c0,0.102 -0.031,0.187 -0.072,0.213zm0.859 0l0.262 0c-0.042,-0.026 -0.073,-0.111 -0.073,-0.213l0 -78.067 -0.117 0 0 78.067c0,0.102 -0.03,0.187 -0.072,0.213zm0.313 0l1.162 0c-0.01,-0.066 -0.016,-0.138 -0.016,-0.213l0 -78.067 -1.074 0 0 78.067c0,0.102 -0.031,0.187 -0.072,0.213zm-2.584 -80.293l3.632 0 0 -9.854 -3.632 0 0 9.854zm-0.098 -23.841l0 -77.89c0,-0.137 -0.019,-0.263 -0.053,-0.365l3.934 0c-0.034,0.102 -0.053,0.228 -0.053,0.365l0 77.89 -1.074 0 0 -77.89c0,-0.121 -0.044,-0.22 -0.098,-0.22 -0.054,0 -0.098,0.099 -0.098,0.22l0 77.89 -0.117 0 0 -77.89c0,-0.121 -0.044,-0.22 -0.097,-0.22 -0.054,0 -0.098,0.099 -0.098,0.22l0 77.89 -0.664 0 0 -77.89c0,-0.121 -0.044,-0.22 -0.098,-0.22 -0.053,0 -0.097,0.099 -0.097,0.22l0 77.89 -0.078 0 0 -77.89c0,-0.121 -0.044,-0.22 -0.098,-0.22 -0.054,0 -0.098,0.099 -0.098,0.22l0 77.89 -1.113 0zm0.098 11.868l3.632 0 0 -9.855 -3.632 0 0 9.855zm10.259 612.315l-6.237 0c0.035,0.107 0.055,0.239 0.055,0.383l0 80.818c0.061,0.185 0.098,0.432 0.098,0.703l0 12.261 -0.001 0.054 0 0.002 0.001 0.054 0 12.261c0,0.271 -0.037,0.518 -0.098,0.703l0 81.001c0,0.077 -0.006,0.151 -0.017,0.22l6.199 0 0 -188.46zm-6.674 0l-3.937 0c0.034,0.107 0.055,0.239 0.055,0.383l0 80.48 1.113 0 0 -80.48c0,-0.125 0.044,-0.227 0.098,-0.227 0.053,0 0.097,0.102 0.097,0.227l0 80.48 0.078 0 0 -80.48c0,-0.125 0.044,-0.227 0.098,-0.227 0.054,0 0.098,0.102 0.098,0.227l0 80.48 0.663 0 0 -80.48c0,-0.125 0.044,-0.227 0.098,-0.227 0.054,0 0.098,0.102 0.098,0.227l0 80.48 0.117 0 0 -80.48c0,-0.125 0.044,-0.227 0.097,-0.227 0.055,0 0.098,0.102 0.098,0.227l0 80.48 1.074 0 0 -80.48c0,-0.144 0.02,-0.276 0.055,-0.383zm-4.374 0l-6.237 0 0 188.46 6.198 0c-0.01,-0.069 -0.016,-0.143 -0.016,-0.22l0 -81.001c-0.061,-0.185 -0.098,-0.432 -0.098,-0.703l0 -12.261 0.001 -0.054 0 -0.002 -0.001 -0.054 0 -12.261c0,-0.271 0.037,-0.518 0.098,-0.703l0 -80.818c0,-0.144 0.02,-0.276 0.055,-0.383zm0.475 188.46l1.202 0c-0.041,-0.026 -0.072,-0.115 -0.072,-0.22l0 -80.663 -1.113 0 0 80.663c0,0.077 -0.006,0.151 -0.017,0.22zm1.253 0l0.223 0c-0.042,-0.026 -0.073,-0.115 -0.073,-0.22l0 -80.663 -0.078 0 0 80.663c0,0.105 -0.031,0.194 -0.072,0.22zm0.273 0l0.809 0c-0.042,-0.026 -0.073,-0.115 -0.073,-0.22l0 -80.663 -0.663 0 0 80.663c0,0.105 -0.031,0.194 -0.073,0.22zm0.859 0l0.262 0c-0.041,-0.026 -0.072,-0.115 -0.072,-0.22l0 -80.663 -0.117 0 0 80.663c0,0.105 -0.031,0.194 -0.073,0.22zm0.313 0l1.163 0c-0.011,-0.069 -0.017,-0.143 -0.017,-0.22l0 -80.663 -1.074 0 0 80.663c0,0.105 -0.03,0.194 -0.072,0.22zm-2.584 -82.963l3.633 0 0 -10.182 -3.633 0 0 10.182zm0 -12.372l3.633 0 0 -10.181 -3.633 0 0 10.181zm-854.357 -545.409c-2.098,0.23 -4.163,0.521 -6.24,0.874l0.582 2.778c2.012,-0.342 4.01,-0.623 6.042,-0.847l-0.384 -2.805zm-9.341 1.461c-2.011,0.416 -4.153,0.889 -6.114,1.462l0.91 2.703c1.947,-0.535 3.92,-1 5.904,-1.41l-0.7 -2.755zm-9.121 2.335c-1.993,0.609 -3.974,1.292 -5.914,2.03l1.206 2.606c1.874,-0.712 3.786,-1.372 5.712,-1.96l-1.004 -2.676zm-8.805 3.18c-1.896,0.76 -3.828,1.675 -5.652,2.573l1.485 2.483c1.763,-0.868 3.628,-1.751 5.461,-2.485l-1.294 -2.571zm-8.406 3.99c-1.815,0.97 -3.596,2 -5.333,3.081l1.76 2.33c1.681,-1.044 3.402,-2.04 5.157,-2.978l-1.584 -2.433zm-7.915 4.745c-1.698,1.139 -3.351,2.315 -4.965,3.552l2.013 2.154c1.559,-1.197 3.164,-2.335 4.805,-3.436l-1.853 -2.27zm-7.344 5.436c-1.567,1.277 -3.081,2.614 -4.552,3.983l2.23 1.969c1.421,-1.325 2.89,-2.619 4.405,-3.854l-2.083 -2.098zm-6.72 6.077c-1.417,1.419 -2.785,2.872 -4.099,4.371l2.437 1.755c1.268,-1.45 2.598,-2.858 3.967,-4.23l-2.305 -1.896zm-6.025 6.642c-1.263,1.53 -2.463,3.111 -3.611,4.714l2.609 1.536c1.11,-1.55 2.272,-3.082 3.494,-4.562l-2.492 -1.688zm-5.291 7.152c-1.09,1.648 -2.11,3.309 -3.089,5.012l2.765 1.288c0.979,-1.648 1.927,-3.241 2.991,-4.849l-2.667 -1.451zm-4.496 7.58c-0.909,1.734 -1.753,3.479 -2.542,5.26l2.889 1.043c0.748,-1.718 1.585,-3.422 2.459,-5.091l-2.806 -1.212zm-3.67 7.941c-0.72,1.799 -1.381,3.622 -1.972,5.46l2.986 0.783c0.573,-1.778 1.211,-3.539 1.907,-5.281l-2.921 -0.962zm-2.81 8.226c-0.529,1.857 -0.986,3.726 -1.386,5.609l3.055 0.516c0.375,-1.813 0.832,-3.636 1.342,-5.423l-3.011 -0.702zm-1.929 8.435c-0.327,1.894 -0.59,3.787 -0.788,5.696l3.093 0.26c0.195,-1.852 0.449,-3.684 0.766,-5.522l-3.071 -0.434zm392.841 390.443c2.097,-0.23 4.163,-0.521 6.24,-0.875l-0.582 -2.777c-2.012,0.342 -4.01,0.622 -6.042,0.846l0.384 2.806zm9.34 -1.462c2.012,-0.416 4.154,-0.889 6.115,-1.462l-0.91 -2.703c-1.948,0.535 -3.921,1 -5.904,1.41l0.699 2.755zm9.122 -2.335c1.993,-0.609 3.974,-1.292 5.914,-2.03l-1.206 -2.605c-1.875,0.711 -3.787,1.371 -5.712,1.959l1.004 2.676zm8.805 -3.18c1.896,-0.759 3.827,-1.675 5.652,-2.572l-1.485 -2.484c-1.764,0.868 -3.628,1.751 -5.461,2.486l1.294 2.57zm8.406 -3.99c1.815,-0.969 3.596,-2 5.333,-3.081l-1.761 -2.33c-1.681,1.045 -3.402,2.041 -5.157,2.979l1.585 2.432zm7.915 -4.744c1.698,-1.14 3.35,-2.316 4.965,-3.553l-2.014 -2.153c-1.557,1.196 -3.164,2.335 -4.804,3.436l1.853 2.27zm7.343 -5.437c1.568,-1.277 3.082,-2.613 4.552,-3.982l-2.229 -1.969c-1.422,1.324 -2.89,2.619 -4.406,3.853l2.083 2.098zm6.721 -6.077c1.416,-1.418 2.784,-2.872 4.098,-4.37l-2.436 -1.756c-1.268,1.451 -2.598,2.859 -3.967,4.231l2.305 1.895zm6.025 -6.642c1.263,-1.53 2.462,-3.111 3.611,-4.714l-2.609 -1.536c-1.11,1.551 -2.272,3.083 -3.494,4.562l2.492 1.688zm5.291 -7.152c1.09,-1.647 2.11,-3.308 3.089,-5.012l-2.765 -1.288c-0.979,1.648 -1.927,3.241 -2.992,4.849l2.668 1.451zm4.496 -7.58c0.909,-1.733 1.752,-3.479 2.542,-5.26l-2.889 -1.043c-0.749,1.719 -1.585,3.423 -2.459,5.091l2.806 1.212zm3.67 -7.941c0.72,-1.799 1.38,-3.621 1.971,-5.46l-2.985 -0.783c-0.573,1.778 -1.211,3.539 -1.908,5.281l2.922 0.962zm2.81 -8.226c0.528,-1.857 0.986,-3.725 1.385,-5.608l-3.054 -0.517c-0.375,1.814 -0.833,3.637 -1.342,5.424l3.011 0.701zm1.928 -8.435c0.327,-1.894 0.591,-3.787 0.789,-5.695l-3.093 -0.26c-0.195,1.852 -0.449,3.683 -0.766,5.522l3.07 0.433zm-499.539 78.5c-0.157,-2.367 -0.235,-4.708 -0.243,-7.08l3.834 0c0.008,2.3 0.084,4.571 0.235,6.867l-3.826 0.213zm102.309 100.892c-2.587,-0.284 -5.136,-0.644 -7.699,-1.08l0.718 -3.427c2.483,0.422 4.948,0.769 7.456,1.045l-0.475 3.462zm-11.526 -1.804c-2.481,-0.513 -5.125,-1.097 -7.545,-1.804l1.123 -3.335c2.403,0.66 4.838,1.234 7.286,1.74l-0.864 3.399zm-11.255 -2.881c-2.46,-0.751 -4.904,-1.594 -7.298,-2.505l1.487 -3.215c2.314,0.878 4.674,1.692 7.05,2.418l-1.239 3.302zm-10.866 -3.924c-2.34,-0.937 -4.723,-2.067 -6.975,-3.175l1.833 -3.064c2.176,1.07 4.476,2.161 6.739,3.066l-1.597 3.173zm-10.374 -4.924c-2.239,-1.197 -4.437,-2.469 -6.58,-3.802l2.172 -2.875c2.074,1.289 4.199,2.518 6.364,3.675l-1.956 3.002zm-9.767 -5.855c-2.095,-1.406 -4.134,-2.858 -6.126,-4.384l2.484 -2.657c1.923,1.477 3.904,2.881 5.929,4.24l-2.287 2.801zm-9.062 -6.709c-1.934,-1.576 -3.802,-3.225 -5.617,-4.914l2.751 -2.43c1.754,1.634 3.566,3.231 5.437,4.755l-2.571 2.589zm-8.293 -7.499c-1.748,-1.751 -3.437,-3.544 -5.058,-5.393l3.007 -2.166c1.565,1.79 3.206,3.527 4.896,5.22l-2.845 2.339zm-7.434 -8.196c-1.56,-1.888 -3.04,-3.839 -4.457,-5.818l3.219 -1.895c1.37,1.913 2.805,3.804 4.312,5.629l-3.074 2.084zm-6.53 -8.826c-1.345,-2.033 -2.604,-4.083 -3.812,-6.185l3.412 -1.589c1.208,2.033 2.378,3.999 3.692,5.984l-3.292 1.79zm-5.548 -9.354c-1.122,-2.139 -2.163,-4.293 -3.137,-6.491l3.564 -1.287c0.924,2.121 1.957,4.224 3.035,6.282l-3.462 1.496zm-4.53 -9.799c-0.888,-2.221 -1.703,-4.469 -2.432,-6.738l3.684 -0.966c0.707,2.194 1.494,4.368 2.354,6.516l-3.606 1.188zm-3.466 -10.152c-0.653,-2.291 -1.217,-4.597 -1.71,-6.921l3.769 -0.637c0.463,2.238 1.027,4.488 1.655,6.693l-3.714 0.865zm-2.381 -10.409c-0.403,-2.336 -0.728,-4.673 -0.973,-7.028l3.817 -0.321c0.241,2.286 0.554,4.546 0.946,6.815l-3.79 0.534zm158.195 -453.861l0 -72.432 70.577 0 0 72.432 -70.577 0z"/>
 </g>
</svg>
