<svg width="41" height="30" viewBox="0 0 41 30" fill="none" xmlns="http://www.w3.org/2000/svg">
<path d="M10.9488 18.1713C13.0489 18.1713 14.7438 17.2412 14.7438 14.7812V14.4962C14.7438 13.2812 14.099 12.6212 13.2139 12.2913C13.9639 11.9462 14.3688 10.926 14.3688 9.83126C14.3688 7.80608 12.929 7.11621 11.0237 7.11621C8.44377 7.11621 7.60403 8.63101 7.60403 9.80104C7.60403 10.5211 7.7388 10.7462 8.81877 10.7462C9.68873 10.7462 9.91386 10.4012 9.91386 9.89109C9.91386 9.30608 10.2889 9.12629 11.0237 9.12629C11.639 9.12629 12.1339 9.3363 12.1339 10.2063C12.1339 11.4213 11.5338 11.4962 10.9639 11.4962C10.4538 11.4962 10.2889 11.9462 10.2889 12.3964C10.2889 12.8464 10.4538 13.2963 10.9639 13.2963C11.7889 13.2963 12.4041 13.4912 12.4041 14.4962V14.7812C12.4041 15.7563 12.0439 16.1313 11.0241 16.1313C10.349 16.1313 9.68904 15.9663 9.68904 15.2614C9.68904 14.6911 9.44881 14.4811 8.4891 14.4811C7.66386 14.4811 7.37891 14.6612 7.37891 15.3363C7.37891 16.5964 8.36883 18.1713 10.9488 18.1713Z" fill="white"/>
<path fill-rule="evenodd" clip-rule="evenodd" d="M21.5356 10.0262C21.5356 9.45626 20.9354 9.1562 20.2305 9.1562C19.3457 9.1562 18.8205 9.62094 18.8205 10.6562V12.006C19.3007 11.4811 19.9757 11.3464 20.6955 11.3464C22.4055 11.3464 23.8457 12.0964 23.8457 14.4962V14.6313C23.8457 17.2113 22.2405 18.1713 20.1706 18.1713C18.1004 18.1713 16.4805 17.2113 16.4805 14.6313V10.6562C16.4805 8.07622 18.1455 7.11621 20.3057 7.11621C22.8407 7.11621 23.8457 8.69115 23.8457 9.93611C23.8457 10.6562 23.5006 10.881 22.7506 10.881C22.1055 10.881 21.5356 10.716 21.5356 10.0262ZM21.5057 14.6612C21.5057 13.5661 21.0107 13.1461 20.1555 13.1461C19.3457 13.1461 18.8205 13.5362 18.8205 14.5262V14.7963C18.8205 15.8313 19.3306 16.2812 20.1706 16.2812C21.0107 16.2812 21.5057 15.8313 21.5057 14.7963V14.6612Z" fill="white"/>
<path d="M29.351 13.4155C29.8158 13.4155 30.101 13.1003 30.101 12.6504C30.101 12.1853 29.8158 11.9004 29.351 11.9004C28.8709 11.9004 28.5859 12.1853 28.5859 12.6504C28.5859 13.1003 28.8709 13.4155 29.351 13.4155Z" fill="white"/>
<path fill-rule="evenodd" clip-rule="evenodd" d="M33.029 14.631C33.029 17.2113 31.409 18.1713 29.3391 18.1713C27.2689 18.1713 25.6641 17.2113 25.6641 14.631V10.6562C25.6641 8.07592 27.2689 7.11621 29.3391 7.11621C31.409 7.11621 33.029 8.07592 33.029 10.6562V14.631ZM29.3391 9.1562C28.4991 9.1562 28.0041 9.62125 28.0041 10.6562V14.6313C28.0041 15.6663 28.4991 16.1313 29.3391 16.1313C30.1792 16.1313 30.6889 15.6663 30.6889 14.6313V10.6562C30.6889 9.62125 30.1792 9.1562 29.3391 9.1562Z" fill="white"/>
<path fill-rule="evenodd" clip-rule="evenodd" d="M39.4217 3.55263C39.4217 5.51151 37.8279 7.10526 35.869 7.10526C33.9098 7.10526 32.3164 5.51151 32.3164 3.55263C32.3164 1.59375 33.9098 0 35.869 0C37.8279 0 39.4217 1.59375 39.4217 3.55263ZM37.0532 3.55263C37.0532 2.89977 36.5219 2.36842 35.869 2.36842C35.2159 2.36842 34.6848 2.89977 34.6848 3.55263C34.6848 4.20549 35.2159 4.73684 35.869 4.73684C36.5219 4.73684 37.0532 4.20549 37.0532 3.55263Z" fill="white"/>
<path d="M36.8576 11.566C36.3188 11.1956 35.5815 11.3316 35.2108 11.8706C34.8401 12.4094 34.9764 13.1468 35.5152 13.5174C36.6732 14.314 38.0538 15.5913 38.0538 17.1521C38.0538 18.5682 36.8742 20.0352 34.7319 21.2836C32.3894 22.6482 29.0384 23.6625 25.2964 24.1389C24.6476 24.2216 24.1887 24.8146 24.2713 25.4635C24.3475 26.0614 24.8573 26.4981 25.4444 26.4981C25.4944 26.4981 25.545 26.495 25.5959 26.4886C29.7042 25.9652 33.2757 24.8729 35.9241 23.3297C38.8667 21.6154 40.4222 19.4792 40.4222 17.1521C40.4222 15.1019 39.1896 13.1702 36.8576 11.566Z" fill="white"/>
<path d="M17.8899 21.6437C17.4276 21.1811 16.6776 21.1811 16.2154 21.6437C15.7528 22.106 15.7528 22.856 16.2154 23.3182L17.2466 24.3498C13.4602 24.08 9.9816 23.2948 7.2391 22.0717C4.14381 20.6908 2.36842 18.8978 2.36842 17.152C2.36842 15.7584 3.51748 14.3099 5.60372 13.0733C6.16653 12.7396 6.35218 12.0133 6.01881 11.4508C5.68514 10.888 4.95888 10.7024 4.39607 11.0357C0.762644 13.1895 0 15.5506 0 17.152C0 19.9146 2.22841 22.4298 6.27447 24.2348C9.3494 25.6062 13.2397 26.4709 17.4387 26.7358L16.2154 27.9595C15.7528 28.4217 15.7528 29.1717 16.2154 29.634C16.4466 29.8653 16.7495 29.981 17.0526 29.981C17.3558 29.981 17.6589 29.8653 17.8899 29.634L21.0478 26.4761C21.5104 26.0139 21.5104 25.2642 21.0478 24.8016L17.8899 21.6437Z" fill="white"/>
</svg>
