<svg width="42" height="42" viewBox="0 0 42 42" fill="none" xmlns="http://www.w3.org/2000/svg">
<path d="M15.2979 23.1142C16.698 23.1142 17.8279 22.4941 17.8279 20.8541V20.6642C17.8279 19.8541 17.398 19.4142 16.808 19.1942C17.308 18.9641 17.5779 18.284 17.5779 17.5542C17.5779 16.2041 16.618 15.7441 15.3479 15.7441C13.6279 15.7441 13.0681 16.754 13.0681 17.534C13.0681 18.0141 13.1579 18.1642 13.8779 18.1642C14.4579 18.1642 14.6079 17.9341 14.6079 17.5941C14.6079 17.2041 14.8579 17.0842 15.3479 17.0842C15.758 17.0842 16.088 17.2242 16.088 17.8042C16.088 18.6142 15.6879 18.6642 15.308 18.6642C14.9679 18.6642 14.8579 18.9641 14.8579 19.2643C14.8579 19.5642 14.9679 19.8642 15.308 19.8642C15.8579 19.8642 16.2681 19.9941 16.2681 20.6642V20.8541C16.2681 21.5042 16.028 21.7542 15.3481 21.7542C14.898 21.7542 14.4581 21.6442 14.4581 21.1742C14.4581 20.7941 14.2979 20.6541 13.6581 20.6541C13.1079 20.6541 12.918 20.7742 12.918 21.2242C12.918 22.0642 13.5779 23.1142 15.2979 23.1142Z" fill="white"/>
<path fill-rule="evenodd" clip-rule="evenodd" d="M22.3583 17.6841C22.3583 17.3042 21.9583 17.1041 21.4883 17.1041C20.8984 17.1041 20.5483 17.414 20.5483 18.1041V19.004C20.8684 18.6541 21.3185 18.5642 21.7983 18.5642C22.9383 18.5642 23.8984 19.0642 23.8984 20.6642V20.7542C23.8984 22.4742 22.8283 23.1142 21.4484 23.1142C20.0683 23.1142 18.9883 22.4742 18.9883 20.7542V18.1041C18.9883 16.3841 20.0983 15.7441 21.5384 15.7441C23.2284 15.7441 23.8984 16.7941 23.8984 17.6241C23.8984 18.1041 23.6684 18.254 23.1684 18.254C22.7383 18.254 22.3583 18.144 22.3583 17.6841ZM22.3384 20.7742C22.3384 20.0441 22.0084 19.7641 21.4383 19.7641C20.8984 19.7641 20.5483 20.0242 20.5483 20.6841V20.8642C20.5483 21.5542 20.8884 21.8541 21.4484 21.8541C22.0084 21.8541 22.3384 21.5542 22.3384 20.8642V20.7742Z" fill="white"/>
<path d="M27.5687 19.9437C27.8785 19.9437 28.0687 19.7336 28.0687 19.4336C28.0687 19.1236 27.8785 18.9336 27.5687 18.9336C27.2486 18.9336 27.0586 19.1236 27.0586 19.4336C27.0586 19.7336 27.2486 19.9437 27.5687 19.9437Z" fill="white"/>
<path fill-rule="evenodd" clip-rule="evenodd" d="M30.0193 20.754C30.0193 22.4742 28.9394 23.1142 27.5594 23.1142C26.1793 23.1142 25.1094 22.4742 25.1094 20.754V18.1041C25.1094 16.3839 26.1793 15.7441 27.5594 15.7441C28.9394 15.7441 30.0193 16.3839 30.0193 18.1041V20.754ZM27.5594 17.1041C26.9994 17.1041 26.6694 17.4142 26.6694 18.1041V20.7542C26.6694 21.4442 26.9994 21.7542 27.5594 21.7542C28.1194 21.7542 28.4593 21.4442 28.4593 20.7542V18.1041C28.4593 17.4142 28.1194 17.1041 27.5594 17.1041Z" fill="white"/>
<path fill-rule="evenodd" clip-rule="evenodd" d="M34.2798 13.3684C34.2798 14.6743 33.2173 15.7368 31.9114 15.7368C30.6053 15.7368 29.543 14.6743 29.543 13.3684C29.543 12.0625 30.6053 11 31.9114 11C33.2173 11 34.2798 12.0625 34.2798 13.3684ZM32.7009 13.3684C32.7009 12.9332 32.3466 12.5789 31.9114 12.5789C31.4759 12.5789 31.1219 12.9332 31.1219 13.3684C31.1219 13.8037 31.4759 14.1579 31.9114 14.1579C32.3466 14.1579 32.7009 13.8037 32.7009 13.3684Z" fill="white"/>
<path d="M32.5691 18.7103C32.21 18.4634 31.7184 18.5541 31.4713 18.9134C31.2241 19.2726 31.315 19.7642 31.6742 20.0113C32.4462 20.5423 33.3666 21.3939 33.3666 22.4344C33.3666 23.3785 32.5802 24.3565 31.152 25.1887C29.5903 26.0985 27.3563 26.7747 24.8617 27.0923C24.4291 27.1474 24.1232 27.5428 24.1783 27.9753C24.2291 28.374 24.5689 28.6651 24.9604 28.6651C24.9937 28.6651 25.0274 28.663 25.0613 28.6587C27.8002 28.3098 30.1812 27.5816 31.9468 26.5528C33.9086 25.4099 34.9456 23.9858 34.9456 22.4344C34.9456 21.0676 34.1238 19.7798 32.5691 18.7103V18.7103Z" fill="white"/>
<path d="M19.9266 25.4294C19.6184 25.1211 19.1184 25.1211 18.8102 25.4294C18.5019 25.7376 18.5019 26.2376 18.8102 26.5458L19.4977 27.2335C16.9735 27.0536 14.6544 26.5302 12.8261 25.7148C10.7625 24.7942 9.57895 23.5989 9.57895 22.435C9.57895 21.5059 10.345 20.5403 11.7358 19.7158C12.111 19.4934 12.2348 19.0092 12.0125 18.6342C11.7901 18.259 11.3059 18.1352 10.9307 18.3575C8.50843 19.7933 8 21.3674 8 22.435C8 24.2767 9.48561 25.9535 12.183 27.1568C14.2329 28.0711 16.8265 28.6476 19.6258 28.8242L18.8102 29.64C18.5019 29.9482 18.5019 30.4482 18.8102 30.7563C18.9644 30.9105 19.1663 30.9876 19.3684 30.9876C19.5705 30.9876 19.7726 30.9105 19.9266 30.7563L22.0319 28.6511C22.3403 28.3429 22.3403 27.8431 22.0319 27.5347L19.9266 25.4294Z" fill="white"/>
<g filter="url(#filter0_i)">
<path d="M21 41.5C32.3218 41.5 41.5 32.3218 41.5 21C41.5 9.67816 32.3218 0.5 21 0.5C9.67816 0.5 0.5 9.67816 0.5 21C0.5 32.3218 9.67816 41.5 21 41.5Z" stroke="white"/>
</g>
<defs>
<filter id="filter0_i" x="0" y="0" width="42" height="43" filterUnits="userSpaceOnUse" color-interpolation-filters="sRGB">
<feFlood flood-opacity="0" result="BackgroundImageFix"/>
<feBlend mode="normal" in="SourceGraphic" in2="BackgroundImageFix" result="shape"/>
<feColorMatrix in="SourceAlpha" type="matrix" values="0 0 0 0 0 0 0 0 0 0 0 0 0 0 0 0 0 0 127 0" result="hardAlpha"/>
<feOffset dy="1"/>
<feGaussianBlur stdDeviation="5"/>
<feComposite in2="hardAlpha" operator="arithmetic" k2="-1" k3="1"/>
<feColorMatrix type="matrix" values="0 0 0 0 1 0 0 0 0 1 0 0 0 0 1 0 0 0 0.328043 0"/>
<feBlend mode="normal" in2="shape" result="effect1_innerShadow"/>
</filter>
</defs>
</svg>
