<svg width="19" height="11" viewBox="0 0 19 11" fill="none" xmlns="http://www.w3.org/2000/svg">
<path fill-rule="evenodd" clip-rule="evenodd" d="M18.2874 4.4648H18.3032H3.49927L6.15922 1.6724C6.43387 1.38406 6.43387 0.933042 6.15922 0.6447L5.74756 0.210991C5.62035 0.0763724 5.44269 0 5.25674 0C5.07078 0 4.89312 0.0763724 4.76591 0.210991L0.205988 4.98651C-0.0686626 5.27485 -0.0686626 5.72587 0.205988 6.01421L4.76591 10.7897C4.89335 10.9239 5.07093 11 5.25674 11C5.44254 11 5.62012 10.9239 5.74756 10.7897L6.15922 10.356C6.28986 10.2168 6.36328 10.034 6.36505 9.84374C6.36323 9.65627 6.28965 9.47651 6.15922 9.34089L3.4676 6.53435H18.3032C18.6996 6.51406 19.0081 6.18493 18.9998 5.79107V5.18922C19.0034 4.79442 18.6851 4.47083 18.2874 4.4648Z" fill="white"/>
</svg>
