<svg width="22" height="12" viewBox="0 0 22 12" fill="none" xmlns="http://www.w3.org/2000/svg">
<path fill-rule="evenodd" clip-rule="evenodd" d="M21.1748 4.87069H21.1932H4.05178L7.13173 1.82444C7.44975 1.50988 7.44975 1.01786 7.13173 0.703309L6.65507 0.230171C6.50778 0.0833154 6.30206 0 6.08675 0C5.87143 0 5.66572 0.0833154 5.51842 0.230171L0.238512 5.43983C-0.0795041 5.75438 -0.0795041 6.2464 0.238512 6.56096L5.51842 11.7706C5.66599 11.917 5.8716 12 6.08675 12C6.30189 12 6.50751 11.917 6.65507 11.7706L7.13173 11.2975C7.283 11.1455 7.36801 10.9462 7.37006 10.7386C7.36795 10.5341 7.28275 10.338 7.13173 10.1901L4.01512 7.12838H21.1932C21.6522 7.10625 22.0093 6.7472 21.9998 6.31753V5.66097C22.0039 5.23027 21.6354 4.87727 21.1748 4.87069Z" fill="black"/>
</svg>
