<svg width="100" height="100" viewBox="0 0 100 100" fill="none" xmlns="http://www.w3.org/2000/svg">
<path fill-rule="evenodd" clip-rule="evenodd" d="M92.15 4.23234e-05C87.8381 0.0138183 84.35 3.51316 84.35 7.82504V12.5H15.775V7.82504C15.7202 3.47753 12.1728 -0.0140192 7.825 4.23234e-05C3.50337 4.23234e-05 0 3.50341 0 7.82504V92.2C0.0131467 94.2907 0.859773 96.2898 2.35217 97.7541C3.84457 99.2183 5.85942 100.027 7.95 100H92.15C96.466 100 99.9725 96.5159 100 92.2V7.82504C100 5.74538 99.1722 3.75127 97.6993 2.28307C96.2264 0.814881 94.2297 -0.00660195 92.15 4.23234e-05ZM3.125 7.82504C3.125 5.2293 5.22926 3.12504 7.825 3.12504C10.4471 3.11082 12.5954 5.20346 12.65 7.82504L12.5 85.95C11.1394 84.9228 9.4798 84.3696 7.775 84.375C6.07527 84.3785 4.42382 84.9407 3.075 85.975L3.125 7.82504ZM7.825 96.9H92.225L92.25 96.825C94.7988 96.7927 96.8572 94.7346 96.89 92.1859C96.9228 89.6371 94.918 87.5268 92.3709 87.4289C89.8238 87.331 87.6629 89.2813 87.5 91.825V92.2H84.35V91.825V15.65H15.675V92.2H12.5C12.5066 90.9535 12.0178 89.7554 11.1411 88.8693C10.2644 87.9832 9.07152 87.4817 7.825 87.475C5.22236 87.475 3.1125 89.5849 3.1125 92.1875C3.1125 94.7902 5.22236 96.9 7.825 96.9ZM71.975 28.225H78.1V54.775H56.35V57.9H78.1V84.425H50V75H46.975V84.325H21.975V57.9H46.975V68.775H50V43.775H46.975V54.65H21.975V28.225H46.975V37.5H50V28.225H62.5V25H18.75V87.5H81.25V25H72L71.975 28.225ZM87.6 85.975C90.3619 83.8447 94.2131 83.8447 96.975 85.975V7.82504C97.1034 6.06865 96.2391 4.38787 94.7358 3.47051C93.2325 2.55315 91.3425 2.55315 89.8392 3.47051C88.336 4.38787 87.4716 6.06865 87.6 7.82504V85.975Z" fill="#D2AE6D"/>
</svg>
