<svg width="167" height="92" viewBox="0 0 167 92" fill="none" xmlns="http://www.w3.org/2000/svg">
<path d="M85 90.3789V13.3789" stroke="#CBA349" stroke-width="2"/>
<path d="M62 78.3789L11 48.3789" stroke="#CBA349" stroke-width="2"/>
<path d="M66 73.3789L24 31.3789" stroke="#CBA349" stroke-width="2"/>
<path d="M71 69.3789L41 18.3789" stroke="#CBA349" stroke-width="2"/>
<path d="M60 83.3789L3 68.3789" stroke="#CBA349" stroke-width="2"/>
<path d="M59 90.3789H0" stroke="#CBA349" stroke-width="2"/>
<path d="M82 90.3789V13.3789" stroke="#CBA349" stroke-width="2"/>
<path d="M95 90.3789H71" stroke="#CBA349" stroke-width="2"/>
<path d="M55.4873 29.7012L83.3385 1.83923L111.19 29.7012L83.3385 57.5631L55.4873 29.7012Z" fill="white"/>
<path fill-rule="evenodd" clip-rule="evenodd" d="M55.4873 29.7012L83.3385 1.83923L111.19 29.7012L83.3385 57.5631L55.4873 29.7012Z" stroke="#CBA349" stroke-width="2"/>
<path d="M62.3752 29.6895L83.3361 8.72056L104.297 29.6895L83.3361 50.6583L62.3752 29.6895Z" fill="white"/>
<path fill-rule="evenodd" clip-rule="evenodd" d="M62.3752 29.6895L83.3361 8.72056L104.297 29.6895L83.3361 50.6583L62.3752 29.6895Z" stroke="#CBA349" stroke-width="2"/>
<path fill-rule="evenodd" clip-rule="evenodd" d="M83.6134 18.3789C89.0507 18.3789 91.967 21.3523 91.967 25.0608L92 24.9939C92 29.0031 88.9024 31.5756 84.1572 31.5255H83.0368V34.0646C82.966 36.2022 83.2501 38.3367 83.8771 40.3789H79C79.6273 38.3368 79.9113 36.2022 79.8403 34.0646V24.6933C79.9113 22.5556 79.6273 20.421 79 18.3789H83.6134ZM83.0368 30.2893C86.5463 30.0053 88.6882 27.7836 88.6882 24.9939L88.6717 25.0608C88.6717 22.3713 86.6122 20.4169 83.1356 20.2832C83.0368 21.0684 83.0368 22.0873 83.0368 23.3235V30.2893Z" fill="#CBA349"/>
<path d="M104 78.3789L155 48.3789" stroke="#CBA349" stroke-width="2"/>
<path d="M100 73.3789L142 31.3789" stroke="#CBA349" stroke-width="2"/>
<path d="M95 69.3789L125 18.3789" stroke="#CBA349" stroke-width="2"/>
<path d="M107 83.3789L164 68.3789" stroke="#CBA349" stroke-width="2"/>
<path d="M108 90.3789H167" stroke="#CBA349" stroke-width="2"/>
</svg>
