<svg width="169" height="64" viewBox="0 0 169 64" fill="none" xmlns="http://www.w3.org/2000/svg">
<path d="M46.0411 54.3244L46.043 53.3244H46.0411L46.0411 54.3244ZM55.0725 18.6634L56.0726 18.6634L56.0725 18.6557L55.0725 18.6634ZM18.9296 23.1146L18.9277 24.1146H18.9295L18.9296 23.1146ZM28.1663 47.2979L28.6835 48.1538L28.9698 47.9807L29.0944 47.6703L28.1663 47.2979ZM28.1663 16.7874L27.6491 17.6432L28.9703 18.4417L29.1588 16.9095L28.1663 16.7874ZM64.0869 18.6634L63.087 18.6808L63.1042 19.6634H64.0869V18.6634ZM73.1183 18.6634H74.1183V17.6634H73.1183V18.6634ZM73.1183 27.5829H72.1183V28.5829H73.1183V27.5829ZM168 27.5829H169V26.5829H168V27.5829ZM168 45.4049V46.4049H169V45.4049H168ZM158.969 45.4049H157.969V46.4049H158.969V45.4049ZM158.969 36.4171H159.969V35.4171H158.969V36.4171ZM151.802 36.4171V35.4171H150.802V36.4171H151.802ZM151.802 40.8684V41.8684H152.802V40.8684H151.802ZM142.77 40.8684H141.77V41.8684H142.77V40.8684ZM142.77 36.4171H143.77V35.4171H142.77V36.4171ZM136.39 36.4171V35.4171H135.39V36.4171H136.39ZM136.39 45.3366V46.3366H137.39V45.3366H136.39ZM127.358 45.3366H126.358V46.3366H127.358V45.3366ZM127.358 36.4171H128.358V35.4171H127.358V36.4171ZM73.1526 36.4171V35.4171H72.1526V36.4171H73.1526ZM73.1526 45.3366V46.3366H74.1526V45.3366H73.1526ZM64.1211 45.3366V44.3366H63.1384L63.1212 45.3192L64.1211 45.3366ZM28.2005 47.2126L29.193 47.0905L27.2724 46.8403L28.2005 47.2126ZM56.0725 45.4144C56.111 41.3577 53.6898 37.6811 49.9452 36.1034L49.1687 37.9465C52.168 39.2102 54.1034 42.1528 54.0726 45.3954L56.0725 45.4144ZM49.9452 36.1034C46.2011 34.5259 41.8719 35.3575 38.983 38.2105L40.3884 39.6335C42.701 37.3496 46.1689 36.6826 49.1687 37.9465L49.9452 36.1034ZM38.983 38.2105C36.0937 41.0641 35.2169 45.3756 36.7648 49.127L38.6136 48.3642C37.376 45.3649 38.0763 41.917 40.3884 39.6335L38.983 38.2105ZM36.7648 49.127C38.3125 52.8779 41.9768 55.3242 46.041 55.3244L46.0411 53.3244C42.7841 53.3242 39.8514 51.3639 38.6136 48.3642L36.7648 49.127ZM46.0391 55.3244C51.545 55.335 56.0307 50.9091 56.0725 45.4125L54.0726 45.3972C54.0391 49.7882 50.4543 53.3329 46.043 53.3244L46.0391 55.3244ZM46.0315 8.74388C40.554 8.7961 36.146 13.2574 36.1809 18.726L38.1808 18.7133C38.153 14.3522 41.6696 10.7856 46.0506 10.7438L46.0315 8.74388ZM36.1809 18.726C36.2157 24.1947 40.6802 28.5997 46.158 28.5824L46.1517 26.5824C41.7704 26.5962 38.2086 23.0744 38.1808 18.7133L36.1809 18.726ZM46.158 28.5824C51.6357 28.5652 56.0723 24.1322 56.0725 18.6634L54.0725 18.6633C54.0723 23.0245 50.5329 26.5686 46.1517 26.5824L46.158 28.5824ZM56.0725 18.6557C56.0307 13.1591 51.545 8.73326 46.0391 8.74384L46.043 10.7438C50.4543 10.7354 54.0391 14.28 54.0726 18.671L56.0725 18.6557ZM8.89816 32.0246C8.85963 36.0813 11.2809 39.7579 15.0254 41.3355L15.802 39.4925C12.8027 38.2288 10.8673 35.2862 10.8981 32.0436L8.89816 32.0246ZM15.0254 41.3355C18.7695 42.913 23.0988 42.0815 25.9876 39.2285L24.5822 37.8054C22.2696 40.0894 18.8018 40.7563 15.802 39.4925L15.0254 41.3355ZM25.9876 39.2285C28.877 36.3749 29.7537 32.0634 28.2058 28.312L26.357 29.0748C27.5946 32.0741 26.8944 35.522 24.5822 37.8054L25.9876 39.2285ZM28.2058 28.312C26.6581 24.561 22.9938 22.1148 18.9296 22.1146L18.9295 24.1146C22.1866 24.1147 25.1193 26.075 26.357 29.0748L28.2058 28.312ZM18.9315 22.1146C13.4256 22.104 8.93998 26.5299 8.89815 32.0265L10.8981 32.0417C10.9315 27.6507 14.5164 24.1061 18.9277 24.1146L18.9315 22.1146ZM27.6491 46.4421C20.56 50.7264 11.4009 49.2491 6.02854 42.9569L4.50752 44.2556C10.5166 51.2935 20.7576 52.9439 28.6835 48.1538L27.6491 46.4421ZM6.02854 42.9569C0.657154 36.6658 0.657154 27.4194 6.02854 21.1284L4.50752 19.8297C-1.50251 26.8688 -1.50251 37.2165 4.50752 44.2556L6.02854 42.9569ZM6.02854 21.1284C11.4009 14.8362 20.56 13.3589 27.6491 17.6432L28.6835 15.9315C20.7576 11.1414 10.5166 12.7918 4.50752 19.8297L6.02854 21.1284ZM29.1588 16.9095C30.2473 8.06164 38.0171 1.55699 46.9518 2.02362L47.0561 0.0263405C37.0776 -0.494799 28.3911 6.77029 27.1738 16.6653L29.1588 16.9095ZM46.9518 2.02362C55.8864 2.49024 62.9316 9.76831 63.087 18.6808L65.0867 18.6459C64.9129 8.678 57.0348 0.547491 47.0561 0.0263405L46.9518 2.02362ZM64.0869 19.6634H73.1183V17.6634H64.0869V19.6634ZM72.1183 18.6634V27.5829H74.1183V18.6634H72.1183ZM73.1183 28.5829H168V26.5829H73.1183V28.5829ZM167 27.5829V45.4049H169V27.5829H167ZM168 44.4049H158.969V46.4049H168V44.4049ZM159.969 45.4049V36.4171H157.969V45.4049H159.969ZM158.969 35.4171H151.802V37.4171H158.969V35.4171ZM150.802 36.4171V40.8684H152.802V36.4171H150.802ZM151.802 39.8684H142.77V41.8684H151.802V39.8684ZM143.77 40.8684V36.4171H141.77V40.8684H143.77ZM142.77 35.4171H136.39V37.4171H142.77V35.4171ZM135.39 36.4171V45.3366H137.39V36.4171H135.39ZM136.39 44.3366H127.358V46.3366H136.39V44.3366ZM128.358 45.3366V36.4171H126.358V45.3366H128.358ZM127.358 35.4171H73.1526V37.4171H127.358V35.4171ZM72.1526 36.4171V45.3366H74.1526V36.4171H72.1526ZM73.1526 44.3366H64.1211V46.3366H73.1526V44.3366ZM63.1212 45.3192C62.9658 54.2317 55.9206 61.5098 46.986 61.9764L47.0903 63.9737C57.069 63.4525 64.9471 55.322 65.1209 45.3541L63.1212 45.3192ZM46.986 61.9764C38.0513 62.443 30.2815 55.9384 29.193 47.0905L27.208 47.3347C28.4253 57.2297 37.1118 64.4948 47.0903 63.9737L46.986 61.9764ZM27.2724 46.8403L27.2382 46.9256L29.0944 47.6703L29.1286 47.585L27.2724 46.8403Z" fill="#CBA349"/>
</svg>
