<svg width="196" height="101" viewBox="0 0 196 101" fill="none" xmlns="http://www.w3.org/2000/svg">
<path fill-rule="evenodd" clip-rule="evenodd" d="M130.069 100.001H64.9531L73.6786 38.373H121.364L130.069 100.001Z" stroke="#CBA349" stroke-width="2"/>
<path fill-rule="evenodd" clip-rule="evenodd" d="M98.0922 38.3728H82.3945C82.3945 29.3821 89.4226 22.0938 98.0922 22.0938C106.762 22.0938 113.79 29.3821 113.79 38.3728H98.0922Z" stroke="#CBA349" stroke-width="2"/>
<path d="M97.5123 100.001L26.582 29.0703" stroke="#CBA349" stroke-width="2"/>
<path d="M97.5117 100L47.5117 12.791" stroke="#CBA349" stroke-width="2"/>
<path d="M97.5111 99.9999L71.9297 3.48828" stroke="#CBA349" stroke-width="2"/>
<path d="M97.5104 100V0" stroke="#CBA349" stroke-width="2"/>
<path d="M117.277 27.9076L124.254 2.32617" stroke="#CBA349" stroke-width="2"/>
<path d="M128.906 46.5119L148.674 12.791" stroke="#CBA349" stroke-width="2"/>
<path d="M131.234 66.2796L168.444 29.0703" stroke="#CBA349" stroke-width="2"/>
<path d="M133.559 79.0698L184.721 50" stroke="#CBA349" stroke-width="2"/>
<path d="M97.5101 100L10.3008 50" stroke="#CBA349" stroke-width="2"/>
<path d="M135.883 89.5349L195.185 73.2559" stroke="#CBA349" stroke-width="2"/>
<path d="M97.5116 99.9994L1 74.418" stroke="#CBA349" stroke-width="2"/>
<path d="M113.792 38.373V50.001" stroke="#CBA349" stroke-width="2"/>
<path d="M82.3972 38.373V50.001" stroke="#CBA349" stroke-width="2"/>
<path fill-rule="evenodd" clip-rule="evenodd" d="M81.8132 55.814C83.4187 55.814 84.7202 54.5125 84.7202 52.907C84.7202 51.3015 83.4187 50 81.8132 50C80.2077 50 78.9062 51.3015 78.9062 52.907C78.9062 54.5125 80.2077 55.814 81.8132 55.814Z" stroke="#CBA349" stroke-width="2"/>
<path fill-rule="evenodd" clip-rule="evenodd" d="M113.208 55.814C114.813 55.814 116.115 54.5125 116.115 52.907C116.115 51.3015 114.813 50 113.208 50C111.602 50 110.301 51.3015 110.301 52.907C110.301 54.5125 111.602 55.814 113.208 55.814Z" stroke="#CBA349" stroke-width="2"/>
</svg>
