<svg width="57" height="36" viewBox="0 0 57 36" fill="none" xmlns="http://www.w3.org/2000/svg">
<path fill-rule="evenodd" clip-rule="evenodd" d="M29 9C29.6584 9 30.3078 9.02175 30.9465 9.0623L28.1883 10.1111C24.6745 10.2092 20.926 10.9515 17.8239 12.6055C15.8732 13.6458 13.5047 15.4648 13.1229 17.8477C13.0884 18.0632 13.071 18.2815 13.071 18.4999C13.071 18.7183 13.0884 18.9366 13.1229 19.1521C13.1988 19.6263 13.3536 20.078 13.5679 20.5059L12.7366 21.2731C12.2583 20.396 12 19.4649 12 18.5002C12 13.2532 19.6114 9 29 9ZM43.9857 14.0115C45.2707 15.348 46 16.8766 46 18.5002C46 23.7468 38.3886 28 29 28C26.7019 28 24.5104 27.7448 22.5107 27.2828L24.4676 26.5401C25.9881 26.7869 27.5215 26.9 29 26.9C32.7411 26.9 36.8338 26.1765 40.1761 24.3944C42.127 23.3541 44.4954 21.535 44.8771 19.1521C44.9117 18.9366 44.9291 18.7183 44.9291 18.4999C44.9291 18.2815 44.9117 18.0632 44.8771 17.8477C44.6906 16.6835 44.0297 15.6539 43.1752 14.784L43.9857 14.0115Z" fill="#FEFEFE"/>
<path fill-rule="evenodd" clip-rule="evenodd" d="M29 8C30.3344 8 31.6346 8.08536 32.8863 8.24619L32.4351 8.41804C31.2792 8.2872 30.1262 8.22528 29 8.22528C24.955 8.22528 20.5616 9.02323 16.946 10.9554C14.4449 12.2919 11.7794 14.5155 11.2943 17.5495C11.2442 17.8637 11.2189 18.1816 11.2189 18.5001C11.2189 18.8185 11.2442 19.1363 11.2943 19.4505C11.4271 20.2808 11.7234 21.0504 12.1347 21.7578L11.971 21.9097C11.3422 20.8405 11 19.6937 11 18.5001C11 12.7011 19.0589 8 29 8ZM44.7099 13.3722C46.1679 14.8888 47 16.6376 47 18.5001C47 24.299 38.9411 29 29 29C26.1321 29 23.4213 28.6084 21.0149 27.9122L21.3628 27.7798C23.8643 28.4694 26.4988 28.7747 29 28.7747C33.0451 28.7747 37.4385 27.9768 41.0541 26.0446C43.5551 24.7082 46.2207 22.4846 46.7057 19.4505C46.7558 19.1363 46.7813 18.8185 46.7813 18.5001C46.7813 18.1816 46.7558 17.8637 46.7057 17.5495C46.4565 15.9909 45.6319 14.6461 44.5496 13.5256L44.7099 13.3722Z" fill="#FEFEFE"/>
<path fill-rule="evenodd" clip-rule="evenodd" d="M53 31V35H54.7888C55.4622 35 56 34.5898 56 33.8089C56 33.2528 55.7186 32.9494 55.3466 32.8313C55.6382 32.6853 55.8341 32.3931 55.8341 32.0056C55.8341 31.2981 55.3216 31 54.6934 31H53ZM53.7638 31.6797H54.4773C54.7788 31.6797 55.0703 31.7472 55.0703 32.1515C55.0703 32.556 54.7638 32.6179 54.4773 32.6179H53.7638V31.6797ZM54.5125 33.2133H53.7638V34.3032H54.5528C54.8894 34.3032 55.2159 34.2301 55.2159 33.7583C55.2159 33.2751 54.8644 33.2133 54.5125 33.2133Z" fill="#FEFEFE"/>
<path fill-rule="evenodd" clip-rule="evenodd" d="M1.48739 33.5549C1.64656 32.6006 2.29979 32 3.23814 32C4.28646 32 5 32.8095 5 34.0054C5 35.1956 4.28646 36 3.23281 36C2.23925 36 1.54782 35.303 1.4654 34.2356H0.856158V35.9086H0V32.0913H0.856158V33.5549H1.48739ZM4.13273 33.9894C4.13273 33.185 3.78707 32.6861 3.22726 32.6861C2.67289 32.6861 2.32156 33.1956 2.32156 33.9894C2.32156 34.8095 2.66733 35.303 3.23814 35.3082C3.7924 35.3082 4.13273 34.8041 4.13273 33.9894Z" fill="#FEFEFE"/>
<path d="M9 7.73468C9 7.24508 8.70457 6.89492 8.31255 6.8302C8.63839 6.75492 8.86259 6.44257 8.86259 6.06038C8.86259 5.4201 8.30739 5 7.57386 5C6.80981 5 6.15782 5.36628 6.14256 6.22217H6.89651C6.92702 5.85044 7.17658 5.65117 7.5687 5.65117C7.89486 5.65117 8.11391 5.81841 8.11391 6.11431C8.11391 6.44802 7.89486 6.63638 7.45665 6.63638C7.41089 6.63638 7.30389 6.63638 7.24276 6.63116V7.20171H7.51778C7.86919 7.20171 8.20029 7.30413 8.20029 7.74013C8.20029 8.09029 7.94578 8.35405 7.57386 8.35405C7.14607 8.35405 6.80466 8.14934 6.7894 7.6326H6C6.01021 8.49917 6.59076 9 7.57386 9C8.38367 9 9 8.47782 9 7.73468Z" fill="#FEFEFE"/>
<path fill-rule="evenodd" clip-rule="evenodd" d="M29 16C30.1047 16 31 16.4478 31 17C31 17.5524 30.1047 18 29 18C27.8954 18 27 17.5524 27 17C27 16.4478 27.8954 16 29 16Z" fill="#FEFEFE"/>
<path fill-rule="evenodd" clip-rule="evenodd" d="M5 31C6.57587 29.5941 20.9971 16.3711 23.5829 14L25.4303 15.266C25.0198 15.6381 24.7828 16.0755 24.7828 16.5436C24.7828 17.8969 26.7603 18.9937 29.1999 18.9937C29.7145 18.9937 30.2083 18.9447 30.6677 18.8548L33 20.4531L5 31H5Z" fill="#FEFEFE"/>
<path fill-rule="evenodd" clip-rule="evenodd" d="M16 10.8893L12 9L14.5334 12C14.9683 11.5966 15.4601 11.2246 16 10.8893Z" fill="#FEFEFE"/>
<path fill-rule="evenodd" clip-rule="evenodd" d="M43 26.481L49 29L45.1999 25C44.5476 25.5378 43.8098 26.0338 43 26.481Z" fill="#FEFEFE"/>
<path d="M57 2.43405H56.065C55.9866 2.99169 55.6487 3.29217 55.0816 3.29217C54.3878 3.29217 53.9473 2.78824 53.9473 2C53.9473 1.36183 54.267 0.702403 55.0935 0.702403C55.6002 0.702403 55.9504 0.948832 56.0469 1.36726H56.97C56.8974 0.579134 56.1435 0 55.1116 0C53.7965 0 53 0.884594 53 1.99457C53 3.2008 53.8265 4 55.0755 4C56.2519 4 56.9035 3.36726 57 2.43405Z" fill="#064B76"/>
<path fill-rule="evenodd" clip-rule="evenodd" d="M25 13.4102L52 3L34.414 20L32.2815 18.5074C32.9468 18.0693 33.3489 17.4994 33.3489 16.8762C33.3489 15.494 31.3718 14.3734 28.9327 14.3734C28.1651 14.3734 27.4428 14.4845 26.8138 14.6799L25 13.4102H25Z" fill="#064B76"/>
</svg>
