<svg width="112" height="105" viewBox="0 0 112 105" fill="none" xmlns="http://www.w3.org/2000/svg">
<path fill-rule="evenodd" clip-rule="evenodd" d="M0 105H112V63H0V64.8L31.849 66.5429L65.4119 68.3429L31.849 70.1714L0 71.8857V72.6571L31.849 74.4L65.4119 76.2L31.849 78.0286L0 79.7429V80.5143L31.849 82.2571L65.4119 84.0571L31.849 85.8571L0 87.5714V88.3429L31.849 90.0857L65.4119 91.8857L31.849 93.7143L0 95.4286V96.2L31.849 97.9429L65.4119 99.7429L31.849 101.571L0 103.286L0 105Z" fill="#00744F"/>
<path fill-rule="evenodd" clip-rule="evenodd" d="M0 6H112L86.7779 32H25.1079L0 6Z" fill="#009846"/>
<rect width="112" height="6" fill="#00744F"/>
<rect x="13" y="17" width="13" height="46" fill="#009846"/>
<rect x="88" y="17" width="13" height="46" fill="#009846"/>
<path fill-rule="evenodd" clip-rule="evenodd" d="M32 23.3046V63H26V17L32 23.3046Z" fill="#00744F"/>
<path fill-rule="evenodd" clip-rule="evenodd" d="M82 23.3046V63H88V17L82 23.3046Z" fill="#00744F"/>
</svg>
