<svg width="114" height="114" viewBox="0 0 114 114" fill="none" xmlns="http://www.w3.org/2000/svg">
<path fill-rule="evenodd" clip-rule="evenodd" d="M52.0839 57.9467C52.0839 59.8142 52.0839 61.538 52.0839 63.147L46.8736 57.9467H52.0839ZM47.7324 11.4026C46.661 10.564 45.5104 9.83265 44.297 9.21909C45.6407 4.92182 49.0811 1.61276 53.4162 0.447929C57.7513 -0.716906 62.3789 0.424315 65.6824 3.47291L56.4354 3.96134L66.713 4.53595C67.9518 5.98202 68.8692 7.67648 69.404 9.5064L56.464 10.1959L78.1929 11.3739C80.1318 12.2147 81.8837 13.4357 83.346 14.9653H83.117L56.464 16.4018L83.117 17.8671H85.6077C86.1349 18.7775 86.5667 19.7403 86.8959 20.7402L83.117 20.9413L56.464 22.3778L83.117 23.8431L87.5258 24.073C87.5258 24.4943 87.5258 24.9349 87.5258 25.3946C87.5515 25.9114 87.5515 26.4292 87.5258 26.946L83.1456 27.1759L56.4927 28.6124L83.1456 30.0777L88.6136 30.365L89.0717 30.5374C90.6038 31.05 92.0299 31.8386 93.28 32.8646L83.1743 33.4105L56.5213 34.847L83.1743 36.3123L96.5437 37.0306C96.8377 37.6337 97.0865 38.2579 97.288 38.8981L83.2029 39.6738L56.5499 41.1104L83.2029 42.5756L97.9751 43.3801C98.0083 43.9638 98.0083 44.549 97.9751 45.1327L83.3174 45.9372L56.6644 47.3737L83.3174 48.839L96.7154 49.5573C96.404 50.2359 96.0403 50.8891 95.6276 51.511L83.2888 52.1718L56.6358 53.6083L83.2888 55.0736L91.5337 55.5045C90.687 56.0339 89.7845 56.4675 88.8427 56.7974C87.2084 57.3828 85.4817 57.6652 83.7468 57.6306H60.8155C60.8155 75.6736 63.9074 81.3049 67.1424 83H45.757C48.2763 81.6784 50.6811 78.0296 51.6545 68.1174L41.2051 57.6306H29.7538C9.714 57.6306 8.88378 25.136 34.7351 30.1352C32.2966 28.6102 29.5044 27.7487 26.6333 27.6356C22.883 17.9533 34.7351 5.77138 47.8183 11.0866L47.7324 11.4026Z" fill="#009846"/>
<path fill-rule="evenodd" clip-rule="evenodd" d="M49.0529 85H45.5085C48.0038 83.6455 50.3856 79.906 51.3497 69.7475L41 59H46.6711L51.8034 64.359V59H56C56 72.0736 55.0643 85 49.0813 85" fill="#00744F"/>
<path fill-rule="evenodd" clip-rule="evenodd" d="M47.8026 13.1767C46.7314 12.3515 45.5814 11.6315 44.3688 11.027C45.6747 6.97024 48.9134 3.80659 53.0326 2.56414C57.1517 1.32169 61.6255 2.15905 65 4.80408C58.9215 4.5242 53.4815 8.50711 51.9803 14.3365C41.4502 12.3847 32.923 20.8422 35.9848 32.8355C19.0735 34.8155 22.307 59 39.1324 59H29.7468C9.71653 59 8.8867 27.0086 34.7257 31.9303C32.2878 30.4302 29.4972 29.5821 26.6278 29.4694C22.9079 19.9654 34.7257 7.97211 47.8026 13.1767Z" fill="#00744F"/>
<path fill-rule="evenodd" clip-rule="evenodd" d="M57 77C88.478 77 114 85.4091 114 95.5C114 105.591 88.478 114 57 114C25.522 114 0 105.731 0 95.5C0 85.2689 25.522 77 57 77Z" fill="#009846"/>
<path fill-rule="evenodd" clip-rule="evenodd" d="M56 84C78.0286 84 96 89.1581 96 95.5C96 101.842 78.1429 107 56 107C33.8571 107 16 101.842 16 95.5C16 89.1581 33.8571 84 56 84Z" fill="#FEFEFE"/>
<path fill-rule="evenodd" clip-rule="evenodd" d="M35.5 95C41.2692 95 46 96.3514 46 98C46 99.6486 41.2981 101 35.5 101C29.7019 101 25 99.6486 25 98C25 96.3514 29.7019 95 35.5 95Z" fill="#009846"/>
<path fill-rule="evenodd" clip-rule="evenodd" d="M56.5 90C62.2692 90 67 91.3514 67 93C67 94.6486 62.2981 96 56.5 96C50.7019 96 46 94.6486 46 93C46 91.3514 50.7019 90 56.5 90Z" fill="#009846"/>
<path fill-rule="evenodd" clip-rule="evenodd" d="M78.5 86C84.2692 86 89 87.3514 89 89C89 90.6486 84.2981 92 78.5 92C72.7019 92 68 90.6486 68 89C68 87.3514 72.7019 86 78.5 86Z" fill="#009846"/>
</svg>
