<svg width="112" height="112" viewBox="0 0 112 112" fill="none" xmlns="http://www.w3.org/2000/svg">
<path fill-rule="evenodd" clip-rule="evenodd" d="M0 112H112L110.143 108.548L103.059 108.177L69.1538 106.494L101.031 104.725L107.687 104.355L105.716 100.96L98.632 100.589L64.6978 98.7916L96.5754 97.137L103.231 96.7662L101.288 93.3999L94.2045 93.029L60.2703 91.2318L92.0051 89.406L98.6605 89.0351L96.8324 85.7259L89.7485 85.3551L55.8143 83.5578L87.6919 81.7891L94.3474 81.4182L92.405 78.052L85.3211 77.6811L51.3869 75.8839L83.2645 74.1151L89.9199 73.7443L87.9776 70.378L80.8936 70.0071L46.9594 68.2099L78.837 66.4412L85.4925 66.0703L83.4359 62.647L76.352 62.2761L42.4178 60.4789L74.2953 58.7101L80.9508 58.3393L79.6083 56H32.3632L0 112Z" fill="#00744F"/>
<path fill-rule="evenodd" clip-rule="evenodd" d="M56.0564 13.7698C62.6959 13.7698 68.0783 19.1717 68.0783 25.8353C68.0783 32.4989 62.6959 37.9008 56.0564 37.9008C49.4169 37.9008 44.0345 32.4989 44.0345 25.8353C44.0345 19.1717 49.4169 13.7698 56.0564 13.7698ZM56.0564 81C52.0207 75.6946 29 46.5434 29 26.8051C29 -8.93503 82.9992 -8.93503 82.9992 26.8051C83.1128 46.5434 60.0921 75.6946 56.0564 81Z" fill="#009846"/>
</svg>
