<svg width="137" height="68" viewBox="0 0 137 68" fill="none" xmlns="http://www.w3.org/2000/svg">
<path fill-rule="evenodd" clip-rule="evenodd" d="M35.0233 4.5H36.4422C38.0667 4.49933 39.6889 4.62282 41.2947 4.86942L35.0233 4.5ZM5 38.8559C5 37.9466 5 37.0088 5 36.0142C5 35.5406 5 35.0575 5 34.565L10.6755 34.2524L16.5212 33.9398C16.1446 35.7581 16.2722 37.6449 16.8901 39.3958L10.6471 39.0548L5 38.8559ZM31.2207 67.2727C26.0412 66.4 21.1629 64.2408 17.032 60.9926L49.1269 59.2307L13.0876 57.2984C11.723 55.7897 10.5066 54.1529 9.45525 52.4107H10.6187L49.1269 50.3078L10.562 48.205L7.18506 48.0345C6.60616 46.6124 6.13194 45.1497 5.76619 43.6583L10.562 43.4026L18.8198 42.9479C20.8688 45.197 23.8181 46.4057 26.8538 46.2405C29.8895 46.0753 32.6906 44.5536 34.4841 42.0954L49.0417 41.2997L35.3922 40.5609C36.5402 38.2056 36.7335 35.4968 35.9314 33.002L49.0417 32.2916L35.3354 31.5528C33.6937 28.3279 30.4605 26.2234 26.8509 26.03C23.2414 25.8367 19.8025 27.5839 17.8266 30.615L10.562 30.2172L5.48242 29.933C5.77467 28.4569 6.17299 27.0039 6.67427 25.5853L10.5903 25.3863L49.0985 23.2835L10.5903 21.2091H8.68906C9.60213 19.5247 10.6659 17.9269 11.8673 16.435L49.0701 14.1049L15.4713 12.2862C18.3079 9.76029 21.5763 7.76761 25.1196 6.40393L44.5014 5.35251C59.501 9.33104 69.393 23.6312 67.8399 39.0917C66.2868 54.5521 53.7488 66.5929 38.2583 67.5L31.2207 67.2727Z" fill="#00744F"/>
<path fill-rule="evenodd" clip-rule="evenodd" d="M64 24.5H125.181L137 35.7239L125.525 46.5L119.773 40.902L113.535 46.3601L107.153 40.874L100.8 46.3041L94.3046 40.7341L87.5225 46.1921H64V24.5Z" fill="#00744F"/>
<path fill-rule="evenodd" clip-rule="evenodd" d="M17.9748 3.4969C27.5749 -1.00946 38.7999 -0.403444 47.8572 5.11019L17.9748 3.4969ZM0 29.3945C0.100825 28.111 0.280724 26.8349 0.538677 25.5735L9.52607 25.0924L14.1473 24.8376C12.7105 26.2353 11.7234 28.0286 11.3122 29.9888H9.44101L0 29.3945ZM0.567028 38.3949C0.309428 37.1335 0.129531 35.8574 0.0283514 34.574L9.55442 34.0645H11.454C11.8652 36.0247 12.8523 37.8181 14.2891 39.2157L9.63947 38.961L0.567028 38.3949ZM12.2195 56.9336C10.3749 55.5185 8.69205 53.9049 7.20125 52.122H9.55442L48.0273 50.0276L9.52607 47.9048L3.99755 47.6218C3.24716 46.3027 2.59337 44.9311 2.0413 43.5178L9.52607 43.1216L47.9989 41.0271L27.6426 39.9233C29.7876 38.2079 31.1392 35.6934 31.385 32.9607L47.9706 32.055L31.385 31.1493C31.1463 28.4209 29.8054 25.9072 27.671 24.1866L47.9706 23.0828L9.49772 21.0167L2.01295 20.6204C2.56456 19.2069 3.21836 17.8353 3.9692 16.5164L9.63947 16.2334L47.9989 13.9408L9.52607 11.8747H7.14455C8.63394 10.0821 10.3169 8.45901 12.1627 7.03482L47.8855 5.08189C57.2733 10.8025 63 20.9902 63 31.9701C63 42.9499 57.2733 53.1376 47.8855 58.8582L12.2195 56.9336ZM31.4417 63.4717C26.8067 63.4808 22.2272 62.466 18.0315 60.4998L47.8572 58.8865C42.9167 61.9074 37.2352 63.5042 31.4417 63.5V63.4717Z" fill="#009846"/>
<path fill-rule="evenodd" clip-rule="evenodd" d="M61 21.5H122.466L134 32.571L122.466 43.5L116.886 37.9929L110.616 43.5L104.23 37.9929L97.8452 43.5L91.4598 37.9929L84.6143 43.5H61V21.5Z" fill="#009846"/>
</svg>
