<svg width="112" height="100" viewBox="0 0 112 100" fill="none" xmlns="http://www.w3.org/2000/svg">
<path fill-rule="evenodd" clip-rule="evenodd" d="M85.8256 17.9553H91.5531C94.4168 17.9553 96.45 19.0435 96.45 22.1363C96.45 25.2291 94.3309 26.26 91.4958 26.26H85.7683L85.8256 17.9553ZM79.5254 12.7721V41.638H85.8256V31.2715H92.3263C98.0537 31.2715 102.578 28.4078 102.578 22.079C102.578 15.7503 98.2255 12.8007 91.9826 12.8007L79.5254 12.7721ZM5.89926 78.6369L0 78.9519V79.9828L5.72744 80.2978C5.74625 79.73 5.81331 79.1647 5.9279 78.6083L5.89926 78.6369ZM7.7034 70.0458L0 70.4467V71.4777L7.41703 71.8786L7.7034 70.0458ZM11.2258 61.4548L0 62.0561V63.0871L8.59115 63.5739L8.76298 62.3998L10.2807 61.7984L11.2258 61.4548ZM0 100H112V0H0V12.7721L32.1023 14.5189L68.0706 16.4662L32.1023 18.4135L0 20.1317V21.1913L32.1023 22.9381L68.0706 24.8568L32.1023 26.8041L0 28.5223V29.5819L32.1023 31.3288L68.0706 33.2474L32.1023 35.1947L0 36.9129V37.9439L32.1023 39.6907L68.0706 41.638L32.1023 43.5853L0 45.3036V46.3345L32.1023 48.0813L68.0706 50.0286L32.1023 51.9759L0 53.6942V54.7251L27.6922 56.2428C34.8628 54.1854 42.318 53.2958 49.7714 53.6082C50.5733 53.6082 62.6868 53.8087 83.7065 63.8889C86.2265 64.4616 103.151 68.5567 104.841 74.7709C105.328 76.2028 108.936 87.772 100.946 88.5166C98.7983 88.7171 95.9345 88.5166 93.7008 88.5166C92.7003 91.6813 90.1218 94.0952 86.898 94.8851C83.6742 95.6749 80.2719 94.7264 77.9218 92.3826C76.8394 91.3016 76.0338 89.9754 75.5735 88.5166H36.4838C36.0224 89.9749 35.217 91.3009 34.1355 92.3826C31.7854 94.7264 28.383 95.6749 25.1592 94.8851C21.9354 94.0952 19.3569 91.6813 18.3564 88.5166H13.889H13.6027C12.1491 88.198 10.7629 87.626 9.50754 86.827L0.0286372 87.3425L0 100Z" fill="#009846"/>
<path fill-rule="evenodd" clip-rule="evenodd" d="M85.2509 77.666C82.5329 77.6312 80.063 79.2301 78.9986 81.7135C77.9341 84.1969 78.4859 87.0727 80.3955 88.9935C82.3051 90.9142 85.1941 91.4994 87.7088 90.4747C90.2235 89.4501 91.8657 87.0186 91.866 84.3197C91.866 80.645 88.8657 77.666 85.1646 77.666M50.3351 66.6431V57.819C60.3895 58.9677 70.1417 61.9598 79.0961 66.6431H50.3351ZM47.459 66.6431H28.5055L32.2445 59.4468C37.2281 58.2263 42.358 57.6977 47.4878 57.8761L47.459 66.6431ZM102.853 74.2106C101.702 69.2132 83.4677 65.3009 83.4677 65.3009C62.0696 55.0205 50.2776 55.1632 50.2776 55.1632C35.4657 53.6497 11.7667 63.1591 11.7667 63.1591L10.041 74.5818C8.84408 76.3887 8.66728 78.6798 9.57299 80.6466C10.4787 82.6134 12.3396 83.9794 14.4989 84.2626H18.9281C18.9281 79.3892 22.907 75.4386 27.8153 75.4386C32.7235 75.4386 36.7024 79.3892 36.7024 84.2626H76.3925C76.3925 79.3892 80.3715 75.4385 85.2797 75.4385C90.1879 75.4385 94.1668 79.3892 94.1668 84.2626H101.415C106.246 83.7771 102.824 74.2106 102.824 74.2106H102.853ZM27.8153 77.6945C25.0876 77.6248 22.5898 79.2041 21.4996 81.6876C20.4094 84.1712 20.9446 87.063 22.8529 88.9994C24.7611 90.9359 27.6613 91.5302 30.1858 90.5021C32.7102 89.474 34.3548 87.0289 34.344 84.3197C34.3449 80.7 31.4313 77.7437 27.7865 77.666L27.8153 77.6945Z" fill="#00744F"/>
</svg>
