<svg width="160" height="111" viewBox="0 0 160 111" fill="none" xmlns="http://www.w3.org/2000/svg">
<rect x="82" y="20" width="8" height="91" fill="#00744F"/>
<rect x="64" y="20" width="8" height="91" fill="#00744F"/>
<path fill-rule="evenodd" clip-rule="evenodd" d="M89.5023 69.6667L128.674 111H160L144.337 95.5071H136.491L89.5023 49H72V61.6217L89.5023 69.6667Z" fill="#00744F"/>
<path fill-rule="evenodd" clip-rule="evenodd" d="M73 69.6667L111.867 111H143L127.448 95.5071H119.657L73 49V69.6667Z" fill="#009846"/>
<path fill-rule="evenodd" clip-rule="evenodd" d="M17.2546 108.161L15.8313 111H0L1.01669 109.013L9.90544 108.53L17.2546 108.161ZM21.7281 99.304L18.8232 104.783L12.3455 104.272L3.63103 103.789L5.54821 99.9853L15.2503 99.5027L21.7281 99.304ZM26.2015 90.4753L23.471 95.7555L17.6613 95.4432L8.1335 94.9322L10.0216 91.2134L20.508 90.674L26.2015 90.4753ZM30.6749 81.5614L28.0025 86.87L22.8609 86.5861L12.5779 86.0183L14.4079 82.3846L25.6496 81.8168L30.6749 81.5614ZM35.1483 72.7042L32.5049 77.9277L28.0896 77.7006L17.0803 77.1044L18.8813 73.5559L30.9073 72.9313L35.1483 72.7042ZM39.6218 63.8471L37.0365 68.9853L33.3764 68.7866L21.7571 68.1621L23.529 64.6987L36.3393 64.0458L39.6218 63.8471ZM44.0952 54.9899L41.5389 60.043L38.6341 59.8727L26.1434 59.1914L27.8572 55.7848L41.4227 55.1035L44.0952 54.9899ZM47 49L45.9252 51.1291H43.7176L30.6459 50.3342L31.314 49.0284L47 49Z" fill="#009846"/>
<rect x="54" y="69" width="8" height="42" fill="#009846"/>
<path fill-rule="evenodd" clip-rule="evenodd" d="M48 20H90V15.5619V0H72.4085V4.63727L48 11.0953V20Z" fill="#00744F"/>
<rect x="39" y="20" width="8" height="29" fill="#009846"/>
<rect x="54" y="20" width="8" height="29" fill="#009846"/>
<path fill-rule="evenodd" clip-rule="evenodd" d="M30 20H72V0L30 11.0953V20Z" fill="#009846"/>
<path fill-rule="evenodd" clip-rule="evenodd" d="M38 49H72V69.6667H64.1472H61.0981H45.8528V111H38V49Z" fill="#009846"/>
</svg>
