<svg width="29" height="29" viewBox="0 0 29 29" fill="none" xmlns="http://www.w3.org/2000/svg">
<path fill-rule="evenodd" clip-rule="evenodd" d="M18.674 7.90918H10.3257C8.99316 7.90918 7.90906 8.99328 7.90906 10.3258V18.6741C7.90906 20.0066 8.99316 21.091 10.3257 21.091H18.674C20.0065 21.091 21.0909 20.0069 21.0909 18.6741V10.3258C21.0909 8.99328 20.0068 7.90918 18.674 7.90918ZM14.4998 18.8395C12.1072 18.8395 10.1606 16.8928 10.1606 14.4999C10.1606 12.1074 12.1072 10.1607 14.4998 10.1607C16.8927 10.1607 18.8393 12.1074 18.8393 14.4999C18.8393 16.8925 16.8924 18.8395 14.4998 18.8395ZM17.9518 10.0312C17.9518 10.5973 18.4124 11.0579 18.9788 11.0579C19.5449 11.0579 20.0055 10.5973 20.0055 10.0312C20.0055 9.46512 19.5449 9.00452 18.9788 9.00452C18.4124 9.00452 17.9518 9.46512 17.9518 10.0312Z" fill="#666666"/>
<path d="M14.5002 11.8635C13.047 11.8635 11.8636 13.0462 11.8636 14.4994C11.8636 15.9533 13.047 17.1363 14.5002 17.1363C15.954 17.1363 17.1364 15.9533 17.1364 14.4994C17.1364 13.0465 15.9537 11.8635 14.5002 11.8635Z" fill="#666666"/>
<path fill-rule="evenodd" clip-rule="evenodd" d="M0 14.5C0 6.49219 6.49219 0 14.5 0C22.5078 0 29 6.49219 29 14.5C29 22.5078 22.5078 29 14.5 29C6.49219 29 0 22.5078 0 14.5ZM18.8217 23.2613C21.2484 23.2613 23.2222 21.2875 23.2222 18.8608V10.2174C23.2222 7.79102 21.2484 5.81693 18.8217 5.81693H10.1783C7.75192 5.81693 5.77784 7.79102 5.77784 10.2174V18.8608C5.77784 21.2875 7.75192 23.2613 10.1783 23.2613H18.8217Z" fill="#666666"/>
</svg>
