<svg width="15" height="18" viewBox="0 0 15 18" fill="none" xmlns="http://www.w3.org/2000/svg">
<path fill-rule="evenodd" clip-rule="evenodd" d="M13.524 8.18185C13.865 8.18185 14.1547 8.30109 14.3934 8.53975C14.6322 8.7784 14.7518 9.06819 14.7517 9.40903V16.7727C14.7517 17.1135 14.6322 17.4034 14.3937 17.6421C14.155 17.8807 13.8654 17.9999 13.5243 17.9999H1.25188C0.911091 17.9999 0.621255 17.8805 0.382598 17.6421C0.143987 17.4034 0.0246582 17.1135 0.0246582 16.7727V9.40916C0.0246582 9.06806 0.143942 8.77822 0.382598 8.53975C0.621255 8.30109 0.911091 8.18185 1.25188 8.18185H1.66091V5.72718C1.66091 4.15899 2.22326 2.81257 3.3483 1.68752C4.47317 0.562522 5.81976 0 7.38809 0C8.95646 0 10.3028 0.562522 11.4277 1.68757C12.5528 2.81257 13.1151 4.15903 13.1151 5.72718V8.18185H13.524ZM4.11545 5.72718V8.18185H10.6607V5.72718C10.6607 4.82382 10.3411 4.05242 9.70212 3.41337C9.06281 2.77415 8.29176 2.45467 7.38823 2.45467C6.48478 2.45467 5.71355 2.77419 5.07429 3.41337C4.43511 4.05246 4.11545 4.82382 4.11545 5.72718Z" fill="#9A151E"/>
</svg>
