<svg width="32" height="32" viewBox="0 0 32 32" fill="none" xmlns="http://www.w3.org/2000/svg">
<path fill-rule="evenodd" clip-rule="evenodd" d="M0 16C0 7.17775 7.17775 0 16 0C24.8223 0 32 7.17775 32 16C32 24.8223 24.8223 32 16 32C7.17775 32 0 24.8223 0 16ZM22.8095 20.8906C23.0634 20.6367 23.0634 20.2251 22.8095 19.9713L18.3383 15.5L22.8096 11.0287C23.0635 10.7748 23.0635 10.3632 22.8096 10.1094L21.8906 9.19036C21.6366 8.93655 21.2252 8.93655 20.9712 9.19036L16.5 13.6616L12.0288 9.19036C11.7748 8.93655 11.3634 8.93655 11.1094 9.19036L10.1904 10.1094C9.93652 10.3633 9.93652 10.7749 10.1904 11.0287L14.6617 15.5L10.1904 19.9713C9.93652 20.2252 9.93652 20.6368 10.1904 20.8906L11.1094 21.8096C11.3634 22.0635 11.7748 22.0635 12.0288 21.8096L16.5 17.3384L20.9712 21.8096C21.2252 22.0634 21.6366 22.0634 21.8906 21.8096L22.8095 20.8906Z" fill="#B3B3B3"/>
</svg>
