<svg width="65" height="91" viewBox="0 0 65 91" fill="none" xmlns="http://www.w3.org/2000/svg">
<path fill-rule="evenodd" clip-rule="evenodd" d="M50.512 36.0269L45.6377 87.0423C46.4614 86.6614 61.3679 76.2435 62.259 75.2234L58.0598 31.5931L50.512 36.0269ZM22.5083 22.9432L39.7237 29.1586C39.7237 25.1465 40.2908 20.6855 38.9541 17.0406C37.7971 14.0778 35.6859 11.592 32.9591 9.98194C29.597 8.15948 25.6543 7.88747 23.548 10.8796C22.0087 12.9876 22.1572 19.7879 22.5083 22.9432ZM25.3573 17.1222L36.7937 21.2023L36.6722 18.4822L28.9759 15.6805V11.6684C25.8569 12.2396 25.3978 13.7629 25.3573 17.1222ZM28.4358 1.79445C29.716 2.07226 30.968 2.46835 32.1759 2.97769C35.7676 2.29767 38.9271 3.83452 42.4647 7.64266C46.8124 12.3348 46.2453 16.3878 46.2453 24.0584C46.5964 24.8337 46.2453 24.4801 47.3525 24.9425L57.7358 28.873L50.9846 32.6539L43.3153 30.4235C43.5044 25.3369 43.8284 19.7063 41.6681 15.4629C40.8197 13.6393 39.6945 11.9599 38.333 10.4852C37.5499 9.80514 36.9828 9.00271 36.2266 8.45869C31.7304 5.12657 25.3303 2.74649 21.2121 7.09864C17.9985 10.4988 18.7952 16.211 18.9032 21.76C17.877 21.4471 11.0584 19.2711 10.0727 18.4142L15.9327 15.939V12.4572L5.61695 16.959L0 68.5728L44.8141 91C45.5837 91 46.5289 90.0616 50.215 87.2327L65 76.1619L60.1662 26.8193L49.9585 22.9432C49.7829 19.1079 50.296 16.143 48.9998 12.498C45.7727 3.63052 34.4713 -3.45533 28.4358 1.79445Z" fill="#C08D2F"/>
</svg>
