<svg width="51" height="89" viewBox="0 0 51 89" fill="none" xmlns="http://www.w3.org/2000/svg">
<path fill-rule="evenodd" clip-rule="evenodd" d="M32.842 44.5234C33.064 45.1743 33.1275 45.871 33.0269 46.5527C35.1803 47.0668 37.3732 47.4186 39.6323 47.9056L46.1584 49.3397L45.2601 42.8864C45.0401 40.7923 44.6737 38.7171 44.1636 36.6767C43.2652 36.6767 42.5519 36.4873 41.3629 36.4873H38.1791L33.7403 36.3114C32.8155 36.3114 32.9212 36.4061 32.4192 35.9191C32.2343 38.219 31.2435 36.8931 32.1154 39.8154C32.5984 41.3157 32.8263 42.8899 32.7891 44.4693M11.6519 56.6452C11.0178 56.28 10.3308 55.9417 9.72312 55.5765C5.46926 53.0736 3.3159 54.1424 3.32911 47.3103C3.32911 44.6046 2.91958 44.4558 3.32911 41.4794H7.06776C8.50773 41.4794 9.36643 41.6824 10.4497 41.7094C11.0639 44.1677 11.5054 46.6679 11.7708 49.1909L12.8541 56.9699L11.6519 56.6452ZM28.7862 13.1365C28.619 14.266 28.3447 15.3761 27.9672 16.4511C27.9672 17.0599 29.0769 18.3586 29.1562 19.5898C29.4658 19.9888 29.6907 20.4496 29.8167 20.9426L31.2963 25.8536C31.8908 28.2753 32.3267 29.3846 32.7891 31.8739C32.7891 31.9957 32.7891 32.2257 32.8816 32.3475C33.0005 32.7668 32.8816 32.4963 33.0401 32.7668C34.7311 32.7668 35.6823 32.5639 37.2676 32.5774H41.6932C49.1176 32.5774 48.6817 35.7567 49.6196 42.6023C49.9895 45.3081 50.2669 48.0138 50.5708 50.882C50.7425 52.546 51.5616 53.1819 50.3462 56.3747C49.6064 58.3228 43.8597 58.7963 41.7196 59.0804C39.5794 59.3645 26.765 60.9204 25.4571 60.4333V65.1549C26.95 65.1549 26.7782 64.7625 26.7782 67.8606C26.7782 69.2135 26.7782 70.5664 26.7782 71.8246C29.2618 71.2293 39.1831 71.6352 42.6311 71.6352V73.5292C43.503 74.0027 43.4634 73.9622 43.9522 74.8821C44.84 74.9176 45.7236 75.0261 46.5944 75.2068C47.5852 75.3692 47.4663 74.9362 47.4663 77.5202C50.3198 79.4819 48.6552 82.12 46.5415 82.0795C45.7033 82.0669 44.9445 81.569 44.5831 80.7944C44.2217 80.0198 44.3202 79.1023 44.8373 78.4267C45.5111 77.642 45.4318 78.1832 45.4318 76.7762H43.7276C43.382 77.5526 42.6255 78.0509 41.7922 78.0509C40.959 78.0509 40.2025 77.5526 39.8569 76.7762H30.0809C31.5237 78.4429 33.0493 80.0324 34.6518 81.5383C35.8408 82.7153 34.9293 83.2024 35.2859 84.6635C35.3916 85.0964 35.7615 85.4211 35.9465 85.8946C36.2735 86.8631 35.9473 87.9368 35.1414 88.5444C34.3356 89.1519 33.2375 89.1519 32.4316 88.5444C31.6257 87.9368 31.2995 86.8631 31.6266 85.8946C32.0493 84.4741 32.657 86.0028 32.657 82.9859L24.5984 77.5744C23.5812 76.925 23.5416 77.2361 21.3618 77.8043C16.6059 79.0219 11.9161 80.3072 7.19986 81.4301V82.5665C10.3704 82.8371 9.56459 87.6263 6.71107 87.2204C5.52256 86.9923 4.6618 85.9288 4.6634 84.6905C4.80872 83.1753 5.17862 85.2452 5.17862 80.4966C5.75471 80.1509 6.37813 79.8955 7.02813 79.739C6.79033 79.5766 4.26708 78.6431 5.20504 76.3568L5.54852 75.7615C5.85237 75.4233 5.54852 75.5315 6.11658 75.3962V71.4729H22.4583C22.4583 70.12 22.4583 68.7671 22.4583 67.5089C22.4583 65.2766 21.9167 65.0602 23.9379 65.0602V60.528C22.0318 60.5353 20.1351 60.2527 18.3101 59.6892C18.2388 59.3771 18.1859 59.0609 18.1516 58.7422C17.7817 55.2382 17.4514 52.1131 17.0023 48.7715C15.8793 40.5189 16.4078 36.5955 7.46408 36.6902C3.50085 36.4196 3.61975 37.9078 2.5761 28.4106C2.31188 25.6236 2.02125 22.6743 1.69098 20.0633L0.369901 7.79261C0.277426 6.43973 0 4.74862 0 3.49044C0 -0.365279 2.64215 0.554682 5.60136 0.135288C7.16023 -0.081173 20.8069 0.0270577 23.6208 0.0270577C25.6421 0.0270577 28.9051 -0.324692 28.9051 3.85572C29.1231 4.52735 29.2302 5.23147 29.2222 5.93916C29.3167 6.79325 29.3167 7.65554 29.2222 8.50964C29.1562 9.97075 29.0637 11.7971 28.7862 13.1365Z" fill="#C08D2F"/>
</svg>
