<svg width="220" height="51" viewBox="0 0 220 51" fill="none" xmlns="http://www.w3.org/2000/svg">
<path d="M173.409 47.1113H219.99V49.6884H170.547C171.271 49.3498 171.972 48.9594 172.643 48.5201L173.409 48.0391V47.1113ZM92.6229 47.1113H151.382C152.421 48.1548 153.611 49.0243 154.909 49.6884H92.6229V47.1113ZM1.02351 47.1113H82.2418L84.1716 49.6884H0.990234L1.02351 47.1113Z" fill="white"/>
<path d="M10.971 19.8641H5.74718C5.33557 19.8455 4.93408 19.9991 4.63351 20.2901C4.33293 20.5811 4.15866 20.985 4.1501 21.4104V23.5064H2.41992V18.5928H23.4815V23.5064H21.7513V21.4104C21.7427 20.985 21.5684 20.5811 21.2679 20.2901C20.9673 19.9991 20.5658 19.8455 20.1542 19.8641H14.9304V44.2947H16.96V45.5661H8.94134V44.2947H10.971V19.8641Z" fill="white"/>
<path d="M55.2255 35.1877V44.2934H57.1886V45.5647H49.1699V44.2934H51.1995V27.7314C51.191 27.306 51.0167 26.9022 50.7161 26.6111C50.4156 26.3201 50.0141 26.1666 49.6025 26.1852H49.1699V24.9138H57.1886V26.1852H56.7561C56.3445 26.1666 55.943 26.3201 55.6424 26.6111C55.3418 26.9022 55.1675 27.306 55.159 27.7314V33.9851H62.9448V27.594C62.9362 27.1686 62.7619 26.7647 62.4613 26.4737C62.1608 26.1827 61.7593 26.0291 61.3477 26.0477H60.9151V24.7764H68.9338V26.0477H68.5013C68.0897 26.0291 67.6882 26.1827 67.3876 26.4737C67.087 26.7647 66.9128 27.1686 66.9042 27.594V44.2934H68.9338V45.5647H60.9151V44.2934H62.9448V35.3252L55.2255 35.1877Z" fill="white"/>
<path d="M103.139 45.4275H88.7988V44.2936H90.8285V27.7317C90.8199 27.3063 90.6456 26.9024 90.3451 26.6114C90.0445 26.3204 89.643 26.1668 89.2314 26.1854H88.7988V24.9141H102.607V28.1783H101.276V27.7317C101.267 27.3063 101.093 26.9024 100.793 26.6114C100.492 26.3204 100.091 26.1668 99.679 26.1854H94.7546V33.9853H99.3795V32.0268H100.71V37.1465H99.3795V35.188H94.7546V44.2936H101.409V42.335H103.272L103.139 45.4275Z" fill="white"/>
<path d="M118.141 45.4275L107.86 30.0682V44.2936H109.889V45.565H103.967V44.2936H105.996V27.7317C105.988 27.3063 105.814 26.9024 105.513 26.6114C105.212 26.3204 104.811 26.1668 104.399 26.1854H103.967V24.9141H108.692L119.073 40.5139V27.7317C119.064 27.3063 118.89 26.9024 118.589 26.6114C118.289 26.3204 117.887 26.1668 117.475 26.1854H117.076V24.9141H122.999V26.1854H122.566C122.155 26.1668 121.753 26.3204 121.452 26.6114C121.152 26.9024 120.978 27.3063 120.969 27.7317V45.565L118.141 45.4275Z" fill="white"/>
<path d="M130.622 26.0819H126.696C126.284 26.0633 125.883 26.2169 125.582 26.5079C125.281 26.7989 125.107 27.2028 125.099 27.6281V28.0748H123.734V24.8105H141.336V28.0748H140.005V27.6281C139.996 27.2028 139.822 26.7989 139.521 26.5079C139.221 26.2169 138.819 26.0633 138.408 26.0819H134.481V44.2932H136.511V45.5645H128.492V44.2932H130.522L130.622 26.0819Z" fill="white"/>
<path d="M188.247 26.0834H184.321C183.91 26.0648 183.508 26.2184 183.207 26.5094C182.907 26.8004 182.733 27.2042 182.724 27.6296V28.0763H181.393V24.812H198.994V28.0763H197.663V27.6296C197.655 27.2042 197.481 26.8004 197.18 26.5094C196.879 26.2184 196.478 26.0648 196.066 26.0834H192.14V44.2947H194.17V45.566H186.151V44.2947H188.181L188.247 26.0834ZM178.565 44.2947H180.595V45.566H172.576V44.2947H174.606V27.7327C174.597 27.3073 174.423 26.9035 174.122 26.6124C173.822 26.3214 173.42 26.1679 173.008 26.1865H172.576V24.9151H180.595V26.1865H180.295C179.884 26.1679 179.482 26.3214 179.182 26.6124C178.881 26.9035 178.707 27.3073 178.698 27.7327L178.565 44.2947ZM171.91 47.2841C169.119 49.0438 165.897 49.9383 162.627 49.8611C158.601 50.0657 154.696 48.4024 151.98 45.3255C146.882 37.8815 146.882 27.9265 151.98 20.4826C154.66 17.467 158.503 15.8421 162.461 16.05C165.533 16.1841 168.574 16.7269 171.511 17.665V23.6781H170.18V23.3689C170.18 17.4932 159.6 14.5725 155.174 21.5477C153.253 24.923 152.328 28.8043 152.513 32.715C152.291 36.6223 153.397 40.4869 155.64 43.6418C157.765 46.2826 160.971 47.7342 164.291 47.559C167.04 47.4497 169.708 46.5708 172.01 45.0162L171.91 47.2841ZM207.945 36.6665L202.854 27.6983C202.314 26.7754 201.335 26.224 200.292 26.2552H199.993V24.9838H208.444V26.2552H207.745C207.476 26.2572 207.225 26.3993 207.08 26.6332C206.942 26.865 206.942 27.1573 207.08 27.3891L211.338 34.8798L215.597 27.3891C215.735 27.1573 215.735 26.865 215.597 26.6332C215.451 26.3993 215.201 26.2572 214.932 26.2552H214.233V24.9838H219.856V26.2552H219.557C218.513 26.224 217.534 26.7754 216.995 27.6983L211.904 36.6665V44.2947H213.934V45.566H205.915V44.2947H207.945V36.6665Z" fill="white"/>
<path d="M35.7932 45.1867V40.8572H36.3255V41.2009C36.8642 42.14 37.604 42.9393 38.4883 43.5374C39.3655 44.2304 40.4452 44.594 41.5493 44.5682C42.5552 44.6122 43.5367 44.2413 44.2777 43.5374C44.9855 42.8435 45.3626 41.8636 45.3091 40.8572C45.3357 40.1099 45.1254 39.374 44.7102 38.7612C44.035 38.0395 43.2334 37.4565 42.3479 37.0432L40.9504 36.2872C37.4457 34.3859 35.6934 32.3128 35.6934 30.0679C35.6934 26.6318 38.3219 24.2266 42.6473 24.2266C44.5645 24.273 46.4669 24.5851 48.3037 25.1543V29.312H47.2057V29.0715C47.0808 27.0672 45.4216 25.5374 43.4791 25.6354C41.9514 25.5726 40.5788 26.5931 40.1519 28.1093C39.9522 29.5181 40.8173 31.2018 43.0799 32.5075C45.161 33.5019 47.0803 34.8233 48.7695 36.4247C49.5486 37.3841 49.9521 38.6098 49.9007 39.8608C49.9477 41.6388 49.1375 43.3251 47.738 44.3621C46.0415 45.5689 44.0056 46.161 41.9486 46.0457C39.9537 46.0168 37.9678 45.7633 36.0261 45.2898" fill="white"/>
<path d="M31.0041 37.7994L27.6769 29.759L24.3496 37.7994H31.0041ZM21.4216 44.2936H23.4513V45.565H17.7949V44.2936H19.8245L28.1094 24.9141H29.4736L36.3277 40.995L36.0616 42.5069L35.8619 44.1562L37.8916 45.5306H31.6363V44.2936H33.6659L31.4699 39.1395H23.5843L21.4216 44.2936Z" fill="white"/>
<path d="M75.6196 35.4972V44.2936H77.6492V45.565H69.7969V44.2936H71.8265V27.7317C71.8179 27.3063 71.6437 26.9024 71.3431 26.6114C71.0425 26.3204 70.641 26.1668 70.2294 26.1854H69.7969V24.9141H77.6492V26.1854H77.1501C76.7385 26.1668 76.337 26.3204 76.0364 26.6114C75.7359 26.9024 75.5616 27.3063 75.553 27.7317V34.6038L82.507 27.7317C82.6741 27.4838 82.6741 27.1548 82.507 26.907C82.3831 26.6055 82.092 26.4142 81.775 26.4259H81.6086V25.1546H87.7641V26.4259C86.5192 26.428 85.3247 26.9337 84.4368 27.8347L78.5808 33.7105L88.8621 47.4548H90.8917V50.0319H86.1337L75.6196 35.4972Z" fill="white"/>
<path d="M58 1.584V7.884H59.242V2.772H61.465V7.884H62.707V1.584H58Z" fill="white"/>
<path d="M65.1219 5.283H67.5069V4.113H65.1219V2.772H67.7319V1.584H63.8799V7.884H67.7769V6.696H65.1219V5.283Z" fill="white"/>
<path d="M68.6523 1.584V7.884H69.8943V5.814H71.0013C71.6043 5.814 72.1173 5.607 72.5313 5.202C72.9453 4.797 73.1523 4.293 73.1523 3.699C73.1523 3.105 72.9453 2.601 72.5313 2.196C72.1173 1.791 71.6043 1.584 71.0013 1.584H68.6523ZM69.8943 4.653V2.745H71.0013C71.5323 2.745 71.9193 3.15 71.9193 3.699C71.9193 4.239 71.5323 4.653 71.0013 4.653H69.8943Z" fill="white"/>
<path d="M77.7679 4.617C78.1639 4.302 78.3619 3.879 78.3619 3.357C78.3619 2.844 78.1729 2.421 77.8039 2.088C77.4349 1.755 76.9849 1.584 76.4449 1.584H73.9609V7.884H76.6339C77.1829 7.884 77.6509 7.713 78.0289 7.371C78.4069 7.029 78.5959 6.588 78.5959 6.057C78.5959 5.418 78.3169 4.932 77.7679 4.617ZM76.4449 2.745C76.8409 2.745 77.1199 3.042 77.1199 3.438C77.1199 3.834 76.8319 4.131 76.4449 4.131H75.2029V2.745H76.4449ZM75.2029 6.723V5.238H76.6339C77.0569 5.238 77.3629 5.553 77.3629 5.976C77.3629 6.408 77.0569 6.723 76.6339 6.723H75.2029Z" fill="white"/>
<path d="M81.7592 7.884C82.3622 7.884 82.8752 7.677 83.2892 7.272C83.7032 6.867 83.9102 6.363 83.9102 5.769C83.9102 5.175 83.7032 4.671 83.2892 4.266C82.8752 3.861 82.3622 3.654 81.7592 3.654H80.6522V1.584H79.4102V7.884H81.7592ZM85.7192 7.884V1.584H84.4862V7.884H85.7192ZM80.6522 4.815H81.7592C82.2902 4.815 82.6772 5.22 82.6772 5.769C82.6772 6.318 82.2902 6.723 81.7592 6.723H80.6522V4.815Z" fill="white"/>
<path d="M90.6336 1.008V0H88.0236V1.008H90.6336ZM91.7766 7.884V1.584H90.8316L88.1316 5.436V1.584H86.8896V7.884H87.8346L90.5346 4.041V7.884H91.7766Z" fill="white"/>
<path d="M98.5343 4.626C98.9843 4.302 99.2093 3.861 99.2093 3.294C99.2093 2.745 99.0113 2.295 98.6153 1.962C98.2193 1.629 97.7063 1.458 97.0853 1.458C96.0503 1.458 95.3213 1.908 94.8983 2.799L95.9513 3.411C96.1673 2.88 96.5453 2.619 97.0853 2.619C97.6703 2.619 97.9763 2.907 97.9763 3.375C97.9763 3.843 97.6073 4.131 96.9863 4.131H96.3923V5.238H97.1753C97.8323 5.238 98.2013 5.544 98.2013 6.039C98.2013 6.534 97.8323 6.84 97.1483 6.84C96.4913 6.84 96.0593 6.534 95.8703 5.922L94.7993 6.525C95.1953 7.515 95.9783 8.01 97.1483 8.01C97.8233 8.01 98.3723 7.839 98.7953 7.488C99.2183 7.137 99.4343 6.687 99.4343 6.12C99.4343 5.445 99.1373 4.941 98.5343 4.626Z" fill="white"/>
<path d="M105.64 7.884L103.426 1.584H101.887L99.6822 7.884H101.023L101.401 6.75H103.912L104.29 7.884H105.64ZM102.661 3.015L103.525 5.589H101.797L102.661 3.015Z" fill="white"/>
<path d="M109.011 8.01C110.163 8.01 111.18 7.434 111.72 6.525L110.649 5.904C110.352 6.453 109.731 6.795 109.011 6.795C108.399 6.795 107.904 6.606 107.526 6.219C107.157 5.832 106.968 5.337 106.968 4.734C106.968 4.122 107.157 3.627 107.526 3.24C107.904 2.853 108.399 2.664 109.011 2.664C109.731 2.664 110.334 2.997 110.649 3.564L111.72 2.943C111.18 2.034 110.154 1.458 109.011 1.458C108.066 1.458 107.283 1.773 106.662 2.403C106.041 3.024 105.735 3.807 105.735 4.734C105.735 5.661 106.041 6.435 106.662 7.065C107.283 7.695 108.066 8.01 109.011 8.01Z" fill="white"/>
<path d="M111.989 1.584V2.772H113.681V7.884H114.923V2.772H116.624V1.584H111.989Z" fill="white"/>
<path d="M117.317 1.584V7.884H118.559V5.814H119.666C120.269 5.814 120.782 5.607 121.196 5.202C121.61 4.797 121.817 4.293 121.817 3.699C121.817 3.105 121.61 2.601 121.196 2.196C120.782 1.791 120.269 1.584 119.666 1.584H117.317ZM118.559 4.653V2.745H119.666C120.197 2.745 120.584 3.15 120.584 3.699C120.584 4.239 120.197 4.653 119.666 4.653H118.559Z" fill="white"/>
<path d="M127.883 7.065C128.522 6.426 128.837 5.652 128.837 4.734C128.837 3.816 128.522 3.042 127.883 2.412C127.244 1.773 126.47 1.458 125.561 1.458C124.652 1.458 123.878 1.773 123.239 2.412C122.609 3.042 122.294 3.816 122.294 4.734C122.294 5.652 122.609 6.426 123.239 7.065C123.878 7.695 124.652 8.01 125.561 8.01C126.47 8.01 127.244 7.695 127.883 7.065ZM124.112 6.219C123.725 5.832 123.527 5.337 123.527 4.734C123.527 4.131 123.725 3.636 124.112 3.249C124.499 2.862 124.985 2.664 125.561 2.664C126.137 2.664 126.623 2.862 127.01 3.249C127.397 3.636 127.595 4.131 127.595 4.734C127.595 5.337 127.397 5.832 127.01 6.219C126.623 6.606 126.137 6.795 125.561 6.795C124.985 6.795 124.499 6.606 124.112 6.219Z" fill="white"/>
<path d="M133.454 1.008V0H130.844V1.008H133.454ZM134.597 7.884V1.584H133.652L130.952 5.436V1.584H129.71V7.884H130.655L133.355 4.041V7.884H134.597Z" fill="white"/>
<path d="M143.083 1.584H141.841V6.696H140.041V1.584H138.808V6.696H137.008V1.584H135.766V7.884H142.516V9.09H143.758V6.696H143.083V1.584Z" fill="white"/>
<path d="M149.477 7.884V1.584H148.532L145.832 5.436V1.584H144.59V7.884H145.535L148.235 4.041V7.884H149.477Z" fill="white"/>
<path d="M153.148 4.644L155.479 1.584H154.048L151.888 4.365V1.584H150.646V7.884H151.888V4.932L154.138 7.884H155.569L153.148 4.644Z" fill="white"/>
<path d="M162.24 4.617C162.636 4.302 162.834 3.879 162.834 3.357C162.834 2.844 162.645 2.421 162.276 2.088C161.907 1.755 161.457 1.584 160.917 1.584H158.433V7.884H161.106C161.655 7.884 162.123 7.713 162.501 7.371C162.879 7.029 163.068 6.588 163.068 6.057C163.068 5.418 162.789 4.932 162.24 4.617ZM160.917 2.745C161.313 2.745 161.592 3.042 161.592 3.438C161.592 3.834 161.304 4.131 160.917 4.131H159.675V2.745H160.917ZM159.675 6.723V5.238H161.106C161.529 5.238 161.835 5.553 161.835 5.976C161.835 6.408 161.529 6.723 161.106 6.723H159.675Z" fill="white"/>
</svg>
