<svg width="265" height="40" viewBox="0 0 265 40" fill="none" xmlns="http://www.w3.org/2000/svg">
<path fill-rule="evenodd" clip-rule="evenodd" d="M98.3181 36H0.0402613L0 39H100.653L98.3181 36ZM110.88 36H181.981C183.238 37.2148 184.678 38.227 186.249 39H110.88V36ZM208.634 36H265V39H205.172C206.048 38.6058 206.895 38.1514 207.708 37.64L208.634 37.08V36Z" fill="white"/>
<path d="M11.7205 4.1743H5.38141C4.88191 4.15224 4.3947 4.33443 4.02995 4.67967C3.66521 5.0249 3.45372 5.50402 3.44333 6.00869V8.49532H1.34375V2.66602H26.9021V8.49532H24.8025V6.00869C24.7922 5.50402 24.5807 5.0249 24.2159 4.67967C23.8512 4.33443 23.364 4.15224 22.8645 4.1743H16.5253V33.1577H18.9883V34.666H9.25756V33.1577H11.7205V4.1743Z" fill="white"/>
<path d="M65.2626 22.6859V33.1982H67.6676V34.666H57.8438V33.1982H60.3303V14.0776C60.3198 13.5865 60.1063 13.1202 59.7381 12.7843C59.3698 12.4483 58.8779 12.271 58.3737 12.2925H57.8438V10.8247H67.6676V12.2925H67.1377C66.6334 12.271 66.1416 12.4483 65.7733 12.7843C65.4051 13.1202 65.1916 13.5865 65.1811 14.0776V21.2974H74.7196V13.9189C74.7091 13.4278 74.4956 12.9615 74.1274 12.6256C73.7591 12.2896 73.2673 12.1123 72.763 12.1338H72.2331V10.666H82.0569V12.1338H81.527C81.0228 12.1123 80.5309 12.2896 80.1626 12.6256C79.7944 12.9615 79.5809 13.4278 79.5704 13.9189V33.1982H82.0569V34.666H72.2331V33.1982H74.7196V22.8445L65.2626 22.6859Z" fill="white"/>
<path d="M123.596 34.666H106.27V33.3394H108.722V13.9625C108.711 13.4648 108.501 12.9923 108.138 12.6518C107.775 12.3114 107.289 12.1317 106.792 12.1535H106.27V10.666H122.953V14.4851H121.345V13.9625C121.334 13.4648 121.124 12.9923 120.761 12.6518C120.398 12.3114 119.912 12.1317 119.415 12.1535H113.465V21.2791H119.053V18.9876H120.661V24.9776H119.053V22.6861H113.465V33.3394H121.506V31.0479H123.757L123.596 34.666Z" fill="white"/>
<path d="M142.133 34.5063L129.779 16.656V33.1885H132.218V34.666H125.102V33.1885H127.54V13.9406C127.53 13.4462 127.321 12.9768 126.959 12.6386C126.598 12.3004 126.116 12.1219 125.621 12.1436H125.102V10.666H130.779L143.252 28.7958V13.9406C143.242 13.4462 143.032 12.9768 142.671 12.6386C142.31 12.3004 141.828 12.1219 141.333 12.1436H140.853V10.666H147.97V12.1436H147.45C146.955 12.1219 146.473 12.3004 146.112 12.6386C145.751 12.9768 145.541 13.4462 145.531 13.9406V34.666L142.133 34.5063Z" fill="white"/>
<path d="M157.738 12.1362H152.937C152.434 12.1147 151.943 12.2923 151.576 12.6288C151.208 12.9653 150.995 13.4324 150.985 13.9243V14.4409H149.316V10.666H170.839V14.4409H169.212V13.9243C169.201 13.4324 168.988 12.9653 168.621 12.6288C168.253 12.2923 167.762 12.1147 167.259 12.1362H162.458V33.1958H164.94V34.666H155.134V33.1958H157.616L157.738 12.1362Z" fill="white"/>
<path fill-rule="evenodd" clip-rule="evenodd" d="M206.53 36.9344C203.126 39.014 199.197 40.0712 195.21 39.98C190.299 40.2219 185.538 38.256 182.226 34.6197C176.008 25.8222 176.008 14.0571 182.226 5.25953C185.494 1.69571 190.18 -0.2247 195.007 0.0209983C198.752 0.179443 202.462 0.820944 206.043 1.92961V9.03615H204.42V8.67067C204.42 1.72657 191.517 -1.72518 186.121 6.5184C183.778 10.5074 182.65 15.0945 182.875 19.7163C182.605 24.334 183.954 28.9013 186.689 32.6299C189.28 35.7508 193.19 37.4664 197.239 37.2593C200.591 37.1301 203.844 36.0914 206.652 34.2542L206.53 36.9344ZM221.665 11.8788H226.453L226.372 33.4014H223.896V34.9039H233.675V33.4014H231.2V11.8788H235.988C236.49 11.8568 236.979 12.0383 237.346 12.3822C237.712 12.7261 237.925 13.2034 237.935 13.7062V14.2341H239.558V10.3762H218.094V14.2341H219.717V13.7062C219.728 13.2034 219.94 12.7261 220.307 12.3822C220.673 12.0383 221.163 11.8568 221.665 11.8788ZM217.12 33.4014H214.645L214.808 13.828C214.818 13.3252 215.031 12.848 215.397 12.504C215.764 12.1601 216.253 11.9786 216.755 12.0006H217.12V10.4981H207.342V12.0006H207.869C208.371 11.9786 208.861 12.1601 209.227 12.504C209.594 12.848 209.806 13.3252 209.817 13.828V33.4014H207.342V34.9039H217.12V33.4014ZM244.265 13.7874L250.473 24.3863V33.4014H247.998V34.9039H257.777V33.4014H255.302V24.3863L261.51 13.7874C262.168 12.6966 263.361 12.0449 264.634 12.0818H264.999V10.5793H258.142V12.0818H258.994C259.322 12.0842 259.628 12.2522 259.805 12.5285C259.974 12.8025 259.974 13.1479 259.805 13.4219L254.612 22.2746L249.418 13.4219C249.25 13.1479 249.25 12.8025 249.418 12.5285C249.596 12.2522 249.901 12.0842 250.23 12.0818H251.082V10.5793H240.776V12.0818H241.141C242.413 12.0449 243.607 12.6966 244.265 13.7874Z" fill="white"/>
<path d="M41.822 33.6542V28.6307H42.4771V29.0294C43.1399 30.1191 44.0503 31.0465 45.1383 31.7405C46.2177 32.5445 47.5462 32.9664 48.9049 32.9366C50.1426 32.9875 51.3504 32.5572 52.2621 31.7405C53.133 30.9353 53.597 29.7984 53.5313 28.6307C53.5639 27.7635 53.3052 26.9096 52.7943 26.1987C51.9635 25.3612 50.9771 24.6848 49.8875 24.2052L48.1679 23.3281C43.8555 21.122 41.6992 18.7165 41.6992 16.1117C41.6992 12.1248 44.9336 9.33398 50.256 9.33398C52.615 9.3879 54.9559 9.74996 57.216 10.4105V15.2346H55.8649V14.9555C55.7112 12.63 53.6696 10.8549 51.2795 10.9686C49.3996 10.8958 47.7107 12.0799 47.1854 13.8392C46.9397 15.4738 48.0042 17.4274 50.7882 18.9425C53.349 20.0962 55.7106 21.6294 57.7892 23.4876C58.7478 24.6008 59.2444 26.0229 59.1812 27.4745C59.2389 29.5376 58.242 31.4942 56.52 32.6973C54.4325 34.0976 51.9273 34.7846 49.3962 34.6509C46.9415 34.6173 44.4979 34.3232 42.1086 33.7738" fill="white"/>
<path fill-rule="evenodd" clip-rule="evenodd" d="M26.9908 33.1885H24.5454L27.1511 27.1985H36.652L39.2978 33.1885H36.8524V34.6261H44.389L41.9436 33.0287L42.1841 31.1119L42.5048 29.3549L34.2467 10.666H32.6031L22.6212 33.1885H20.1758V34.666H26.9908V33.1885ZM32.0819 16.2966L36.0907 25.6411H28.0731L32.0819 16.2966Z" fill="white"/>
<path d="M90.4571 23.0253V33.298H92.9162V34.7828H83.4023V33.298H85.8614V13.9565C85.8511 13.4597 85.6399 12.9881 85.2757 12.6482C84.9116 12.3084 84.4251 12.129 83.9264 12.1507H83.4023V10.666H92.9162V12.1507H92.3115C91.8128 12.129 91.3263 12.3084 90.9622 12.6482C90.598 12.9881 90.3868 13.4597 90.3765 13.9565V21.982L98.8019 13.9565C99.0043 13.6671 99.0043 13.2828 98.8019 12.9934C98.6518 12.6413 98.299 12.4179 97.915 12.4316H97.7134V10.9469H105.171V12.4316C103.663 12.434 102.216 13.0246 101.14 14.0769L94.0449 20.9387L106.502 36.9898H108.961V39.9993H103.196L90.4571 23.0253Z" fill="white"/>
</svg>
