<svg width="645" height="191" viewBox="0 0 645 191" fill="none" xmlns="http://www.w3.org/2000/svg">
<g filter="url(#filter0_d)">
<path d="M143.541 46.52H145.041C145.521 42.2 146.631 41 148.791 41H158.511C160.671 41 161.781 42.2 162.261 46.52H163.761V40.7C163.761 40.1 163.311 39.65 162.711 39.65H161.661V21.2H145.791V22.1H146.091C147.891 22.1 148.191 23.3 148.191 25.1C148.191 30.53 147.591 35.42 145.641 39.65H144.591C143.991 39.65 143.541 40.1 143.541 40.7V46.52ZM148.761 39.65C150.531 35.54 151.161 30.71 151.161 22.55H157.761V39.65H148.761ZM176.268 41.6C182.238 41.6 186.138 37.01 186.138 31.1C186.138 25.19 182.238 20.6 176.268 20.6C170.298 20.6 166.368 25.19 166.368 31.1C166.368 37.01 170.298 41.6 176.268 41.6ZM176.268 40.25C172.638 40.25 170.568 36.95 170.568 31.1C170.568 25.25 172.638 21.95 176.268 21.95C179.898 21.95 181.998 25.25 181.998 31.1C181.998 36.95 179.898 40.25 176.268 40.25ZM190.791 41H197.391C201.711 41 206.241 40.1 206.241 35.3C206.241 30.5 201.711 29.6 197.391 29.6H194.691V22.55H199.461C201.861 22.55 203.211 23.54 203.211 26.15H204.111V23.6C204.111 22.4 203.631 21.2 201.561 21.2H188.391V22.1H188.691C190.491 22.1 190.791 23.3 190.791 25.1V41ZM196.941 39.8C195.981 39.8 195.111 39.62 194.691 39.5V31.1C195.591 30.89 196.071 30.8 196.941 30.8C200.541 30.8 202.041 32.15 202.041 35.3C202.041 38.45 200.541 39.8 196.941 39.8ZM210.692 41H214.592V32.99H217.442C219.212 32.99 224.642 32.42 224.642 27.23C224.642 21.74 219.242 21.2 216.542 21.2H208.292V22.1H208.592C210.392 22.1 210.692 23.3 210.692 25.1V41ZM214.592 31.79V22.61C215.522 22.43 216.092 22.4 216.542 22.4C218.432 22.4 220.442 23.39 220.442 27.08C220.442 30.8 218.432 31.79 216.392 31.79H214.592ZM237.023 41.6C242.993 41.6 246.893 37.01 246.893 31.1C246.893 25.19 242.993 20.6 237.023 20.6C231.053 20.6 227.123 25.19 227.123 31.1C227.123 37.01 231.053 41.6 237.023 41.6ZM237.023 40.25C233.393 40.25 231.323 36.95 231.323 31.1C231.323 25.25 233.393 21.95 237.023 21.95C240.653 21.95 242.753 25.25 242.753 31.1C242.753 36.95 240.653 40.25 237.023 40.25ZM260.079 41H263.979V22.55H271.779V41H275.679V21.2H257.679V22.1H257.979C259.779 22.1 260.079 23.3 260.079 25.1V41ZM289.78 41.6C295.75 41.6 299.65 37.01 299.65 31.1C299.65 25.19 295.75 20.6 289.78 20.6C283.81 20.6 279.88 25.19 279.88 31.1C279.88 37.01 283.81 41.6 289.78 41.6ZM289.78 40.25C286.15 40.25 284.08 36.95 284.08 31.1C284.08 25.25 286.15 21.95 289.78 21.95C293.41 21.95 295.51 25.25 295.51 31.1C295.51 36.95 293.41 40.25 289.78 40.25ZM301.491 41.3C304.041 41.3 306.231 40.7 308.811 37.4L312.741 32.45V41H316.671V32.45L320.601 37.4C323.181 40.7 325.371 41.3 327.921 41.3C328.791 41.3 329.391 41.15 329.841 41V40.28C328.641 40.07 326.811 38.87 325.341 37.1L319.311 29.9L323.481 24.38C324.831 22.73 326.091 22.25 328.671 22.25V21.2H326.871C324.471 21.2 322.851 22.67 321.561 24.35L316.671 30.8V21.2H312.741V30.8L307.851 24.35C306.561 22.67 304.941 21.2 302.541 21.2H300.741V22.25C303.321 22.25 304.581 22.73 305.931 24.38L310.101 29.9L304.071 37.1C302.601 38.87 300.771 40.07 299.571 40.28V41C300.021 41.15 300.621 41.3 301.491 41.3ZM349.246 41.12C349.696 41.12 350.356 41.06 350.686 40.97V40.22C349.336 40.07 348.286 38.99 347.566 37.22L340.846 21.2H339.496L330.646 41H332.206L334.666 35.54H342.646L343.336 37.22C344.776 40.64 347.266 41.12 349.246 41.12ZM335.296 34.19L338.776 26.36L342.076 34.19H335.296ZM352.247 41.45C355.847 41.45 358.457 37.85 358.457 25.1V22.55H364.937V41H368.837V21.2H352.787V22.1H353.087C354.887 22.1 355.187 23.3 355.187 25.1C355.187 37.37 352.997 39.71 350.447 40.25V41.18C350.897 41.33 351.497 41.45 352.247 41.45ZM382.916 41.6C388.886 41.6 392.786 37.01 392.786 31.1C392.786 25.19 388.886 20.6 382.916 20.6C376.946 20.6 373.016 25.19 373.016 31.1C373.016 37.01 376.946 41.6 382.916 41.6ZM382.916 40.25C379.286 40.25 377.216 36.95 377.216 31.1C377.216 25.25 379.286 21.95 382.916 21.95C386.546 21.95 388.646 25.25 388.646 31.1C388.646 36.95 386.546 40.25 382.916 40.25ZM397.439 41H404.039C408.299 41 412.889 40.1 412.889 35.51C412.889 33.2 411.749 31.16 407.819 30.77C410.609 30.05 411.989 28.16 411.989 26.45C411.989 21.71 406.889 21.2 403.139 21.2H395.039V22.1H395.339C397.139 22.1 397.439 23.3 397.439 25.1V41ZM401.339 30.17V22.61C402.209 22.43 402.689 22.4 403.139 22.4C405.449 22.4 407.789 23.33 407.789 26.3C407.789 29.15 406.019 30.17 403.589 30.17H401.339ZM403.589 39.8C402.629 39.8 401.759 39.62 401.339 39.5V31.52H403.589C406.979 31.52 408.689 32.9 408.689 35.66C408.689 38.3 406.919 39.8 403.589 39.8ZM433.417 41.12C433.867 41.12 434.527 41.06 434.857 40.97V40.22C433.507 40.07 432.457 38.99 431.737 37.22L425.017 21.2H423.667L414.817 41H416.377L418.837 35.54H426.817L427.507 37.22C428.947 40.64 431.437 41.12 433.417 41.12ZM419.467 34.19L422.947 26.36L426.247 34.19H419.467ZM440.089 41H443.989V22.55H450.259V21.2H436.159C434.089 21.2 433.609 22.4 433.609 23.6V26.15H434.509C434.509 23.48 435.829 22.55 437.959 22.55H440.089V41ZM454.092 41H460.692C465.012 41 469.542 39.83 469.542 35.15C469.542 30.47 465.012 29.3 460.692 29.3H457.992V25.1C457.992 22.13 457.392 21.2 455.292 21.2H451.692V22.1H451.992C453.792 22.1 454.092 23.3 454.092 25.1V41ZM460.242 39.8C459.282 39.8 458.412 39.62 457.992 39.5V30.8C458.892 30.59 459.372 30.5 460.242 30.5C463.842 30.5 465.342 32.15 465.342 35.15C465.342 38.15 463.842 39.8 460.242 39.8ZM482.115 41H488.715C492.975 41 497.565 40.1 497.565 35.51C497.565 33.2 496.425 31.16 492.495 30.77C495.285 30.05 496.665 28.16 496.665 26.45C496.665 21.71 491.565 21.2 487.815 21.2H479.715V22.1H480.015C481.815 22.1 482.115 23.3 482.115 25.1V41ZM486.015 30.17V22.61C486.885 22.43 487.365 22.4 487.815 22.4C490.125 22.4 492.465 23.33 492.465 26.3C492.465 29.15 490.695 30.17 488.265 30.17H486.015ZM488.265 39.8C487.305 39.8 486.435 39.62 486.015 39.5V31.52H488.265C491.655 31.52 493.365 32.9 493.365 35.66C493.365 38.3 491.595 39.8 488.265 39.8Z" fill="white"/>
</g>
<g filter="url(#filter1_d)">
<path fill-rule="evenodd" clip-rule="evenodd" d="M246.671 142.041H30.0887L30 148.711H251.817L246.671 142.041ZM274.349 142.041H431.04C433.81 144.742 436.983 146.992 440.445 148.711H274.349V142.041ZM489.782 142.041H613.999V148.711H482.151C484.082 147.835 485.95 146.824 487.741 145.687L489.782 144.442V142.041Z" fill="white"/>
<path d="M55.8329 71.2831H41.8629C40.7621 71.2341 39.6884 71.6392 38.8846 72.4067C38.0808 73.1743 37.6147 74.2396 37.5918 75.3616V80.8902H32.9648V67.9297H89.2897V80.8902H84.6627V75.3616C84.6398 74.2396 84.1737 73.1743 83.3699 72.4067C82.5661 71.6392 81.4924 71.2341 80.3916 71.2831H66.4216V135.723H71.8494V139.077H50.4051V135.723H55.8329V71.2831Z" fill="white"/>
<path d="M173.822 112.439V135.812H179.122V139.075H157.473V135.812H162.952V93.3C162.929 92.208 162.459 91.1714 161.647 90.4244C160.836 89.6775 159.752 89.2833 158.64 89.331H157.473V86.0676H179.122V89.331H177.954C176.843 89.2833 175.759 89.6775 174.948 90.4244C174.136 91.1714 173.666 92.208 173.642 93.3V109.352H194.663V92.9472C194.64 91.8552 194.17 90.8186 193.358 90.0716C192.547 89.3247 191.463 88.9305 190.351 88.9782H189.183V85.7148H210.833V88.9782H209.665C208.554 88.9305 207.47 89.3247 206.658 90.0716C205.847 90.8186 205.376 91.8552 205.353 92.9472V135.812H210.833V139.075H189.183V135.812H194.663V112.792L173.822 112.439Z" fill="white"/>
<path d="M302.375 139.075H264.191V136.126H269.596V93.0441C269.573 91.9375 269.109 90.887 268.308 90.13C267.508 89.373 266.439 88.9736 265.343 89.0219H264.191V85.7148H300.958V94.206H297.414V93.0441C297.391 91.9375 296.927 90.887 296.127 90.13C295.326 89.373 294.257 88.9736 293.161 89.0219H280.05V109.311H292.364V104.217H295.908V117.534H292.364V112.44H280.05V136.126H297.768V131.031H302.729L302.375 139.075Z" fill="white"/>
<path d="M343.228 138.72L316.004 99.0327V135.79H321.378V139.075H305.695V135.79H311.07V92.9953C311.047 91.8961 310.586 90.8526 309.79 90.1006C308.994 89.3487 307.931 88.9519 306.841 88.9999H305.695V85.7148H318.206L345.695 126.024V92.9953C345.672 91.8961 345.211 90.8526 344.415 90.1006C343.619 89.3487 342.556 88.9519 341.466 88.9999H340.409V85.7148H356.091V88.9999H354.946C353.856 88.9519 352.793 89.3487 351.997 90.1006C351.201 90.8526 350.739 91.8961 350.717 92.9953V139.075L343.228 138.72Z" fill="white"/>
<path d="M377.619 88.9836H367.039C365.929 88.9358 364.847 89.3307 364.037 90.0789C363.227 90.8271 362.758 91.8654 362.735 92.9591V94.1076H359.059V85.7148H406.49V94.1076H402.904V92.9591C402.88 91.8654 402.411 90.8271 401.601 90.0789C400.791 89.3307 399.709 88.9358 398.6 88.9836H388.02V135.806H393.489V139.075H371.88V135.806H377.35L377.619 88.9836Z" fill="white"/>
<path fill-rule="evenodd" clip-rule="evenodd" d="M485.151 144.118C477.649 148.742 468.99 151.092 460.203 150.89C449.382 151.427 438.888 147.056 431.589 138.972C417.887 119.412 417.887 93.2537 431.589 73.6938C438.792 65.7701 449.118 61.5004 459.756 62.0467C468.01 62.399 476.185 63.8252 484.078 66.2902V82.0905H480.501V81.2779C480.501 65.8388 452.066 58.1643 440.173 76.4927C435.01 85.3616 432.523 95.5602 433.02 105.836C432.424 116.103 435.397 126.258 441.425 134.548C447.135 141.486 455.751 145.301 464.674 144.84C472.061 144.553 479.232 142.244 485.419 138.159L485.151 144.118ZM518.509 88.4083H529.06L528.881 136.261H523.427V139.601H544.977V136.261H539.522V88.4083H550.073C551.18 88.3595 552.259 88.763 553.066 89.5276C553.874 90.2923 554.342 91.3535 554.365 92.4713V93.645H557.942V85.0677H510.64V93.645H514.217V92.4713C514.24 91.3535 514.708 90.2923 515.516 89.5276C516.324 88.763 517.403 88.3595 518.509 88.4083ZM508.484 136.262H503.03L503.387 92.7438C503.41 91.6261 503.879 90.5649 504.686 89.8002C505.494 89.0356 506.573 88.6321 507.679 88.6809H508.484V85.3403H486.934V88.6809H488.097C489.203 88.6321 490.282 89.0356 491.09 89.8002C491.897 90.5649 492.366 91.6261 492.389 92.7438V136.262H486.934V139.603H508.484V136.262ZM568.309 92.6508L581.99 116.216V136.26H576.535V139.6H598.085V136.26H592.63V116.216L606.311 92.6508C607.761 90.2257 610.392 88.7767 613.197 88.8588H614.001V85.5181H598.89V88.8588H600.767C601.491 88.8641 602.164 89.2375 602.556 89.8519C602.927 90.4611 602.927 91.2291 602.556 91.8383L591.11 111.521L579.665 91.8383C579.294 91.2291 579.294 90.4611 579.665 89.8519C580.057 89.2375 580.729 88.8641 581.453 88.8588H583.331V85.5181H560.619V88.8588H561.423C564.228 88.7767 566.859 90.2257 568.309 92.6508Z" fill="white"/>
<path d="M122.169 136.824V125.655H123.613V126.542C125.073 128.965 127.08 131.027 129.477 132.569C131.856 134.357 134.784 135.295 137.778 135.229C140.506 135.342 143.167 134.385 145.177 132.569C147.096 130.779 148.118 128.251 147.974 125.655C148.046 123.727 147.475 121.829 146.349 120.248C144.519 118.386 142.345 116.882 139.943 115.816L136.154 113.866C126.65 108.961 121.898 103.613 121.898 97.8213C121.898 88.957 129.026 82.752 140.756 82.752C145.954 82.8718 151.113 83.6768 156.094 85.1453V95.8711H153.116V95.2506C152.778 90.0802 148.278 86.1335 143.011 86.3863C138.868 86.2243 135.146 88.8572 133.989 92.7686C133.447 96.403 135.793 100.747 141.928 104.115C147.572 106.68 152.776 110.089 157.357 114.22C159.47 116.695 160.564 119.857 160.425 123.085C160.552 127.672 158.355 132.022 154.56 134.697C149.96 137.81 144.439 139.338 138.861 139.04C133.451 138.966 128.066 138.312 122.801 137.09" fill="white"/>
<path fill-rule="evenodd" clip-rule="evenodd" d="M89.4874 135.79H84.0983L89.8408 122.472H110.779L116.609 135.79H111.22V138.986H127.829L122.44 135.435L122.97 131.173L123.677 127.267L105.478 85.7148H101.856L79.8578 135.79H74.4688V139.075H89.4874V135.79ZM100.707 98.2351L109.541 119.011H91.8721L100.707 98.2351Z" fill="white"/>
<path d="M229.344 113.194V136.034H234.763V139.335H213.797V136.034H219.216V93.0307C219.193 91.9262 218.728 90.8776 217.925 90.122C217.123 89.3664 216.051 88.9676 214.952 89.0159H213.797V85.7148H234.763V89.0159H233.431C232.332 88.9676 231.26 89.3664 230.457 90.122C229.654 90.8776 229.189 91.9262 229.166 93.0307V110.874L247.734 93.0307C248.18 92.3873 248.18 91.5329 247.734 90.8895C247.403 90.1066 246.626 89.6098 245.779 89.6404H245.335V86.3394H261.771V89.6404C258.447 89.6457 255.257 90.9589 252.887 93.2984L237.251 108.555L264.702 144.242H270.122V150.933H257.418L229.344 113.194Z" fill="white"/>
</g>
<defs>
<filter id="filter0_d" x="113.539" y="0.599609" width="414.025" height="85.92" filterUnits="userSpaceOnUse" color-interpolation-filters="sRGB">
<feFlood flood-opacity="0" result="BackgroundImageFix"/>
<feColorMatrix in="SourceAlpha" type="matrix" values="0 0 0 0 0 0 0 0 0 0 0 0 0 0 0 0 0 0 127 0"/>
<feOffset dy="10"/>
<feGaussianBlur stdDeviation="15"/>
<feColorMatrix type="matrix" values="0 0 0 0 0 0 0 0 0 0 0 0 0 0 0 0 0 0 1 0"/>
<feBlend mode="normal" in2="BackgroundImageFix" result="effect1_dropShadow"/>
<feBlend mode="normal" in="SourceGraphic" in2="effect1_dropShadow" result="shape"/>
</filter>
<filter id="filter1_d" x="0" y="42" width="644.001" height="148.934" filterUnits="userSpaceOnUse" color-interpolation-filters="sRGB">
<feFlood flood-opacity="0" result="BackgroundImageFix"/>
<feColorMatrix in="SourceAlpha" type="matrix" values="0 0 0 0 0 0 0 0 0 0 0 0 0 0 0 0 0 0 127 0"/>
<feOffset dy="10"/>
<feGaussianBlur stdDeviation="15"/>
<feColorMatrix type="matrix" values="0 0 0 0 0 0 0 0 0 0 0 0 0 0 0 0 0 0 1 0"/>
<feBlend mode="normal" in2="BackgroundImageFix" result="effect1_dropShadow"/>
<feBlend mode="normal" in="SourceGraphic" in2="effect1_dropShadow" result="shape"/>
</filter>
</defs>
</svg>
